<?xml version="1.0" standalone="no"?>
<!DOCTYPE svg PUBLIC "-//W3C//DTD SVG 1.1//EN" "http://www.w3.org/Graphics/SVG/1.1/DTD/svg11.dtd" >
<svg xmlns="http://www.w3.org/2000/svg" xmlns:xlink="http://www.w3.org/1999/xlink" version="1.1">
<metadata>
Created by FontForge 20170731 at Sun Nov  1 00:35:57 2015
 By Aleksey,,,
Copyright (c) 2010 by Jonas Hecksher, Playtype, e-Types AS. All rights reserved.
</metadata>
<defs>
<font id="BerlingskeSerifCn-Bold" horiz-adv-x="1093" >
  <font-face 
    font-family="BerlingskeSerifCn-Bold"
    font-weight="700"
    font-stretch="condensed"
    units-per-em="2048"
    panose-1="2 0 8 3 8 0 0 2 0 4"
    ascent="1536"
    descent="-512"
    x-height="1044"
    cap-height="1413"
    bbox="-737 -655 3297 2077"
    underline-thickness="102"
    underline-position="-306"
    unicode-range="U+0020-FB06"
  />
<missing-glyph horiz-adv-x="1116" 
d="M1116 0h-1116v1413h1116v-1413zM856 1024h100v47h-100v115h-10q-45 -74 -141 -133l-35 -21v-8h49v-289q0 -147 121 -147q76 -1 131 71l-4 9q-20 -12 -49 -13q-61 0 -62 64v305zM385 905h-41v299h49q103 0 103 -150t-111 -149zM414 596v8q-43 14 -57 39q-13 25 -13 80v149
h68q109 0 169 48t60 143q0 176 -223 176h-273v-8q33 -12 43 -35t11 -82v-395q1 -59 -9 -81t-45 -34v-8h269z" />
    <glyph glyph-name="f_f" unicode="ff" horiz-adv-x="1171" 
d="M711 1044v82q0 57 10 115q-31 -18 -77 -18q-46 -1 -83 33t-37 92q0 90 92 143q-29 4 -59 4q-162 0 -162 -215q0 -74 15 -170l12 -66h289zM1126 0h-514v8q70 31 84 78t15 221v637h-287v-690q0 -123 25 -170t98 -76v-8h-514v8q70 31 84 78t14 221v637h-129v12l129 88v82
q0 198 112 304t285 106q110 0 176 -43t78 -109q104 152 318 152q121 0 183 -50q63 -50 63 -118t-38 -106q-38 -39 -94 -39q-56 -1 -92 33q-37 34 -37 92q0 90 93 143q-29 4 -50 4q-154 0 -153 -215q0 -74 14 -170l12 -66h175v-100h-172v-690q0 -123 24 -170t98 -76v-8z" />
    <glyph glyph-name="f_f_i" unicode="ffi" horiz-adv-x="1699" 
d="M713 1044v64q0 74 16 139q-31 -25 -81 -25t-87 34t-37 92q0 90 92 143q-29 4 -59 4q-162 0 -162 -215q0 -74 15 -170l12 -66h291zM1677 0h-487v8q66 29 83 72t17 172v463q0 145 -20 187t-88 42h-178v-690q0 -123 24 -170t98 -76v-8h-514v8q66 29 82 74t17 197v665h-287
v-690q0 -123 25 -170t98 -76v-8h-514v8q70 31 84 78t14 221v637h-129v12l129 88v82q0 198 112 304t285 106q119 0 186 -49t70 -123q123 172 451 172q156 0 242 -54t86 -139q0 -61 -42 -103q-43 -42 -103 -42t-101 37t-41 96q0 96 98 142q-61 20 -125 20q-125 0 -185 -73
t-60 -244v-132h178q231 0 385 25h10v-817q0 -129 17 -172t83 -72v-8z" />
    <glyph glyph-name="f_f_l" unicode="ffl" horiz-adv-x="1699" 
d="M711 1044v76q0 76 10 121q-31 -18 -77 -18q-46 -1 -83 33t-37 92q0 90 92 143q-29 4 -59 4q-162 0 -162 -215q0 -74 15 -170l12 -66h289zM1151 1495q-174 0 -174 -226q0 -110 24 -225h175v-100h-172v-690q0 -123 24 -170t98 -76v-8h-514v8q66 29 82 74t17 197v665h-287
v-690q0 -123 25 -170t98 -76v-8h-514v8q70 31 84 78t14 221v637h-129v12l129 88v82q0 198 112 304t285 106q110 0 176 -43t78 -109q104 152 342 152q174 0 242 -82q100 31 205 82h10v-1284q0 -129 17 -172t83 -72v-8h-491v8q63 29 81 72q17 43 17 172v969q-6 -2 -24 -2
q-53 -1 -89 33t-36 91q0 94 94 142q-35 10 -82 10z" />
    <glyph glyph-name="f_b" unicode="fb" horiz-adv-x="1705" 
d="M1122 29q98 0 164 124t66 347q0 432 -244 434q-49 0 -102 -25v-841q55 -39 116 -39zM667 1219q-36 -1 -72 33t-36 91q0 94 94 142q-35 10 -82 10q-158 0 -170 -184q-6 -94 21 -267h174v-100h-172v-690q0 -123 25 -170t98 -76v-8h-514v8q66 29 82 74t16 197v665h-129v10
l129 90v76q0 204 110 310t292 106t253 -82q98 27 209 82h11v-600q124 133 288 133t259 -131t96 -354q-1 -160 -51 -282t-133 -190q-165 -136 -359 -137q-80 0 -208 20t-189 38v1188q-6 -2 -42 -2z" />
    <glyph glyph-name="f_h" unicode="fh" horiz-adv-x="1718" 
d="M1673 0h-481v8q61 29 78 71q16 42 16 173v473q0 97 -41 151t-112 54t-132 -31v-647q1 -131 17 -173t80 -71v-8h-490v8q66 29 83 72t18 172v969q-6 -2 -42 -2q-36 -1 -72 33t-36 91q0 94 94 142q-35 10 -82 10q-162 0 -172 -195q-2 -100 23 -256h174v-100h-172v-690
q0 -123 25 -170t98 -76v-8h-514v8q66 29 82 74t16 197v665h-129v12l129 88v76q0 204 110 310t294 106t251 -82q100 31 205 82h10v-608q55 55 139 98t169 43q123 0 195 -77t71 -242v-406q0 -201 14 -252t84 -84v-8z" />
    <glyph glyph-name="f_i" unicode="fi" horiz-adv-x="1120" 
d="M1098 0h-488v8q66 29 83 72t18 172v463q-1 145 -21 187t-88 42h-178v-690q0 -123 25 -170t98 -76v-8h-514v8q66 29 82 74t16 197v665h-129v12l131 88v64q0 428 522 428q156 0 242 -54t86 -139q0 -61 -42 -103t-102 -42t-102 37q-41 37 -41 96q0 96 99 142q-61 20 -125 20
q-126 0 -186 -73t-60 -244v-132h178q231 0 385 25h10v-817q-1 -129 17 -172t84 -72v-8z" />
    <glyph glyph-name="f_j" unicode="fj" horiz-adv-x="1107" 
d="M711 -51v766q-1 145 -21 187t-88 42h-178v-690q0 -123 25 -170t98 -76v-8h-514v8q66 29 82 74t16 197v665h-129v10l131 90v64q0 428 522 428q143 0 225 -46t93 -120q8 -41 -4 -84q-31 -88 -131 -88q-59 0 -101 37q-41 37 -41 96q0 96 99 142q-61 20 -125 20
q-126 0 -186 -73t-60 -244v-132h178q236 0 389 25h10v-952q0 -301 -207 -463q-129 -101 -249 -146l-6 13q76 47 124 162t48 266z" />
    <glyph glyph-name="f_k" unicode="fk" horiz-adv-x="1697" 
d="M1731 0h-271q-112 0 -148 35t-130 207l-158 288l109 134q139 172 141 235q0 86 -127 131v14h545v-12q-90 -23 -169 -76t-169 -157l-105 -119l271 -449q72 -119 114 -161t97 -62v-8zM1102 0h-492v8q63 29 81 72q17 43 18 172v969q-6 -2 -42 -2q-36 -1 -72 33t-36 91
q0 94 94 142q-10 2 -57 8q-37 0 -49 -2q-141 -8 -148 -191q-2 -100 23 -256h174v-100h-172v-690q0 -123 25 -170t98 -76v-8h-514v8q66 29 82 74t16 197v665h-129v12l129 88v76q0 204 110 310t294 106t251 -82q100 31 205 82h10v-1284q-1 -129 17 -172t84 -72v-8z" />
    <glyph glyph-name="f_l" unicode="fl" horiz-adv-x="1120" 
d="M571 1495q-174 0 -174 -226q0 -110 25 -225h174v-100h-172v-690q0 -123 25 -170t98 -76v-8h-514v8q66 29 82 74t16 197v665h-129v10l129 90v76q0 204 110 310t294 106t251 -82q100 31 205 82h10v-1284q-1 -129 17 -172t84 -72v-8h-492v8q63 29 81 72q17 43 18 172v969
q-6 -2 -42 -2q-36 -1 -72 33t-36 91q0 94 94 142q-35 10 -82 10z" />
    <glyph glyph-name="f_t" unicode="ft" horiz-adv-x="1226" 
d="M707 944h-283v-690q0 -123 25 -170t98 -76v-8h-514v8q66 29 82 74t16 197v665h-129v14l129 86v82q0 198 109 304t280 106q121 0 183 -50q63 -50 63 -118t-38 -106q-38 -39 -93 -39q-55 -1 -92 33t-37 92q0 90 92 143q-29 4 -49 4q-154 0 -154 -215q0 -74 15 -170l12 -66
h321q135 102 236 256h16v-256h217v-100h-217v-676q0 -68 37 -106q38 -38 94 -37q56 0 115 25l6 -11q-119 -156 -289 -155q-252 0 -251 321v639z" />
    <glyph glyph-name="f_f_b" unicode="ffb" horiz-adv-x="2285" 
d="M711 1044v76q0 76 10 121q-31 -18 -77 -18q-46 -1 -83 33t-37 92q0 90 92 143q-29 4 -59 4q-162 0 -162 -215q0 -74 15 -170l12 -66h289zM1702 29q98 0 164 124t66 347q-1 432 -244 434q-50 0 -103 -25v-841q55 -39 117 -39zM1264 1219q-53 -1 -89 33t-36 91q0 94 94 142
q-35 10 -82 10q-158 0 -170 -184q-6 -94 20 -267h175v-100h-172v-690q0 -123 24 -170t98 -76v-8h-514v8q66 29 82 74t17 197v665h-287v-690q0 -123 25 -170t98 -76v-8h-514v8q70 31 84 78t14 221v637h-129v12l129 88v82q0 198 112 304t285 106q110 0 176 -43t78 -109
q104 152 342 152q170 0 242 -82q98 27 209 82h10v-600q123 133 288 133t260 -131t95 -354q0 -160 -50 -282t-133 -190q-165 -136 -359 -137q-80 0 -208 20t-190 38v1188q-6 -2 -24 -2z" />
    <glyph glyph-name="f_f_f" unicode="fff" horiz-adv-x="1746" 
d="M1290 1044v82q0 76 15 131q-39 -35 -93 -35t-90 34q-37 34 -37 92q0 90 93 143q-29 4 -50 4q-154 0 -153 -215q0 -74 14 -170l12 -66h289zM711 1044v82q0 57 10 115q-31 -18 -77 -18q-46 -1 -83 33t-37 92q0 90 92 143q-29 4 -59 4q-162 0 -162 -215q0 -74 15 -170
l12 -66h289zM1706 0h-514v8q70 31 84 78t14 221v637h-286v-690q0 -123 24 -170t98 -76v-8h-514v8q70 31 84 78t15 221v637h-287v-690q0 -123 25 -170t98 -76v-8h-514v8q70 31 84 78t14 221v637h-129v12l129 88v82q0 198 112 304t285 106q110 0 176 -43t78 -109
q104 152 318 152q119 0 181 -49t65 -127q98 176 333 176q121 0 183 -50t63 -118q0 -68 -38 -106q-38 -39 -93 -39q-55 -1 -92 33t-37 92q0 90 92 143q-29 4 -49 4q-154 0 -154 -215q0 -74 15 -170l12 -66h174v-100h-172v-690q0 -123 25 -170t98 -76v-8z" />
    <glyph glyph-name="f_f_h" unicode="ffh" horiz-adv-x="2297" 
d="M711 1044v76q0 76 10 121q-31 -18 -77 -18q-46 -1 -83 33t-37 92q0 90 92 143q-29 4 -59 4q-162 0 -162 -215q0 -74 15 -170l12 -66h289zM2253 0h-481v8q61 29 77 71t17 173v473q0 97 -41 151t-112 54t-132 -31v-647q0 -131 16 -173t80 -71v-8h-489v8q66 29 83 72t17 172
v969q-6 -2 -24 -2q-53 -1 -89 33t-36 91q0 94 94 142q-35 10 -82 10q-162 0 -172 -195q-2 -100 22 -256h175v-100h-172v-690q0 -123 24 -170t98 -76v-8h-514v8q66 29 82 74t17 197v665h-287v-690q0 -123 25 -170t98 -76v-8h-514v8q70 31 84 78t14 221v637h-129v12l129 88v82
q0 198 112 304t285 106q110 0 176 -43t78 -109q104 152 342 152q174 0 242 -82q100 31 205 82h10v-608q55 55 138 98t169 43q123 0 195 -77t71 -242v-406q0 -201 14 -252t85 -84v-8z" />
    <glyph glyph-name="f_f_j" unicode="ffj" horiz-adv-x="1687" 
d="M713 1044v64q0 74 16 139q-31 -25 -81 -25t-87 34t-37 92q0 90 92 143q-29 4 -59 4q-162 0 -162 -215q0 -74 15 -170l12 -66h291zM1290 -51v766q0 145 -20 187t-88 42h-178v-690q0 -123 24 -170t98 -76v-8h-514v8q66 29 82 74t17 197v665h-287v-690q0 -123 25 -170
t98 -76v-8h-514v8q70 31 84 78t14 221v637h-129v12l129 88v82q0 198 112 304t285 106q119 0 186 -49t70 -123q123 172 451 172q160 0 241 -56t80 -145q0 -59 -40 -98t-98 -39q-60 0 -101 37t-41 96q0 96 98 142q-61 20 -125 20q-125 0 -185 -73t-60 -244v-132h178
q236 0 389 25h10v-952q0 -137 -47 -249t-126 -182q-132 -118 -284 -178l-6 13q76 47 124 162t48 266z" />
    <glyph glyph-name="f_f_k" unicode="ffk" horiz-adv-x="2277" 
d="M711 1044v76q0 76 10 121q-31 -18 -77 -18q-46 -1 -83 33t-37 92q0 90 92 143q-29 4 -59 4q-162 0 -162 -215q0 -74 15 -170l12 -66h289zM2310 0h-270q-111 0 -148 35t-131 207l-157 288l108 134q139 172 141 235q0 86 -127 131v14h545v-12q-90 -23 -169 -76t-169 -157
l-104 -119l270 -449q72 -119 115 -161t96 -62v-8zM1681 0h-491v8q63 29 81 72q17 43 17 172v969q-6 -2 -24 -2q-53 -1 -89 33t-36 91q0 94 94 142q-10 2 -57 8q-37 0 -50 -2q-141 -8 -147 -191q-2 -100 22 -256h175v-100h-172v-690q0 -123 24 -170t98 -76v-8h-514v8
q66 29 82 74t17 197v665h-287v-690q0 -123 25 -170t98 -76v-8h-514v8q70 31 84 78t14 221v637h-129v12l129 88v82q0 198 112 304t285 106q110 0 176 -43t78 -109q104 152 342 152q174 0 242 -82q100 31 205 82h10v-1284q0 -129 17 -172t83 -72v-8z" />
    <glyph glyph-name=".notdef" horiz-adv-x="1116" 
d="M1116 0h-1116v1413h1116v-1413zM856 1024h100v47h-100v115h-10q-45 -74 -141 -133l-35 -21v-8h49v-289q0 -147 121 -147q76 -1 131 71l-4 9q-20 -12 -49 -13q-61 0 -62 64v305zM385 905h-41v299h49q103 0 103 -150t-111 -149zM414 596v8q-43 14 -57 39q-13 25 -13 80v149
h68q109 0 169 48t60 143q0 176 -223 176h-273v-8q33 -12 43 -35t11 -82v-395q1 -59 -9 -81t-45 -34v-8h269z" />
    <glyph glyph-name=".null" horiz-adv-x="0" 
 />
    <glyph glyph-name="nonmarkingreturn" horiz-adv-x="682" 
 />
    <glyph glyph-name="space" unicode=" " horiz-adv-x="413" 
 />
    <glyph glyph-name="exclam" unicode="!" horiz-adv-x="534" 
d="M98 1252q0 96 47 143t122 47t122 -47t47 -142t-72 -372t-83 -463h-25q-10 186 -84 462t-74 372zM440 144q0 -72 -51 -120t-122 -48t-122 48q-51 50 -51 120t51 121q51 50 122 50t122 -50t51 -121z" />
    <glyph glyph-name="quotedbl" unicode="&#x22;" horiz-adv-x="763" 
d="M569 1442q57 0 97 -40t39 -90q1 -50 -59 -190t-64 -233h-23q-6 94 -66 233q-61 138 -61 188t40 91t97 41zM66 1310q0 50 39 91t97 41t97 -40t39 -90t-60 -190t-63 -233h-22q-6 94 -67 233q-60 138 -60 188z" />
    <glyph glyph-name="numbersign" unicode="#" horiz-adv-x="1062" 
d="M631 565l49 283h-250l-51 -283h252zM104 479v86h189l49 283h-238v86h254l84 479h86l-84 -479h252l84 479h86l-84 -479h176v-86h-192l-49 -283h241v-86h-256l-84 -479h-86l84 479h-251l-84 -479h-86l84 479h-175z" />
    <glyph glyph-name="dollar" unicode="$" horiz-adv-x="1062" 
d="M709 246q0 127 -156 254v-457q68 15 112 69t44 134zM356 1180q0 -125 150 -240v420q-62 -10 -106 -56t-44 -124zM553 -174h-86v143q-205 4 -354 72v381h12q92 -182 173 -274t169 -107v524q-174 127 -231 189q-121 130 -121 288t109 265q110 106 282 123v114h82v-110
q139 -2 289 -66v-326h-11q-150 274 -278 312v-475q4 -4 49 -35q45 -30 87 -62q42 -30 60 -48q18 -16 48 -48q30 -31 40 -49t33 -56t35 -96q12 -59 12 -96q0 -170 -112 -283t-287 -131v-149z" />
    <glyph glyph-name="percent" unicode="%" horiz-adv-x="1548" 
d="M430 707q58 -1 110 71t78 169q27 97 27 183t-33 162t-88 76q-90 0 -149 -150t-60 -315q0 -72 29 -134q28 -62 86 -62zM1147 55q93 1 157 141t64 287q0 80 -32 157t-89 77q-90 0 -148 -151t-59 -314q0 -74 29 -136t78 -61zM1102 -25q-127 1 -210 93t-83 231q0 186 119 339
t284 153q117 1 184 -87t66 -217q0 -180 -100 -346t-260 -166zM870 1225q-80 0 -151 37q16 -57 16 -134q0 -172 -101 -338t-253 -165q-129 0 -212 94t-83 235q0 180 119 334t278 154q85 0 191 -73t192 -73q164 0 351 203h81l-976 -1595h-97l865 1409l-7 4q-133 -92 -213 -92z
" />
    <glyph glyph-name="ampersand" unicode="&#x26;" horiz-adv-x="1400" 
d="M840 1106q0 142 -48 209t-108 67t-94 -36q-35 -36 -35 -105q0 -123 156 -367q129 90 129 232zM336 515q0 -120 90 -241t201 -120q80 -1 172 67q-80 119 -189 275t-147 217q-127 -78 -127 -198zM1423 0h-460q-3 4 -53 66t-76 104q-201 -201 -412 -201q-158 0 -259 123
q-101 122 -101 262t79 222q80 82 293 184q-100 156 -100 310t112 262q112 110 281 110q125 0 220 -65t95 -189q0 -209 -305 -354q90 -135 262 -373q76 127 76 227q0 133 -139 154v8h485v-8q-55 -16 -105 -60t-82 -90q-32 -45 -93 -137t-105 -149q174 -240 245 -312t142 -86
v-8z" />
    <glyph glyph-name="quotesingle" unicode="'" horiz-adv-x="401" 
d="M66 1310q0 50 39 91t97 41t97 -40t39 -90t-60 -190t-63 -233h-22q-6 94 -67 233q-60 138 -60 188z" />
    <glyph glyph-name="parenleft" unicode="(" horiz-adv-x="673" 
d="M115 637q0 151 53 299t138 266q155 214 319 346h20q-238 -451 -237 -919q0 -277 60 -491t177 -425h-20q-156 118 -319 344q-85 119 -138 274t-53 306z" />
    <glyph glyph-name="parenright" unicode=")" horiz-adv-x="673" 
d="M264 629q0 473 -235 919h22q164 -132 318 -349q84 -118 136 -266t52 -300q0 -151 -53 -305q-86 -249 -301 -473q-78 -83 -154 -142h-20q117 211 176 426t59 490z" />
    <glyph glyph-name="asterisk" unicode="*" horiz-adv-x="772" 
d="M670 868l-176 -125l-109 279l-111 -279l-174 123l244 185l-311 30l71 199l258 -178l-77 311h213l-88 -311l262 178l65 -199l-309 -30z" />
    <glyph glyph-name="plus" unicode="+" horiz-adv-x="1062" 
d="M604 147h-145v359h-336v143h336v359h145v-359h334v-143h-334v-359z" />
    <glyph glyph-name="comma" unicode="," horiz-adv-x="462" 
d="M72 178q0 55 42 96t110 41t115 -49q46 -49 46 -135t-103 -211t-214 -207l-7 4q90 133 91 260q0 37 -40 91t-40 110z" />
    <glyph glyph-name="hyphen" unicode="-" horiz-adv-x="538" 
d="M492 489h-447v193h447v-193z" />
    <glyph glyph-name="period" unicode="." horiz-adv-x="462" 
d="M403 144q0 -70 -51 -120t-122 -50q-72 0 -122 50t-50 120t50 121q52 50 122 50t122 -50q51 -50 51 -121z" />
    <glyph glyph-name="slash" unicode="/" horiz-adv-x="716" 
d="M119 -31h-115l594 1473h113z" />
    <glyph glyph-name="zero" unicode="0" horiz-adv-x="1062" 
d="M532 20q98 0 131 168q31 168 31 506t-32 516q-33 178 -130 179q-96 -1 -129 -179t-33 -528t27 -476q26 -127 73 -164q27 -22 62 -22zM530 -31q-160 1 -266 101q-196 186 -196 623t201 640q108 109 263 109q228 0 346 -204t118 -516t-107 -525q-53 -106 -145 -167
t-214 -61z" />
    <glyph glyph-name="one" unicode="1" horiz-adv-x="1062" 
d="M825 0h-559v8q88 39 116 92t28 183v860q-82 -37 -224 -64v23q256 80 496 336h18v-1155q0 -129 24 -183t101 -92v-8z" />
    <glyph glyph-name="two" unicode="2" horiz-adv-x="1062" 
d="M84 0v31q76 111 232 325t227 331t97 199t26 165q0 123 -73 207t-191 85q-118 0 -197 -83q86 -6 146 -48q61 -42 61 -116q0 -76 -47 -123t-115 -47t-118 49t-50 131q0 116 125 226t317 110t318 -104q125 -104 125 -267q-1 -105 -59 -203t-130 -161t-182 -157
q-169 -145 -285 -300h645l-24 -250h-848z" />
    <glyph glyph-name="three" unicode="3" horiz-adv-x="1062" 
d="M119 1178v235h790v-8l-346 -475q170 -39 288 -161t118 -302q0 -219 -160 -358t-387 -140q-162 0 -261 67t-100 171q-1 72 49 121t120 49t117 -45q46 -46 46 -110t-33 -109t-77 -66q39 -23 104 -22q125 0 209 102t84 261t-100 244t-250 95v16l309 435h-520z" />
    <glyph glyph-name="four" unicode="4" horiz-adv-x="1062" 
d="M977 0h-553v8q92 31 119 81t26 181v115h-536v8l577 1028h246v-889h139v-147h-139v-115q0 -135 20 -183t101 -79v-8zM569 532v664l-370 -664h370z" />
    <glyph glyph-name="five" unicode="5" horiz-adv-x="1062" 
d="M868 1178h-604l-43 -414q55 45 145 82t183 37q178 0 297 -116t119 -310q0 -231 -167 -359t-376 -129q-164 0 -256 68t-92 174q0 70 47 117t116 47t115 -45q46 -44 45 -108t-33 -109t-77 -68q41 -23 98 -22q141 1 211 111t70 283t-77 253t-193 80t-224 -76l-27 12l72 727
h651v-235z" />
    <glyph glyph-name="six" unicode="6" horiz-adv-x="1062" 
d="M369 500q0 -190 40 -336q40 -145 144 -146q160 0 160 379q1 174 -61 286t-169 112q-47 0 -100 -25q-14 -80 -14 -270zM616 889q176 0 280 -110q104 -111 105 -309t-123 -350t-342 -151q-218 0 -345 165q-126 165 -125 427q0 354 239 598q240 244 594 283v-33
q-199 -37 -332 -195t-176 -393q111 68 225 68z" />
    <glyph glyph-name="seven" unicode="7" horiz-adv-x="1062" 
d="M90 1165v248h897v-8q-175 -334 -299 -721t-153 -684h-295q27 131 100 298q74 167 142 288q69 121 181 308t158 271h-731z" />
    <glyph glyph-name="eight" unicode="8" horiz-adv-x="1062" 
d="M342 1148q0 -100 68 -170q68 -68 204 -136q94 100 94 246q1 288 -190 286q-88 0 -132 -63t-44 -163zM309 340q-1 -137 55 -221t154 -84t154 71q55 72 55 192q-1 120 -75 200t-224 159q-119 -115 -119 -317zM518 -31q-194 0 -327 93q-132 93 -132 268q0 133 89 222
t235 134q-161 92 -231 172t-70 232t126 252t322 100t315 -91q120 -91 120 -218q-1 -203 -306 -316q255 -137 313 -279q28 -69 27 -153q0 -190 -143 -303q-144 -113 -338 -113z" />
    <glyph glyph-name="nine" unicode="9" horiz-adv-x="1062" 
d="M688 807q0 279 -41 431t-149 151q-158 0 -158 -373q0 -178 62 -284t182 -107q51 0 90 18q14 94 14 164zM517 1442q216 0 345 -167t129 -431q-1 -352 -239 -595t-590 -280v31q197 32 330 190t176 402q-115 -59 -228 -60q-176 0 -281 108t-105 304t123 348q124 150 340 150
z" />
    <glyph glyph-name="colon" unicode=":" horiz-adv-x="462" 
d="M230 725q-72 0 -122 50t-51 122t51 122t122 50t122 -51q51 -51 51 -121t-51 -121t-122 -51zM403 144q0 -70 -51 -120t-122 -50q-72 0 -122 50t-50 120t50 121q52 50 122 50t122 -50q51 -50 51 -121z" />
    <glyph glyph-name="semicolon" unicode=";" horiz-adv-x="462" 
d="M230 725q-72 0 -122 50t-51 122t51 122t122 50t122 -51q51 -51 51 -121t-51 -121t-122 -51zM72 177q0 56 42 97t110 41t115 -49q46 -49 46 -135t-103 -211t-214 -207l-7 4q90 133 91 260q0 37 -40 91t-40 109z" />
    <glyph glyph-name="less" unicode="&#x3c;" horiz-adv-x="1079" 
d="M940 152l-819 372v109l819 373v-93l-608 -335l608 -336v-90z" />
    <glyph glyph-name="equal" unicode="=" horiz-adv-x="1062" 
d="M938 328h-815v145h815v-145zM938 682h-815v143h815v-143z" />
    <glyph glyph-name="greater" unicode="&#x3e;" horiz-adv-x="1079" 
d="M942 524l-819 -372v90l608 336l-608 335v93l819 -373v-109z" />
    <glyph glyph-name="question" unicode="?" horiz-adv-x="892" 
d="M608 144q0 -72 -50 -120t-122 -48t-121 48q-49 50 -49 120t49 121q49 50 121 50t122 -50t50 -121zM426 418q0 184 67 393t67 323t-63 176t-151 62t-153 -67q75 -5 125 -49t50 -112t-44 -116q-45 -48 -111 -47q-66 0 -112 46t-46 124q0 117 110 204q109 87 285 87t286 -86
t110 -243t-137 -298q-57 -59 -115 -117q-139 -139 -143 -280h-25z" />
    <glyph glyph-name="at" unicode="@" horiz-adv-x="1507" 
d="M662 332q0 -88 32 -130t76 -42q43 0 96 22v338l-65 8q-139 0 -139 -196zM57 477q0 317 200 535t507 219q307 0 501 -182t193 -463q0 -244 -131 -392t-326 -149q-117 0 -133 117q-68 -63 -116 -92t-130 -29q-81 0 -142 61q-60 61 -60 164q0 135 98 217t348 88v123
q0 211 -176 211q-68 0 -129 -33q55 -8 88 -42t33 -78t-34 -81q-34 -36 -83 -36t-83 33t-33 84q0 96 100 156t250 61q276 0 303 -217q8 -35 8 -88v-471q0 -66 33 -66q61 0 114 121t54 313q1 260 -143 428t-382 168q-176 0 -302 -100q-236 -187 -236 -576q0 -295 144 -473
t392 -178q183 0 328 78l21 -19q-168 -117 -385 -116q-293 -1 -492 193t-199 511z" />
    <glyph glyph-name="A" unicode="A" horiz-adv-x="1292" 
d="M735 590l-174 643l-180 -643h354zM1284 0h-541v8q51 14 74 41t23 93t-82 370h-400q-72 -248 -72 -333t28 -118q26 -33 89 -53v-8h-397v8q74 39 124 138t142 407l254 860h262l273 -930q80 -276 120 -358t103 -117v-8z" />
    <glyph glyph-name="B" unicode="B" horiz-adv-x="1175" 
d="M559 0h-508v8q78 27 100 75t21 181v885q0 131 -22 180q-23 49 -99 76v8h516q508 0 508 -328q0 -256 -334 -329v-8q164 -16 278 -104t114 -245q0 -203 -161 -301t-413 -98zM477 760h68q111 0 170 80t59 223q0 283 -223 283h-74v-586zM477 68h84q119 0 185 78t65 233
q0 157 -70 235t-186 78h-78v-624z" />
    <glyph glyph-name="C" unicode="C" horiz-adv-x="1210" 
d="M760 -31q-308 1 -498 185t-190 536q0 190 58 338t158 236q203 178 482 178q197 0 348 -70l6 -319h-8q-88 167 -174 243t-186 76q-166 0 -260 -170t-94 -492t96 -500q98 -177 280 -177t367 360h12l-27 -348q-141 -76 -370 -76z" />
    <glyph glyph-name="D" unicode="D" horiz-adv-x="1392" 
d="M473 70h131q403 0 404 655q0 287 -100 453t-281 165h-154v-1273zM627 0h-578v8q77 29 99 77t22 179v885q0 131 -22 178t-99 78v8h604q324 0 500 -167t176 -515q0 -347 -179 -539t-523 -192z" />
    <glyph glyph-name="E" unicode="E" horiz-adv-x="1052" 
d="M47 0v8q79 29 101 77t22 179v885q0 129 -23 177t-100 79v8h889v-340h-10q-109 170 -162 220t-152 50h-139v-583h127q86 0 132 34t108 130h10v-392h-10q-60 92 -108 125t-132 33h-127v-620h119q120 0 184 50t199 226q14 18 20 27h13l-35 -373h-926z" />
    <glyph glyph-name="F" unicode="F" horiz-adv-x="1024" 
d="M621 0h-574v8q79 29 101 77t22 179v885q0 129 -23 177t-100 79v8h922v-340h-13q-138 219 -187 240q-72 30 -142 30h-154v-600h164q86 0 131 34t109 130h10v-393h-10q-59 92 -107 126t-133 34h-164v-404q0 -125 28 -177t120 -85v-8z" />
    <glyph glyph-name="G" unicode="G" horiz-adv-x="1331" 
d="M932 430q0 100 -25 154t-94 90v8h494v-8q-59 -37 -77 -79t-18 -163v-371q-287 -92 -475 -92q-297 -1 -482 183t-185 544q0 186 62 332t168 236q213 178 491 178q233 0 376 -66l2 -334h-10q-186 332 -385 332q-168 0 -269 -171t-101 -495t98 -495q98 -170 278 -170
q89 0 152 23v364z" />
    <glyph glyph-name="H" unicode="H" horiz-adv-x="1429" 
d="M1380 0h-546v8q78 29 100 77t20 179v420h-481v-420q0 -131 22 -179t101 -77v-8h-549v8q79 29 101 77t22 179v887q0 129 -22 176t-101 78v8h549v-8q-80 -31 -102 -78t-21 -176v-385h481v385q0 129 -21 176q-22 47 -99 78v8h546v-8q-78 -31 -100 -78t-23 -176v-887
q0 -131 23 -179t100 -77v-8z" />
    <glyph glyph-name="I" unicode="I" horiz-adv-x="643" 
d="M596 0h-549v8q79 29 101 76t22 176v891q0 129 -22 176t-101 78v8h549v-8q-80 -31 -102 -78t-21 -176v-891q0 -129 22 -176t101 -76v-8z" />
    <glyph glyph-name="J" unicode="J" horiz-adv-x="643" 
d="M170 -12v1163q0 127 -24 175t-101 79v8h553v-8q-80 -31 -102 -79t-23 -175v-991q0 -102 -34 -192t-83 -151q-93 -114 -241 -192q-56 -28 -117 -53v10q172 100 172 406z" />
    <glyph glyph-name="K" unicode="K" horiz-adv-x="1345" 
d="M1372 0h-588v8q50 16 70 34t20 64q0 45 -81 211l-191 373l-129 -153v-277q0 -129 23 -176t102 -76v-8h-555v8q79 29 103 77t24 175v891q0 127 -24 175t-103 79v8h555v-8q-80 -31 -102 -78t-23 -176v-516l289 377q150 195 149 276q0 43 -22 70q-23 27 -78 47v8h502v-8
q-104 -45 -180 -107t-205 -217l-125 -151l356 -666q68 -127 108 -175t105 -81v-8z" />
    <glyph glyph-name="L" unicode="L" horiz-adv-x="1009" 
d="M47 0v8q79 29 101 77t22 175v891q0 127 -25 176t-98 78v8h557v-8q-82 -33 -106 -85t-25 -175v-1075h133q60 0 114 32t103 85q49 54 150 186h14l-37 -373h-903z" />
    <glyph glyph-name="M" unicode="M" horiz-adv-x="1683" 
d="M74 1413h452l324 -1005l336 1005h422v-8q-80 -45 -103 -102t-16 -164l37 -674q14 -268 34 -340t109 -117v-8h-541v8q61 33 86 74q36 59 23 287l-39 774h-4l-381 -1147h-133l-371 1171h-4l-37 -686q-4 -69 -4 -195t27 -186t102 -92v-8h-389v8q96 45 125 133t41 344l25 486
l8 174q0 119 -23 167t-106 93v8z" />
    <glyph glyph-name="N" unicode="N" horiz-adv-x="1380" 
d="M1221 -10h-127l-822 1136v-675q0 -300 60 -377q29 -37 90 -66v-8h-397v8q59 27 87 66q56 78 56 377v706q0 97 -34 153t-118 95v8h410l690 -952v506q0 302 -59 373q-29 36 -88 65v8h395v-8q-59 -29 -87 -65q-56 -72 -56 -373v-977z" />
    <glyph glyph-name="O" unicode="O" horiz-adv-x="1437" 
d="M400 706q0 -670 318 -671q318 0 318 671t-317 670q-319 0 -319 -670zM716 -31q-280 1 -464 191t-184 532t189 546t463 204t462 -190t188 -531q0 -342 -187 -547t-467 -205z" />
    <glyph glyph-name="P" unicode="P" horiz-adv-x="1157" 
d="M473 676h90q240 0 240 348q0 156 -50 238t-173 81h-107v-667zM621 0h-572v8q77 29 99 77t22 179v885q0 129 -24 178t-97 78v8h582q247 0 363 -93t116 -297t-128 -309t-366 -106h-143v-338q0 -125 28 -177t120 -85v-8z" />
    <glyph glyph-name="Q" unicode="Q" horiz-adv-x="1437" 
d="M400 706q0 -670 318 -671q318 0 318 671t-317 670q-319 0 -319 -670zM717 -31q-281 1 -465 191t-184 532t189 546t463 204t462 -190t188 -529q0 -273 -121 -461t-319 -258q309 -154 519 -220t421 -65q127 1 264 50v-9q-52 -82 -124 -147q-140 -127 -308 -127
q-295 0 -737 334l-201 151q-16 -2 -47 -2z" />
    <glyph glyph-name="R" unicode="R" horiz-adv-x="1249" 
d="M473 696h84q109 0 177 80t67 244q1 164 -57 244t-164 79h-107v-647zM1290 0h-239q-139 0 -182 30q-42 30 -107 171l-197 430h-92v-361q0 -129 22 -180t97 -82v-8h-545v8q79 29 101 77t22 179v885q0 129 -25 178t-98 78v8h553q518 0 518 -371q0 -236 -284 -356l262 -477
q61 -113 99 -151t95 -50v-8z" />
    <glyph glyph-name="S" unicode="S" horiz-adv-x="960" 
d="M76 416h10q102 -199 188 -288t178 -89t151 55q61 56 61 146t-60 167t-147 139q-86 62 -172 128t-147 161q-60 95 -60 209q0 176 126 287t320 111q150 0 305 -66v-321h-8q-88 159 -165 237q-76 78 -158 78t-131 -50t-49 -128q-1 -140 152 -251q181 -128 264 -199
q171 -146 171 -343q0 -196 -130 -313q-129 -117 -337 -117t-362 72v375z" />
    <glyph glyph-name="T" unicode="T" horiz-adv-x="1210" 
d="M887 0h-565v8q82 29 106 78t25 176v1084h-50q-92 0 -151 -48t-199 -225h-8l25 340h1071l24 -340h-10q-139 178 -199 225t-151 48h-49v-1084q0 -127 24 -176t107 -78v-8z" />
    <glyph glyph-name="U" unicode="U" horiz-adv-x="1329" 
d="M1063 397v588q0 223 -29 304t-114 116v8h378v-8q-80 -35 -108 -115t-27 -305v-594q0 -209 -121 -315t-356 -107q-516 0 -516 422v760q0 127 -24 175t-101 79v8h553v-8q-78 -31 -102 -79t-23 -175v-789q0 -287 279 -286q150 0 230 80t81 241z" />
    <glyph glyph-name="V" unicode="V" horiz-adv-x="1263" 
d="M4 1413h533v-8q-47 -16 -67 -41q-20 -26 -19 -94q0 -68 77 -369l189 -723l178 676q82 313 82 392t-23 109t-80 50v8h386v-8q-51 -29 -85 -73q-67 -87 -180 -474l-247 -858h-261l-262 930q-76 266 -116 352q-41 86 -105 123v8z" />
    <glyph glyph-name="W" unicode="W" horiz-adv-x="1896" 
d="M6 1413h529v-8q-47 -16 -65 -40t-19 -107q0 -83 59 -353l149 -702l177 702q35 158 24 248q-23 129 -50 177q-28 48 -87 75v8h510v-8q-45 -16 -65 -42q-20 -25 -19 -97q0 -72 35 -226l182 -831l168 651q59 234 59 336t-24 142q-25 40 -84 67v8h407v-8q-74 -39 -129 -144
t-137 -403l-233 -858h-248l-219 911l-242 -911h-252l-215 899q-68 285 -107 377q-40 92 -104 129v8z" />
    <glyph glyph-name="X" unicode="X" horiz-adv-x="1310" 
d="M1307 0h-596v8q109 39 108 111q0 57 -117 260l-122 213l-131 -215q-96 -156 -97 -240q0 -47 27 -76t86 -53v-8h-463v8q76 42 134 102t140 181l259 381l-275 485q-57 101 -107 157t-116 91v8h602v-10q-104 -39 -104 -112t122 -281l82 -142l103 174q96 164 96 241t-104 120
v10h436v-8q-98 -55 -163 -129t-183 -264l-140 -221l312 -541q61 -109 103 -158t108 -84v-8z" />
    <glyph glyph-name="Y" unicode="Y" horiz-adv-x="1167" 
d="M858 0h-553v8q78 29 102 78t23 178v334l-184 428q-86 198 -131 268t-109 111v8h543v-8q-47 -23 -66 -46q-18 -23 -18 -81t80 -252l137 -344l131 336q66 162 66 256t-95 131v8h379v-8q-63 -27 -117 -108t-141 -285l-172 -410v-338q0 -129 24 -178t101 -78v-8z" />
    <glyph glyph-name="Z" unicode="Z" horiz-adv-x="1067" 
d="M31 0v8l643 1335h-164q-139 0 -213 -48t-231 -228h-9l37 346h926v-8l-637 -1335h188q82 0 119 5t91 37t106 92q51 60 141 179h10l-37 -383h-970z" />
    <glyph glyph-name="bracketleft" unicode="[" horiz-adv-x="694" 
d="M623 -287h-478v1835h478v-63h-203v-1708h203v-64z" />
    <glyph glyph-name="backslash" unicode="\" horiz-adv-x="716" 
d="M711 -31h-113l-594 1473h115z" />
    <glyph glyph-name="bracketright" unicode="]" horiz-adv-x="688" 
d="M547 -287h-477v64h202v1708h-202v63h477v-1835z" />
    <glyph glyph-name="asciicircum" unicode="^" horiz-adv-x="874" 
d="M725 928h-41l-248 311l-246 -311h-40l208 485h154z" />
    <glyph glyph-name="underscore" unicode="_" horiz-adv-x="868" 
d="M799 -313h-731v145h731v-145z" />
    <glyph glyph-name="grave" unicode="`" horiz-adv-x="614" 
d="M463 1163h-14q-238 86 -381 250h266q35 -127 129 -250z" />
    <glyph glyph-name="a" unicode="a" horiz-adv-x="970" 
d="M494 551q-164 0 -164 -234q0 -102 38 -152q68 -90 201 -22v398q-51 10 -75 10zM43 242q0 346 526 358v145q0 250 -207 250q-76 0 -153 -39q65 -10 105 -49t40 -93t-40 -96t-98 -42t-99 39t-41 100q0 111 120 183t293 71q322 0 355 -254q8 -43 8 -106v-433q0 -112 28 -146
t105 -44v-8q-45 -39 -117 -69t-137 -29q-141 0 -160 137q-145 -141 -265 -141t-192 72q-72 73 -71 194z" />
    <glyph glyph-name="b" unicode="b" horiz-adv-x="1107" 
d="M522 29q98 0 165 125t67 347q0 431 -244 433q-53 0 -102 -25v-841q55 -39 114 -39zM111 1135q0 218 -36 262q-19 23 -71 45v8q211 18 393 86h11v-600q124 133 288 133t259 -131t96 -354q-1 -160 -51 -282t-133 -190q-165 -136 -359 -137q-80 0 -207 20t-190 38v1102z" />
    <glyph glyph-name="c" unicode="c" horiz-adv-x="858" 
d="M471 -23q-188 -1 -303 139t-115 390t135 406q135 157 351 157q127 0 205 -57q78 -56 79 -136q0 -80 -42 -126t-102 -48q-60 0 -104 41q-43 41 -43 97t27 100q27 45 70 68q-10 10 -56 10q-240 0 -239 -412q0 -221 80 -323q80 -103 204 -103t222 90l10 -8
q-96 -203 -230 -258q-67 -27 -149 -27z" />
    <glyph glyph-name="d" unicode="d" horiz-adv-x="1103" 
d="M550 1014q-92 0 -146 -124t-54 -327q0 -434 234 -434q55 0 112 33v774q-55 78 -146 78zM404 -25q-154 -1 -250 133t-96 378t136 414q136 169 359 169q39 0 143 -16v157q0 115 -22 153q-23 38 -105 73v8q188 18 410 92h8v-1182q1 -160 19 -210t94 -85v-10
q-193 -12 -393 -74h-9l-2 158q-139 -158 -292 -158z" />
    <glyph glyph-name="e" unicode="e" horiz-adv-x="915" 
d="M490 1016q-68 0 -104 -94t-42 -308l270 27q0 203 -27 289q-29 86 -97 86zM477 -23q-197 1 -311 141t-113 389q0 249 123 405t332 157q164 0 262 -98t98 -303v-93h-524q0 -169 71 -281t211 -112t248 101l9 -11q-150 -295 -406 -295z" />
    <glyph glyph-name="f" unicode="f" horiz-adv-x="591" 
d="M547 0h-514v8q70 31 84 78t14 221v637h-129v12l129 88v82q0 198 109 304t280 106q121 0 183 -50q63 -50 63 -118t-38 -106q-38 -39 -93 -39q-55 -1 -92 33t-37 92q0 90 92 143q-29 4 -49 4q-154 0 -154 -215q0 -74 15 -170l12 -66h174v-100h-172v-690q0 -123 25 -170
t98 -76v-8z" />
    <glyph glyph-name="g" unicode="g" horiz-adv-x="917" 
d="M451 399q129 0 129 308q0 163 -31 237t-98 74q-129 0 -129 -309q0 -160 30 -235t99 -75zM455 -442q131 0 218 72t87 171q0 141 -197 148q-266 12 -278 12q-102 -63 -103 -186q0 -89 71 -153t202 -64zM926 -88q0 -184 -161 -294t-351 -110t-313 70q-124 70 -124 166
t77 152t175 73q-158 37 -157 172q0 72 49 137t131 107q-203 86 -203 317q0 170 110 268t290 99q94 0 180 -35l319 33l-14 -137l-176 22q92 -92 92 -248t-111 -255q-111 -98 -290 -99q-98 0 -170 25q-41 -51 -41 -90q-1 -68 122 -74l254 -10q144 -4 228 -81t84 -208z" />
    <glyph glyph-name="h" unicode="h" horiz-adv-x="1138" 
d="M1094 0h-482v8q61 29 78 71q16 42 17 173v473q0 97 -41 151t-112 54t-132 -31v-647q0 -131 16 -173t80 -71v-8h-489v8q66 29 84 72t18 172v919q0 150 -18 194t-93 77v10q199 18 392 84h10v-608q145 141 307 141q123 0 195 -77t71 -242v-471q1 -152 17 -197t82 -74v-8z
" />
    <glyph glyph-name="i" unicode="i" horiz-adv-x="542" 
d="M518 0h-485v8q66 29 83 72t17 172v463q0 145 -17 186t-93 74v10q180 12 387 84h10v-817q0 -131 16 -173t82 -71v-8zM272 1151q-63 0 -109 45q-46 44 -46 108t46 110t109 46q62 0 108 -46t46 -108t-45 -109q-46 -46 -109 -46z" />
    <glyph glyph-name="j" unicode="j" horiz-adv-x="528" 
d="M131 -51v766q0 147 -16 187t-92 73v10q182 12 389 84h10v-952q0 -209 -124 -367t-331 -242l-6 13q76 47 123 162t47 266zM274 1151q-63 0 -108 45q-45 44 -45 108t45 110t108 46q62 0 108 -46t46 -108t-45 -109q-46 -46 -109 -46z" />
    <glyph glyph-name="k" unicode="k" horiz-adv-x="1114" 
d="M1147 0h-268q-109 0 -146 32t-117 177l-176 321l127 156q123 147 123 213q0 86 -125 131v14h543v-12q-90 -23 -169 -76t-169 -157l-104 -119l270 -449q74 -121 116 -163t95 -60v-8zM514 0h-477v8q63 29 79 75q15 46 15 212v887q0 147 -16 187t-88 73v8q199 16 381 86h10
v-1241q0 -166 15 -212t81 -75v-8z" />
    <glyph glyph-name="l" unicode="l" horiz-adv-x="542" 
d="M522 0h-491v8q66 29 83 72t17 172v932q0 147 -17 187t-94 73v8q217 18 392 84h10v-1284q0 -129 17 -172t83 -72v-8z" />
    <glyph glyph-name="m" unicode="m" horiz-adv-x="1662" 
d="M1642 0h-483v8q61 29 78 71q16 42 16 173v479q0 104 -35 152q-36 47 -110 47t-145 -33q18 -57 18 -172v-473q0 -131 16 -173t80 -71v-8h-479v8q61 29 78 71q16 42 16 173v465q0 213 -149 213q-63 0 -125 -31v-647q0 -131 16 -173t82 -71v-8h-485v8q66 29 83 71t17 173
v463q0 145 -17 186t-94 74v10q176 12 388 84h10v-141q137 141 308 141t232 -154q54 57 142 105t178 49q264 0 264 -332v-485q0 -129 18 -172t82 -72v-8z" />
    <glyph glyph-name="n" unicode="n" horiz-adv-x="1107" 
d="M1087 0h-481v8q63 29 79 72q15 43 15 188v467q0 195 -155 195q-57 0 -127 -31v-647q0 -133 15 -174t81 -70v-8h-483v8q66 29 83 71t17 173v457q0 153 -16 193t-92 73v10q172 12 385 84h10v-143q137 141 309 141q121 0 192 -75t70 -238v-502q-1 -129 17 -172t81 -72v-8z
" />
    <glyph glyph-name="o" unicode="o" 
d="M369 527q0 -247 40 -373t139 -127q99 0 139 126q40 127 40 373t-43 368t-137 122t-136 -121t-42 -368zM547 -25q-219 1 -354 147t-135 400t138 400t353 147q215 0 351 -141q136 -140 136 -396t-135 -406t-354 -151z" />
    <glyph glyph-name="p" unicode="p" horiz-adv-x="1120" 
d="M532 29q104 0 171 125t67 346q0 432 -235 434q-62 0 -115 -27v-841q59 -37 112 -37zM545 -471h-520v8q66 29 83 72t17 172v907q0 119 -8 167q-7 48 -27 72t-74 46v10q215 20 394 84h10v-133q129 135 293 135t258 -136t94 -353q0 -158 -51 -281t-133 -191
q-162 -134 -361 -133q-8 0 -100 7v-183q0 -143 22 -188t103 -74v-8z" />
    <glyph glyph-name="q" unicode="q" horiz-adv-x="1091" 
d="M547 1016q-87 0 -143 -126t-56 -339t62 -317t170 -105q67 0 114 31v778q-59 78 -147 78zM1092 -471h-529v8q80 31 106 79t25 187v328q-134 -156 -286 -156t-252 131t-100 377t135 416q136 170 376 170q61 0 162 -16l102 -15q70 6 140 31h14v-1284q-1 -129 19 -174t88 -74
v-8z" />
    <glyph glyph-name="r" unicode="r" horiz-adv-x="790" 
d="M475 910q0 64 44 110q45 46 109 47q64 -1 109 -47t45 -110t-44 -108t-110 -44t-109 44q-44 44 -44 108zM543 0h-508v8q63 29 81 74q17 45 17 184v447q0 104 -7 147q-8 43 -28 67t-75 46v10q168 12 387 86h10v-817q0 -125 22 -170t101 -74v-8z" />
    <glyph glyph-name="s" unicode="s" horiz-adv-x="776" 
d="M366 41q72 0 115 38q43 39 43 109t-48 118t-118 81t-140 72t-117 109q-48 70 -48 169q1 145 105 239t240 93q136 0 272 -51v-270h-8q-160 256 -275 256q-57 0 -95 -35t-38 -91q0 -106 126 -167q146 -73 235 -134q55 -38 91 -106t35 -154q-1 -157 -111 -249t-275 -92
t-298 57l-8 315h10q84 -154 159 -230q76 -76 148 -77z" />
    <glyph glyph-name="t" unicode="t" horiz-adv-x="647" 
d="M127 301v643h-102v10q233 129 374 346h17v-256h217v-100h-217v-676q0 -68 38 -106t94 -37q56 0 114 25l6 -11q-113 -156 -289 -155q-252 0 -252 317z" />
    <glyph glyph-name="u" unicode="u" 
d="M692 -25v146h-2q-141 -145 -303 -146q-115 0 -187 71t-73 222v426q0 115 -8 163q-7 48 -27 71t-76 47v10q174 12 387 84h11v-780q0 -172 147 -172q74 0 129 30v541q0 200 -35 241q-18 22 -67 46v10q166 12 379 84h10v-719q0 -166 16 -208t94 -74v-9q-180 -16 -385 -84
h-10z" />
    <glyph glyph-name="v" unicode="v" horiz-adv-x="1009" 
d="M0 1044h502v-8q-48 -12 -68 -40t-20 -86t35 -187l141 -539q106 385 133 504q27 118 27 188t-20 108t-73 52v8h351v-8q-54 -22 -98 -98t-103 -274l-199 -664h-233l-185 633q-68 231 -101 305q-34 74 -89 98v8z" />
    <glyph glyph-name="w" unicode="w" horiz-adv-x="1570" 
d="M4 1044h508v-8q-48 -14 -68 -39t-20 -79t33 -197l114 -516l127 473q27 102 23 145q-12 88 -34 130t-75 83v8h406v-8q-41 -33 -40 -87t30 -179l137 -567l78 286q71 272 71 368q0 97 -24 131t-76 48v8h365v-8q-43 -18 -74 -60q-70 -94 -187 -507l-133 -469h-217l-176 670
l-184 -670h-228l-176 678q-51 202 -85 268t-95 90v8z" />
    <glyph glyph-name="x" unicode="x" horiz-adv-x="1071" 
d="M1071 0h-541v10q43 25 61 44q17 19 17 58t-49 119l-108 189q-139 -188 -140 -291q0 -41 26 -68t83 -51v-10h-422v8q133 80 283 295l129 186l-64 111q-121 211 -184 299t-146 137v8h543v-10q-74 -43 -74 -99t127 -267l41 65q82 139 82 202t-86 99v10h408v-10
q-84 -42 -152 -110t-174 -217l-76 -107l162 -281q139 -244 254 -311v-8z" />
    <glyph glyph-name="y" unicode="y" horiz-adv-x="1001" 
d="M2 1044h498v-10q-46 -12 -66 -38t-20 -85t39 -211l137 -528q154 547 153 676q0 90 -16 131t-70 55v10h342v-8q-53 -24 -98 -108t-104 -293l-217 -764q-102 -360 -306 -360q-70 1 -116 41t-47 96q0 56 37 99q38 42 96 42t99 -41q40 -41 44 -104q68 63 119 229l39 127h-174
l-176 614q-76 260 -107 329t-86 93v8z" />
    <glyph glyph-name="z" unicode="z" horiz-adv-x="903" 
d="M31 0v8l493 965h-116q-76 0 -132 -40t-206 -185h-11l39 296h762v-10l-485 -964h188q45 0 103 46t200 191h8l-36 -307h-807z" />
    <glyph glyph-name="braceleft" unicode="{" horiz-adv-x="630" 
d="M197 256q1 157 -17 226t-49 98t-80 36v17q99 16 122 112q24 96 24 248v176q0 209 124 288q107 71 287 87v-10q-82 -20 -110 -95t-29 -249v-180q0 -152 -92 -248t-246 -137q154 -41 246 -137t92 -248v-181q1 -174 29 -250t110 -96v-8q-301 26 -380 199q-32 72 -31 176v176
z" />
    <glyph glyph-name="bar" unicode="|" horiz-adv-x="417" 
d="M248 -236h-78v1780h78v-1780z" />
    <glyph glyph-name="braceright" unicode="}" horiz-adv-x="628" 
d="M160 59v181q0 152 93 248t245 137q-152 41 -245 137t-93 248v180q0 174 -29 249t-111 95v10q303 -26 380 -198q32 -72 32 -177v-176q0 -170 28 -258t120 -102v-17q-92 -14 -120 -102t-28 -258v-176q0 -205 -124 -288q-107 -71 -288 -87v8q82 21 111 97t29 249z" />
    <glyph glyph-name="asciitilde" unicode="~" horiz-adv-x="1042" 
d="M700 465q-59 0 -215 53q-155 53 -203 53q-48 1 -92 -25t-63 -59l-16 11q78 221 233 221q63 0 219 -51q156 -52 201 -52t89 24t62 60l15 -8q-86 -227 -230 -227z" />
    <glyph glyph-name="exclamdown" unicode="&#xa1;" horiz-adv-x="534" 
d="M267 -397q-75 0 -122 47t-47 142t74 372t84 463h25q10 -187 83 -463q72 -276 72 -372t-47 -142q-47 -47 -122 -47zM440 900q0 -71 -51 -121t-122 -50t-122 50t-51 121t51 120t122 49t122 -49t51 -120z" />
    <glyph glyph-name="cent" unicode="&#xa2;" horiz-adv-x="1062" 
d="M348 794q0 -276 156 -376v743q-156 -91 -156 -367zM586 -43h-82v205q-188 4 -311 145t-123 373t121 383q122 152 313 182v193h82v-185q154 -2 242 -56t90 -148q0 -68 -44 -115t-106 -47q-63 0 -106 41t-44 102q0 102 97 156q-13 14 -55 14t-74 -4v-819q42 -12 98 -12
q56 -1 128 25t112 65l12 -9q-47 -96 -133 -178t-217 -102v-209z" />
    <glyph glyph-name="sterling" unicode="&#xa3;" horiz-adv-x="1044" 
d="M719 0h-631v8q193 221 193 428q0 98 -39 246h-164v96h141q-37 156 -37 242q0 186 135 304t324 118q133 0 214 -58t81 -139q0 -80 -44 -123t-108 -43t-104 38q-39 38 -39 93q0 56 32 98t87 58q-49 23 -113 23q-184 0 -184 -263q0 -102 41 -348h317v-96h-305q6 -43 6 -88
q0 -119 -60 -201t-161 -153h473q76 0 107 19t43 73h10q4 -18 4 -70q0 -262 -219 -262z" />
    <glyph glyph-name="currency" unicode="&#xa4;" horiz-adv-x="1216" 
d="M609 1122q-165 0 -279 -120t-115 -288q1 -168 115 -287q114 -120 279 -120t279 121t113 287q1 167 -113 287t-279 120zM608 207q-186 0 -303 104l-112 -116l-105 104l115 117q-103 120 -103 306t103 296l-115 110l105 107l112 -113q123 100 302 100t308 -100l111 113
l102 -107l-110 -110q98 -111 98 -298t-98 -304l110 -117l-102 -104l-111 116q-121 -104 -307 -104z" />
    <glyph glyph-name="yen" unicode="&#xa5;" horiz-adv-x="1062" 
d="M813 0h-561v8q80 29 106 80t27 176v94h-233v86h233v154h-233v86h202l-143 369q-76 199 -112 257t-101 95v8h539v-8q-47 -23 -69 -49t-22 -79q0 -54 64 -251l113 -348l112 334q57 170 57 261t-104 132v8h379v-8q-63 -25 -113 -105t-127 -292l-120 -324h202v-86h-229v-154
h229v-86h-229v-94q0 -127 26 -178t107 -78v-8z" />
    <glyph glyph-name="brokenbar" unicode="&#xa6;" horiz-adv-x="417" 
d="M248 788h-78v756h78v-756zM248 -236h-78v756h78v-756z" />
    <glyph glyph-name="section" unicode="&#xa7;" horiz-adv-x="1024" 
d="M55 666q0 160 195 249q-98 86 -98 213q0 128 106 220t262 92t244 -62t88 -136t-38 -116t-99 -43q-61 0 -102 38q-40 38 -40 96q0 98 105 137q-66 32 -140 32t-134 -43t-60 -116q0 -102 154 -187l303 -166q174 -94 174 -247q0 -84 -51 -156t-140 -115q102 -92 102 -221
t-114 -225q-116 -96 -274 -96t-254 64t-97 157q0 67 39 109q40 42 104 42t105 -39t41 -100q0 -92 -104 -141q74 -35 158 -35t143 46t59 122q0 96 -145 180l-322 189q-170 98 -170 258zM811 485q0 91 -172 191l-262 151q-43 25 -98 64q-55 -49 -55 -102t20 -76
q46 -53 110 -91q12 -6 47 -26t45 -27l220 -127q29 -16 88 -57q57 43 57 100z" />
    <glyph glyph-name="dieresis" unicode="&#xa8;" horiz-adv-x="614" 
d="M276 1292q0 -53 -38 -90t-90 -37q-54 0 -93 38t-39 90t39 90t92 38t91 -38t38 -91zM598 1292q0 -53 -38 -90t-92 -37t-91 38t-37 90t37 90t91 38t92 -38t38 -91z" />
    <glyph glyph-name="copyright" unicode="&#xa9;" horiz-adv-x="1624" 
d="M838 266q-168 0 -297 119t-129 322t138 325t308 121q121 0 236 -51l4 -187h-8q-66 89 -119 137t-113 48q-104 0 -162 -110t-57 -276q0 -166 68 -268q68 -104 182 -104t239 121l7 -86q-129 -111 -297 -111zM813 66q250 0 420 190t170 448t-170 448q-170 189 -420 189
t-422 -189t-172 -447q0 -259 172 -449t422 -190zM813 -29q-299 0 -506 215q-207 214 -207 518t207 518t506 214t505 -214t206 -517t-206 -519t-505 -215z" />
    <glyph glyph-name="ordfeminine" unicode="&#xaa;" horiz-adv-x="747" 
d="M684 528h-623v88h623v-88zM358 815q29 0 54 12v234q-20 6 -41 6q-103 -6 -103 -129t90 -123zM236 715q-82 0 -132 45q-49 45 -49 132t78 145t279 73v94q0 152 -131 152q-45 0 -82 -19q70 -25 69 -92q0 -35 -24 -63t-66 -29q-42 0 -70 27t-28 65q0 72 84 120t207 48
q250 0 250 -215v-295q0 -55 15 -77t66 -31v-9q-86 -68 -179 -68t-107 79q-98 -82 -180 -82z" />
    <glyph glyph-name="guillemotleft" unicode="&#xab;" horiz-adv-x="796" 
d="M465 178h-16l-410 365l410 366h16l-184 -364zM741 240h-8l-342 303l340 305h10l-139 -305z" />
    <glyph glyph-name="logicalnot" unicode="&#xac;" horiz-adv-x="1062" 
d="M938 240h-143v358h-672v143h815v-501z" />
    <glyph glyph-name="registered" unicode="&#xae;" horiz-adv-x="1630" 
d="M778 1065h-28v-360l61 6q121 18 121 176q0 178 -154 178zM1130 293q-98 -1 -137 25t-82 107t-120 228h-41v-143q0 -110 12 -144t61 -65v-8h-336v8q49 27 61 64q11 37 11 151v377q0 106 -11 146t-61 71v8h330q311 0 311 -225q0 -145 -165 -215q113 -174 118 -184l74 -113
q35 -51 80 -80l-2 -8h-103zM815 70q250 0 420 188t170 446t-170 447q-170 188 -420 188t-420 -188t-170 -446q0 -259 170 -447t420 -188zM815 -25q-299 0 -503 213q-204 212 -204 516t204 517t503 213t503 -213t204 -516t-204 -517t-503 -213z" />
    <glyph glyph-name="macron" unicode="&#xaf;" horiz-adv-x="604" 
d="M565 1235h-526v119h526v-119z" />
    <glyph glyph-name="degree" unicode="&#xb0;" horiz-adv-x="770" 
d="M383 897q80 0 131 61q51 62 51 148t-51 146t-131 60t-131 -60t-51 -146t51 -148t131 -61zM384 776q-136 0 -229 95t-93 235t92 234q94 96 231 96t229 -96t92 -233q0 -139 -92 -235q-94 -96 -230 -96z" />
    <glyph glyph-name="plusminus" unicode="&#xb1;" horiz-adv-x="1062" 
d="M940 0h-817v143h817v-143zM604 147h-145v359h-336v143h336v359h145v-359h334v-143h-334v-359z" />
    <glyph glyph-name="twosuperior" unicode="&#xb2;" horiz-adv-x="747" 
d="M63 532v37l238 305q76 96 111 166q34 70 34 147t-49 125t-109 48t-110 -31q51 -4 87 -38t36 -81q0 -46 -34 -78t-83 -32t-84 32t-34 87q0 77 86 143t222 66t220 -66t84 -162t-59 -157q-59 -60 -130 -112t-88 -65q-109 -78 -168 -157h435l-19 -177h-586z" />
    <glyph glyph-name="threesuperior" unicode="&#xb3;" horiz-adv-x="747" 
d="M92 1245v168h553v-10l-223 -283q108 -30 182 -104t74 -199t-111 -213t-264 -88q-111 0 -179 44t-67 102q0 58 36 92t87 34t84 -32t33 -78q0 -74 -66 -111q25 -8 45 -8q80 0 133 57q52 56 52 156q-1 100 -67 150t-146 59v18l192 246h-348z" />
    <glyph glyph-name="acute" unicode="&#xb4;" horiz-adv-x="614" 
d="M129 1163h-16q94 119 131 250h266q-148 -164 -381 -250z" />
    <glyph glyph-name="mu" unicode="&#xb5;" 
d="M692 -25v146q-150 -145 -305 -146q-96 0 -160 45q12 -74 87 -210t75 -184q0 -46 -36 -83t-75 -37q-40 0 -64 6t-56 38q-32 34 -31 96v1048q0 115 -8 163q-7 48 -27 71t-76 47v10q174 12 387 84h11v-780q0 -172 147 -172q74 0 129 30v541q0 200 -35 241q-18 22 -67 46v10
q166 12 379 84h10v-719q0 -166 16 -208t94 -74v-9q-180 -16 -385 -84h-10z" />
    <glyph glyph-name="paragraph" unicode="&#xb6;" horiz-adv-x="1077" 
d="M885 -471h-92v1796h-340v-1796h-93v1276q-162 0 -244 88t-81 216q0 128 77 216t224 88h639v-8q-90 -41 -90 -135v-1741z" />
    <glyph glyph-name="periodcentered" unicode="&#xb7;" horiz-adv-x="468" 
d="M406 729q0 -70 -50 -120t-123 -50t-123 50t-50 121t50 121q52 50 122 50t122 -51t52 -121z" />
    <glyph glyph-name="cedilla" unicode="&#xb8;" horiz-adv-x="532" 
d="M200 -375q108 -1 106 85q0 42 -53 74q-52 32 -112 34l142 182h57l-68 -104q72 -8 134 -52t61 -118q0 -76 -68 -115q-67 -39 -163 -39t-168 53l22 25q58 -25 110 -25z" />
    <glyph glyph-name="onesuperior" unicode="&#xb9;" horiz-adv-x="747" 
d="M584 532h-418v11q66 23 83 61t17 156v473q-57 -23 -143 -37v27q164 47 350 211h19v-639q0 -141 14 -185t78 -67v-11z" />
    <glyph glyph-name="ordmasculine" unicode="&#xba;" horiz-adv-x="802" 
d="M727 528h-661v88h661v-88zM399 1358q-71 0 -99 -71t-28 -221t26 -224t102 -74q75 0 101 74q25 74 25 224t-28 222q-28 70 -99 70zM400 1413q152 0 256 -96t104 -249t-104 -253t-257 -100q-154 0 -256 98t-102 254t103 251t256 95z" />
    <glyph glyph-name="guillemotright" unicode="&#xbb;" horiz-adv-x="796" 
d="M406 543l-343 -303h-8l142 303l-142 305h11zM760 543l-410 -365h-18l184 367l-184 364h18z" />
    <glyph glyph-name="onequarter" unicode="&#xbc;" horiz-adv-x="1753" 
d="M1681 0h-395v8q66 20 79 60t13 163h-360v9l401 647h178v-555h99v-101h-99q1 -125 13 -163t71 -60v-8zM1378 332v366l-227 -366h227zM584 532h-418v11q66 23 83 61t17 156v473q-57 -23 -143 -37v27q164 47 350 211h19v-639q0 -141 14 -185t78 -67v-11zM532 -96h-124
l856 1595h122z" />
    <glyph glyph-name="onehalf" unicode="&#xbd;" horiz-adv-x="1753" 
d="M1061 0v37l237 305q76 96 111 166t35 146t-49 125q-49 48 -109 48t-110 -30q51 -4 87 -38q35 -34 35 -81t-34 -79t-82 -32q-49 0 -84 32q-35 31 -35 97t86 132t222 67q136 0 220 -66t84 -162t-55 -152q-78 -80 -204 -170q-126 -89 -185 -169h434l-18 -176h-586zM584 532
h-418v11q66 23 83 61t17 156v473q-57 -23 -143 -37v27q164 47 350 211h19v-639q0 -141 14 -185t78 -67v-11zM498 -96h-125l856 1595h123z" />
    <glyph glyph-name="threequarters" unicode="&#xbe;" horiz-adv-x="1753" 
d="M92 1245v168h553v-10l-223 -283q108 -30 182 -104t74 -199t-111 -213t-264 -88q-111 0 -179 44t-67 102q0 58 36 92t87 34t84 -32t33 -78q0 -74 -66 -111q25 -8 45 -8q80 0 133 57q52 56 52 156q-1 100 -67 150t-146 59v18l192 246h-348zM1681 0h-395v8q66 20 79 60
t13 163h-360v9l401 647h178v-555h99v-101h-99q1 -125 13 -163t71 -60v-8zM1378 332v366l-227 -366h227zM537 -96h-125l856 1595h123z" />
    <glyph glyph-name="questiondown" unicode="&#xbf;" horiz-adv-x="892" 
d="M326 900q0 71 50 120t122 49t120 -49t50 -120q0 -71 -50 -121t-120 -50q-72 0 -122 50t-50 121zM508 627q0 -183 -67 -393t-67 -324t63 -175q63 -63 151 -63t153 68q-74 4 -125 48t-51 112t45 116q45 47 111 47t112 -46t46 -123q0 -117 -110 -204q-109 -87 -285 -87
t-286 86t-110 242t137 298q57 59 115 117q139 139 143 281h25z" />
    <glyph glyph-name="Agrave" unicode="&#xc0;" horiz-adv-x="1292" 
d="M803 1495h-15q-238 86 -380 250h266q35 -127 129 -250zM735 590l-174 643l-180 -643h354zM1284 0h-541v8q51 14 74 41t23 93t-82 370h-400q-72 -248 -72 -333t28 -118q26 -33 89 -53v-8h-397v8q74 39 124 138t142 407l254 860h262l273 -930q80 -276 120 -358t103 -117v-8
z" />
    <glyph glyph-name="Aacute" unicode="&#xc1;" horiz-adv-x="1292" 
d="M530 1495h-16q94 119 131 250h266q-148 -164 -381 -250zM735 590l-174 643l-180 -643h354zM1284 0h-541v8q51 14 74 41t23 93t-82 370h-400q-72 -248 -72 -333t28 -118q26 -33 89 -53v-8h-397v8q74 39 124 138t142 407l254 860h262l273 -930q80 -276 120 -358t103 -117
v-8z" />
    <glyph glyph-name="Acircumflex" unicode="&#xc2;" horiz-adv-x="1292" 
d="M913 1495h-18l-238 109l-237 -109h-19l181 250h151zM735 590l-174 643l-180 -643h354zM1284 0h-541v8q51 14 74 41t23 93t-82 370h-400q-72 -248 -72 -333t28 -118q26 -33 89 -53v-8h-397v8q74 39 124 138t142 407l254 860h262l273 -930q80 -276 120 -358t103 -117v-8z
" />
    <glyph glyph-name="Atilde" unicode="&#xc3;" horiz-adv-x="1292" 
d="M760 1522q-49 0 -136 28t-116 29q-61 0 -102 -63l-13 4q17 76 57 142t113 64q47 0 132 -26t118 -25q62 1 105 62l12 -4q-49 -211 -170 -211zM735 590l-174 643l-180 -643h354zM1284 0h-541v8q51 14 74 41t23 93t-82 370h-400q-72 -248 -72 -333t28 -118q26 -33 89 -53v-8
h-397v8q74 39 124 138t142 407l254 860h262l273 -930q80 -276 120 -358t103 -117v-8z" />
    <glyph glyph-name="Adieresis" unicode="&#xc4;" horiz-adv-x="1292" 
d="M627 1624q0 -53 -38 -90t-91 -37t-92 38t-39 90t39 90t92 38t91 -38t38 -91zM948 1624q0 -53 -38 -90t-91 -37t-91 38t-38 90t37 90t91 38t92 -38t38 -91zM735 590l-174 643l-180 -643h354zM1284 0h-541v8q51 14 74 41t23 93t-82 370h-400q-72 -248 -72 -333t28 -118
q26 -33 89 -53v-8h-397v8q74 39 124 138t142 407l254 860h262l273 -930q80 -276 120 -358t103 -117v-8z" />
    <glyph glyph-name="Aring" unicode="&#xc5;" horiz-adv-x="1292" 
d="M649 1348q57 0 97 43t40 102t-40 102t-97 43t-96 -43t-39 -102t39 -102t96 -43zM735 594l-174 643l-180 -643h354zM1284 0h-541v8q51 14 74 41t23 95t-82 372h-400q-72 -248 -72 -335t28 -120q26 -33 89 -53v-8h-397v8q74 39 125 140t141 409l226 770q-80 66 -80 163
t69 166q70 68 164 68t162 -68t68 -162q0 -95 -70 -159l268 -911q88 -294 139 -359q26 -34 66 -57v-8z" />
    <glyph glyph-name="AE" unicode="&#xc6;" horiz-adv-x="1697" 
d="M692 0v8q80 29 103 77t22 179v250h-397q-121 -289 -121 -381t98 -125v-8h-401v8q72 39 141 148q70 109 201 401l258 582q29 68 29 112q0 106 -133 154v8h1089v-340h-10q-109 170 -162 220t-152 50h-139v-583h137q80 0 124 35t106 129h10v-392h-10q-59 90 -105 124
t-125 34h-137v-620h119q109 0 169 40t159 166l75 97h13l-35 -373h-926zM817 594v743h-41l-321 -743h362z" />
    <glyph glyph-name="Ccedilla" unicode="&#xc7;" horiz-adv-x="1210" 
d="M574 -375q106 -1 106 85q0 42 -52 74t-112 34l123 159q-258 33 -413 214t-154 499q0 190 58 338t158 236q203 178 482 178q197 0 348 -70l6 -319h-8q-88 167 -174 243t-186 76q-166 0 -260 -170t-94 -492t96 -500q98 -177 280 -177t367 360h12l-27 -348
q-141 -76 -370 -76l-64 2l-49 -75q72 -8 133 -52q62 -44 62 -118q0 -76 -68 -115t-164 -39t-168 53l23 25q57 -25 109 -25z" />
    <glyph glyph-name="Egrave" unicode="&#xc8;" horiz-adv-x="1052" 
d="M684 1495h-14q-238 86 -381 250h266q35 -127 129 -250zM47 0v8q79 29 101 77t22 179v885q0 129 -23 177t-100 79v8h889v-340h-10q-109 170 -162 220t-152 50h-139v-583h127q86 0 132 34t108 130h10v-392h-10q-60 92 -108 125t-132 33h-127v-620h119q120 0 184 50t199 226
q14 18 20 27h13l-35 -373h-926z" />
    <glyph glyph-name="Eacute" unicode="&#xc9;" horiz-adv-x="1052" 
d="M414 1495h-17q94 119 131 250h267q-148 -164 -381 -250zM47 0v8q79 29 101 77t22 179v885q0 129 -23 177t-100 79v8h889v-340h-10q-109 170 -162 220t-152 50h-139v-583h127q86 0 132 34t108 130h10v-392h-10q-60 92 -108 125t-132 33h-127v-620h119q120 0 184 50
t199 226q14 18 20 27h13l-35 -373h-926z" />
    <glyph glyph-name="Ecircumflex" unicode="&#xca;" horiz-adv-x="1052" 
d="M795 1495h-19l-237 109l-238 -109h-18l180 250h151zM47 0v8q79 29 101 77t22 179v885q0 129 -23 177t-100 79v8h889v-340h-10q-109 170 -162 220t-152 50h-139v-583h127q86 0 132 34t108 130h10v-392h-10q-60 92 -108 125t-132 33h-127v-620h119q120 0 184 50t199 226
q14 18 20 27h13l-35 -373h-926z" />
    <glyph glyph-name="Edieresis" unicode="&#xcb;" horiz-adv-x="1052" 
d="M508 1624q0 -53 -38 -90t-91 -37t-92 38t-39 90t39 90t92 38t91 -38t38 -91zM829 1624q1 -53 -37 -90t-92 -37t-91 38q-38 38 -38 90t37 90t91 38t92 -38t38 -91zM47 0v8q79 29 101 77t22 179v885q0 129 -23 177t-100 79v8h889v-340h-10q-109 170 -162 220t-152 50h-139
v-583h127q86 0 132 34t108 130h10v-392h-10q-60 92 -108 125t-132 33h-127v-620h119q120 0 184 50t199 226q14 18 20 27h13l-35 -373h-926z" />
    <glyph glyph-name="Igrave" unicode="&#xcc;" horiz-adv-x="643" 
d="M467 1495h-14q-238 86 -381 250h266q35 -127 129 -250zM596 0h-549v8q79 29 101 76t22 176v891q0 129 -22 176t-101 78v8h549v-8q-80 -31 -102 -78t-21 -176v-891q0 -129 22 -176t101 -76v-8z" />
    <glyph glyph-name="Iacute" unicode="&#xcd;" horiz-adv-x="643" 
d="M197 1495h-17q94 119 131 250h267q-148 -164 -381 -250zM596 0h-549v8q79 29 101 76t22 176v891q0 129 -22 176t-101 78v8h549v-8q-80 -31 -102 -78t-21 -176v-891q0 -129 22 -176t101 -76v-8z" />
    <glyph glyph-name="Icircumflex" unicode="&#xce;" horiz-adv-x="643" 
d="M578 1495h-19l-237 109l-238 -109h-18l180 250h151zM596 0h-549v8q79 29 101 76t22 176v891q0 129 -22 176t-101 78v8h549v-8q-80 -31 -102 -78t-21 -176v-891q0 -129 22 -176t101 -76v-8z" />
    <glyph glyph-name="Idieresis" unicode="&#xcf;" horiz-adv-x="643" 
d="M291 1624q0 -53 -38 -90t-91 -37t-92 38t-39 90t39 90t92 38t91 -38t38 -91zM612 1624q0 -53 -38 -90t-91 -37t-91 38t-38 90t37 90t91 38t92 -38t38 -91zM596 0h-549v8q79 29 101 76t22 176v891q0 129 -22 176t-101 78v8h549v-8q-80 -31 -102 -78t-21 -176v-891
q0 -129 22 -176t101 -76v-8z" />
    <glyph glyph-name="Eth" unicode="&#xd0;" horiz-adv-x="1392" 
d="M473 70h131q403 0 404 655q0 287 -100 453t-281 165h-154v-575h203v-84h-203v-614zM627 0h-578v8q77 29 99 77t22 179v420h-125v84h125v381q0 131 -22 178t-99 78v8h604q324 0 500 -167t176 -515q0 -347 -179 -539t-523 -192z" />
    <glyph glyph-name="Ntilde" unicode="&#xd1;" horiz-adv-x="1380" 
d="M819 1522q-49 0 -136 28t-116 29q-61 0 -102 -63l-12 4q16 76 56 142t114 64q47 0 132 -26t117 -25q62 1 105 62l12 -4q-49 -211 -170 -211zM1221 -10h-127l-822 1136v-675q0 -300 60 -377q29 -37 90 -66v-8h-397v8q59 27 87 66q56 78 56 377v706q0 97 -34 153t-118 95v8
h410l690 -952v506q0 302 -59 373q-29 36 -88 65v8h395v-8q-59 -29 -87 -65q-56 -72 -56 -373v-977z" />
    <glyph glyph-name="Ograve" unicode="&#xd2;" horiz-adv-x="1437" 
d="M866 1495h-14q-238 86 -381 250h266q35 -127 129 -250zM400 706q0 -670 318 -671q318 0 318 671t-317 670q-319 0 -319 -670zM716 -31q-280 1 -464 191t-184 532t189 546t463 204t462 -190t188 -531q0 -342 -187 -547t-467 -205z" />
    <glyph glyph-name="Oacute" unicode="&#xd3;" horiz-adv-x="1437" 
d="M594 1495h-16q94 119 131 250h266q-148 -164 -381 -250zM400 706q0 -670 318 -671q318 0 318 671t-317 670q-319 0 -319 -670zM716 -31q-280 1 -464 191t-184 532t189 546t463 204t462 -190t188 -531q0 -342 -187 -547t-467 -205z" />
    <glyph glyph-name="Ocircumflex" unicode="&#xd4;" horiz-adv-x="1437" 
d="M977 1495h-19l-237 109l-238 -109h-18l180 250h152zM400 706q0 -670 318 -671q318 0 318 671t-317 670q-319 0 -319 -670zM716 -31q-280 1 -464 191t-184 532t189 546t463 204t462 -190t188 -531q0 -342 -187 -547t-467 -205z" />
    <glyph glyph-name="Otilde" unicode="&#xd5;" horiz-adv-x="1437" 
d="M825 1522q-49 0 -136 28t-116 29q-61 0 -102 -63l-12 4q16 76 56 142t114 64q47 0 132 -26t118 -25q61 1 104 62l12 -4q-49 -211 -170 -211zM400 706q0 -670 318 -671q318 0 318 671t-317 670q-319 0 -319 -670zM716 -31q-280 1 -464 191t-184 532t189 546t463 204
t462 -190t188 -531q0 -342 -187 -547t-467 -205z" />
    <glyph glyph-name="Odieresis" unicode="&#xd6;" horiz-adv-x="1437" 
d="M690 1624q0 -53 -38 -90t-91 -37t-92 38t-39 90t39 90t92 38t91 -38t38 -91zM1012 1624q0 -53 -38 -90t-92 -37t-91 38t-37 90t37 90t91 38t92 -38t38 -91zM400 706q0 -670 318 -671q318 0 318 671t-317 670q-319 0 -319 -670zM716 -31q-280 1 -464 191t-184 532t189 546
t463 204t462 -190t188 -531q0 -342 -187 -547t-467 -205z" />
    <glyph glyph-name="multiply" unicode="&#xd7;" horiz-adv-x="1062" 
d="M805 201l-273 274l-276 -274l-100 102l274 275l-274 272l100 102l274 -272l275 272l102 -102l-274 -272l274 -275z" />
    <glyph glyph-name="Oslash" unicode="&#xd8;" horiz-adv-x="1437" 
d="M719 35q317 0 317 674q0 260 -53 426l-483 -967q80 -133 219 -133zM719 1376q-319 0 -320 -671q1 -260 54 -424l483 964q-82 131 -217 131zM721 1442q147 0 280 -64l70 140l82 -43l-70 -142q133 -91 210 -245t77 -365q0 -344 -187 -549t-466 -205q-150 0 -285 62
l-74 -148l-82 47l74 146q-283 193 -282 614q0 344 189 548t464 204z" />
    <glyph glyph-name="Ugrave" unicode="&#xd9;" horiz-adv-x="1329" 
d="M893 1495h-14q-238 86 -381 250h266q35 -127 129 -250zM1063 397v588q0 223 -29 304t-114 116v8h378v-8q-80 -35 -108 -115t-27 -305v-594q0 -209 -121 -315t-356 -107q-516 0 -516 422v760q0 127 -24 175t-101 79v8h553v-8q-78 -31 -102 -79t-23 -175v-789
q0 -287 279 -286q150 0 230 80t81 241z" />
    <glyph glyph-name="Uacute" unicode="&#xda;" horiz-adv-x="1329" 
d="M621 1495h-17q94 119 131 250h266q-147 -164 -380 -250zM1063 397v588q0 223 -29 304t-114 116v8h378v-8q-80 -35 -108 -115t-27 -305v-594q0 -209 -121 -315t-356 -107q-516 0 -516 422v760q0 127 -24 175t-101 79v8h553v-8q-78 -31 -102 -79t-23 -175v-789
q0 -287 279 -286q150 0 230 80t81 241z" />
    <glyph glyph-name="Ucircumflex" unicode="&#xdb;" horiz-adv-x="1329" 
d="M1004 1495h-19l-237 109l-238 -109h-18l180 250h151zM1063 397v588q0 223 -29 304t-114 116v8h378v-8q-80 -35 -108 -115t-27 -305v-594q0 -209 -121 -315t-356 -107q-516 0 -516 422v760q0 127 -24 175t-101 79v8h553v-8q-78 -31 -102 -79t-23 -175v-789
q0 -287 279 -286q150 0 230 80t81 241z" />
    <glyph glyph-name="Udieresis" unicode="&#xdc;" horiz-adv-x="1329" 
d="M717 1624q0 -53 -38 -90t-91 -37t-92 38t-39 90t39 90t92 38t91 -38t38 -91zM1038 1624q0 -53 -38 -90t-91 -37t-91 38t-38 90t37 90t91 38t92 -38t38 -91zM1063 397v588q0 223 -29 304t-114 116v8h378v-8q-80 -35 -108 -115t-27 -305v-594q0 -209 -121 -315t-356 -107
q-516 0 -516 422v760q0 127 -24 175t-101 79v8h553v-8q-78 -31 -102 -79t-23 -175v-789q0 -287 279 -286q150 0 230 80t81 241z" />
    <glyph glyph-name="Yacute" unicode="&#xdd;" horiz-adv-x="1167" 
d="M526 1495h-16q94 119 131 250h266q-148 -164 -381 -250zM858 0h-553v8q78 29 102 78t23 178v334l-184 428q-86 198 -131 268t-109 111v8h543v-8q-47 -23 -66 -46q-18 -23 -18 -81t80 -252l137 -344l131 336q66 162 66 256t-95 131v8h379v-8q-63 -27 -117 -108t-141 -285
l-172 -410v-338q0 -129 24 -178t101 -78v-8z" />
    <glyph glyph-name="Thorn" unicode="&#xde;" horiz-adv-x="1157" 
d="M473 387h90q240 0 240 344q0 152 -50 230t-173 77h-107v-651zM621 0h-572v8q77 29 99 77t22 179v887q0 129 -23 176t-100 78v8h549v-8q-80 -31 -102 -78t-21 -176v-43h158q247 0 363 -88t116 -291t-128 -306t-366 -104h-143v-49q0 -125 28 -177t120 -85v-8z" />
    <glyph glyph-name="germandbls" unicode="&#xdf;" horiz-adv-x="1120" 
d="M600 -23v27q90 8 148 112t59 233q0 131 -83 235t-210 164l-4 16q129 106 176 218t47 245q0 252 -153 252q-94 -1 -128 -105t-34 -346v-772q0 -133 17 -177t81 -71v-8h-489v8q66 27 83 70t17 178v436q0 154 -18 198t-99 81v8l125 33q0 242 111 383t340 141q174 0 274 -80
t101 -209q-1 -72 -27 -115t-38 -61t-46 -48q-35 -30 -43 -38t-49 -39l-41 -28v-9q367 -203 366 -510q0 -197 -137 -309t-346 -113z" />
    <glyph glyph-name="agrave" unicode="&#xe0;" horiz-adv-x="970" 
d="M627 1163h-15q-238 86 -381 250h267q35 -127 129 -250zM494 551q-164 0 -164 -234q0 -102 38 -152q68 -90 201 -22v398q-51 10 -75 10zM43 242q0 346 526 358v145q0 250 -207 250q-76 0 -153 -39q65 -10 105 -49t40 -93t-40 -96t-98 -42t-99 39t-41 100q0 111 120 183
t293 71q322 0 355 -254q8 -43 8 -106v-433q0 -112 28 -146t105 -44v-8q-45 -39 -117 -69t-137 -29q-141 0 -160 137q-145 -141 -265 -141t-192 72q-72 73 -71 194z" />
    <glyph glyph-name="aacute" unicode="&#xe1;" horiz-adv-x="970" 
d="M354 1163h-16q94 119 131 250h266q-148 -164 -381 -250zM494 551q-164 0 -164 -234q0 -102 38 -152q68 -90 201 -22v398q-51 10 -75 10zM43 242q0 346 526 358v145q0 250 -207 250q-76 0 -153 -39q65 -10 105 -49t40 -93t-40 -96t-98 -42t-99 39t-41 100q0 111 120 183
t293 71q322 0 355 -254q8 -43 8 -106v-433q0 -112 28 -146t105 -44v-8q-45 -39 -117 -69t-137 -29q-141 0 -160 137q-145 -141 -265 -141t-192 72q-72 73 -71 194z" />
    <glyph glyph-name="acircumflex" unicode="&#xe2;" horiz-adv-x="970" 
d="M737 1163h-18l-238 109l-237 -109h-19l181 250h151zM494 551q-164 0 -164 -234q0 -102 38 -152q68 -90 201 -22v398q-51 10 -75 10zM43 242q0 346 526 358v145q0 250 -207 250q-76 0 -153 -39q65 -10 105 -49t40 -93t-40 -96t-98 -42t-99 39t-41 100q0 111 120 183
t293 71q322 0 355 -254q8 -43 8 -106v-433q0 -112 28 -146t105 -44v-8q-45 -39 -117 -69t-137 -29q-141 0 -160 137q-145 -141 -265 -141t-192 72q-72 73 -71 194z" />
    <glyph glyph-name="atilde" unicode="&#xe3;" horiz-adv-x="970" 
d="M584 1190q-48 0 -136 29t-116 28q-61 0 -103 -63l-12 4q16 76 56 142t114 65q47 0 132 -26t118 -26q61 1 104 62l13 -4q-49 -211 -170 -211zM494 551q-164 0 -164 -234q0 -102 38 -152q68 -90 201 -22v398q-51 10 -75 10zM43 242q0 346 526 358v145q0 250 -207 250
q-76 0 -153 -39q65 -10 105 -49t40 -93t-40 -96t-98 -42t-99 39t-41 100q0 111 120 183t293 71q322 0 355 -254q8 -43 8 -106v-433q0 -112 28 -146t105 -44v-8q-45 -39 -117 -69t-137 -29q-141 0 -160 137q-145 -141 -265 -141t-192 72q-72 73 -71 194z" />
    <glyph glyph-name="adieresis" unicode="&#xe4;" horiz-adv-x="970" 
d="M451 1292q0 -53 -38 -90t-91 -37t-93 38q-39 38 -39 90t39 90t93 38t91 -38q38 -38 38 -91zM772 1292q0 -53 -38 -90t-91 -37t-91 38t-38 90t37 90t91 38t92 -38t38 -91zM494 551q-164 0 -164 -234q0 -102 38 -152q68 -90 201 -22v398q-51 10 -75 10zM43 242
q0 346 526 358v145q0 250 -207 250q-76 0 -153 -39q65 -10 105 -49t40 -93t-40 -96t-98 -42t-99 39t-41 100q0 111 120 183t293 71q322 0 355 -254q8 -43 8 -106v-433q0 -112 28 -146t105 -44v-8q-45 -39 -117 -69t-137 -29q-141 0 -160 137q-145 -141 -265 -141t-192 72
q-72 73 -71 194z" />
    <glyph glyph-name="aring" unicode="&#xe5;" horiz-adv-x="970" 
d="M481 1231q47 0 80 36t33 85t-33 85t-80 36t-81 -36t-34 -85t34 -85t81 -36zM682 1352q0 -82 -59 -140t-141 -57q-82 0 -142 57q-59 58 -59 140t59 139t141 57q81 0 141 -57t60 -139zM494 551q-164 0 -164 -234q0 -102 38 -152q68 -90 201 -22v398q-51 10 -75 10zM43 242
q0 346 526 358v145q0 250 -207 250q-76 0 -153 -39q65 -10 105 -49t40 -93t-40 -96t-98 -42t-99 39t-41 100q0 111 120 183t293 71q322 0 355 -254q8 -43 8 -106v-433q0 -112 28 -146t105 -44v-8q-45 -39 -117 -69t-137 -29q-141 0 -160 137q-145 -141 -265 -141t-192 72
q-72 73 -71 194z" />
    <glyph glyph-name="ae" unicode="&#xe6;" horiz-adv-x="1409" 
d="M986 1016q-68 0 -104 -94t-42 -308l268 27q0 205 -27 290t-95 85zM569 342v197q-41 12 -75 12q-164 0 -164 -234q0 -190 121 -190q55 0 87 58q31 59 31 157zM970 -23q-258 0 -354 242h-8q-82 -244 -313 -244q-109 0 -181 73t-71 194q0 346 526 358v145q0 250 -207 250
q-76 0 -153 -39q65 -10 105 -49t40 -93t-40 -96t-98 -42t-99 39t-41 100q0 111 120 183t294 71q174 0 243 -106q103 106 269 106t264 -98t98 -303q0 -59 -2 -93h-522q0 -169 70 -281t211 -112q140 0 249 101l8 -11q-150 -295 -408 -295z" />
    <glyph glyph-name="ccedilla" unicode="&#xe7;" horiz-adv-x="858" 
d="M372 -375q108 -1 106 85q0 42 -53 74q-52 32 -112 34l125 162q-176 12 -280 149t-104 381t134 402q135 157 351 157q127 0 205 -57q78 -56 79 -136q0 -80 -42 -126t-102 -48q-60 0 -104 41q-43 41 -43 97t27 100q27 45 70 68q-10 10 -56 10q-240 0 -239 -412
q0 -221 80 -323q80 -103 204 -103t222 90l10 -8q-125 -270 -352 -282l-54 -84q72 -8 134 -52t61 -118q0 -76 -68 -115q-67 -39 -163 -39t-168 53l22 25q58 -25 110 -25z" />
    <glyph glyph-name="egrave" unicode="&#xe8;" horiz-adv-x="915" 
d="M657 1163h-14q-238 86 -381 250h266q35 -127 129 -250zM490 1016q-68 0 -104 -94t-42 -308l270 27q0 203 -27 289q-29 86 -97 86zM477 -23q-197 1 -311 141t-113 389q0 249 123 405t332 157q164 0 262 -98t98 -303v-93h-524q0 -169 71 -281t211 -112t248 101l9 -11
q-150 -295 -406 -295z" />
    <glyph glyph-name="eacute" unicode="&#xe9;" horiz-adv-x="915" 
d="M385 1163h-16q94 119 131 250h266q-148 -164 -381 -250zM490 1016q-68 0 -104 -94t-42 -308l270 27q0 203 -27 289q-29 86 -97 86zM477 -23q-197 1 -311 141t-113 389q0 249 123 405t332 157q164 0 262 -98t98 -303v-93h-524q0 -169 71 -281t211 -112t248 101l9 -11
q-150 -295 -406 -295z" />
    <glyph glyph-name="ecircumflex" unicode="&#xea;" horiz-adv-x="915" 
d="M768 1163h-18l-238 109l-238 -109h-18l180 250h152zM490 1016q-68 0 -104 -94t-42 -308l270 27q0 203 -27 289q-29 86 -97 86zM477 -23q-197 1 -311 141t-113 389q0 249 123 405t332 157q164 0 262 -98t98 -303v-93h-524q0 -169 71 -281t211 -112t248 101l9 -11
q-150 -295 -406 -295z" />
    <glyph glyph-name="edieresis" unicode="&#xeb;" horiz-adv-x="915" 
d="M481 1292q0 -53 -38 -90t-91 -37t-92 38t-39 90t39 90t92 38t91 -38t38 -91zM803 1292q0 -53 -38 -90t-92 -37t-91 38t-37 90t37 90t91 38t92 -38t38 -91zM490 1016q-68 0 -104 -94t-42 -308l270 27q0 203 -27 289q-29 86 -97 86zM477 -23q-197 1 -311 141t-113 389
q0 249 123 405t332 157q164 0 262 -98t98 -303v-93h-524q0 -169 71 -281t211 -112t248 101l9 -11q-150 -295 -406 -295z" />
    <glyph glyph-name="igrave" unicode="&#xec;" horiz-adv-x="542" 
d="M442 1163h-14q-238 86 -381 250h266q35 -127 129 -250zM522 0h-485v8q66 29 83 72t17 172v463q0 145 -17 186t-93 74v10q180 12 387 84h10v-817q0 -131 16 -173t82 -71v-8z" />
    <glyph glyph-name="iacute" unicode="&#xed;" horiz-adv-x="542" 
d="M170 1163h-16q94 119 131 250h266q-148 -164 -381 -250zM477 0h-485v8q66 29 83 72t17 172v463q0 145 -17 186t-93 74v10q180 12 387 84h10v-817q0 -131 16 -173t82 -71v-8z" />
    <glyph glyph-name="icircumflex" unicode="&#xee;" horiz-adv-x="542" 
d="M532 1163h-18l-238 109l-237 -109h-19l181 250h151zM518 0h-485v8q66 29 83 72t17 172v463q0 145 -17 186t-93 74v10q180 12 387 84h10v-817q0 -131 16 -173t82 -71v-8z" />
    <glyph glyph-name="idieresis" unicode="&#xef;" horiz-adv-x="542" 
d="M266 1292q0 -53 -38 -90t-91 -37t-92 38t-39 90t39 90t92 38t91 -38t38 -91zM588 1292q0 -53 -38 -90t-91 -37t-91 38t-38 90t37 90t91 38t92 -38t38 -91zM498 0h-486v8q66 29 83 72t18 172v463q1 145 -17 186t-94 74v10q180 12 387 84h10v-817q1 -131 17 -173t82 -71v-8
z" />
    <glyph glyph-name="eth" unicode="&#xf0;" 
d="M371 527q0 -249 39 -375t138 -125q99 0 139 127q40 128 40 374t-42 367t-137 121t-136 -120t-41 -369zM1036 528q0 -252 -135 -402t-353 -151q-218 1 -353 147t-135 400t136 400q138 146 353 147q49 0 98 -22q-76 150 -198 294l-181 -73l-28 57l163 66q-82 86 -151 145
h14q121 -61 205 -119l211 86l29 -57l-179 -72q504 -365 504 -846z" />
    <glyph glyph-name="ntilde" unicode="&#xf1;" horiz-adv-x="1107" 
d="M680 1190q-49 0 -136 29t-116 28q-61 0 -102 -63l-13 4q17 76 57 142t113 65q47 0 132 -26t118 -26q62 1 105 62l12 -4q-49 -211 -170 -211zM1087 0h-481v8q63 29 79 72q15 43 15 188v467q0 195 -155 195q-57 0 -127 -31v-647q0 -133 15 -174t81 -70v-8h-483v8
q66 29 83 71t17 173v457q0 153 -16 193t-92 73v10q172 12 385 84h10v-143q137 141 309 141q121 0 192 -75t70 -238v-502q-1 -129 17 -172t81 -72v-8z" />
    <glyph glyph-name="ograve" unicode="&#xf2;" 
d="M692 1163h-14q-238 86 -381 250h266q35 -127 129 -250zM369 527q0 -247 40 -373t139 -127q99 0 139 126q40 127 40 373t-43 368t-137 122t-136 -121t-42 -368zM547 -25q-219 1 -354 147t-135 400t138 400t353 147q215 0 351 -141q136 -140 136 -396t-135 -406t-354 -151z
" />
    <glyph glyph-name="oacute" unicode="&#xf3;" 
d="M422 1163h-16q94 119 131 250h266q-148 -164 -381 -250zM369 527q0 -247 40 -373t139 -127q99 0 139 126q40 127 40 373t-43 368t-137 122t-136 -121t-42 -368zM547 -25q-219 1 -354 147t-135 400t138 400t353 147q215 0 351 -141q136 -140 136 -396t-135 -406t-354 -151
z" />
    <glyph glyph-name="ocircumflex" unicode="&#xf4;" 
d="M803 1163h-19l-237 109l-238 -109h-18l180 250h152zM369 527q0 -247 40 -373t139 -127q99 0 139 126q40 127 40 373t-43 368t-137 122t-136 -121t-42 -368zM547 -25q-219 1 -354 147t-135 400t138 400t353 147q215 0 351 -141q136 -140 136 -396t-135 -406t-354 -151z
" />
    <glyph glyph-name="otilde" unicode="&#xf5;" 
d="M651 1190q-49 0 -136 29t-116 28q-61 0 -102 -63l-12 4q16 76 56 142t114 65q47 0 132 -26t118 -26q61 1 104 62l12 -4q-49 -211 -170 -211zM369 527q0 -247 40 -373t139 -127q99 0 139 126q40 127 40 373t-43 368t-137 122t-136 -121t-42 -368zM547 -25q-219 1 -354 147
t-135 400t138 400t353 147q215 0 351 -141q136 -140 136 -396t-135 -406t-354 -151z" />
    <glyph glyph-name="odieresis" unicode="&#xf6;" 
d="M516 1292q0 -53 -38 -90t-91 -37t-92 38t-39 90t39 90t92 38t91 -38t38 -91zM838 1292q0 -53 -38 -90t-91 -37t-92 38q-37 38 -37 90t36 90q38 38 92 38t92 -38t38 -91zM369 527q0 -247 40 -373t139 -127q99 0 139 126q40 127 40 373t-43 368t-137 122t-136 -121
t-42 -368zM547 -25q-219 1 -354 147t-135 400t138 400t353 147q215 0 351 -141q136 -140 136 -396t-135 -406t-354 -151z" />
    <glyph glyph-name="divide" unicode="&#xf7;" horiz-adv-x="1062" 
d="M938 506h-815v143h815v-143zM686 965q0 -63 -45 -107t-110 -45q-65 0 -109 44q-44 43 -45 107q0 64 45 109t109 45q63 0 109 -45t46 -108zM532 23q-63 0 -109 45t-46 108q0 62 46 108t109 46q62 0 108 -45t46 -109t-46 -108q-46 -45 -108 -45z" />
    <glyph glyph-name="oslash" unicode="&#xf8;" 
d="M550 1016q-181 0 -181 -440q0 -198 10 -279l311 580q-43 139 -140 139zM546 27q182 1 181 439q0 186 -12 282l-312 -580q41 -141 143 -141zM57 520q1 256 139 402t351 147q121 0 221 -47l78 143l72 -41l-78 -143q197 -143 196 -453q0 -252 -135 -402t-354 -151
q-123 0 -221 48l-76 -142l-74 39l78 146q-197 147 -197 454z" />
    <glyph glyph-name="ugrave" unicode="&#xf9;" 
d="M715 1163h-15q-238 86 -381 250h267q35 -127 129 -250zM692 -25v146h-2q-141 -145 -303 -146q-115 0 -187 71t-73 222v426q0 115 -8 163q-7 48 -27 71t-76 47v10q174 12 387 84h11v-780q0 -172 147 -172q74 0 129 30v541q0 200 -35 241q-18 22 -67 46v10q166 12 379 84
h10v-719q0 -166 16 -208t94 -74v-9q-180 -16 -385 -84h-10z" />
    <glyph glyph-name="uacute" unicode="&#xfa;" 
d="M442 1163h-16q94 119 131 250h266q-148 -164 -381 -250zM692 -25v146h-2q-141 -145 -303 -146q-115 0 -187 71t-73 222v426q0 115 -8 163q-7 48 -27 71t-76 47v10q174 12 387 84h11v-780q0 -172 147 -172q74 0 129 30v541q0 200 -35 241q-18 22 -67 46v10q166 12 379 84
h10v-719q0 -166 16 -208t94 -74v-9q-180 -16 -385 -84h-10z" />
    <glyph glyph-name="ucircumflex" unicode="&#xfb;" 
d="M825 1163h-18l-238 109l-237 -109h-19l181 250h151zM692 -25v146h-2q-141 -145 -303 -146q-115 0 -187 71t-73 222v426q0 115 -8 163q-7 48 -27 71t-76 47v10q174 12 387 84h11v-780q0 -172 147 -172q74 0 129 30v541q0 200 -35 241q-18 22 -67 46v10q166 12 379 84h10
v-719q0 -166 16 -208t94 -74v-9q-180 -16 -385 -84h-10z" />
    <glyph glyph-name="udieresis" unicode="&#xfc;" 
d="M539 1292q0 -53 -38 -90t-91 -37t-93 38q-39 38 -39 90t39 90t93 38t91 -38q38 -38 38 -91zM860 1292q0 -53 -38 -90t-92 -37t-91 38t-37 90t37 90t91 38t92 -38t38 -91zM692 -25v146h-2q-141 -145 -303 -146q-115 0 -187 71t-73 222v426q0 115 -8 163q-7 48 -27 71
t-76 47v10q174 12 387 84h11v-780q0 -172 147 -172q74 0 129 30v541q0 200 -35 241q-18 22 -67 46v10q166 12 379 84h10v-719q0 -166 16 -208t94 -74v-9q-180 -16 -385 -84h-10z" />
    <glyph glyph-name="yacute" unicode="&#xfd;" horiz-adv-x="1001" 
d="M422 1163h-16q94 119 131 250h266q-148 -164 -381 -250zM2 1044h498v-10q-46 -12 -66 -38t-20 -85t39 -211l137 -528q154 547 153 676q0 90 -16 131t-70 55v10h342v-8q-53 -24 -98 -108t-104 -293l-217 -764q-102 -360 -306 -360q-70 1 -116 41t-47 96q0 56 37 99
q38 42 96 42t99 -41q40 -41 44 -104q68 63 119 229l39 127h-174l-176 614q-76 260 -107 329t-86 93v8z" />
    <glyph glyph-name="thorn" unicode="&#xfe;" horiz-adv-x="1120" 
d="M532 29q104 0 171 125t67 346q0 432 -235 434q-62 0 -115 -27v-841q59 -37 112 -37zM545 -471h-520v8q66 29 83 72t17 172v1403q0 147 -17 187t-94 73v8q219 18 396 84h10v-602q129 135 293 135t258 -136t94 -353q0 -158 -51 -281t-133 -191q-162 -134 -361 -133
q-8 0 -100 7v-183q0 -143 22 -188t103 -74v-8z" />
    <glyph glyph-name="ydieresis" unicode="&#xff;" horiz-adv-x="1001" 
d="M518 1292q0 -53 -38 -90t-91 -37t-92 38t-39 90t39 90t92 38t91 -38t38 -91zM840 1292q0 -53 -38 -90t-92 -37t-92 38q-36 38 -36 90t36 90q38 38 92 38t92 -38t38 -91zM2 1044h498v-10q-46 -12 -66 -38t-20 -85t39 -211l137 -528q154 547 153 676q0 90 -16 131t-70 55
v10h342v-8q-53 -24 -98 -108t-104 -293l-217 -764q-102 -360 -306 -360q-70 1 -116 41t-47 96q0 56 37 99q38 42 96 42t99 -41q40 -41 44 -104q68 63 119 229l39 127h-174l-176 614q-76 260 -107 329t-86 93v8z" />
    <glyph glyph-name="Amacron" unicode="&#x100;" horiz-adv-x="1292" 
d="M920 1569h-527v119h527v-119zM735 590l-174 643l-180 -643h354zM1284 0h-541v8q51 14 74 41t23 93t-82 370h-400q-72 -248 -72 -333t28 -118q26 -33 89 -53v-8h-397v8q74 39 124 138t142 407l254 860h262l273 -930q80 -276 120 -358t103 -117v-8z" />
    <glyph glyph-name="amacron" unicode="&#x101;" horiz-adv-x="970" 
d="M743 1237h-526v119h526v-119zM494 551q-164 0 -164 -234q0 -102 38 -152q68 -90 201 -22v398q-51 10 -75 10zM43 242q0 346 526 358v145q0 250 -207 250q-76 0 -153 -39q65 -10 105 -49t40 -93t-40 -96t-98 -42t-99 39t-41 100q0 111 120 183t293 71q322 0 355 -254
q8 -43 8 -106v-433q0 -112 28 -146t105 -44v-8q-45 -39 -117 -69t-137 -29q-141 0 -160 137q-145 -141 -265 -141t-192 72q-72 73 -71 194z" />
    <glyph glyph-name="Abreve" unicode="&#x102;" horiz-adv-x="1292" 
d="M657 1493q-104 0 -170 75t-79 187h14q53 -123 235 -123q73 0 141 30t97 93h12q-14 -113 -80 -187t-170 -75zM735 590l-174 643l-180 -643h354zM1284 0h-541v8q51 14 74 41t23 93t-82 370h-400q-72 -248 -72 -333t28 -118q26 -33 89 -53v-8h-397v8q74 39 124 138t142 407
l254 860h262l273 -930q80 -276 120 -358t103 -117v-8z" />
    <glyph glyph-name="abreve" unicode="&#x103;" horiz-adv-x="970" 
d="M481 1161q-104 0 -170 75t-80 187h15q53 -123 235 -123q73 0 141 30t97 93h12q-14 -113 -80 -187t-170 -75zM494 551q-164 0 -164 -234q0 -102 38 -152q68 -90 201 -22v398q-51 10 -75 10zM43 242q0 346 526 358v145q0 250 -207 250q-76 0 -153 -39q65 -10 105 -49
t40 -93t-40 -96t-98 -42t-99 39t-41 100q0 111 120 183t293 71q322 0 355 -254q8 -43 8 -106v-433q0 -112 28 -146t105 -44v-8q-45 -39 -117 -69t-137 -29q-141 0 -160 137q-145 -141 -265 -141t-192 72q-72 73 -71 194z" />
    <glyph glyph-name="Aogonek" unicode="&#x104;" horiz-adv-x="1292" 
d="M735 590l-174 643l-180 -643h354zM1109 -428q-63 0 -103 40t-41 97q0 141 307 291h-529v8q51 14 74 41t23 93t-82 370h-400q-72 -248 -72 -333t28 -118q26 -33 89 -53v-8h-397v8q74 39 124 138t142 407l254 860h262l273 -930q80 -276 120 -358t103 -117v-8h-2
q-139 -156 -139 -262q1 -37 25 -57q44 -36 116 -13v-8q-24 -32 -68 -60t-107 -28z" />
    <glyph glyph-name="aogonek" unicode="&#x105;" horiz-adv-x="970" 
d="M494 551q-164 0 -164 -234q0 -102 38 -152q68 -90 201 -22v398q-51 10 -75 10zM810 -428q-64 0 -104 40t-40 100t60 146t144 152q-72 -31 -139 -30q-141 0 -160 137q-145 -141 -265 -141t-192 72q-72 73 -71 194q0 346 526 358v145q0 250 -207 250q-76 0 -153 -39
q65 -10 105 -49t40 -93t-40 -96t-98 -42t-99 39t-41 100q0 111 120 183t293 71q322 0 355 -254q8 -43 8 -106v-433q0 -112 28 -146t105 -44v-8q-53 -58 -97 -164t-44 -160q0 -92 88 -94q28 0 53 8v-8q-23 -32 -67 -60t-108 -28z" />
    <glyph glyph-name="Cacute" unicode="&#x106;" horiz-adv-x="1210" 
d="M639 1495h-16q94 119 131 250h266q-148 -164 -381 -250zM760 -31q-308 1 -498 185t-190 536q0 190 58 338t158 236q203 178 482 178q197 0 348 -70l6 -319h-8q-88 167 -174 243t-186 76q-166 0 -260 -170t-94 -492t96 -500q98 -177 280 -177t367 360h12l-27 -348
q-141 -76 -370 -76z" />
    <glyph glyph-name="cacute" unicode="&#x107;" horiz-adv-x="858" 
d="M393 1163h-16q94 119 131 250h266q-148 -164 -381 -250zM471 -23q-188 -1 -303 139t-115 390t135 406q135 157 351 157q127 0 205 -57q78 -56 79 -136q0 -80 -42 -126t-102 -48q-60 0 -104 41q-43 41 -43 97t27 100q27 45 70 68q-10 10 -56 10q-240 0 -239 -412
q0 -221 80 -323q80 -103 204 -103t222 90l10 -8q-96 -203 -230 -258q-67 -27 -149 -27z" />
    <glyph glyph-name="Ccircumflex" unicode="&#x108;" horiz-adv-x="1210" 
d="M1022 1495h-18l-238 109l-238 -109h-18l180 250h152zM760 -31q-308 1 -498 185t-190 536q0 190 58 338t158 236q203 178 482 178q197 0 348 -70l6 -319h-8q-88 167 -174 243t-186 76q-166 0 -260 -170t-94 -492t96 -500q98 -177 280 -177t367 360h12l-27 -348
q-141 -76 -370 -76z" />
    <glyph glyph-name="ccircumflex" unicode="&#x109;" horiz-adv-x="858" 
d="M776 1163h-18l-238 109l-237 -109h-19l180 250h152zM471 -23q-188 -1 -303 139t-115 390t135 406q135 157 351 157q127 0 205 -57q78 -56 79 -136q0 -80 -42 -126t-102 -48q-60 0 -104 41q-43 41 -43 97t27 100q27 45 70 68q-10 10 -56 10q-240 0 -239 -412
q0 -221 80 -323q80 -103 204 -103t222 90l10 -8q-96 -203 -230 -258q-67 -27 -149 -27z" />
    <glyph glyph-name="Cdotaccent" unicode="&#x10a;" horiz-adv-x="1210" 
d="M895 1624q0 -53 -38 -90t-91 -37t-91 37t-38 90t38 91t91 38t91 -38t38 -91zM760 -31q-308 1 -498 185t-190 536q0 190 58 338t158 236q203 178 482 178q197 0 348 -70l6 -319h-8q-88 167 -174 243t-186 76q-166 0 -260 -170t-94 -492t96 -500q98 -177 280 -177t367 360
h12l-27 -348q-141 -76 -370 -76z" />
    <glyph glyph-name="cdotaccent" unicode="&#x10b;" horiz-adv-x="858" 
d="M649 1292q0 -53 -38 -90t-91 -37t-91 37t-38 90t38 91t91 38t91 -38t38 -91zM471 -23q-188 -1 -303 139t-115 390t135 406q135 157 351 157q127 0 205 -57q78 -56 79 -136q0 -80 -42 -126t-102 -48q-60 0 -104 41q-43 41 -43 97t27 100q27 45 70 68q-10 10 -56 10
q-240 0 -239 -412q0 -221 80 -323q80 -103 204 -103t222 90l10 -8q-96 -203 -230 -258q-67 -27 -149 -27z" />
    <glyph glyph-name="Ccaron" unicode="&#x10c;" horiz-adv-x="1210" 
d="M842 1495h-152l-180 250h18l238 -109l238 109h18zM760 -31q-308 1 -498 185t-190 536q0 190 58 338t158 236q203 178 482 178q197 0 348 -70l6 -319h-8q-88 167 -174 243t-186 76q-166 0 -260 -170t-94 -492t96 -500q98 -177 280 -177t367 360h12l-27 -348
q-141 -76 -370 -76z" />
    <glyph glyph-name="ccaron" unicode="&#x10d;" horiz-adv-x="858" 
d="M596 1163h-152l-180 250h19l237 -108l238 108h18zM471 -23q-188 -1 -303 139t-115 390t135 406q135 157 351 157q127 0 205 -57q78 -56 79 -136q0 -80 -42 -126t-102 -48q-60 0 -104 41q-43 41 -43 97t27 100q27 45 70 68q-10 10 -56 10q-240 0 -239 -412q0 -221 80 -323
q80 -103 204 -103t222 90l10 -8q-96 -203 -230 -258q-67 -27 -149 -27z" />
    <glyph glyph-name="Dcaron" unicode="&#x10e;" horiz-adv-x="1392" 
d="M760 1495h-152l-180 250h18l238 -109l238 109h18zM473 70h131q403 0 404 655q0 287 -100 453t-281 165h-154v-1273zM627 0h-578v8q77 29 99 77t22 179v885q0 131 -22 178t-99 78v8h604q324 0 500 -167t176 -515q0 -347 -179 -539t-523 -192z" />
    <glyph glyph-name="dcaron" unicode="&#x10f;" horiz-adv-x="1280" 
d="M1067 1398q0 32 31 58q31 27 83 27t83 -30t30 -79q0 -103 -213 -291l-10 4q5 92 1 186q-5 93 -5 125zM550 1014q-92 0 -146 -124t-54 -327q0 -434 234 -434q55 0 112 33v774q-55 78 -146 78zM404 -25q-154 -1 -250 133t-96 378t136 414q136 169 359 169q39 0 143 -16v157
q0 115 -22 153q-23 38 -105 73v8q188 18 410 92h8v-1182q1 -160 19 -210t94 -85v-10q-193 -12 -393 -74h-9l-2 158q-139 -158 -292 -158z" />
    <glyph glyph-name="Dcroat" unicode="&#x110;" horiz-adv-x="1392" 
d="M473 70h131q403 0 404 655q0 287 -100 453t-281 165h-154v-575h203v-84h-203v-614zM627 0h-578v8q77 29 99 77t22 179v420h-125v84h125v381q0 131 -22 178t-99 78v8h604q324 0 500 -167t176 -515q0 -347 -179 -539t-523 -192z" />
    <glyph glyph-name="dcroat" unicode="&#x111;" horiz-adv-x="1103" 
d="M550 1014q-92 0 -146 -124t-54 -327q0 -434 234 -434q55 0 112 33v774q-55 78 -146 78zM404 -25q-154 -1 -250 133t-96 378t136 414q136 169 359 169q39 0 143 -16v131h-286v80h286q-4 78 -28 110t-99 62v8q188 18 410 92h8v-272h98v-80h-98v-830q1 -160 19 -210t94 -85
v-10q-193 -12 -393 -74h-9l-2 158q-139 -158 -292 -158z" />
    <glyph glyph-name="Emacron" unicode="&#x112;" horiz-adv-x="1052" 
d="M803 1569h-527v119h527v-119zM47 0v8q79 29 101 77t22 179v885q0 129 -23 177t-100 79v8h889v-340h-10q-109 170 -162 220t-152 50h-139v-583h127q86 0 132 34t108 130h10v-392h-10q-60 92 -108 125t-132 33h-127v-620h119q120 0 184 50t199 226q14 18 20 27h13l-35 -373
h-926z" />
    <glyph glyph-name="emacron" unicode="&#x113;" horiz-adv-x="915" 
d="M774 1237h-526v119h526v-119zM490 1016q-68 0 -104 -94t-42 -308l270 27q0 203 -27 289q-29 86 -97 86zM477 -23q-197 1 -311 141t-113 389q0 249 123 405t332 157q164 0 262 -98t98 -303v-93h-524q0 -169 71 -281t211 -112t248 101l9 -11q-150 -295 -406 -295z" />
    <glyph glyph-name="Ebreve" unicode="&#x114;" horiz-adv-x="1052" 
d="M541 1493q-104 0 -170 75t-80 187h14q53 -123 236 -123q72 0 140 30t97 93h13q-14 -113 -80 -187t-170 -75zM47 0v8q79 29 101 77t22 179v885q0 129 -23 177t-100 79v8h889v-340h-10q-109 170 -162 220t-152 50h-139v-583h127q86 0 132 34t108 130h10v-392h-10
q-60 92 -108 125t-132 33h-127v-620h119q120 0 184 50t199 226q14 18 20 27h13l-35 -373h-926z" />
    <glyph glyph-name="ebreve" unicode="&#x115;" horiz-adv-x="915" 
d="M512 1161q-104 0 -170 75t-80 187h14q53 -123 236 -123q72 0 140 30t98 93h12q-14 -113 -80 -187t-170 -75zM490 1016q-68 0 -104 -94t-42 -308l270 27q0 203 -27 289q-29 86 -97 86zM477 -23q-197 1 -311 141t-113 389q0 249 123 405t332 157q164 0 262 -98t98 -303v-93
h-524q0 -169 71 -281t211 -112t248 101l9 -11q-150 -295 -406 -295z" />
    <glyph glyph-name="Edotaccent" unicode="&#x116;" horiz-adv-x="1052" 
d="M670 1624q0 -53 -38 -90t-91 -37t-91 37t-38 90t38 91t91 38t91 -38t38 -91zM47 0v8q79 29 101 77t22 179v885q0 129 -23 177t-100 79v8h889v-340h-10q-109 170 -162 220t-152 50h-139v-583h127q86 0 132 34t108 130h10v-392h-10q-60 92 -108 125t-132 33h-127v-620h119
q120 0 184 50t199 226q14 18 20 27h13l-35 -373h-926z" />
    <glyph glyph-name="edotaccent" unicode="&#x117;" horiz-adv-x="915" 
d="M641 1292q0 -53 -38 -90t-91 -37t-91 37t-38 90t38 91t91 38t91 -38t38 -91zM490 1016q-68 0 -104 -94t-42 -308l270 27q0 203 -27 289q-29 86 -97 86zM477 -23q-197 1 -311 141t-113 389q0 249 123 405t332 157q164 0 262 -98t98 -303v-93h-524q0 -169 71 -281t211 -112
t248 101l9 -11q-150 -295 -406 -295z" />
    <glyph glyph-name="Eogonek" unicode="&#x118;" horiz-adv-x="1052" 
d="M804 -428q-62 0 -104 40q-41 40 -41 97q0 141 308 291h-920v8q79 29 101 77t22 179v885q0 129 -23 177t-100 79v8h889v-340h-10q-109 170 -162 220t-152 50h-139v-583h127q86 0 132 34t108 130h10v-392h-10q-60 92 -108 125t-132 33h-127v-620h119q120 0 184 50t199 226
q14 18 20 27h13l-35 -373h4q-139 -156 -139 -262q0 -37 24 -57q44 -36 117 -13v-8q-23 -32 -68 -60t-107 -28z" />
    <glyph glyph-name="eogonek" unicode="&#x119;" horiz-adv-x="915" 
d="M490 1016q-68 0 -104 -94t-42 -308l270 27q0 203 -27 289q-29 86 -97 86zM708 -428q-62 0 -105 40q-42 40 -42 97q0 80 195 371q14 23 20 33q-124 -135 -310 -135t-300 140t-113 389q0 249 123 405t332 157q164 0 262 -98t98 -303v-93h-524q0 -169 71 -281t211 -112
t248 101l9 -11q-43 -114 -92 -286t-50 -248q0 -37 25 -57q42 -34 117 -13v-8q-23 -32 -68 -60t-107 -28z" />
    <glyph glyph-name="Ecaron" unicode="&#x11a;" horiz-adv-x="1052" 
d="M616 1495h-151l-180 250h18l238 -109l237 109h19zM47 0v8q79 29 101 77t22 179v885q0 129 -23 177t-100 79v8h889v-340h-10q-109 170 -162 220t-152 50h-139v-583h127q86 0 132 34t108 130h10v-392h-10q-60 92 -108 125t-132 33h-127v-620h119q120 0 184 50t199 226
q14 18 20 27h13l-35 -373h-926z" />
    <glyph glyph-name="ecaron" unicode="&#x11b;" horiz-adv-x="915" 
d="M588 1163h-152l-180 250h18l238 -108l238 108h18zM490 1016q-68 0 -104 -94t-42 -308l270 27q0 203 -27 289q-29 86 -97 86zM477 -23q-197 1 -311 141t-113 389q0 249 123 405t332 157q164 0 262 -98t98 -303v-93h-524q0 -169 71 -281t211 -112t248 101l9 -11
q-150 -295 -406 -295z" />
    <glyph glyph-name="Gcircumflex" unicode="&#x11c;" horiz-adv-x="1331" 
d="M1042 1495h-18l-238 109l-237 -109h-19l181 250h151zM932 430q0 100 -25 154t-94 90v8h494v-8q-59 -37 -77 -79t-18 -163v-371q-287 -92 -475 -92q-297 -1 -482 183t-185 544q0 186 62 332t168 236q213 178 491 178q233 0 376 -66l2 -334h-10q-186 332 -385 332
q-168 0 -269 -171t-101 -495t98 -495q98 -170 278 -170q89 0 152 23v364z" />
    <glyph glyph-name="gcircumflex" unicode="&#x11d;" horiz-adv-x="917" 
d="M709 1163h-19l-237 109l-238 -109h-18l180 250h151zM451 399q129 0 129 308q0 163 -31 237t-98 74q-129 0 -129 -309q0 -160 30 -235t99 -75zM455 -442q131 0 218 72t87 171q0 141 -197 148q-266 12 -278 12q-102 -63 -103 -186q0 -89 71 -153t202 -64zM926 -88
q0 -184 -161 -294t-351 -110t-313 70q-124 70 -124 166t77 152t175 73q-158 37 -157 172q0 72 49 137t131 107q-203 86 -203 317q0 170 110 268t290 99q94 0 180 -35l319 33l-14 -137l-176 22q92 -92 92 -248t-111 -255q-111 -98 -290 -99q-98 0 -170 25q-41 -51 -41 -90
q-1 -68 122 -74l254 -10q144 -4 228 -81t84 -208z" />
    <glyph glyph-name="Gbreve" unicode="&#x11e;" horiz-adv-x="1331" 
d="M786 1493q-104 0 -170 75t-79 187h14q53 -123 235 -123q72 0 140 30t98 93h12q-14 -113 -80 -187t-170 -75zM932 430q0 100 -25 154t-94 90v8h494v-8q-59 -37 -77 -79t-18 -163v-371q-287 -92 -475 -92q-297 -1 -482 183t-185 544q0 186 62 332t168 236q213 178 491 178
q233 0 376 -66l2 -334h-10q-186 332 -385 332q-168 0 -269 -171t-101 -495t98 -495q98 -170 278 -170q89 0 152 23v364z" />
    <glyph glyph-name="gbreve" unicode="&#x11f;" horiz-adv-x="917" 
d="M453 1161q-104 0 -170 75t-80 187h14q53 -123 236 -123q72 0 140 30t97 93h12q-14 -113 -80 -187t-169 -75zM451 399q129 0 129 308q0 163 -31 237t-98 74q-129 0 -129 -309q0 -160 30 -235t99 -75zM455 -442q131 0 218 72t87 171q0 141 -197 148q-266 12 -278 12
q-102 -63 -103 -186q0 -89 71 -153t202 -64zM926 -88q0 -184 -161 -294t-351 -110t-313 70q-124 70 -124 166t77 152t175 73q-158 37 -157 172q0 72 49 137t131 107q-203 86 -203 317q0 170 110 268t290 99q94 0 180 -35l319 33l-14 -137l-176 22q92 -92 92 -248t-111 -255
q-111 -98 -290 -99q-98 0 -170 25q-41 -51 -41 -90q-1 -68 122 -74l254 -10q144 -4 228 -81t84 -208z" />
    <glyph glyph-name="Gdotaccent" unicode="&#x120;" horiz-adv-x="1331" 
d="M915 1624q1 -53 -37 -90t-92 -37t-91 37q-38 37 -38 90t38 91t91 38t91 -38t38 -91zM932 430q0 100 -25 154t-94 90v8h494v-8q-59 -37 -77 -79t-18 -163v-371q-287 -92 -475 -92q-297 -1 -482 183t-185 544q0 186 62 332t168 236q213 178 491 178q233 0 376 -66l2 -334
h-10q-186 332 -385 332q-168 0 -269 -171t-101 -495t98 -495q98 -170 278 -170q89 0 152 23v364z" />
    <glyph glyph-name="gdotaccent" unicode="&#x121;" horiz-adv-x="917" 
d="M582 1292q0 -53 -38 -90t-91 -37t-92 37q-38 37 -37 90q0 53 37 91t91 38t92 -38t38 -91zM451 399q129 0 129 308q0 163 -31 237t-98 74q-129 0 -129 -309q0 -160 30 -235t99 -75zM455 -442q131 0 218 72t87 171q0 141 -197 148q-266 12 -278 12q-102 -63 -103 -186
q0 -89 71 -153t202 -64zM926 -88q0 -184 -161 -294t-351 -110t-313 70q-124 70 -124 166t77 152t175 73q-158 37 -157 172q0 72 49 137t131 107q-203 86 -203 317q0 170 110 268t290 99q94 0 180 -35l319 33l-14 -137l-176 22q92 -92 92 -248t-111 -255q-111 -98 -290 -99
q-98 0 -170 25q-41 -51 -41 -90q-1 -68 122 -74l254 -10q144 -4 228 -81t84 -208z" />
    <glyph glyph-name="Gcommaaccent" unicode="&#x122;" horiz-adv-x="1331" 
d="M670 -348q0 39 -26 75q-26 37 -26 77t33 69t84 29t84 -33t33 -86q0 -135 -240 -266l-8 8q66 88 66 127zM932 430q0 100 -25 154t-94 90v8h494v-8q-59 -37 -77 -79t-18 -163v-371q-287 -92 -475 -92q-297 -1 -482 183t-185 544q0 186 62 332t168 236q213 178 491 178
q233 0 376 -66l2 -334h-10q-186 332 -385 332q-168 0 -269 -171t-101 -495t98 -495q98 -170 278 -170q89 0 152 23v364z" />
    <glyph glyph-name="gcommaaccent" unicode="&#x123;" horiz-adv-x="917" 
d="M459 1163q-51 0 -84 33t-33 86q0 133 240 262l6 -8q-64 -90 -64 -125t26 -72t26 -77t-34 -69q-32 -30 -83 -30zM451 399q129 0 129 308q0 163 -31 237t-98 74q-129 0 -129 -309q0 -160 30 -235t99 -75zM455 -442q131 0 218 72t87 171q0 141 -197 148q-266 12 -278 12
q-102 -63 -103 -186q0 -89 71 -153t202 -64zM926 -88q0 -184 -161 -294t-351 -110t-313 70q-124 70 -124 166t77 152t175 73q-158 37 -157 172q0 72 49 137t131 107q-203 86 -203 317q0 170 110 268t290 99q94 0 180 -35l319 33l-14 -137l-176 22q92 -92 92 -248t-111 -255
q-111 -98 -290 -99q-98 0 -170 25q-41 -51 -41 -90q-1 -68 122 -74l254 -10q144 -4 228 -81t84 -208z" />
    <glyph glyph-name="Hcircumflex" unicode="&#x124;" horiz-adv-x="1429" 
d="M967 1495h-19l-237 109l-238 -109h-18l180 250h151zM1380 0h-546v8q78 29 100 77t20 179v420h-481v-420q0 -131 22 -179t101 -77v-8h-549v8q79 29 101 77t22 179v887q0 129 -22 176t-101 78v8h549v-8q-80 -31 -102 -78t-21 -176v-385h481v385q0 129 -21 176
q-22 47 -99 78v8h546v-8q-78 -31 -100 -78t-23 -176v-887q0 -131 23 -179t100 -77v-8z" />
    <glyph glyph-name="hcircumflex" unicode="&#x125;" horiz-adv-x="1138" 
d="M526 1575h-18l-238 108l-237 -108h-19l181 250h151zM1094 0h-482v8q61 29 78 71q16 42 17 173v473q0 97 -41 151t-112 54t-132 -31v-647q0 -131 16 -173t80 -71v-8h-489v8q66 29 84 72t18 172v919q0 150 -18 194t-93 77v10q199 18 392 84h10v-608q145 141 307 141
q123 0 195 -77t71 -242v-471q1 -152 17 -197t82 -74v-8z" />
    <glyph glyph-name="Hbar" unicode="&#x126;" horiz-adv-x="1429" 
d="M954 766v225h-481v-225h481zM1380 0h-546v8q78 29 100 77t20 179v420h-481v-420q0 -131 22 -179t101 -77v-8h-549v8q79 29 101 77t22 179v727h-121v84h121v76q0 129 -22 176t-101 78v8h549v-8q-80 -31 -102 -78t-21 -176v-76h481v76q0 129 -21 176q-22 47 -99 78v8h546
v-8q-78 -31 -100 -78t-23 -176v-76h123v-84h-123v-727q0 -131 23 -179t100 -77v-8z" />
    <glyph glyph-name="hbar" unicode="&#x127;" horiz-adv-x="1138" 
d="M1094 0h-482v8q61 29 78 71q16 42 17 173v473q0 97 -41 151t-112 54t-132 -31v-647q0 -131 16 -173t80 -71v-8h-489v8q66 29 84 72t18 172v926h-104v82h102q-2 88 -24 122t-85 60v10q190 16 392 86h10v-278h278v-82h-278v-250q145 141 307 141q123 0 195 -77t71 -242
v-471q1 -152 17 -197t82 -74v-8z" />
    <glyph glyph-name="Itilde" unicode="&#x128;" horiz-adv-x="643" 
d="M426 1522q-49 0 -136 28t-116 29q-61 0 -102 -63l-13 4q17 76 57 142t113 64q47 0 132 -26t118 -25q62 1 105 62l12 -4q-49 -211 -170 -211zM596 0h-549v8q79 29 101 76t22 176v891q0 129 -22 176t-101 78v8h549v-8q-80 -31 -102 -78t-21 -176v-891q0 -129 22 -176
t101 -76v-8z" />
    <glyph glyph-name="itilde" unicode="&#x129;" horiz-adv-x="542" 
d="M399 1190q-49 0 -136 29t-116 28q-61 0 -102 -63l-12 4q16 76 56 142t114 65q47 0 132 -26t118 -26q61 1 104 62l12 -4q-49 -211 -170 -211zM498 0h-486v8q66 29 83 72t18 172v463q1 145 -17 186t-94 74v10q180 12 387 84h10v-817q1 -131 17 -173t82 -71v-8z" />
    <glyph glyph-name="Imacron" unicode="&#x12a;" horiz-adv-x="643" 
d="M584 1569h-527v119h527v-119zM596 0h-549v8q79 29 101 76t22 176v891q0 129 -22 176t-101 78v8h549v-8q-80 -31 -102 -78t-21 -176v-891q0 -129 22 -176t101 -76v-8z" />
    <glyph glyph-name="imacron" unicode="&#x12b;" horiz-adv-x="542" 
d="M559 1237h-526v119h526v-119zM498 0h-486v8q66 29 83 72t18 172v463q1 145 -17 186t-94 74v10q180 12 387 84h10v-817q1 -131 17 -173t82 -71v-8z" />
    <glyph glyph-name="Ibreve" unicode="&#x12c;" horiz-adv-x="643" 
d="M322 1493q-104 0 -170 75t-80 187h14q53 -123 236 -123q72 0 140 30t97 93h12q-13 -113 -79 -187t-170 -75zM596 0h-549v8q79 29 101 76t22 176v891q0 129 -22 176t-101 78v8h549v-8q-80 -31 -102 -78t-21 -176v-891q0 -129 22 -176t101 -76v-8z" />
    <glyph glyph-name="ibreve" unicode="&#x12d;" horiz-adv-x="542" 
d="M297 1161q-104 0 -170 75t-80 187h14q53 -123 236 -123q73 0 141 30t97 93h12q-14 -113 -80 -187t-170 -75zM498 0h-486v8q66 29 83 72t18 172v463q1 145 -17 186t-94 74v10q180 12 387 84h10v-817q1 -131 17 -173t82 -71v-8z" />
    <glyph glyph-name="Iogonek" unicode="&#x12e;" horiz-adv-x="643" 
d="M420 -428q-62 0 -103 40t-41 97q0 141 308 291h-537v8q79 29 101 76t22 176v891q0 129 -22 176t-101 78v8h549v-8q-80 -31 -102 -78t-21 -176v-891q0 -129 22 -176t101 -76v-8h-2q-139 -156 -139 -262q1 -37 25 -57q44 -36 116 -13v-8q-23 -32 -68 -60q-46 -28 -108 -28z
" />
    <glyph glyph-name="iogonek" unicode="&#x12f;" horiz-adv-x="542" 
d="M272 1151q-63 0 -109 45q-46 44 -46 108t46 110t109 46q62 0 108 -46t46 -108t-45 -109q-46 -46 -109 -46zM257 -428q-63 0 -103 40t-41 97q0 141 307 291h-387v8q66 29 83 72t17 172v463q0 145 -17 186t-93 74v10q180 12 387 84h10v-817q0 -131 16 -173t82 -71v-8h-88
q-139 -156 -139 -262q1 -37 25 -57q44 -36 116 -13v-8q-24 -32 -68 -60t-107 -28z" />
    <glyph glyph-name="Idotaccent" unicode="&#x130;" horiz-adv-x="643" 
d="M451 1624q0 -53 -38 -90t-91 -37t-92 37q-38 37 -37 90q0 53 37 91q38 38 92 38t91 -38q38 -38 38 -91zM596 0h-549v8q79 29 101 76t22 176v891q0 129 -22 176t-101 78v8h549v-8q-80 -31 -102 -78t-21 -176v-891q0 -129 22 -176t101 -76v-8z" />
    <glyph glyph-name="dotlessi" unicode="&#x131;" horiz-adv-x="542" 
d="M518 0h-485v8q66 29 83 72t17 172v463q0 145 -17 186t-93 74v10q180 12 387 84h10v-817q0 -131 16 -173t82 -71v-8z" />
    <glyph glyph-name="IJ" unicode="&#x132;" horiz-adv-x="1286" 
d="M813 -12v1163q0 127 -23 175q-24 48 -102 79v8h553v-8q-81 -31 -103 -79t-22 -175v-991q0 -102 -34 -192t-83 -151q-93 -114 -241 -192q-56 -28 -117 -53v10q172 100 172 406zM596 0h-549v8q79 29 101 76t22 176v891q0 129 -22 176t-101 78v8h549v-8q-80 -31 -102 -78
t-21 -176v-891q0 -129 22 -176t101 -76v-8z" />
    <glyph glyph-name="ij" unicode="&#x133;" horiz-adv-x="1071" 
d="M674 -51v766q0 147 -16 187t-93 73v10q182 12 389 84h11v-952q0 -209 -124 -367t-331 -242l-6 13q76 47 123 162t47 266zM817 1151q-63 0 -108 45q-45 44 -45 108t45 110t108 46t109 -46t45 -108q0 -62 -45 -109q-46 -46 -109 -46zM518 0h-485v8q66 29 83 72t17 172v463
q0 145 -17 186t-93 74v10q180 12 387 84h10v-817q0 -131 16 -173t82 -71v-8zM272 1151q-63 0 -109 45q-46 44 -46 108t46 110t109 46q62 0 108 -46t46 -108t-45 -109q-46 -46 -109 -46z" />
    <glyph glyph-name="Jcircumflex" unicode="&#x134;" horiz-adv-x="643" 
d="M578 1495h-19l-237 109l-238 -109h-18l180 250h151zM170 -12v1163q0 127 -24 175t-101 79v8h553v-8q-80 -31 -102 -79t-23 -175v-991q0 -102 -34 -192t-83 -151q-93 -114 -241 -192q-56 -28 -117 -53v10q172 100 172 406z" />
    <glyph glyph-name="jcircumflex" unicode="&#x135;" horiz-adv-x="528" 
d="M528 1163h-18l-238 109l-237 -109h-19l181 250h151zM131 -51v766q0 147 -16 187t-92 73v10q182 12 389 84h10v-993q0 -100 -35 -190t-84 -148q-121 -146 -336 -230l-6 13q76 47 123 162t47 266z" />
    <glyph glyph-name="Kcommaaccent" unicode="&#x136;" horiz-adv-x="1345" 
d="M631 -348q0 39 -26 75q-25 37 -25 77t32 69q33 29 84 29t84 -33t33 -86q0 -135 -240 -266l-8 8q66 88 66 127zM1372 0h-588v8q50 16 70 34t20 64q0 45 -81 211l-191 373l-129 -153v-277q0 -129 23 -176t102 -76v-8h-555v8q79 29 103 77t24 175v891q0 127 -24 175t-103 79
v8h555v-8q-80 -31 -102 -78t-23 -176v-516l289 377q150 195 149 276q0 43 -22 70q-23 27 -78 47v8h502v-8q-104 -45 -180 -107t-205 -217l-125 -151l356 -666q68 -127 108 -175t105 -81v-8z" />
    <glyph glyph-name="kcommaaccent" unicode="&#x137;" horiz-adv-x="1114" 
d="M539 -348q0 39 -26 75q-26 37 -26 77t33 69t84 29t84 -33t33 -86q0 -135 -240 -266l-8 8q66 88 66 127zM1147 0h-268q-109 0 -146 32t-117 177l-176 321l127 156q123 147 123 213q0 86 -125 131v14h543v-12q-90 -23 -169 -76t-169 -157l-104 -119l270 -449
q74 -121 116 -163t95 -60v-8zM514 0h-477v8q63 29 79 75q15 46 15 212v887q0 147 -16 187t-88 73v8q199 16 381 86h10v-1241q0 -166 15 -212t81 -75v-8z" />
    <glyph glyph-name="kgreenlandic" unicode="&#x138;" horiz-adv-x="1114" 
d="M530 0h-495v8q63 29 81 74q17 45 17 184v447q0 104 -7 147q-8 43 -28 67t-75 46v10q168 12 387 86h10v-817q0 -125 20 -170t90 -74v-8zM1147 0h-268q-109 0 -146 32t-117 177l-176 321l127 156q123 147 123 213q0 86 -125 131v14h543v-12q-90 -23 -169 -76t-169 -157
l-104 -119l270 -449q74 -121 116 -163t95 -60v-8z" />
    <glyph glyph-name="Lacute" unicode="&#x139;" horiz-adv-x="1009" 
d="M197 1495h-17q94 119 131 250h267q-148 -164 -381 -250zM47 0v8q79 29 101 77t22 175v891q0 127 -25 176t-98 78v8h557v-8q-82 -33 -106 -85t-25 -175v-1075h133q60 0 114 32t103 85q49 54 150 186h14l-37 -373h-903z" />
    <glyph glyph-name="lacute" unicode="&#x13a;" horiz-adv-x="542" 
d="M156 1575h-17q94 119 131 250h267q-148 -164 -381 -250zM522 0h-491v8q66 29 83 72t17 172v932q0 147 -17 187t-94 73v8q217 18 392 84h10v-1284q0 -129 17 -172t83 -72v-8z" />
    <glyph glyph-name="Lcommaaccent" unicode="&#x13b;" horiz-adv-x="1009" 
d="M457 -348q0 39 -26 75q-25 37 -25 77t32 69q33 29 84 29t84 -33t33 -86q0 -135 -240 -266l-8 8q66 88 66 127zM47 0v8q79 29 101 77t22 175v891q0 127 -25 176t-98 78v8h557v-8q-82 -33 -106 -85t-25 -175v-1075h133q60 0 114 32t103 85q49 54 150 186h14l-37 -373h-903z
" />
    <glyph glyph-name="lcommaaccent" unicode="&#x13c;" horiz-adv-x="542" 
d="M170 -201q0 41 33 70t84 29t84 -33t32 -86q1 -135 -239 -266l-8 8q66 88 66 127q0 38 -26 74t-26 77zM522 0h-491v8q66 29 83 72t17 172v932q0 147 -17 187t-94 73v8q217 18 392 84h10v-1284q0 -129 17 -172t83 -72v-8z" />
    <glyph glyph-name="Lcaron" unicode="&#x13d;" horiz-adv-x="1009" 
d="M647 1356q0 32 31 59t83 27t83 -30t30 -79q1 -103 -212 -291l-11 5q5 92 1 185q-5 92 -5 124zM47 0v8q79 29 101 77t22 175v891q0 127 -25 176t-98 78v8h557v-8q-82 -33 -106 -85t-25 -175v-1075h133q60 0 114 32t103 85q49 54 150 186h14l-37 -373h-903z" />
    <glyph glyph-name="lcaron" unicode="&#x13e;" horiz-adv-x="716" 
d="M504 1398q0 32 31 58q31 27 83 27t82 -30q31 -30 31 -79q0 -103 -213 -291l-10 4q5 92 1 186q-5 93 -5 125zM522 0h-491v8q66 29 83 72t17 172v932q0 147 -17 187t-94 73v8q217 18 392 84h10v-1284q0 -129 17 -172t83 -72v-8z" />
    <glyph glyph-name="Ldot" unicode="&#x13f;" horiz-adv-x="1009" 
d="M47 0v8q79 29 101 77t22 175v891q0 127 -25 176t-98 78v8h557v-8q-82 -33 -106 -85t-25 -175v-1075h133q60 0 114 32t103 85q49 54 150 186h14l-37 -373h-903zM856 729q0 -55 -41 -94t-96 -39t-95 39t-40 95t40 95t95 39t96 -40t41 -95z" />
    <glyph glyph-name="ldot" unicode="&#x140;" horiz-adv-x="729" 
d="M522 0h-491v8q66 29 83 72t17 172v932q0 147 -17 187t-94 73v8q217 18 392 84h10v-1284q0 -129 17 -172t83 -72v-8zM774 730q0 -58 -42 -98t-101 -40t-101 40q-41 40 -41 98t41 99q40 41 100 41t102 -41t42 -99z" />
    <glyph glyph-name="Lslash" unicode="&#x141;" horiz-adv-x="1009" 
d="M47 0v8q79 29 101 77t22 175v283l-127 -41v96l127 39v514q0 127 -25 176t-98 78v8h557v-8q-82 -33 -106 -85t-25 -175v-414l227 72v-96l-227 -72v-565h107q100 0 159 40t156 162l78 101h14l-37 -373h-903z" />
    <glyph glyph-name="lslash" unicode="&#x142;" horiz-adv-x="548" 
d="M522 0h-491v8q66 29 83 72t17 172v555l-121 -47v100l121 45v279q0 147 -17 187t-94 73v8q217 18 392 84h10v-518l121 47v-100l-121 -47v-666q0 -129 17 -172t83 -72v-8z" />
    <glyph glyph-name="Nacute" unicode="&#x143;" horiz-adv-x="1380" 
d="M590 1495h-17q94 119 132 250h266q-148 -164 -381 -250zM1221 -10h-127l-822 1136v-675q0 -300 60 -377q29 -37 90 -66v-8h-397v8q59 27 87 66q56 78 56 377v706q0 97 -34 153t-118 95v8h410l690 -952v506q0 302 -59 373q-29 36 -88 65v8h395v-8q-59 -29 -87 -65
q-56 -72 -56 -373v-977z" />
    <glyph glyph-name="nacute" unicode="&#x144;" horiz-adv-x="1107" 
d="M449 1163h-17q94 119 131 250h266q-147 -164 -380 -250zM1087 0h-481v8q63 29 79 72q15 43 15 188v467q0 195 -155 195q-57 0 -127 -31v-647q0 -133 15 -174t81 -70v-8h-483v8q66 29 83 71t17 173v457q0 153 -16 193t-92 73v10q172 12 385 84h10v-143q137 141 309 141
q121 0 192 -75t70 -238v-502q-1 -129 17 -172t81 -72v-8z" />
    <glyph glyph-name="Ncommaaccent" unicode="&#x145;" horiz-adv-x="1380" 
d="M625 -348q0 39 -26 75q-26 37 -26 77t33 69t84 29t84 -33t33 -86q0 -135 -240 -266l-8 8q66 88 66 127zM1221 -10h-127l-822 1136v-675q0 -300 60 -377q29 -37 90 -66v-8h-397v8q59 27 87 66q56 78 56 377v706q0 97 -34 153t-118 95v8h410l690 -952v506q0 302 -59 373
q-29 36 -88 65v8h395v-8q-59 -29 -87 -65q-56 -72 -56 -373v-977z" />
    <glyph glyph-name="ncommaaccent" unicode="&#x146;" horiz-adv-x="1107" 
d="M498 -348q0 39 -26 75q-26 37 -26 77t33 69t84 29t84 -33t33 -86q0 -135 -240 -266l-8 8q66 88 66 127zM1087 0h-481v8q63 29 79 72q15 43 15 188v467q0 195 -155 195q-57 0 -127 -31v-647q0 -133 15 -174t81 -70v-8h-483v8q66 29 83 71t17 173v457q0 153 -16 193t-92 73
v10q172 12 385 84h10v-143q137 141 309 141q121 0 192 -75t70 -238v-502q-1 -129 17 -172t81 -72v-8z" />
    <glyph glyph-name="Ncaron" unicode="&#x147;" horiz-adv-x="1380" 
d="M791 1495h-152l-180 250h18l238 -109l237 109h19zM1221 -10h-127l-822 1136v-675q0 -300 60 -377q29 -37 90 -66v-8h-397v8q59 27 87 66q56 78 56 377v706q0 97 -34 153t-118 95v8h410l690 -952v506q0 302 -59 373q-29 36 -88 65v8h395v-8q-59 -29 -87 -65
q-56 -72 -56 -373v-977z" />
    <glyph glyph-name="ncaron" unicode="&#x148;" horiz-adv-x="1107" 
d="M651 1163h-151l-181 250h19l237 -108l238 108h18zM1087 0h-481v8q63 29 79 72q15 43 15 188v467q0 195 -155 195q-57 0 -127 -31v-647q0 -133 15 -174t81 -70v-8h-483v8q66 29 83 71t17 173v457q0 153 -16 193t-92 73v10q172 12 385 84h10v-143q137 141 309 141
q121 0 192 -75t70 -238v-502q-1 -129 17 -172t81 -72v-8z" />
    <glyph glyph-name="napostrophe" unicode="&#x149;" horiz-adv-x="1107" 
d="M213 1244q0 36 -26 73q-25 37 -25 78t33 69t83 29q50 0 84 -33q33 -33 33 -86q1 -131 -239 -262l-9 8q66 88 66 124zM1087 0h-481v8q63 29 79 72q15 43 15 188v467q0 195 -155 195q-57 0 -127 -31v-647q0 -133 15 -174t81 -70v-8h-483v8q66 29 83 71t17 173v457
q0 153 -16 193t-92 73v10q172 12 385 84h10v-143q137 141 309 141q121 0 192 -75t70 -238v-502q-1 -129 17 -172t81 -72v-8z" />
    <glyph glyph-name="Eng" unicode="&#x14a;" horiz-adv-x="1380" 
d="M272 496q0 -340 57 -418q30 -41 93 -70v-8h-397v8q61 29 89 70q54 79 54 418v661q0 97 -34 153t-118 95v8h410l690 -952v506q0 302 -59 373q-29 36 -88 65v8h395v-8q-59 -29 -87 -65q-56 -72 -56 -373v-824q0 -254 -88 -400t-254 -146q-63 0 -98 28q-33 29 -33 71t18 77
q70 -33 154 -33t129 70t51 176l-828 1140v-630z" />
    <glyph glyph-name="eng" unicode="&#x14b;" horiz-adv-x="1095" 
d="M698 -16v751q0 195 -153 195q-57 0 -127 -31v-647q0 -133 15 -174t81 -70v-8h-483v8q66 29 83 71t17 173v457q0 153 -16 193t-92 73v10q172 12 385 84h10v-143q137 141 309 141q121 0 192 -75t70 -238v-641q0 -184 -82 -316t-256 -233q-58 -33 -119 -56l-6 13
q82 51 127 173t45 290z" />
    <glyph glyph-name="Omacron" unicode="&#x14c;" horiz-adv-x="1437" 
d="M983 1569h-526v119h526v-119zM400 706q0 -670 318 -671q318 0 318 671t-317 670q-319 0 -319 -670zM716 -31q-280 1 -464 191t-184 532t189 546t463 204t462 -190t188 -531q0 -342 -187 -547t-467 -205z" />
    <glyph glyph-name="omacron" unicode="&#x14d;" 
d="M809 1237h-526v119h526v-119zM369 527q0 -247 40 -373t139 -127q99 0 139 126q40 127 40 373t-43 368t-137 122t-136 -121t-42 -368zM547 -25q-219 1 -354 147t-135 400t138 400t353 147q215 0 351 -141q136 -140 136 -396t-135 -406t-354 -151z" />
    <glyph glyph-name="Obreve" unicode="&#x14e;" horiz-adv-x="1437" 
d="M721 1493q-104 0 -170 75t-80 187h14q53 -123 236 -123q72 0 140 30t97 93h13q-14 -113 -80 -187t-170 -75zM400 706q0 -670 318 -671q318 0 318 671t-317 670q-319 0 -319 -670zM716 -31q-280 1 -464 191t-184 532t189 546t463 204t462 -190t188 -531q0 -342 -187 -547
t-467 -205z" />
    <glyph glyph-name="obreve" unicode="&#x14f;" 
d="M547 1161q-104 0 -170 75t-80 187h14q53 -123 236 -123q72 0 140 30t97 93h13q-14 -113 -80 -187t-170 -75zM369 527q0 -247 40 -373t139 -127q99 0 139 126q40 127 40 373t-43 368t-137 122t-136 -121t-42 -368zM547 -25q-219 1 -354 147t-135 400t138 400t353 147
q215 0 351 -141q136 -140 136 -396t-135 -406t-354 -151z" />
    <glyph glyph-name="Ohungarumlaut" unicode="&#x150;" horiz-adv-x="1437" 
d="M823 1495h-18q47 129 59 250h191q-62 -129 -232 -250zM565 1495h-18q51 127 59 250h191q-64 -131 -232 -250zM400 706q0 -670 318 -671q318 0 318 671t-317 670q-319 0 -319 -670zM716 -31q-280 1 -464 191t-184 532t189 546t463 204t462 -190t188 -531q0 -342 -187 -547
t-467 -205z" />
    <glyph glyph-name="ohungarumlaut" unicode="&#x151;" 
d="M649 1163h-18q47 129 59 250h191q-62 -129 -232 -250zM391 1163h-18q51 127 59 250h191q-64 -131 -232 -250zM369 527q0 -247 40 -373t139 -127q99 0 139 126q40 127 40 373t-43 368t-137 122t-136 -121t-42 -368zM547 -25q-219 1 -354 147t-135 400t138 400t353 147
q215 0 351 -141q136 -140 136 -396t-135 -406t-354 -151z" />
    <glyph glyph-name="OE" unicode="&#x152;" horiz-adv-x="1918" 
d="M400 706q0 -670 318 -671q318 0 318 671t-317 670q-319 0 -319 -670zM1079 0v123q-174 -154 -364 -154q-281 0 -464 193q-183 192 -183 534t188 544t463 202q188 0 366 -148v119h717v-340h-12q-106 170 -160 220t-151 50h-140v-583h127q84 0 130 34t108 130h12v-392h-12
q-58 92 -106 125t-132 33h-127v-620h93q123 0 186 36t156 156l88 111h12l-37 -373h-758z" />
    <glyph glyph-name="oe" unicode="&#x153;" horiz-adv-x="1572" 
d="M1148 1016q-68 0 -105 -94q-36 -94 -42 -308l271 27q0 203 -28 289t-96 86zM369 527q0 -247 40 -373t139 -127q99 0 139 126q40 127 40 373t-43 368t-137 122t-136 -121t-42 -368zM1135 -23q-193 0 -291 138q-121 -139 -297 -140q-219 1 -354 147t-135 400t138 400
t343 147q205 0 317 -149q115 150 309 149q164 0 262 -98t99 -303v-93h-525q0 -169 71 -281t211 -112t249 101l8 -11q-150 -295 -405 -295z" />
    <glyph glyph-name="Racute" unicode="&#x154;" horiz-adv-x="1249" 
d="M502 1495h-17q94 119 131 250h267q-148 -164 -381 -250zM473 696h84q109 0 177 80t67 244q1 164 -57 244t-164 79h-107v-647zM1290 0h-239q-139 0 -182 30q-42 30 -107 171l-197 430h-92v-361q0 -129 22 -180t97 -82v-8h-545v8q79 29 101 77t22 179v885q0 129 -25 178
t-98 78v8h553q518 0 518 -371q0 -236 -284 -356l262 -477q61 -113 99 -151t95 -50v-8z" />
    <glyph glyph-name="racute" unicode="&#x155;" horiz-adv-x="790" 
d="M295 1163h-16q94 119 131 250h266q-148 -164 -381 -250zM475 910q0 64 44 110q45 46 109 47q64 -1 109 -47t45 -110t-44 -108t-110 -44t-109 44q-44 44 -44 108zM543 0h-508v8q63 29 81 74q17 45 17 184v447q0 104 -7 147q-8 43 -28 67t-75 46v10q168 12 387 86h10v-817
q0 -125 22 -170t101 -74v-8z" />
    <glyph glyph-name="Rcommaaccent" unicode="&#x156;" horiz-adv-x="1249" 
d="M621 -348q0 39 -26 75q-26 37 -26 77t33 69t84 29t84 -33t33 -86q0 -135 -240 -266l-8 8q66 88 66 127zM473 696h84q109 0 177 80t67 244q1 164 -57 244t-164 79h-107v-647zM1290 0h-239q-139 0 -182 30q-42 30 -107 171l-197 430h-92v-361q0 -129 22 -180t97 -82v-8
h-545v8q79 29 101 77t22 179v885q0 129 -25 178t-98 78v8h553q518 0 518 -371q0 -236 -284 -356l262 -477q61 -113 99 -151t95 -50v-8z" />
    <glyph glyph-name="rcommaaccent" unicode="&#x157;" horiz-adv-x="790" 
d="M280 -98q50 0 84 -33t33 -86q1 -135 -239 -266l-8 8q66 88 66 127t-27 75q-25 37 -25 77t33 69t83 29zM475 910q0 64 44 110q45 46 109 47q64 -1 109 -47t45 -110t-44 -108t-110 -44t-109 44q-44 44 -44 108zM543 0h-508v8q63 29 81 74q17 45 17 184v447q0 104 -7 147
q-8 43 -28 67t-75 46v10q168 12 387 86h10v-817q0 -125 22 -170t101 -74v-8z" />
    <glyph glyph-name="Rcaron" unicode="&#x158;" horiz-adv-x="1249" 
d="M702 1495h-151l-180 250h18l238 -109l237 109h19zM473 696h84q109 0 177 80t67 244q1 164 -57 244t-164 79h-107v-647zM1290 0h-239q-139 0 -182 30q-42 30 -107 171l-197 430h-92v-361q0 -129 22 -180t97 -82v-8h-545v8q79 29 101 77t22 179v885q0 129 -25 178t-98 78v8
h553q518 0 518 -371q0 -236 -284 -356l262 -477q61 -113 99 -151t95 -50v-8z" />
    <glyph glyph-name="rcaron" unicode="&#x159;" horiz-adv-x="790" 
d="M496 1163h-152l-180 250h18l238 -108l237 108h19zM475 910q0 64 44 110q45 46 109 47q64 -1 109 -47t45 -110t-44 -108t-110 -44t-109 44q-44 44 -44 108zM543 0h-508v8q63 29 81 74q17 45 17 184v447q0 104 -7 147q-8 43 -28 67t-75 46v10q168 12 387 86h10v-817
q0 -125 22 -170t101 -74v-8z" />
    <glyph glyph-name="Sacute" unicode="&#x15a;" horiz-adv-x="960" 
d="M385 1495h-16q94 119 131 250h266q-148 -164 -381 -250zM76 416h10q102 -199 188 -288t178 -89t151 55q61 56 61 146t-60 167t-147 139q-86 62 -172 128t-147 161q-60 95 -60 209q0 176 126 287t320 111q150 0 305 -66v-321h-8q-88 159 -165 237q-76 78 -158 78t-131 -50
t-49 -128q-1 -140 152 -251q181 -128 264 -199q171 -146 171 -343q0 -196 -130 -313q-129 -117 -337 -117t-362 72v375z" />
    <glyph glyph-name="sacute" unicode="&#x15b;" horiz-adv-x="776" 
d="M283 1163h-17q94 119 131 250h267q-148 -164 -381 -250zM366 41q72 0 115 38q43 39 43 109t-48 118t-118 81t-140 72t-117 109q-48 70 -48 169q1 145 105 239t240 93q136 0 272 -51v-270h-8q-160 256 -275 256q-57 0 -95 -35t-38 -91q0 -106 126 -167q146 -73 235 -134
q55 -38 91 -106t35 -154q-1 -157 -111 -249t-275 -92t-298 57l-8 315h10q84 -154 159 -230q76 -76 148 -77z" />
    <glyph glyph-name="Scircumflex" unicode="&#x15c;" horiz-adv-x="960" 
d="M766 1495h-18l-238 109l-238 -109h-18l180 250h152zM76 416h10q102 -199 188 -288t178 -89t151 55q61 56 61 146t-60 167t-147 139q-86 62 -172 128t-147 161q-60 95 -60 209q0 176 126 287t320 111q150 0 305 -66v-321h-8q-88 159 -165 237q-76 78 -158 78t-131 -50
t-49 -128q-1 -140 152 -251q181 -128 264 -199q171 -146 171 -343q0 -196 -130 -313q-129 -117 -337 -117t-362 72v375z" />
    <glyph glyph-name="scircumflex" unicode="&#x15d;" horiz-adv-x="776" 
d="M664 1163h-19l-237 109l-238 -109h-18l180 250h151zM366 41q72 0 115 38q43 39 43 109t-48 118t-118 81t-140 72t-117 109q-48 70 -48 169q1 145 105 239t240 93q136 0 272 -51v-270h-8q-160 256 -275 256q-57 0 -95 -35t-38 -91q0 -106 126 -167q146 -73 235 -134
q55 -38 91 -106t35 -154q-1 -157 -111 -249t-275 -92t-298 57l-8 315h10q84 -154 159 -230q76 -76 148 -77z" />
    <glyph glyph-name="Scedilla" unicode="&#x15e;" horiz-adv-x="960" 
d="M384 -375q108 -1 106 85q0 42 -53 74q-52 32 -111 34l116 151h-4q-209 0 -362 72v375h10q102 -199 188 -288t178 -89t151 55q61 56 61 146t-60 167t-147 139q-86 62 -172 128t-147 161q-60 95 -60 209q0 176 126 287t320 111q150 0 305 -66v-321h-8q-88 159 -165 237
q-76 78 -158 78t-131 -50t-49 -128q-1 -140 152 -251q181 -128 264 -199q171 -146 171 -351q1 -172 -109 -285t-290 -133l-49 -77q72 -8 133 -52t61 -118q1 -76 -67 -115t-164 -39t-168 53l22 25q58 -25 110 -25z" />
    <glyph glyph-name="scedilla" unicode="&#x15f;" horiz-adv-x="776" 
d="M304 -375q106 -1 106 85q0 42 -52 74t-112 34l123 157h-25q-154 0 -287 58l-8 315h10q84 -154 159 -230q76 -76 148 -77q72 0 115 38q43 39 43 109t-48 118t-118 81t-140 72t-117 109q-48 70 -48 169q1 145 105 239t240 93q136 0 272 -51v-270h-8q-160 256 -275 256
q-57 0 -95 -35t-38 -91q0 -106 126 -167q146 -73 235 -134q55 -38 91 -106t35 -154q0 -135 -84 -224t-225 -109l-55 -88q72 -8 133 -52t61 -118q1 -76 -67 -115t-164 -39t-168 53l23 25q57 -25 109 -25z" />
    <glyph glyph-name="Scaron" unicode="&#x160;" horiz-adv-x="960" 
d="M586 1495h-152l-180 250h18l238 -109l238 109h18zM76 416h10q102 -199 188 -288t178 -89t151 55q61 56 61 146t-60 167t-147 139q-86 62 -172 128t-147 161q-60 95 -60 209q0 176 126 287t320 111q150 0 305 -66v-321h-8q-88 159 -165 237q-76 78 -158 78t-131 -50
t-49 -128q-1 -140 152 -251q181 -128 264 -199q171 -146 171 -343q0 -196 -130 -313q-129 -117 -337 -117t-362 72v375z" />
    <glyph glyph-name="scaron" unicode="&#x161;" horiz-adv-x="776" 
d="M483 1163h-151l-180 250h18l238 -108l237 108h19zM366 41q72 0 115 38q43 39 43 109t-48 118t-118 81t-140 72t-117 109q-48 70 -48 169q1 145 105 239t240 93q136 0 272 -51v-270h-8q-160 256 -275 256q-57 0 -95 -35t-38 -91q0 -106 126 -167q146 -73 235 -134
q55 -38 91 -106t35 -154q-1 -157 -111 -249t-275 -92t-298 57l-8 315h10q84 -154 159 -230q76 -76 148 -77z" />
    <glyph glyph-name="Tcommaaccent" unicode="&#x162;" horiz-adv-x="1210" 
d="M547 -348q0 39 -26 75q-25 37 -25 77t32 69q33 29 84 29t84 -33t33 -86q0 -135 -240 -266l-8 8q66 88 66 127zM887 0h-565v8q82 29 106 78t25 176v1084h-50q-92 0 -151 -48t-199 -225h-8l25 340h1071l24 -340h-10q-139 178 -199 225t-151 48h-49v-1084q0 -127 24 -176
t107 -78v-8z" />
    <glyph glyph-name="tcommaaccent" unicode="&#x163;" horiz-adv-x="647" 
d="M285 -348q0 39 -26 75q-26 37 -26 77t33 69t84 29t84 -33t33 -86q0 -135 -240 -266l-8 8q66 88 66 127zM127 301v643h-102v10q233 129 374 346h17v-256h217v-100h-217v-676q0 -68 38 -106t94 -37q56 0 114 25l6 -11q-113 -156 -289 -155q-252 0 -252 317z" />
    <glyph glyph-name="Tcaron" unicode="&#x164;" horiz-adv-x="1210" 
d="M684 1495h-152l-180 250h19l237 -109l238 109h18zM887 0h-565v8q82 29 106 78t25 176v1084h-50q-92 0 -151 -48t-199 -225h-8l25 340h1071l24 -340h-10q-139 178 -199 225t-151 48h-49v-1084q0 -127 24 -176t107 -78v-8z" />
    <glyph glyph-name="tcaron" unicode="&#x165;" horiz-adv-x="647" 
d="M545 1244q0 36 -26 73q-25 37 -25 78t32 69t84 29q51 0 84 -33t33 -86q0 -131 -240 -262l-8 8q66 88 66 124zM127 301v643h-102v10q233 129 374 346h17v-256h217v-100h-217v-676q0 -68 38 -106t94 -37q56 0 114 25l6 -11q-113 -156 -289 -155q-252 0 -252 317z" />
    <glyph glyph-name="Tbar" unicode="&#x166;" horiz-adv-x="1210" 
d="M887 0h-565v8q82 29 106 78t25 176v422h-183v84h183v578h-50q-92 0 -151 -48t-199 -225h-8l25 340h1071l24 -340h-10q-139 178 -197 225t-153 48h-49v-578h182v-84h-182v-422q0 -127 24 -176t107 -78v-8z" />
    <glyph glyph-name="tbar" unicode="&#x167;" horiz-adv-x="647" 
d="M127 313v217h-102v103h102v311h-102v10q240 135 374 346h17v-256h217v-100h-217v-311h217v-103h-217v-262q0 -143 149 -143q48 0 97 25l6 -11q-113 -156 -289 -155q-127 0 -190 78q-62 79 -62 251z" />
    <glyph glyph-name="Utilde" unicode="&#x168;" horiz-adv-x="1329" 
d="M852 1522q-49 0 -136 28t-116 29q-61 0 -102 -63l-13 4q17 76 57 142t113 64q47 0 132 -26t118 -25q62 1 105 62l12 -4q-49 -211 -170 -211zM1063 397v588q0 223 -29 304t-114 116v8h378v-8q-80 -35 -108 -115t-27 -305v-594q0 -209 -121 -315t-356 -107q-516 0 -516 422
v760q0 127 -24 175t-101 79v8h553v-8q-78 -31 -102 -79t-23 -175v-789q0 -287 279 -286q150 0 230 80t81 241z" />
    <glyph glyph-name="utilde" unicode="&#x169;" 
d="M672 1190q-49 0 -136 29t-116 28q-61 0 -103 -63l-12 4q16 76 56 142t114 65q47 0 132 -26t118 -26q61 1 104 62l13 -4q-49 -211 -170 -211zM692 -25v146h-2q-141 -145 -303 -146q-115 0 -187 71t-73 222v426q0 115 -8 163q-7 48 -27 71t-76 47v10q174 12 387 84h11v-780
q0 -172 147 -172q74 0 129 30v541q0 200 -35 241q-18 22 -67 46v10q166 12 379 84h10v-719q0 -166 16 -208t94 -74v-9q-180 -16 -385 -84h-10z" />
    <glyph glyph-name="Umacron" unicode="&#x16a;" horiz-adv-x="1329" 
d="M1010 1569h-527v119h527v-119zM1063 397v588q0 223 -29 304t-114 116v8h378v-8q-80 -35 -108 -115t-27 -305v-594q0 -209 -121 -315t-356 -107q-516 0 -516 422v760q0 127 -24 175t-101 79v8h553v-8q-78 -31 -102 -79t-23 -175v-789q0 -287 279 -286q150 0 230 80t81 241
z" />
    <glyph glyph-name="umacron" unicode="&#x16b;" 
d="M831 1237h-526v119h526v-119zM692 -25v146h-2q-141 -145 -303 -146q-115 0 -187 71t-73 222v426q0 115 -8 163q-7 48 -27 71t-76 47v10q174 12 387 84h11v-780q0 -172 147 -172q74 0 129 30v541q0 200 -35 241q-18 22 -67 46v10q166 12 379 84h10v-719q0 -166 16 -208
t94 -74v-9q-180 -16 -385 -84h-10z" />
    <glyph glyph-name="Ubreve" unicode="&#x16c;" horiz-adv-x="1329" 
d="M748 1493q-104 0 -170 75t-80 187h14q53 -123 236 -123q72 0 140 30t97 93h12q-13 -113 -79 -187t-170 -75zM1063 397v588q0 223 -29 304t-114 116v8h378v-8q-80 -35 -108 -115t-27 -305v-594q0 -209 -121 -315t-356 -107q-516 0 -516 422v760q0 127 -24 175t-101 79v8
h553v-8q-78 -31 -102 -79t-23 -175v-789q0 -287 279 -286q150 0 230 80t81 241z" />
    <glyph glyph-name="ubreve" unicode="&#x16d;" 
d="M569 1161q-104 0 -170 75t-80 187h15q53 -123 235 -123q73 0 141 30t97 93h12q-14 -113 -80 -187t-170 -75zM692 -25v146h-2q-141 -145 -303 -146q-115 0 -187 71t-73 222v426q0 115 -8 163q-7 48 -27 71t-76 47v10q174 12 387 84h11v-780q0 -172 147 -172q74 0 129 30
v541q0 200 -35 241q-18 22 -67 46v10q166 12 379 84h10v-719q0 -166 16 -208t94 -74v-9q-180 -16 -385 -84h-10z" />
    <glyph glyph-name="Uring" unicode="&#x16e;" horiz-adv-x="1329" 
d="M748 1563q48 -1 80 35t32 85t-33 85t-79 36t-81 -36q-34 -36 -34 -85t34 -85t81 -35zM948 1683q0 -82 -59 -139t-141 -57t-142 57q-59 57 -59 139q0 81 59 139q60 58 142 58t141 -58t59 -139zM1063 397v588q0 223 -29 304t-114 116v8h378v-8q-80 -35 -108 -115t-27 -305
v-594q0 -209 -121 -315t-356 -107q-516 0 -516 422v760q0 127 -24 175t-101 79v8h553v-8q-78 -31 -102 -79t-23 -175v-789q0 -287 279 -286q150 0 230 80t81 241z" />
    <glyph glyph-name="uring" unicode="&#x16f;" 
d="M569 1231q47 0 80 36t33 85t-33 85t-80 36t-81 -36t-34 -85t34 -85t81 -36zM770 1352q0 -82 -59 -140t-141 -57q-82 0 -142 57q-59 58 -59 140t59 139t141 57q81 0 141 -57t60 -139zM692 -25v146h-2q-141 -145 -303 -146q-115 0 -187 71t-73 222v426q0 115 -8 163
q-7 48 -27 71t-76 47v10q174 12 387 84h11v-780q0 -172 147 -172q74 0 129 30v541q0 200 -35 241q-18 22 -67 46v10q166 12 379 84h10v-719q0 -166 16 -208t94 -74v-9q-180 -16 -385 -84h-10z" />
    <glyph glyph-name="Uhungarumlaut" unicode="&#x170;" horiz-adv-x="1329" 
d="M850 1495h-19q47 129 60 250h190q-61 -129 -231 -250zM592 1495h-19q51 127 60 250h190q-63 -131 -231 -250zM1063 397v588q0 223 -29 304t-114 116v8h378v-8q-80 -35 -108 -115t-27 -305v-594q0 -209 -121 -315t-356 -107q-516 0 -516 422v760q0 127 -24 175t-101 79v8
h553v-8q-78 -31 -102 -79t-23 -175v-789q0 -287 279 -286q150 0 230 80t81 241z" />
    <glyph glyph-name="uhungarumlaut" unicode="&#x171;" 
d="M672 1163h-19q47 129 60 250h190q-61 -129 -231 -250zM414 1163h-19q51 127 60 250h190q-63 -131 -231 -250zM692 -25v146h-2q-141 -145 -303 -146q-115 0 -187 71t-73 222v426q0 115 -8 163q-7 48 -27 71t-76 47v10q174 12 387 84h11v-780q0 -172 147 -172q74 0 129 30
v541q0 200 -35 241q-18 22 -67 46v10q166 12 379 84h10v-719q0 -166 16 -208t94 -74v-9q-180 -16 -385 -84h-10z" />
    <glyph glyph-name="Uogonek" unicode="&#x172;" horiz-adv-x="1329" 
d="M599 -428q-63 0 -103 40t-41 97q0 129 245 260h-14q-516 0 -516 422v760q0 127 -24 175t-101 79v8h553v-8q-78 -31 -102 -79t-23 -175v-789q0 -287 279 -286q150 0 230 81t81 240v588q0 223 -29 304t-114 116v8h378v-8q-80 -35 -108 -115t-27 -305v-594q0 -391 -415 -420
q-115 -133 -115 -233q1 -37 25 -57q44 -36 116 -13v-8q-24 -32 -68 -60t-107 -28z" />
    <glyph glyph-name="uogonek" unicode="&#x173;" 
d="M912 -428q-62 0 -103 40t-41 97q0 85 98 191t207 157q-166 -16 -371 -82h-10v146h-2q-141 -145 -303 -146q-115 0 -187 71t-73 222v426q0 115 -8 163q-7 48 -27 71t-76 47v10q174 12 387 84h11v-780q0 -172 147 -172q74 0 129 30v541q0 200 -35 241q-18 22 -67 46v10
q166 12 379 84h10v-719q0 -166 16 -208t94 -74v-9q-53 -59 -97 -156t-44 -149q0 -91 88 -94q28 0 53 8v-8q-23 -32 -67 -60q-46 -28 -108 -28z" />
    <glyph glyph-name="Wcircumflex" unicode="&#x174;" horiz-adv-x="1896" 
d="M1253 1495h-18l-238 109l-237 -109h-19l181 250h151zM6 1413h529v-8q-47 -16 -65 -40t-19 -107q0 -83 59 -353l149 -702l177 702q35 158 24 248q-23 129 -50 177q-28 48 -87 75v8h510v-8q-45 -16 -65 -42q-20 -25 -19 -97q0 -72 35 -226l182 -831l168 651q59 234 59 336
t-24 142q-25 40 -84 67v8h407v-8q-74 -39 -129 -144t-137 -403l-233 -858h-248l-219 911l-242 -911h-252l-215 899q-68 285 -107 377q-40 92 -104 129v8z" />
    <glyph glyph-name="wcircumflex" unicode="&#x175;" horiz-adv-x="1570" 
d="M1102 1163h-19l-237 109l-238 -109h-18l180 250h152zM4 1044h508v-8q-48 -14 -68 -39t-20 -79t33 -197l114 -516l127 473q27 102 23 145q-12 88 -34 130t-75 83v8h406v-8q-41 -33 -40 -87t30 -179l137 -567l78 286q71 272 71 368q0 97 -24 131t-76 48v8h365v-8
q-43 -18 -74 -60q-70 -94 -187 -507l-133 -469h-217l-176 670l-184 -670h-228l-176 678q-51 202 -85 268t-95 90v8z" />
    <glyph glyph-name="Ycircumflex" unicode="&#x176;" horiz-adv-x="1167" 
d="M907 1495h-18l-238 109l-237 -109h-19l180 250h152zM858 0h-553v8q78 29 102 78t23 178v334l-184 428q-86 198 -131 268t-109 111v8h543v-8q-47 -23 -66 -46q-18 -23 -18 -81t80 -252l137 -344l131 336q66 162 66 256t-95 131v8h379v-8q-63 -27 -117 -108t-141 -285
l-172 -410v-338q0 -129 24 -178t101 -78v-8z" />
    <glyph glyph-name="ycircumflex" unicode="&#x177;" horiz-adv-x="1001" 
d="M805 1163h-19l-237 109l-238 -109h-18l180 250h152zM2 1044h498v-10q-46 -12 -66 -38t-20 -85t39 -211l137 -528q154 547 153 676q0 90 -16 131t-70 55v10h342v-8q-53 -24 -98 -108t-104 -293l-217 -764q-102 -360 -306 -360q-70 1 -116 41t-47 96q0 56 37 99
q38 42 96 42t99 -41q40 -41 44 -104q68 63 119 229l39 127h-174l-176 614q-76 260 -107 329t-86 93v8z" />
    <glyph glyph-name="Ydieresis" unicode="&#x178;" horiz-adv-x="1167" 
d="M621 1624q0 -53 -38 -90t-91 -37t-93 38q-39 38 -39 90t39 90t93 38t91 -38q38 -38 38 -91zM942 1624q0 -53 -38 -90t-92 -37t-91 38t-37 90t37 90t91 38t92 -38t38 -91zM858 0h-553v8q78 29 102 78t23 178v334l-184 428q-86 198 -131 268t-109 111v8h543v-8
q-47 -23 -66 -46q-18 -23 -18 -81t80 -252l137 -344l131 336q66 162 66 256t-95 131v8h379v-8q-63 -27 -117 -108t-141 -285l-172 -410v-338q0 -129 24 -178t101 -78v-8z" />
    <glyph glyph-name="Zacute" unicode="&#x179;" horiz-adv-x="1067" 
d="M391 1495h-16q94 119 131 250h266q-148 -164 -381 -250zM31 0v8l643 1335h-164q-139 0 -213 -48t-231 -228h-9l37 346h926v-8l-637 -1335h188q82 0 119 5t91 37t106 92q51 60 141 179h10l-37 -383h-970z" />
    <glyph glyph-name="zacute" unicode="&#x17a;" horiz-adv-x="903" 
d="M338 1163h-16q94 119 131 250h266q-148 -164 -381 -250zM31 0v8l493 965h-116q-76 0 -132 -40t-206 -185h-11l39 296h762v-10l-485 -964h188q45 0 103 46t200 191h8l-36 -307h-807z" />
    <glyph glyph-name="Zdotaccent" unicode="&#x17b;" horiz-adv-x="1067" 
d="M647 1624q0 -53 -38 -90t-91 -37t-91 37t-38 90t38 91t91 38t91 -38t38 -91zM31 0v8l643 1335h-164q-139 0 -213 -48t-231 -228h-9l37 346h926v-8l-637 -1335h188q82 0 119 5t91 37t106 92q51 60 141 179h10l-37 -383h-970z" />
    <glyph glyph-name="zdotaccent" unicode="&#x17c;" horiz-adv-x="903" 
d="M594 1292q0 -53 -38 -90t-91 -37t-91 37t-38 90t38 91t91 38t91 -38t38 -91zM31 0v8l493 965h-116q-76 0 -132 -40t-206 -185h-11l39 296h762v-10l-485 -964h188q45 0 103 46t200 191h8l-36 -307h-807z" />
    <glyph glyph-name="Zcaron" unicode="&#x17d;" horiz-adv-x="1067" 
d="M594 1495h-152l-180 250h19l237 -109l238 109h18zM31 0v8l643 1335h-164q-139 0 -213 -48t-231 -228h-9l37 346h926v-8l-637 -1335h188q82 0 119 5t91 37t106 92q51 60 141 179h10l-37 -383h-970z" />
    <glyph glyph-name="zcaron" unicode="&#x17e;" horiz-adv-x="903" 
d="M541 1163h-152l-180 250h18l238 -108l237 108h19zM31 0v8l493 965h-116q-76 0 -132 -40t-206 -185h-11l39 296h762v-10l-485 -964h188q45 0 103 46t200 191h8l-36 -307h-807z" />
    <glyph glyph-name="longs" unicode="&#x17f;" horiz-adv-x="571" 
d="M547 0h-514v8q66 29 82 74t16 197v665h-129v10l129 90v82q0 198 109 304t280 106q121 0 183 -50q63 -50 63 -118t-38 -106q-38 -39 -93 -39q-55 -1 -92 33t-37 92q0 90 92 143q-29 4 -49 4q-154 0 -154 -215q0 -80 29 -219v-807q0 -123 25 -170t98 -76v-8z" />
    <glyph glyph-name="uni0180" unicode="&#x180;" horiz-adv-x="1107" 
d="M522 29q98 0 165 125t67 347q0 431 -244 433q-53 0 -102 -25v-841q55 -39 114 -39zM111 1178h-93v82h91q-5 92 -25 124t-80 58v8q211 18 393 86h11v-276h284v-82h-284v-242q124 133 288 133t259 -131t96 -354q-1 -160 -51 -282t-133 -190q-165 -136 -359 -137
q-80 0 -207 20t-190 38v1145z" />
    <glyph glyph-name="uni0181" unicode="&#x181;" horiz-adv-x="1431" 
d="M809 0h-526v8q81 27 107 78t26 178v858q0 144 -36 194t-134 50q-49 0 -64 -10q41 -20 70 -60t29 -95q0 -54 -41 -91q-40 -37 -102 -37t-102 43t-40 109q0 104 94 146t266 42h461q508 0 508 -328q0 -256 -336 -329v-8q164 -16 279 -104t114 -245q0 -201 -160 -300
t-413 -99zM725 760h45q254 0 254 303q0 151 -61 217t-187 66h-51v-586zM725 68h59q274 0 275 311q0 165 -77 239t-204 74h-53v-624z" />
    <glyph glyph-name="uni0182" unicode="&#x182;" horiz-adv-x="1165" 
d="M473 68h100q229 0 229 326t-245 325h-84v-651zM616 0h-573v8q79 29 103 77t24 177v885q0 129 -24 178t-103 80v8h938v-340h-12q-111 174 -163 222t-155 48h-178v-555h135q504 0 504 -370q0 -198 -124 -308t-372 -110z" />
    <glyph glyph-name="uni0183" unicode="&#x183;" horiz-adv-x="1107" 
d="M522 29q98 0 165 125t67 347q0 431 -244 433q-53 0 -102 -25v-841q55 -39 114 -39zM111 1147q0 129 -24 178t-101 80v8h927v-313h-12q-101 160 -155 202t-162 41h-176v-407q124 133 288 133t259 -131t96 -354q-1 -160 -51 -282t-133 -190q-165 -136 -359 -137
q-80 0 -207 20t-190 38v1114z" />
    <glyph glyph-name="uni0184" unicode="&#x184;" horiz-adv-x="1165" 
d="M473 68h100q229 0 229 326t-245 325h-84v-651zM616 0h-573v8q79 29 103 77t24 177v721l-203 199v37l471 223h35v-654h135q504 0 504 -370q0 -198 -124 -308t-372 -110z" />
    <glyph glyph-name="uni0185" unicode="&#x185;" horiz-adv-x="1107" 
d="M522 29q98 0 165 125t67 347q0 431 -244 433q-53 0 -102 -25v-841q55 -39 114 -39zM408 1442v-506q118 133 286 133t262 -135q94 -134 94 -322q1 -348 -183 -500q-165 -137 -359 -137q-80 0 -207 20t-190 38v952l-201 199v37l465 221h33z" />
    <glyph glyph-name="uni0186" unicode="&#x186;" horiz-adv-x="1216" 
d="M444 37q174 0 274 178q99 178 99 500q0 321 -93 491t-261 170q-190 0 -365 -325h-8l8 319q62 31 168 51q265 50 465 -21q262 -92 362 -348q54 -140 54 -323q0 -354 -196 -557t-496 -203q-98 -1 -202 21t-165 53l-22 348h10q92 -180 180 -267t188 -87z" />
    <glyph glyph-name="uni0187" unicode="&#x187;" horiz-adv-x="1210" 
d="M760 -31q-308 1 -498 185t-190 536q0 190 58 338t158 236q203 178 482 178q88 0 180 -21q16 145 90 213t211 68q92 0 157 -48t65 -112t-37 -101q-37 -38 -92 -38t-92 32q-36 32 -35 87q0 92 92 137q-31 6 -54 6q-71 -2 -101 -63t-30 -205v-344h-8q-88 167 -174 243
t-186 76q-166 0 -260 -170t-94 -492t96 -500q98 -177 280 -177t367 360h12l-27 -348q-141 -76 -370 -76z" />
    <glyph glyph-name="uni0188" unicode="&#x188;" horiz-adv-x="858" 
d="M471 -23q-188 -1 -303 139t-115 390t135 406q135 157 351 157q45 0 96 -10q8 256 217 256q92 0 149 -44q57 -43 57 -107t-34 -100q-35 -36 -88 -36t-88 31t-35 84q0 82 90 131q-33 4 -45 4q-70 0 -98 -60t-27 -196q98 -55 98 -158q1 -70 -41 -116t-106 -46t-109 40
q-43 40 -43 96t27 102q27 45 70 68q-10 10 -56 10q-240 0 -239 -412q0 -221 80 -323q80 -103 206 -103t220 90l10 -8q-96 -203 -230 -258q-67 -27 -149 -27z" />
    <glyph glyph-name="uni0189" unicode="&#x189;" horiz-adv-x="1392" 
d="M473 70h131q403 0 404 655q0 287 -100 453t-281 165h-154v-575h203v-84h-203v-614zM627 0h-578v8q77 29 99 77t22 179v420h-125v84h125v381q0 131 -22 178t-99 78v8h604q324 0 500 -167t176 -515q0 -347 -179 -539t-523 -192z" />
    <glyph glyph-name="uni018A" unicode="&#x18a;" horiz-adv-x="1626" 
d="M852 0h-586v8q86 31 108 92t21 256v766q0 144 -36 194t-132 50q-51 0 -63 -10q42 -20 70 -60t28 -95q0 -54 -41 -91t-102 -37t-103 43q-41 43 -41 109q-1 104 95 146t272 42h489q725 0 725 -668q0 -361 -180 -553t-524 -192zM698 70h131q403 0 404 655q0 287 -99 453
t-282 165h-154v-1273z" />
    <glyph glyph-name="uni018B" unicode="&#x18b;" horiz-adv-x="1171" 
d="M1124 0h-579q-252 0 -373 92t-121 288t130 302t374 106h135v555h-178q-88 1 -136 -33t-114 -134l-67 -103h-13v340h942v-8q-80 -31 -106 -81t-25 -177v-885q0 -123 26 -174t105 -80v-8zM690 68v651h-84q-248 0 -248 -326t232 -325h100z" />
    <glyph glyph-name="uni018C" unicode="&#x18c;" horiz-adv-x="1103" 
d="M550 1014q-92 0 -146 -124t-54 -327q0 -434 234 -434q55 0 112 33v774q-55 78 -146 78zM404 -25q-154 -1 -250 133t-96 378t136 414q136 169 359 169q39 0 143 -16v290h-178q-88 1 -134 -29t-116 -126l-67 -88h-13v313h930v-8q-82 -31 -106 -80t-25 -178v-793
q1 -160 19 -210t94 -85v-10q-193 -12 -393 -74h-9l-2 158q-139 -158 -292 -158z" />
    <glyph glyph-name="uni018D" unicode="&#x18d;" horiz-adv-x="1101" 
d="M727 547q0 469 -174 469q-94 0 -137 -113q-44 -113 -44 -351t201 -423q154 106 154 418zM897 -229q0 -109 -98 -168q-99 -59 -253 -59t-256 47q-101 48 -102 133q0 44 27 74t72 30t86 -34t67 -76t68 -76q43 -34 93 -33t82 23t32 63t-48 91t-121 94q-163 98 -316 243
q-73 70 -120 175q-48 105 -49 226q1 258 145 402t347 143q203 0 344 -127t141 -371q0 -190 -120 -318t-293 -171q20 -16 73 -56q156 -118 185 -186q14 -33 14 -69z" />
    <glyph glyph-name="uni018E" unicode="&#x18e;" horiz-adv-x="1062" 
d="M1016 0h-932l-35 373h12l115 -140q80 -96 129 -130t131 -33h148v620h-127q-84 0 -132 -34t-108 -124h-10v392h10q63 -96 109 -130t131 -34h127v583h-140q-96 0 -150 -51t-163 -219h-10v340h895v-8q-80 -31 -105 -80t-24 -176v-885q1 -129 25 -178t104 -78v-8z" />
    <glyph glyph-name="uni018F" unicode="&#x18f;" horiz-adv-x="1341" 
d="M944 637v18l-545 -37q0 -586 254 -585q291 0 291 604zM486 1221q-210 0 -410 -125l-13 10q175 236 384 305q95 31 204 31q263 0 439 -188t176 -533q0 -344 -180 -548t-451 -204q-233 0 -388 166t-155 498q0 38 4 67h846q-10 268 -128 394t-328 127z" />
    <glyph glyph-name="uni0190" unicode="&#x190;" horiz-adv-x="1097" 
d="M741 791v-64h-34q-189 0 -261 -74q-72 -73 -72 -251t75 -272q74 -94 204 -95q172 0 269 112q-29 -8 -50 -8q-53 0 -100 40t-47 109q0 68 47 110t116 42t123 -48t54 -130q0 -119 -115 -206t-329 -87q-336 0 -485 175q-81 95 -81 237q0 315 428 393q-193 53 -287 121
t-94 195q0 158 151 255t370 97q96 0 201 -22t163 -48v-313h-8q-98 172 -178 246q-80 73 -178 73t-158 -67q-59 -67 -59 -221t81 -227q82 -72 254 -72z" />
    <glyph glyph-name="uni0191" unicode="&#x191;" horiz-adv-x="1024" 
d="M887 514h-10q-59 92 -107 126t-133 34h-164v-760q0 -205 -124 -305t-314 -101q-109 0 -177 50t-67 118q0 66 38 104t95 38t93 -33t36 -82q1 -49 -27 -88t-67 -59q31 -6 55 -7q86 0 121 79t35 239v1282q0 129 -23 177t-100 79v8h922v-340h-13q-138 219 -187 240
q-72 30 -142 30h-154v-600h164q86 0 131 34t109 130h10v-393z" />
    <glyph glyph-name="florin" unicode="&#x192;" horiz-adv-x="1062" 
d="M352 -133v813h-188v98h188v266q0 199 122 298t306 100q120 0 182 -52t62 -120t-37 -104t-90 -36t-91 33t-38 88q0 90 94 142q-31 6 -55 6q-88 0 -122 -81t-34 -249v-291h215v-98h-215v-766q0 -205 -121 -305t-311 -101q-111 0 -177 50t-67 116q0 68 38 106q39 38 95 38
t93 -33t37 -82t-28 -88t-67 -59q31 -6 56 -7q85 0 119 80t34 238z" />
    <glyph glyph-name="uni0193" unicode="&#x193;" horiz-adv-x="1331" 
d="M932 430q0 100 -25 154t-94 90v8h494v-8q-59 -37 -77 -79t-18 -163v-371q-287 -92 -475 -92q-297 -1 -482 183t-185 544q0 186 62 332t168 236q213 178 491 178q102 0 204 -21q33 281 301 281q94 0 158 -48t64 -112t-37 -102q-37 -37 -91 -37t-91 33q-36 33 -35 86
q0 90 90 137q-31 6 -54 6q-82 -2 -106 -75t-25 -261v-287h-10q-186 332 -385 332q-168 0 -269 -171t-101 -495t98 -495q98 -170 278 -170q89 0 152 23v364z" />
    <glyph glyph-name="uni0194" unicode="&#x194;" horiz-adv-x="1277" 
d="M575 -354q61 0 62 96q0 47 -14 86l-50 143q-65 -157 -65 -241t67 -84zM4 1413h549v-8q-47 -16 -67 -44t-21 -85q0 -109 88 -373l166 -500l162 461q102 289 102 404q0 59 -24 89t-78 48v8h397v-8q-80 -37 -139 -140t-168 -411l-209 -588q23 -81 41 -134q71 -210 71 -322
q0 -256 -258 -256q-90 0 -145 50t-55 146q0 100 59 217q18 37 38 76t22 43l-261 760q-111 334 -156 429q-46 95 -114 130v8z" />
    <glyph glyph-name="uni0195" unicode="&#x195;" horiz-adv-x="1718" 
d="M1307 264v518q-1 129 -21 176t-88 78v8h465v-8q-41 -41 -54 -86t-14 -157v-502q0 -162 -103 -237q-103 -74 -343 -74t-336 74t-96 237v418q0 221 -160 221q-68 0 -125 -31v-647q0 -129 18 -172t85 -72v-8h-502v8q68 29 87 73t19 171v928q0 145 -18 187t-96 75v10
q203 18 397 84h10v-608q111 106 225 127q55 12 111 10q238 -20 238 -346v-430q0 -121 32 -170t121 -49q88 0 118 48t30 146z" />
    <glyph glyph-name="uni0196" unicode="&#x196;" horiz-adv-x="542" 
d="M344 -23q-213 0 -213 269v936q0 147 -17 188t-94 74v8q217 18 392 84h10v-1278q0 -131 78 -131q47 0 80 61l12 -4q-53 -207 -248 -207z" />
    <glyph glyph-name="uni0197" unicode="&#x197;" horiz-adv-x="643" 
d="M596 0h-549v8q79 29 101 76t22 176v424h-135v84h135v383q0 129 -22 176t-101 78v8h549v-8q-80 -31 -102 -78t-21 -176v-383h135v-84h-135v-424q0 -129 22 -176t101 -76v-8z" />
    <glyph glyph-name="uni0198" unicode="&#x198;" horiz-adv-x="1345" 
d="M1372 0h-588v8q50 16 70 34t20 68q0 49 -81 207l-191 373l-129 -153v-277q0 -129 23 -176t102 -76v-8h-555v8q79 29 103 77t24 175v809q0 133 66 220t156 120t194 33t168 -48t63 -112q0 -64 -39 -100q-39 -37 -92 -37t-88 32t-35 85q0 90 90 137q-31 6 -53 6
q-78 -2 -102 -76t-25 -262v-432l289 377q150 195 149 276q0 43 -22 70q-23 27 -78 47v8h502v-8q-109 -49 -185 -111t-200 -213l-125 -151l323 -606q86 -164 129 -220t117 -96v-8z" />
    <glyph glyph-name="uni0199" unicode="&#x199;" horiz-adv-x="1114" 
d="M1147 0h-219q-86 0 -119 2t-73 32t-62 68t-76 140l-158 288l109 134q141 170 141 235q0 86 -125 131v14h543v-12q-90 -23 -169 -76t-169 -157l-104 -119l270 -449q74 -121 116 -163t95 -60v-8zM514 0h-477v8q63 29 79 75q15 46 15 212v846q0 199 124 297t308 98
q106 0 176 -53t70 -123t-41 -112t-100 -42t-100 36q-40 36 -40 95q0 98 101 152q-31 6 -58 6q-154 0 -153 -287v-913q0 -166 15 -212t81 -75v-8z" />
    <glyph glyph-name="uni019A" unicode="&#x19a;" horiz-adv-x="542" 
d="M522 0h-491v8q66 29 83 72t17 172v432h-104v84h104v416q0 147 -17 187t-94 73v8q217 18 392 84h10v-768h102v-84h-102v-432q0 -129 17 -172t83 -72v-8z" />
    <glyph glyph-name="uni019B" unicode="&#x19b;" horiz-adv-x="1021" 
d="M1042 102v-10q-20 -49 -65 -82t-88 -33q-82 0 -123 80t-63 185q-21 106 -44 242t-49 249l-207 -561q-27 -70 -51 -172h-336l480 1083q-9 27 -12 35t-5 15l-311 -207v86l287 188l-39 78q-90 -59 -170 -59t-126 46q-46 47 -46 111t48 112t120 48q115 0 165 -59t119 -230
l262 174v-86l-239 -157q35 -106 129 -406t142 -434q48 -133 90 -184t106 -52h26z" />
    <glyph glyph-name="uni019C" unicode="&#x19c;" horiz-adv-x="1662" 
d="M410 313q0 -198 146 -198q74 0 144 32q-18 57 -18 172v842q0 131 -15 173t-81 71v8h481v-8q-63 -29 -79 -72t-17 -172v-833q0 -213 149 -213q63 0 125 30v1016q0 133 -15 174t-81 70v8h485v-8q-66 -29 -84 -72t-18 -172v-831q0 -145 17 -186t93 -74v-11
q-176 -12 -387 -84h-10v142q-137 -141 -309 -141t-229 153q-57 -57 -145 -105t-177 -49q-145 -1 -205 91t-59 315v780q1 129 -17 172t-84 72v8h484v-8q-62 -29 -78 -72t-16 -172v-848z" />
    <glyph glyph-name="uni019D" unicode="&#x19d;" horiz-adv-x="1380" 
d="M1221 -10h-127l-822 1136v-1222q0 -395 -268 -396q-100 0 -158 58t-59 128q0 68 34 106t92 38t98 -36t40 -95q0 -96 -100 -151q31 -6 57 -7q160 0 160 287v1321q0 97 -34 153t-118 95v8h410l690 -952v457q0 340 -55 416q-29 40 -92 71v8h395v-8q-63 -29 -91 -70t-40 -133
t-12 -287v-925z" />
    <glyph glyph-name="uni019E" unicode="&#x19e;" horiz-adv-x="1089" 
d="M989 -471h-289v1206q0 195 -155 195q-57 0 -127 -31v-647q0 -133 15 -174t81 -70v-8h-483v8q66 29 83 71t17 173v457q0 153 -16 193t-92 73v10q172 12 385 84h10v-143q137 141 309 141q121 0 192 -75t70 -238v-1225z" />
    <glyph glyph-name="uni019F" unicode="&#x19f;" horiz-adv-x="1437" 
d="M720 1376q-304 0 -321 -612h637q-12 612 -316 612zM718 35q312 0 318 649h-637q7 -649 319 -649zM716 -31q-280 1 -464 191t-184 532t189 546t463 204t462 -190t188 -531q0 -342 -187 -547t-467 -205z" />
    <glyph glyph-name="Ohorn" unicode="&#x1a0;" horiz-adv-x="1437" 
d="M400 706q0 -670 318 -671q318 0 318 671t-317 670q-319 0 -319 -670zM1118 1632q0 51 37 86t93 35t106 -41t51 -123q0 -119 -96 -171t-242 -52q-25 0 -37 2q156 -84 248 -249t92 -396q0 -344 -187 -549t-467 -205q-280 1 -464 191t-184 532t189 546t464 204l334 -23
q156 0 155 49q0 23 -46 68t-46 96z" />
    <glyph glyph-name="ohorn" unicode="&#x1a1;" 
d="M369 527q0 -247 40 -373t139 -127q99 0 139 126q40 127 40 373t-43 368t-137 122t-136 -121t-42 -368zM915 1116q0 20 -41 60q-40 40 -40 87q0 46 36 82q38 35 92 35t101 -38t47 -113q0 -213 -299 -217h-23q248 -133 248 -484q0 -252 -135 -402t-354 -151
q-219 1 -354 147t-135 400t138 400t351 147l229 -14q139 0 139 61z" />
    <glyph glyph-name="uni01A2" unicode="&#x1a2;" horiz-adv-x="1835" 
d="M1817 -471h-539v8q80 35 104 85t23 173v1374q0 158 -90 158h-82v-1264q-251 -92 -529 -92q-278 1 -456 189t-178 535t187 547t478 200q70 0 230 -27t225 -26q291 0 475 53h35v-1651q0 -125 22 -174t95 -80v-8zM733 1374q-162 0 -246 -175t-84 -493q-1 -318 91 -496
q92 -177 260 -177q110 0 194 45v1257q-137 39 -215 39z" />
    <glyph glyph-name="uni01A3" unicode="&#x1a3;" horiz-adv-x="1556" 
d="M713 483v488q-80 45 -169 45t-130 -120t-41 -374q0 -496 166 -495q92 -1 133 111t41 345zM1538 -471h-522v8q78 31 102 77t25 169v1024q0 115 -80 115h-55v-437q0 -248 -134 -379t-338 -131q-206 1 -342 145t-137 404q1 260 141 402t347 143q73 0 233 -43t239 -43t204 23
t184 63h31v-1286q0 -125 19 -170t83 -76v-8z" />
    <glyph glyph-name="uni01A4" unicode="&#x1a4;" horiz-adv-x="1388" 
d="M854 0h-588v8q80 29 105 78t24 178v858q0 144 -36 194t-132 50q-51 0 -63 -10q42 -20 70 -60t28 -93q0 -52 -42 -91t-101 -39t-100 42q-40 42 -39 104q0 106 88 150t266 44h528q244 0 360 -95t116 -297t-130 -307q-129 -105 -364 -106h-146v-338q0 -123 31 -176t125 -86
v-8zM698 676h90q242 0 242 348q0 156 -51 238t-172 81h-109v-667z" />
    <glyph glyph-name="uni01A5" unicode="&#x1a5;" horiz-adv-x="1120" 
d="M532 29q104 0 171 125t67 346q0 432 -235 434q-62 0 -115 -27v-841q59 -37 112 -37zM545 -471h-520v8q66 29 83 72t17 172v1360q0 197 127 296t313 99q106 0 175 -53t69 -123t-41 -112t-100 -42t-100 36q-40 36 -40 95q0 96 103 152q-31 6 -58 6q-154 0 -153 -287v-274
q129 135 293 135t258 -136t94 -353q0 -158 -51 -281t-133 -191q-162 -134 -361 -133q-8 0 -100 7v-183q0 -143 22 -188t103 -74v-8z" />
    <glyph glyph-name="uni01A6" unicode="&#x1a6;" horiz-adv-x="1255" 
d="M477 483h82q246 -1 246 307t-221 308h-107v-615zM1333 -322h-215q-162 0 -207 28t-108 175l-234 539h-92v-150q0 -125 24 -178t101 -84v-8h-557v8q82 29 107 78t24 178v883q0 129 -24 178q-25 49 -105 80v8h557v-8q-76 -29 -100 -75t-27 -163h127q262 0 390 -85t128 -269
q0 -143 -95 -226q-71 -62 -189 -112l299 -588q55 -111 96 -147t100 -53v-9z" />
    <glyph glyph-name="uni01A7" unicode="&#x1a7;" horiz-adv-x="960" 
d="M903 416v-375q-155 -72 -363 -72t-337 118t-129 299t117 303q85 88 193 163q109 74 162 118q118 100 118 216q0 84 -50 134t-131 50q-83 0 -159 -77t-164 -238h-10v321q160 66 309 66q190 0 317 -111t127 -287q0 -96 -44 -180t-114 -145t-277 -219q-153 -116 -153 -266
q1 -82 61 -138t152 -57q92 0 179 89q86 89 186 288h10z" />
    <glyph glyph-name="uni01A8" unicode="&#x1a8;" horiz-adv-x="776" 
d="M45 317q0 86 36 154t91 106q97 67 236 134q127 62 127 166q0 55 -38 91q-39 36 -99 36t-126 -65t-147 -191h-8v270q137 51 273 51t241 -93q104 -93 104 -239q0 -98 -49 -169q-49 -72 -118 -110q-68 -38 -138 -71q-168 -80 -168 -197q0 -74 43 -112t117 -37q74 0 148 77
t157 230h10l-8 -315q-137 -57 -300 -57t-273 92q-110 94 -111 249z" />
    <glyph glyph-name="uni01A9" unicode="&#x1a9;" horiz-adv-x="1060" 
d="M23 0v8l460 606l-458 789v10h931v-332h-8q-90 162 -147 211t-180 49h-250l340 -567v-14l-426 -541h381q123 0 167 22t154 134h8l-39 -375h-933z" />
    <glyph glyph-name="uni01AA" unicode="&#x1aa;" horiz-adv-x="940" 
d="M317 -86v1286q-51 -43 -127 -43t-131 55q-55 56 -55 136t56 135t145 55q155 0 281 -123t126 -338v-1241q0 -287 160 -287q27 0 57 7q-100 53 -100 151q0 61 39 97t100 36q60 0 102 -42t42 -114t-71 -123q-71 -52 -177 -53q-188 0 -318 102t-129 304zM317 1348
q0 51 -34 87q-35 35 -87 35t-87 -36t-35 -85q0 -50 36 -86t86 -36t86 35q35 35 35 86z" />
    <glyph glyph-name="uni01AB" unicode="&#x1ab;" horiz-adv-x="655" 
d="M424 -135v123q-43 -4 -84 0q-213 20 -213 313v643h-102v10q233 129 374 346h17v-256h217v-100h-217v-651q0 -78 36 -123t102 -45t114 16v-194q0 -229 -90 -329t-269 -99q-100 0 -167 47q-66 48 -66 112t37 102t92 38t91 -32t36 -87q0 -88 -94 -137q33 -6 55 -6
q79 0 105 70t26 239z" />
    <glyph glyph-name="uni01AC" unicode="&#x1ac;" horiz-adv-x="1222" 
d="M899 0h-563v8q82 31 106 83t25 192v1063h-184q-72 0 -109 -13q100 -66 100 -155q0 -58 -42 -92t-99 -34t-98 38q-41 37 -41 106q0 115 93 166t286 51h805v-350h-11q-139 184 -193 233t-138 50h-66v-1082q0 -129 25 -178t104 -78v-8z" />
    <glyph glyph-name="uni01AD" unicode="&#x1ad;" horiz-adv-x="647" 
d="M127 301v643h-102v10l55 31q6 3 19 11q13 7 30 20v125q0 199 124 297t308 98q106 0 175 -53t69 -123t-40 -112t-99 -42t-101 36q-41 36 -41 95q0 98 103 152q-31 6 -58 6q-89 0 -121 -79t-32 -249v-123h217v-100h-217v-676q0 -68 38 -106t94 -37q56 0 114 25l6 -11
q-113 -156 -289 -155q-252 0 -252 317z" />
    <glyph glyph-name="uni01AE" unicode="&#x1ae;" horiz-adv-x="1210" 
d="M453 -86v1432h-50q-92 0 -150 -48t-200 -231h-8l25 346h1071l24 -346h-10q-143 182 -201 230t-149 49h-49v-1510q0 -287 157 -287q29 0 60 7q-102 53 -103 151q0 59 40 96t100 37t102 -42q41 -42 41 -114t-71 -123q-71 -52 -177 -53q-188 0 -320 102t-132 304z" />
    <glyph glyph-name="Uhorn" unicode="&#x1af;" horiz-adv-x="1329" 
d="M1063 397v588q0 223 -29 304t-114 116v8h231q145 0 145 68q0 20 -44 59t-44 85t36 81t87 35t101 -37q50 -36 49 -104t-17 -106t-54 -62t-71 -36q-33 -11 -98 -28q-45 -45 -61 -120t-17 -263v-594q0 -209 -121 -315t-356 -107q-516 0 -516 422v760q0 127 -24 175t-101 79
v8h553v-8q-78 -31 -102 -79t-23 -175v-789q0 -287 279 -286q150 0 230 80t81 241z" />
    <glyph glyph-name="uhorn" unicode="&#x1b0;" 
d="M692 -25v146h-2q-141 -145 -303 -146q-115 0 -187 71t-73 222v426q0 115 -8 163q-7 48 -27 71t-76 47v10q174 12 387 84h11v-723q0 -129 34 -179t110 -50q77 0 132 30v541q0 200 -35 241q-18 22 -67 46v10q154 12 293 47t139 90q0 20 -42 58t-42 85q0 46 37 81
q37 34 92 34t103 -38t48 -122t-60 -128q-60 -45 -179 -66v-618q0 -211 14 -258t96 -82v-9q-180 -16 -385 -84h-10z" />
    <glyph glyph-name="uni01B1" unicode="&#x1b1;" horiz-adv-x="1419" 
d="M791 1413h503l41 -340h-8q-73 85 -111 103t-129 18h-135q35 -39 109 -113q219 -219 259 -349q28 -93 28 -177q0 -260 -190 -422t-449 -162q-258 0 -450 162q-191 162 -191 422q0 169 90 297q47 68 86 112q38 44 112 118t109 112h-133q-92 0 -129 -18t-107 -103h-8l37 340
h502v-8q-109 -221 -168 -418t-59 -427t81 -376q81 -145 227 -145t228 145q82 146 82 376t-60 427q-59 197 -167 418v8z" />
    <glyph glyph-name="uni01B2" unicode="&#x1b2;" horiz-adv-x="1345" 
d="M172 393v758q0 125 -25 174t-102 80v8h559v-8q-80 -33 -104 -81t-25 -173v-784q0 -291 287 -291q168 0 244 130q92 157 102 454q6 169 6 293q0 123 -5 179q-13 148 -76 198q-38 30 -95 32q33 -35 33 -85t-31 -85t-83 -35t-89 37t-37 92q0 154 217 154q268 0 269 -418
q1 -358 -11 -450q-30 -239 -54 -291q-23 -52 -51 -108t-67 -88q-39 -31 -88 -61q-87 -52 -252 -55q-522 0 -522 424z" />
    <glyph glyph-name="uni01B3" unicode="&#x1b3;" horiz-adv-x="1396" 
d="M1087 0h-563v8q80 29 106 79t25 177v334l-196 455q-109 248 -230 319q3 -8 21 -37t18 -65q0 -68 -47 -109t-107 -41t-101 37q-40 37 -40 114t72 123t191 46q59 0 104 -5t107 -29q200 -77 315 -370l143 -354l131 336q68 178 68 244t-25 94q-25 29 -80 49v8h396v-8
q-70 -29 -125 -110t-140 -283l-172 -410v-338q0 -127 25 -177t104 -79v-8z" />
    <glyph glyph-name="uni01B4" unicode="&#x1b4;" horiz-adv-x="1247" 
d="M6 1044h506v-10q-50 -12 -70 -39t-20 -83t29 -171l147 -569l125 463q66 250 148 342q83 92 214 92q74 0 124 -46q51 -47 51 -111t-46 -109t-107 -45q-60 0 -110 46q-49 46 -51 114q-80 -68 -139 -291l-143 -551q-82 -309 -160 -436t-219 -127q-74 0 -122 40t-48 99t40 99
t97 40t97 -41t44 -104q70 67 121 227l39 127h-174l-174 606q-78 272 -108 339t-91 91v8z" />
    <glyph glyph-name="uni01B5" unicode="&#x1b5;" horiz-adv-x="1067" 
d="M31 0v8l325 676h-313v84h352l279 575h-164q-137 0 -209 -47t-235 -229h-9l37 346h926v-8l-303 -637h307v-84h-348l-293 -614h188q168 0 213 36q81 65 131 129t113 148h10l-37 -383h-970z" />
    <glyph glyph-name="uni01B6" unicode="&#x1b6;" horiz-adv-x="903" 
d="M31 0v8l250 490h-244v80h285l202 395h-90q-96 0 -153 -36t-211 -189h-11l39 296h762v-10l-231 -456h235v-80h-274l-215 -428h188q45 0 103 46t200 191h8l-36 -307h-807z" />
    <glyph glyph-name="uni01B7" unicode="&#x1b7;" horiz-adv-x="1044" 
d="M102 1178v235h799v-8l-348 -475q170 -39 289 -161t119 -302q0 -219 -159 -358t-386 -140q-166 0 -268 70q-101 70 -101 176q0 70 49 119t119 49t117 -45q47 -46 47 -110t-34 -109t-79 -66q45 -25 101 -24q129 0 217 102t88 260t-95 242t-245 94l-10 16l309 435h-529z" />
    <glyph glyph-name="uni01B8" unicode="&#x1b8;" horiz-adv-x="1044" 
d="M375 391q0 -158 84 -260t221 -102q51 0 100 24q-47 19 -81 65q-33 46 -33 108t48 110q48 47 118 47t118 -48q49 -48 49 -120q0 -106 -101 -176t-267 -70q-227 1 -387 139t-160 357q0 178 119 302t289 163l-347 475v8h797v-235h-526l309 -435l-10 -16q-150 -10 -245 -94
t-95 -242z" />
    <glyph glyph-name="uni01B9" unicode="&#x1b9;" horiz-adv-x="993" 
d="M662 -338q53 0 98 25q-45 20 -79 65t-34 107q0 63 47 109t118 46t119 -47t48 -121q0 -104 -101 -175t-268 -70q-225 0 -382 139t-156 356q0 180 115 304q116 124 284 161l-346 475v8h797v-235h-529l312 -434l-11 -17q-147 -10 -240 -93q-94 -83 -94 -246t86 -260t216 -97
z" />
    <glyph glyph-name="uni01BA" unicode="&#x1ba;" horiz-adv-x="890" 
d="M414 -453q-166 1 -270 93t-105 272q0 180 164 261q72 36 227 85q147 41 148 148q0 84 -72 116t-242 31v41l248 258h-449v192h775v-40l-359 -390q309 -25 309 -211q0 -92 -76 -135t-261 -86q-80 -18 -130 -71q-51 -53 -51 -140t56 -143t161 -57q222 0 320 227h14
q-18 -205 -130 -328q-111 -123 -277 -123z" />
    <glyph glyph-name="uni01BB" unicode="&#x1bb;" horiz-adv-x="1062" 
d="M84 0v31q68 100 231 322q164 222 228 331h-475v84h524q74 146 74 276t-73 214t-191 85q-118 0 -197 -83q88 -6 147 -50q60 -44 60 -118q0 -72 -47 -119t-115 -47t-118 49t-50 131q0 116 125 226t319 110t317 -106q122 -106 122 -267q0 -162 -125 -301h184v-84h-276
q-35 -34 -110 -100t-156 -142t-171 -192h641l-20 -250h-848z" />
    <glyph glyph-name="uni01BC" unicode="&#x1bc;" horiz-adv-x="1062" 
d="M868 1178h-630v-379q152 59 320 59t288 -110q121 -110 121 -306q1 -121 -51 -215t-134 -147q-169 -109 -348 -109q-180 0 -277 66t-98 168q-1 70 51 120t122 50t114 -45q45 -44 45 -108t-33 -109t-77 -68q37 -23 86 -22q149 0 225 106q76 105 76 283t-89 240t-243 63
h-172v413q0 138 -27 192t-102 85v8h833v-235z" />
    <glyph glyph-name="uni01BD" unicode="&#x1bd;" horiz-adv-x="892" 
d="M760 815h-553v-252q109 66 273 66t257 -82q94 -82 94 -217q-1 -135 -71 -218t-164 -113t-232 -30q-138 1 -233 55q-96 54 -96 152q0 64 44 108q43 44 107 44t109 -41t45 -105q0 -94 -104 -151q29 -12 73 -13q113 0 179 67t67 202q0 223 -227 223q-74 0 -197 -8v276
q0 131 -22 179q-23 48 -103 79v8h754v-229z" />
    <glyph glyph-name="uni01BE" unicode="&#x1be;" horiz-adv-x="872" 
d="M455 41q73 0 115 38q42 37 42 109t-50 121t-121 84t-143 74t-121 110q-50 71 -50 168v199h-102v10q238 133 374 346h17v-256h217v-100h-217v-96q0 -49 30 -89t77 -65q45 -26 99 -58t100 -68t77 -102t30 -149q0 -141 -90 -230t-235 -105q-29 -4 -88 -5q-148 7 -271 56
l-8 315h10q84 -154 159 -230t149 -77z" />
    <glyph glyph-name="uni01BF" unicode="&#x1bf;" horiz-adv-x="1107" 
d="M762 604q0 322 -227 322q-54 0 -107 -37v-922q160 72 247 218t87 419zM133 711q0 145 -18 187t-97 75v10q205 16 371 74l39 10v-147q47 55 129 102t168 47q162 -1 248 -109t86 -324t-104 -360q-52 -72 -105 -124q-104 -101 -393 -230q-20 -8 -29 -12v-328l-405 -69v10
q67 35 89 87t21 165v936z" />
    <glyph glyph-name="clickdental" unicode="&#x1c0;" horiz-adv-x="409" 
d="M248 -236h-78v1780h78v-1780z" />
    <glyph glyph-name="clicklateral" unicode="&#x1c1;" horiz-adv-x="819" 
d="M522 -236h-78v1780h78v-1780zM383 -236h-78v1780h78v-1780z" />
    <glyph glyph-name="uni01C2" unicode="&#x1c2;" horiz-adv-x="571" 
d="M340 0h-109v467h-211v111h211v196h-211v109h211v503h109v-503h213v-109h-213v-196h213v-111h-213v-467z" />
    <glyph glyph-name="uni01C3" unicode="&#x1c3;" horiz-adv-x="534" 
d="M98 1252q0 96 47 143t122 47t122 -47t47 -142t-72 -372t-83 -463h-25q-10 186 -84 462t-74 372zM440 144q0 -72 -51 -120t-122 -48t-122 48q-51 50 -51 120t51 121q51 50 122 50t122 -50t51 -121z" />
    <glyph glyph-name="uni01C4" unicode="&#x1c4;" horiz-adv-x="2351" 
d="M1892 1495h-151l-180 250h18l238 -109l237 109h19zM1315 0v8l643 1335h-164q-139 0 -213 -48t-231 -228h-9l37 346h926v-8l-637 -1335h188q82 0 119 5t91 37t106 92q51 60 141 179h10l-36 -383h-971zM473 70h131q403 0 404 655q0 287 -100 453t-281 165h-154v-1273z
M627 0h-578v8q77 29 99 77t22 179v885q0 131 -22 178t-99 78v8h604q324 0 500 -167t176 -515q0 -347 -179 -539t-523 -192z" />
    <glyph glyph-name="uni01C5" unicode="&#x1c5;" horiz-adv-x="2275" 
d="M1903 1163h-152l-180 250h18l238 -108l237 108h19zM1403 0v8l493 965h-116q-76 0 -132 -40t-206 -185h-10l38 296h762v-10l-485 -964h188q45 0 103 46t200 191h9l-37 -307h-807zM473 70h131q403 0 404 655q0 287 -100 453t-281 165h-154v-1273zM627 0h-578v8q77 29 99 77
t22 179v885q0 131 -22 178t-99 78v8h604q324 0 500 -167t176 -515q0 -347 -179 -539t-523 -192z" />
    <glyph glyph-name="uni01C6" unicode="&#x1c6;" horiz-adv-x="1996" 
d="M1636 1163h-151l-180 250h18l238 -108l237 108h19zM1124 0v8l494 965h-117q-76 0 -132 -40t-206 -185h-10l39 296h762v-10l-486 -964h189q45 0 102 46t201 191h8l-37 -307h-807zM550 1014q-92 0 -146 -124t-54 -327q0 -434 234 -434q55 0 112 33v774q-55 78 -146 78z
M404 -25q-154 -1 -250 133t-96 378t136 414q136 169 359 169q39 0 143 -16v157q0 115 -22 153q-23 38 -105 73v8q188 18 410 92h8v-1182q1 -160 19 -210t94 -85v-10q-193 -12 -393 -74h-9l-2 158q-139 -158 -292 -158z" />
    <glyph glyph-name="uni01C7" unicode="&#x1c7;" horiz-adv-x="1611" 
d="M1139 -12v1163q0 127 -24 175t-101 79v8h553v-8q-80 -31 -103 -79t-22 -175v-991q0 -102 -34 -192t-83 -151q-121 -148 -358 -245v10q172 100 172 406zM47 0v8q79 29 101 77t22 175v891q0 127 -25 176t-98 78v8h557v-8q-82 -33 -106 -85t-25 -175v-1075h133q60 0 114 32
t103 85q49 54 150 186h14l-37 -373h-903z" />
    <glyph glyph-name="uni01C8" unicode="&#x1c8;" horiz-adv-x="1538" 
d="M1141 -51v766q-1 147 -17 187t-92 73v10q182 12 389 84h11v-952q0 -209 -124 -367t-331 -242l-6 13q76 47 123 162t47 266zM1284 1151q-63 0 -108 45q-46 44 -46 108t46 110t108 46t108 -46t46 -108t-45 -109q-46 -46 -109 -46zM47 0v8q79 29 101 77t22 175v891
q0 127 -25 176t-98 78v8h557v-8q-82 -33 -106 -85t-25 -175v-1075h133q60 0 114 32t103 85q49 54 150 186h14l-37 -373h-903z" />
    <glyph glyph-name="uni01C9" unicode="&#x1c9;" horiz-adv-x="1071" 
d="M674 -51v766q0 147 -16 187t-93 73v10q182 12 389 84h11v-952q0 -209 -124 -367t-331 -242l-6 13q76 47 123 162t47 266zM817 1151q-63 0 -108 45q-45 44 -45 108t45 110t108 46t109 -46t45 -108q0 -62 -45 -109q-46 -46 -109 -46zM522 0h-491v8q66 29 83 72t17 172v932
q0 147 -17 187t-94 73v8q217 18 392 84h10v-1284q0 -129 17 -172t83 -72v-8z" />
    <glyph glyph-name="uni01CA" unicode="&#x1ca;" horiz-adv-x="1998" 
d="M1526 -12v1163q0 127 -24 175t-101 79v8h553v-8q-80 -31 -103 -79t-22 -175v-991q0 -102 -34 -192t-83 -151q-121 -148 -358 -245v10q172 100 172 406zM1221 -10h-127l-822 1136v-675q0 -300 60 -377q29 -37 90 -66v-8h-397v8q59 27 87 66q56 78 56 377v706q0 97 -34 153
t-118 95v8h410l690 -952v506q0 302 -59 373q-29 36 -88 65v8h395v-8q-59 -29 -87 -65q-56 -72 -56 -373v-977z" />
    <glyph glyph-name="uni01CB" unicode="&#x1cb;" horiz-adv-x="1888" 
d="M1491 -51v766q0 147 -16 187t-93 73v10q182 12 390 84h10v-952q0 -209 -124 -367t-331 -242l-6 13q76 47 123 162t47 266zM1634 1151q-63 0 -108 45q-45 44 -45 108t45 110t108 46q62 0 108 -46t46 -108t-45 -109q-46 -46 -109 -46zM1221 -10h-127l-822 1136v-675
q0 -300 60 -377q29 -37 90 -66v-8h-397v8q59 27 87 66q56 78 56 377v706q0 97 -34 153t-118 95v8h410l690 -952v506q0 302 -59 373q-29 36 -88 65v8h395v-8q-59 -29 -87 -65q-56 -72 -56 -373v-977z" />
    <glyph glyph-name="uni01CC" unicode="&#x1cc;" horiz-adv-x="1636" 
d="M1239 -51v766q0 147 -16 187t-93 73v10q182 12 390 84h10v-952q0 -209 -124 -367t-331 -242l-6 13q76 47 123 162t47 266zM1382 1151q-63 0 -108 45q-45 44 -45 108t45 110t108 46q62 0 108 -46t46 -108t-45 -109q-46 -46 -109 -46zM1087 0h-481v8q63 29 79 72
q15 43 15 188v467q0 195 -155 195q-57 0 -127 -31v-647q0 -133 15 -174t81 -70v-8h-483v8q66 29 83 71t17 173v457q0 153 -16 193t-92 73v10q172 12 385 84h10v-143q137 141 309 141q121 0 192 -75t70 -238v-502q-1 -129 17 -172t81 -72v-8z" />
    <glyph glyph-name="uni01CD" unicode="&#x1cd;" horiz-adv-x="1292" 
d="M733 1495h-151l-181 250h19l237 -109l238 109h18zM735 590l-174 643l-180 -643h354zM1284 0h-541v8q51 14 74 41t23 93t-82 370h-400q-72 -248 -72 -333t28 -118q26 -33 89 -53v-8h-397v8q74 39 124 138t142 407l254 860h262l273 -930q80 -276 120 -358t103 -117v-8z" />
    <glyph glyph-name="uni01CE" unicode="&#x1ce;" horiz-adv-x="970" 
d="M557 1163h-151l-181 250h19l237 -108l238 108h18zM494 551q-164 0 -164 -234q0 -102 38 -152q68 -90 201 -22v398q-51 10 -75 10zM43 242q0 346 526 358v145q0 250 -207 250q-76 0 -153 -39q65 -10 105 -49t40 -93t-40 -96t-98 -42t-99 39t-41 100q0 111 120 183t293 71
q322 0 355 -254q8 -43 8 -106v-433q0 -112 28 -146t105 -44v-8q-45 -39 -117 -69t-137 -29q-141 0 -160 137q-145 -141 -265 -141t-192 72q-72 73 -71 194z" />
    <glyph glyph-name="uni01CF" unicode="&#x1cf;" horiz-adv-x="643" 
d="M397 1495h-151l-180 250h18l238 -109l237 109h19zM596 0h-549v8q79 29 101 76t22 176v891q0 129 -22 176t-101 78v8h549v-8q-80 -31 -102 -78t-21 -176v-891q0 -129 22 -176t101 -76v-8z" />
    <glyph glyph-name="uni01D0" unicode="&#x1d0;" horiz-adv-x="542" 
d="M373 1163h-152l-180 250h18l238 -108l238 108h18zM498 0h-486v8q66 29 83 72t18 172v463q1 145 -17 186t-94 74v10q180 12 387 84h10v-817q1 -131 17 -173t82 -71v-8z" />
    <glyph glyph-name="uni01D1" unicode="&#x1d1;" horiz-adv-x="1437" 
d="M797 1495h-152l-180 250h18l238 -109l237 109h19zM400 706q0 -670 318 -671q318 0 318 671t-317 670q-319 0 -319 -670zM716 -31q-280 1 -464 191t-184 532t189 546t463 204t462 -190t188 -531q0 -342 -187 -547t-467 -205z" />
    <glyph glyph-name="uni01D2" unicode="&#x1d2;" 
d="M623 1163h-152l-180 250h18l238 -108l237 108h19zM369 527q0 -247 40 -373t139 -127q99 0 139 126q40 127 40 373t-43 368t-137 122t-136 -121t-42 -368zM547 -25q-219 1 -354 147t-135 400t138 400t353 147q215 0 351 -141q136 -140 136 -396t-135 -406t-354 -151z" />
    <glyph glyph-name="uni01D3" unicode="&#x1d3;" horiz-adv-x="1329" 
d="M823 1495h-151l-180 250h18l238 -109l237 109h19zM1063 397v588q0 223 -29 304t-114 116v8h378v-8q-80 -35 -108 -115t-27 -305v-594q0 -209 -121 -315t-356 -107q-516 0 -516 422v760q0 127 -24 175t-101 79v8h553v-8q-78 -31 -102 -79t-23 -175v-789q0 -287 279 -286
q150 0 230 80t81 241z" />
    <glyph glyph-name="uni01D4" unicode="&#x1d4;" 
d="M645 1163h-151l-181 250h19l237 -108l238 108h18zM692 -25v146h-2q-141 -145 -303 -146q-115 0 -187 71t-73 222v426q0 115 -8 163q-7 48 -27 71t-76 47v10q174 12 387 84h11v-780q0 -172 147 -172q74 0 129 30v541q0 200 -35 241q-18 22 -67 46v10q166 12 379 84h10
v-719q0 -166 16 -208t94 -74v-9q-180 -16 -385 -84h-10z" />
    <glyph glyph-name="uni01D5" unicode="&#x1d5;" horiz-adv-x="1329" 
d="M1010 1808h-527v119h527v-119zM717 1624q0 -53 -38 -90t-91 -37t-92 38t-39 90t39 90t92 38t91 -38t38 -91zM1038 1624q0 -53 -38 -90t-91 -37t-91 38t-38 90t37 90t91 38t92 -38t38 -91zM1063 397v588q0 223 -29 304t-114 116v8h378v-8q-80 -35 -108 -115t-27 -305v-594
q0 -209 -121 -315t-356 -107q-516 0 -516 422v760q0 127 -24 175t-101 79v8h553v-8q-78 -31 -102 -79t-23 -175v-789q0 -287 279 -286q150 0 230 80t81 241z" />
    <glyph glyph-name="uni01D6" unicode="&#x1d6;" 
d="M831 1460h-526v119h526v-119zM539 1292q0 -53 -38 -90t-91 -37t-93 38q-39 38 -39 90t39 90t93 38t91 -38q38 -38 38 -91zM860 1292q0 -53 -38 -90t-92 -37t-91 38t-37 90t37 90t91 38t92 -38t38 -91zM692 -25v146h-2q-141 -145 -303 -146q-115 0 -187 71t-73 222v426
q0 115 -8 163q-7 48 -27 71t-76 47v10q174 12 387 84h11v-780q0 -172 147 -172q74 0 129 30v541q0 200 -35 241q-18 22 -67 46v10q166 12 379 84h10v-719q0 -166 16 -208t94 -74v-9q-180 -16 -385 -84h-10z" />
    <glyph glyph-name="uni01D7" unicode="&#x1d7;" horiz-adv-x="1329" 
d="M639 1784h-16q94 119 131 250h266q-148 -164 -381 -250zM717 1624q0 -53 -38 -90t-91 -37t-92 38t-39 90t39 90t92 38t91 -38t38 -91zM1038 1624q0 -53 -38 -90t-91 -37t-91 38t-38 90t37 90t91 38t92 -38t38 -91zM1063 397v588q0 223 -29 304t-114 116v8h378v-8
q-80 -35 -108 -115t-27 -305v-594q0 -209 -121 -315t-356 -107q-516 0 -516 422v760q0 127 -24 175t-101 79v8h553v-8q-78 -31 -102 -79t-23 -175v-789q0 -287 279 -286q150 0 230 80t81 241z" />
    <glyph glyph-name="uni01D8" unicode="&#x1d8;" 
d="M453 1456h-17q94 119 131 250h267q-148 -164 -381 -250zM539 1292q0 -53 -38 -90t-91 -37t-93 38q-39 38 -39 90t39 90t93 38t91 -38q38 -38 38 -91zM860 1292q0 -53 -38 -90t-92 -37t-91 38t-37 90t37 90t91 38t92 -38t38 -91zM692 -25v146h-2q-141 -145 -303 -146
q-115 0 -187 71t-73 222v426q0 115 -8 163q-7 48 -27 71t-76 47v10q174 12 387 84h11v-780q0 -172 147 -172q74 0 129 30v541q0 200 -35 241q-18 22 -67 46v10q166 12 379 84h10v-719q0 -166 16 -208t94 -74v-9q-180 -16 -385 -84h-10z" />
    <glyph glyph-name="uni01D9" unicode="&#x1d9;" horiz-adv-x="1329" 
d="M823 1778h-151l-180 250h18l238 -109l237 109h19zM717 1624q0 -53 -38 -90t-91 -37t-92 38t-39 90t39 90t92 38t91 -38t38 -91zM1038 1624q0 -53 -38 -90t-91 -37t-91 38t-38 90t37 90t91 38t92 -38t38 -91zM1063 397v588q0 223 -29 304t-114 116v8h378v-8
q-80 -35 -108 -115t-27 -305v-594q0 -209 -121 -315t-356 -107q-516 0 -516 422v760q0 127 -24 175t-101 79v8h553v-8q-78 -31 -102 -79t-23 -175v-789q0 -287 279 -286q150 0 230 80t81 241z" />
    <glyph glyph-name="uni01DA" unicode="&#x1da;" 
d="M647 1450h-151l-181 250h19l237 -109l238 109h18zM539 1292q0 -53 -38 -90t-91 -37t-93 38q-39 38 -39 90t39 90t93 38t91 -38q38 -38 38 -91zM860 1292q0 -53 -38 -90t-92 -37t-91 38t-37 90t37 90t91 38t92 -38t38 -91zM692 -25v146h-2q-141 -145 -303 -146
q-115 0 -187 71t-73 222v426q0 115 -8 163q-7 48 -27 71t-76 47v10q174 12 387 84h11v-780q0 -172 147 -172q74 0 129 30v541q0 200 -35 241q-18 22 -67 46v10q166 12 379 84h10v-719q0 -166 16 -208t94 -74v-9q-180 -16 -385 -84h-10z" />
    <glyph glyph-name="uni01DB" unicode="&#x1db;" horiz-adv-x="1329" 
d="M868 1784h-14q-238 86 -381 250h266q35 -127 129 -250zM717 1624q0 -53 -38 -90t-91 -37t-92 38t-39 90t39 90t92 38t91 -38t38 -91zM1038 1624q0 -53 -38 -90t-91 -37t-91 38t-38 90t37 90t91 38t92 -38t38 -91zM1063 397v588q0 223 -29 304t-114 116v8h378v-8
q-80 -35 -108 -115t-27 -305v-594q0 -209 -121 -315t-356 -107q-516 0 -516 422v760q0 127 -24 175t-101 79v8h553v-8q-78 -31 -102 -79t-23 -175v-789q0 -287 279 -286q150 0 230 80t81 241z" />
    <glyph glyph-name="uni01DC" unicode="&#x1dc;" 
d="M696 1456h-14q-238 86 -381 250h266q35 -127 129 -250zM539 1292q0 -53 -38 -90t-91 -37t-93 38q-39 38 -39 90t39 90t93 38t91 -38q38 -38 38 -91zM860 1292q0 -53 -38 -90t-92 -37t-91 38t-37 90t37 90t91 38t92 -38t38 -91zM692 -25v146h-2q-141 -145 -303 -146
q-115 0 -187 71t-73 222v426q0 115 -8 163q-7 48 -27 71t-76 47v10q174 12 387 84h11v-780q0 -172 147 -172q74 0 129 30v541q0 200 -35 241q-18 22 -67 46v10q166 12 379 84h10v-719q0 -166 16 -208t94 -74v-9q-180 -16 -385 -84h-10z" />
    <glyph glyph-name="uni01DD" unicode="&#x1dd;" horiz-adv-x="915" 
d="M428 31q70 0 104 93t39 306l-268 -27q0 -203 28 -287q27 -84 97 -85zM49 471h524q0 168 -70 281q-71 113 -208 112q-67 0 -137 -30t-115 -70l-10 8q156 297 407 297q197 0 310 -141q112 -141 112 -389t-123 -405t-329 -157q-164 -1 -262 97t-99 303v94z" />
    <glyph glyph-name="uni01DE" unicode="&#x1de;" horiz-adv-x="1292" 
d="M918 1808h-527v119h527v-119zM627 1624q0 -53 -38 -90t-91 -37t-92 38t-39 90t39 90t92 38t91 -38t38 -91zM948 1624q0 -53 -38 -90t-91 -37t-91 38t-38 90t37 90t91 38t92 -38t38 -91zM735 590l-174 643l-180 -643h354zM1284 0h-541v8q51 14 74 41t23 93t-82 370h-400
q-72 -248 -72 -333t28 -118q26 -33 89 -53v-8h-397v8q74 39 124 138t142 407l254 860h262l273 -930q80 -276 120 -358t103 -117v-8z" />
    <glyph glyph-name="uni01DF" unicode="&#x1df;" horiz-adv-x="970" 
d="M748 1481h-527v118h527v-118zM451 1292q0 -53 -38 -90t-91 -37t-93 38q-39 38 -39 90t39 90t93 38t91 -38q38 -38 38 -91zM772 1292q0 -53 -38 -90t-91 -37t-91 38t-38 90t37 90t91 38t92 -38t38 -91zM494 551q-164 0 -164 -234q0 -102 38 -152q68 -90 201 -22v398
q-51 10 -75 10zM43 242q0 346 526 358v145q0 250 -207 250q-76 0 -153 -39q65 -10 105 -49t40 -93t-40 -96t-98 -42t-99 39t-41 100q0 111 120 183t293 71q322 0 355 -254q8 -43 8 -106v-433q0 -112 28 -146t105 -44v-8q-45 -39 -117 -69t-137 -29q-141 0 -160 137
q-145 -141 -265 -141t-192 72q-72 73 -71 194z" />
    <glyph glyph-name="uni01E0" unicode="&#x1e0;" horiz-adv-x="1292" 
d="M909 1808h-526v119h526v-119zM784 1624q0 -53 -38 -90t-91 -37t-91 37t-38 90t38 91t91 38t91 -38t38 -91zM735 590l-174 643l-180 -643h354zM1284 0h-541v8q51 14 74 41t23 93t-82 370h-400q-72 -248 -72 -333t28 -118q26 -33 89 -53v-8h-397v8q74 39 124 138t142 407
l254 860h262l273 -930q80 -276 120 -358t103 -117v-8z" />
    <glyph glyph-name="uni01E1" unicode="&#x1e1;" horiz-adv-x="970" 
d="M748 1481h-527v118h527v-118zM627 1292q0 -53 -38 -90t-91 -37t-91 37t-38 90t38 91t91 38t91 -38t38 -91zM494 551q-164 0 -164 -234q0 -102 38 -152q68 -90 201 -22v398q-51 10 -75 10zM43 242q0 346 526 358v145q0 250 -207 250q-76 0 -153 -39q65 -10 105 -49t40 -93
t-40 -96t-98 -42t-99 39t-41 100q0 111 120 183t293 71q322 0 355 -254q8 -43 8 -106v-433q0 -112 28 -146t105 -44v-8q-45 -39 -117 -69t-137 -29q-141 0 -160 137q-145 -141 -265 -141t-192 72q-72 73 -71 194z" />
    <glyph glyph-name="uni01E2" unicode="&#x1e2;" horiz-adv-x="1697" 
d="M1249 1569h-526v119h526v-119zM692 0v8q80 29 103 77t22 179v250h-397q-121 -289 -121 -381t98 -125v-8h-401v8q72 39 141 148q70 109 201 401l258 582q29 68 29 112q0 106 -133 154v8h1089v-340h-10q-109 170 -162 220t-152 50h-139v-583h137q80 0 124 35t106 129h10
v-392h-10q-59 90 -105 124t-125 34h-137v-620h119q109 0 169 40t159 166l75 97h13l-35 -373h-926zM817 594v743h-41l-321 -743h362z" />
    <glyph glyph-name="uni01E3" unicode="&#x1e3;" horiz-adv-x="1409" 
d="M965 1235h-527v119h527v-119zM986 1016q-68 0 -104 -94t-42 -308l268 27q0 205 -27 290t-95 85zM569 342v197q-41 12 -75 12q-164 0 -164 -234q0 -190 121 -190q55 0 87 58q31 59 31 157zM970 -23q-258 0 -354 242h-8q-82 -244 -313 -244q-109 0 -181 73t-71 194
q0 346 526 358v145q0 250 -207 250q-76 0 -153 -39q65 -10 105 -49t40 -93t-40 -96t-98 -42t-99 39t-41 100q0 111 120 183t294 71q174 0 243 -106q103 106 269 106t264 -98t98 -303q0 -59 -2 -93h-522q0 -169 70 -281t211 -112q140 0 249 101l8 -11q-150 -295 -408 -295z
" />
    <glyph glyph-name="uni01E4" unicode="&#x1e4;" horiz-adv-x="1331" 
d="M1325 317h-113v-256q-287 -92 -475 -92q-297 -1 -482 183t-185 544q0 186 62 332t168 236q213 178 491 178q233 0 376 -66l2 -334h-10q-186 332 -385 332q-168 0 -269 -171t-101 -495t98 -495q98 -170 278 -170q88 0 152 23v251h-203v84h203v29q0 100 -25 154t-94 90v8
h494v-8q-59 -37 -77 -79t-18 -163v-31h113v-84z" />
    <glyph glyph-name="uni01E5" unicode="&#x1e5;" horiz-adv-x="917" 
d="M451 399q129 0 129 308q0 163 -31 237t-98 74q-129 0 -129 -309q0 -160 30 -235t99 -75zM512 -281v84h246q0 147 -195 150q-266 12 -278 12q-43 -27 -73 -79t-30 -111q0 -89 71 -153t185 -64t192 44q76 44 107 117h-225zM1085 -281h-227q-68 -100 -194 -155
q-126 -56 -283 -56q-156 0 -280 70t-124 166t77 154t175 75q-158 37 -157 168q0 72 49 137t131 107q-203 86 -203 317q0 170 110 268t290 99q94 0 180 -35q223 23 237 25l82 8l-14 -137l-176 22q92 -92 92 -248t-111 -255q-111 -98 -290 -99q-98 0 -170 25q-41 -51 -41 -90
q0 -70 122 -76l254 -10q144 -4 228 -80t84 -207q0 -61 -21 -109h180v-84z" />
    <glyph glyph-name="Gcaron" unicode="&#x1e6;" horiz-adv-x="1331" 
d="M862 1495h-151l-181 250h19l237 -109l238 109h18zM932 430q0 100 -25 154t-94 90v8h494v-8q-59 -37 -77 -79t-18 -163v-371q-287 -92 -475 -92q-297 -1 -482 183t-185 544q0 186 62 332t168 236q213 178 491 178q233 0 376 -66l2 -334h-10q-186 332 -385 332
q-168 0 -269 -171t-101 -495t98 -495q98 -170 278 -170q89 0 152 23v364z" />
    <glyph glyph-name="gcaron" unicode="&#x1e7;" horiz-adv-x="917" 
d="M528 1163h-151l-180 250h18l238 -108l237 108h19zM451 399q129 0 129 308q0 163 -31 237t-98 74q-129 0 -129 -309q0 -160 30 -235t99 -75zM455 -442q131 0 218 72t87 171q0 141 -197 148q-266 12 -278 12q-102 -63 -103 -186q0 -89 71 -153t202 -64zM926 -88
q0 -184 -161 -294t-351 -110t-313 70q-124 70 -124 166t77 152t175 73q-158 37 -157 172q0 72 49 137t131 107q-203 86 -203 317q0 170 110 268t290 99q94 0 180 -35l319 33l-14 -137l-176 22q92 -92 92 -248t-111 -255q-111 -98 -290 -99q-98 0 -170 25q-41 -51 -41 -90
q-1 -68 122 -74l254 -10q144 -4 228 -81t84 -208z" />
    <glyph glyph-name="uni01E8" unicode="&#x1e8;" horiz-adv-x="1345" 
d="M778 1495h-151l-181 250h19l237 -109l238 109h18zM1372 0h-588v8q50 16 70 34t20 64q0 45 -81 211l-191 373l-129 -153v-277q0 -129 23 -176t102 -76v-8h-555v8q79 29 103 77t24 175v891q0 127 -24 175t-103 79v8h555v-8q-80 -31 -102 -78t-23 -176v-516l289 377
q150 195 149 276q0 43 -22 70q-23 27 -78 47v8h502v-8q-104 -45 -180 -107t-205 -217l-125 -151l356 -666q68 -127 108 -175t105 -81v-8z" />
    <glyph glyph-name="uni01E9" unicode="&#x1e9;" horiz-adv-x="1114" 
d="M348 1575h-151l-181 250h19l237 -109l238 109h18zM1147 0h-268q-109 0 -146 32t-117 177l-176 321l127 156q123 147 123 213q0 86 -125 131v14h543v-12q-90 -23 -169 -76t-169 -157l-104 -119l270 -449q74 -121 116 -163t95 -60v-8zM514 0h-477v8q63 29 79 75
q15 46 15 212v887q0 147 -16 187t-88 73v8q199 16 381 86h10v-1241q0 -166 15 -212t81 -75v-8z" />
    <glyph glyph-name="uni01EA" unicode="&#x1ea;" horiz-adv-x="1437" 
d="M400 706q0 -670 318 -671q318 0 318 671t-317 670q-319 0 -319 -670zM717 -31q-281 1 -465 191t-184 532t189 546t463 204t462 -190t188 -523q0 -335 -172 -537t-432 -221q-115 -133 -115 -233q0 -37 25 -57q45 -36 117 -13v-8q-23 -32 -68 -60t-107 -28t-104 40
q-41 40 -41 97q0 129 246 260h-2z" />
    <glyph glyph-name="uni01EB" unicode="&#x1eb;" 
d="M369 527q0 -247 40 -373t139 -127q99 0 139 126q40 127 40 373t-43 368t-137 122t-136 -121t-42 -368zM424 -428q-62 0 -102 40t-41 97q0 133 258 266q-217 3 -349 149t-133 399q1 253 139 399t353 147q215 0 351 -141q136 -140 136 -392t-126 -400t-332 -159
q-119 -137 -119 -239q1 -37 25 -57q44 -36 116 -13v-8q-23 -32 -68 -60q-46 -28 -108 -28z" />
    <glyph glyph-name="uni01EC" unicode="&#x1ec;" horiz-adv-x="1437" 
d="M981 1604h-526v118h526v-118zM400 706q0 -670 318 -671q318 0 318 671t-317 670q-319 0 -319 -670zM717 -31q-281 1 -465 191t-184 532t189 546t463 204t462 -190t188 -523q0 -335 -172 -537t-432 -221q-115 -133 -115 -233q0 -37 25 -57q45 -36 117 -13v-8
q-23 -32 -68 -60t-107 -28t-104 40q-41 40 -41 97q0 129 246 260h-2z" />
    <glyph glyph-name="uni01ED" unicode="&#x1ed;" 
d="M809 1235h-526v119h526v-119zM369 527q0 -247 40 -373t139 -127q99 0 139 126q40 127 40 373t-43 368t-137 122t-136 -121t-42 -368zM424 -428q-62 0 -102 40t-41 97q0 133 258 266q-217 3 -349 149t-133 399q1 253 139 399t353 147q215 0 351 -141q136 -140 136 -392
t-126 -400t-332 -159q-119 -137 -119 -239q1 -37 25 -57q44 -36 116 -13v-8q-23 -32 -68 -60q-46 -28 -108 -28z" />
    <glyph glyph-name="uni01EE" unicode="&#x1ee;" horiz-adv-x="1044" 
d="M598 1495h-152l-180 250h19l237 -109l238 109h18zM102 1178v235h799v-8l-348 -475q170 -39 289 -161t119 -302q0 -219 -159 -358t-386 -140q-166 0 -268 70q-101 70 -101 176q0 74 48 121t119 47t118 -45q47 -46 47 -110t-34 -109t-79 -66q49 -27 111 -26q125 0 210 96
t85 261t-98 249t-242 94l-10 16l309 435h-529z" />
    <glyph glyph-name="uni01EF" unicode="&#x1ef;" horiz-adv-x="993" 
d="M571 1163h-151l-180 250h18l238 -108l237 108h19zM86 809v235h799v-8l-346 -475q167 -39 283 -161t116 -302q0 -219 -158 -358t-383 -139q-166 1 -266 71t-100 174q0 72 48 120t119 48q72 0 118 -45t46 -108t-33 -109q-34 -45 -79 -65q41 -27 106 -27q125 0 208 96
t83 260t-93 248q-94 84 -239 94l-10 17l309 434h-528z" />
    <glyph glyph-name="jcaron" unicode="&#x1f0;" horiz-adv-x="528" 
d="M362 1163h-151l-180 250h18l238 -108l237 108h19zM111 715q-1 147 -17 187t-92 73v10q182 12 389 84h10v-993q-1 -100 -35 -190t-83 -148q-121 -146 -336 -230l-6 13q76 47 122 162q47 115 48 266v766z" />
    <glyph glyph-name="uni01F1" unicode="&#x1f1;" horiz-adv-x="2351" 
d="M1315 0v8l643 1335h-164q-139 0 -213 -48t-231 -228h-9l37 346h926v-8l-637 -1335h188q82 0 119 5t91 37t106 92q51 60 141 179h10l-36 -383h-971zM473 70h131q403 0 404 655q0 287 -100 453t-281 165h-154v-1273zM627 0h-578v8q77 29 99 77t22 179v885q0 131 -22 178
t-99 78v8h604q324 0 500 -167t176 -515q0 -347 -179 -539t-523 -192z" />
    <glyph glyph-name="uni01F2" unicode="&#x1f2;" horiz-adv-x="2275" 
d="M1403 0v8l493 965h-116q-76 0 -132 -40t-206 -185h-10l38 296h762v-10l-485 -964h188q45 0 103 46t200 191h9l-37 -307h-807zM473 70h131q403 0 404 655q0 287 -100 453t-281 165h-154v-1273zM627 0h-578v8q77 29 99 77t22 179v885q0 131 -22 178t-99 78v8h604
q324 0 500 -167t176 -515q0 -347 -179 -539t-523 -192z" />
    <glyph glyph-name="uni01F3" unicode="&#x1f3;" horiz-adv-x="1996" 
d="M1124 0v8l494 965h-117q-76 0 -132 -40t-206 -185h-10l39 296h762v-10l-486 -964h189q45 0 102 46t201 191h8l-37 -307h-807zM550 1014q-92 0 -146 -124t-54 -327q0 -434 234 -434q55 0 112 33v774q-55 78 -146 78zM404 -25q-154 -1 -250 133t-96 378t136 414
q136 169 359 169q39 0 143 -16v157q0 115 -22 153q-23 38 -105 73v8q188 18 410 92h8v-1182q1 -160 19 -210t94 -85v-10q-193 -12 -393 -74h-9l-2 158q-139 -158 -292 -158z" />
    <glyph glyph-name="uni01F4" unicode="&#x1f4;" horiz-adv-x="1331" 
d="M662 1495h-17q94 119 131 250h266q-147 -164 -380 -250zM932 430q0 100 -25 154t-94 90v8h494v-8q-59 -37 -77 -79t-18 -163v-371q-287 -92 -475 -92q-297 -1 -482 183t-185 544q0 186 62 332t168 236q213 178 491 178q233 0 376 -66l2 -334h-10q-186 332 -385 332
q-168 0 -269 -171t-101 -495t98 -495q98 -170 278 -170q89 0 152 23v364z" />
    <glyph glyph-name="uni01F5" unicode="&#x1f5;" horiz-adv-x="917" 
d="M326 1163h-17q94 119 131 250h267q-148 -164 -381 -250zM451 399q129 0 129 308q0 163 -31 237t-98 74q-129 0 -129 -309q0 -160 30 -235t99 -75zM455 -442q131 0 218 72t87 171q0 141 -197 148q-266 12 -278 12q-102 -63 -103 -186q0 -89 71 -153t202 -64zM926 -88
q0 -184 -161 -294t-351 -110t-313 70q-124 70 -124 166t77 152t175 73q-158 37 -157 172q0 72 49 137t131 107q-203 86 -203 317q0 170 110 268t290 99q94 0 180 -35l319 33l-14 -137l-176 22q92 -92 92 -248t-111 -255q-111 -98 -290 -99q-98 0 -170 25q-41 -51 -41 -90
q-1 -68 122 -74l254 -10q144 -4 228 -81t84 -208z" />
    <glyph glyph-name="uni01F6" unicode="&#x1f6;" horiz-adv-x="2101" 
d="M1694 268v514q0 129 -20 176t-89 78v8h465v-6q-41 -39 -54 -86t-14 -159v-502q0 -311 -512 -311t-512 311v393h-481v-420q0 -129 25 -178t104 -78v-8h-559v8q80 29 104 78t23 178v887q0 127 -23 175q-24 48 -104 79v8h559v-8q-80 -31 -104 -79t-25 -175v-385h481v385
q0 127 -23 175q-24 48 -101 79v8h557v-8q-80 -31 -105 -79t-24 -175v-858q0 -223 229 -223q203 -1 203 198z" />
    <glyph glyph-name="uni01F7" unicode="&#x1f7;" horiz-adv-x="1171" 
d="M166 1075q0 133 -25 180t-114 86v9q182 18 426 90h10v-152q57 60 141 106t168 46q166 0 256 -134t90 -386q0 -464 -288 -752q-89 -90 -176 -148t-191 -110v-303l-426 -92v14q88 47 108 100t21 191v1255zM821 879q0 201 -52 309t-185 106q-60 0 -121 -39v-1288
q358 193 358 912z" />
    <glyph glyph-name="uni01F8" unicode="&#x1f8;" horiz-adv-x="1380" 
d="M862 1495h-14q-238 86 -381 250h266q35 -127 129 -250zM1221 -10h-127l-822 1136v-675q0 -300 60 -377q29 -37 90 -66v-8h-397v8q59 27 87 66q56 78 56 377v706q0 97 -34 153t-118 95v8h410l690 -952v506q0 302 -59 373q-29 36 -88 65v8h395v-8q-59 -29 -87 -65
q-56 -72 -56 -373v-977z" />
    <glyph glyph-name="uni01F9" unicode="&#x1f9;" horiz-adv-x="1107" 
d="M721 1163h-14q-238 86 -381 250h266q35 -127 129 -250zM1087 0h-481v8q63 29 79 72q15 43 15 188v467q0 195 -155 195q-57 0 -127 -31v-647q0 -133 15 -174t81 -70v-8h-483v8q66 29 83 71t17 173v457q0 153 -16 193t-92 73v10q172 12 385 84h10v-143q137 141 309 141
q121 0 192 -75t70 -238v-502q-1 -129 17 -172t81 -72v-8z" />
    <glyph glyph-name="Aringacute" unicode="&#x1fa;" horiz-adv-x="1292" 
d="M526 1755h-16q94 119 131 250h266q-148 -164 -381 -250zM649 1348q57 0 97 43t40 102t-40 102t-97 43t-96 -43t-39 -102t39 -102t96 -43zM735 594l-174 643l-180 -643h354zM1284 0h-541v8q51 14 74 41t23 95t-82 372h-400q-72 -248 -72 -335t28 -120q26 -33 89 -53v-8
h-397v8q74 39 125 140t141 409l226 770q-80 66 -80 163t69 166q70 68 164 68t162 -68t68 -162q0 -95 -70 -159l268 -911q88 -294 139 -359q26 -34 66 -57v-8z" />
    <glyph glyph-name="aringacute" unicode="&#x1fb;" horiz-adv-x="970" 
d="M397 1569h-16q94 119 131 250h266q-148 -164 -381 -250zM481 1231q47 0 80 36t33 85t-33 85t-80 36t-81 -36t-34 -85t34 -85t81 -36zM682 1352q0 -82 -59 -140t-141 -57q-82 0 -142 57q-59 58 -59 140t59 139t141 57q81 0 141 -57t60 -139zM494 551q-164 0 -164 -234
q0 -102 38 -152q68 -90 201 -22v398q-51 10 -75 10zM43 242q0 346 526 358v145q0 250 -207 250q-76 0 -153 -39q65 -10 105 -49t40 -93t-40 -96t-98 -42t-99 39t-41 100q0 111 120 183t293 71q322 0 355 -254q8 -43 8 -106v-433q0 -112 28 -146t105 -44v-8q-45 -39 -117 -69
t-137 -29q-141 0 -160 137q-145 -141 -265 -141t-192 72q-72 73 -71 194z" />
    <glyph glyph-name="AEacute" unicode="&#x1fc;" horiz-adv-x="1697" 
d="M854 1495h-16q94 119 131 250h266q-148 -164 -381 -250zM692 0v8q80 29 103 77t22 179v250h-397q-121 -289 -121 -381t98 -125v-8h-401v8q72 39 141 148q70 109 201 401l258 582q29 68 29 112q0 106 -133 154v8h1089v-340h-10q-109 170 -162 220t-152 50h-139v-583h137
q80 0 124 35t106 129h10v-392h-10q-59 90 -105 124t-125 34h-137v-620h119q109 0 169 40t159 166l75 97h13l-35 -373h-926zM817 594v743h-41l-321 -743h362z" />
    <glyph glyph-name="aeacute" unicode="&#x1fd;" horiz-adv-x="1409" 
d="M600 1163h-16q94 119 131 250h266q-148 -164 -381 -250zM986 1016q-68 0 -104 -94t-42 -308l268 27q0 205 -27 290t-95 85zM569 342v197q-41 12 -75 12q-164 0 -164 -234q0 -190 121 -190q55 0 87 58q31 59 31 157zM970 -23q-258 0 -354 242h-8q-82 -244 -313 -244
q-109 0 -181 73t-71 194q0 346 526 358v145q0 250 -207 250q-76 0 -153 -39q65 -10 105 -49t40 -93t-40 -96t-98 -42t-99 39t-41 100q0 111 120 183t294 71q174 0 243 -106q103 106 269 106t264 -98t98 -303q0 -59 -2 -93h-522q0 -169 70 -281t211 -112q140 0 249 101l8 -11
q-150 -295 -408 -295z" />
    <glyph glyph-name="Oslashacute" unicode="&#x1fe;" horiz-adv-x="1437" 
d="M594 1495h-16q94 119 131 250h266q-148 -164 -381 -250zM719 35q317 0 317 674q0 260 -53 426l-483 -967q80 -133 219 -133zM719 1376q-319 0 -320 -671q1 -260 54 -424l483 964q-82 131 -217 131zM721 1442q147 0 280 -64l70 140l82 -43l-70 -142q133 -91 210 -245
t77 -365q0 -344 -187 -549t-466 -205q-150 0 -285 62l-74 -148l-82 47l74 146q-283 193 -282 614q0 344 189 548t464 204z" />
    <glyph glyph-name="oslashacute" unicode="&#x1ff;" 
d="M422 1163h-16q94 119 131 250h266q-148 -164 -381 -250zM550 1016q-181 0 -181 -440q0 -198 10 -279l311 580q-43 139 -140 139zM546 27q182 1 181 439q0 186 -12 282l-312 -580q41 -141 143 -141zM57 520q1 256 139 402t351 147q121 0 221 -47l78 143l72 -41l-78 -143
q197 -143 196 -453q0 -252 -135 -402t-354 -151q-123 0 -221 48l-76 -142l-74 39l78 146q-197 147 -197 454z" />
    <glyph glyph-name="uni0200" unicode="&#x200;" horiz-adv-x="1292" 
d="M575 1495h-18q-170 121 -231 250h192q8 -119 57 -250zM834 1495h-19q-168 119 -231 250h190q9 -123 60 -250zM735 590l-174 643l-180 -643h354zM1284 0h-541v8q51 14 74 41t23 93t-82 370h-400q-72 -248 -72 -333t28 -118q26 -33 89 -53v-8h-397v8q74 39 124 138t142 407
l254 860h262l273 -930q80 -276 120 -358t103 -117v-8z" />
    <glyph glyph-name="uni0201" unicode="&#x201;" horiz-adv-x="970" 
d="M399 1163h-18q-170 121 -231 250h192q8 -119 57 -250zM657 1163h-18q-168 119 -231 250h190q8 -123 59 -250zM494 551q-164 0 -164 -234q0 -102 38 -152q68 -90 201 -22v398q-51 10 -75 10zM43 242q0 346 526 358v145q0 250 -207 250q-76 0 -153 -39q65 -10 105 -49
t40 -93t-40 -96t-98 -42t-99 39t-41 100q0 111 120 183t293 71q322 0 355 -254q8 -43 8 -106v-433q0 -112 28 -146t105 -44v-8q-45 -39 -117 -69t-137 -29q-141 0 -160 137q-145 -141 -265 -141t-192 72q-72 73 -71 194z" />
    <glyph glyph-name="uni0202" unicode="&#x202;" horiz-adv-x="1292" 
d="M656 1614q-74 0 -140 -29t-94 -92h-14q14 111 80 187t169 75q104 1 170 -75t80 -187h-12q-29 63 -97 92t-142 29zM735 590l-174 643l-180 -643h354zM1284 0h-541v8q51 14 74 41t23 93t-82 370h-400q-72 -248 -72 -333t28 -118q26 -33 89 -53v-8h-397v8q74 39 124 138
t142 407l254 860h262l273 -930q80 -276 120 -358t103 -117v-8z" />
    <glyph glyph-name="uni0203" unicode="&#x203;" horiz-adv-x="970" 
d="M480 1282q-74 0 -140 -29t-94 -92h-15q14 111 80 187t170 76t170 -76t80 -187h-12q-29 63 -97 92t-142 29zM494 551q-164 0 -164 -234q0 -102 38 -152q68 -90 201 -22v398q-51 10 -75 10zM43 242q0 346 526 358v145q0 250 -207 250q-76 0 -153 -39q65 -10 105 -49t40 -93
t-40 -96t-98 -42t-99 39t-41 100q0 111 120 183t293 71q322 0 355 -254q8 -43 8 -106v-433q0 -112 28 -146t105 -44v-8q-45 -39 -117 -69t-137 -29q-141 0 -160 137q-145 -141 -265 -141t-192 72q-72 73 -71 194z" />
    <glyph glyph-name="uni0204" unicode="&#x204;" horiz-adv-x="1052" 
d="M459 1495h-19q-170 121 -231 250h192q9 -119 58 -250zM717 1495h-19q-168 119 -231 250h190q9 -123 60 -250zM47 0v8q79 29 101 77t22 179v885q0 129 -23 177t-100 79v8h889v-340h-10q-109 170 -162 220t-152 50h-139v-583h127q86 0 132 34t108 130h10v-392h-10
q-60 92 -108 125t-132 33h-127v-620h119q120 0 184 50t199 226q14 18 20 27h13l-35 -373h-926z" />
    <glyph glyph-name="uni0205" unicode="&#x205;" horiz-adv-x="915" 
d="M430 1163h-18q-170 121 -232 250h193q8 -119 57 -250zM688 1163h-18q-168 119 -232 250h191q8 -123 59 -250zM490 1016q-68 0 -104 -94t-42 -308l270 27q0 203 -27 289q-29 86 -97 86zM477 -23q-197 1 -311 141t-113 389q0 249 123 405t332 157q164 0 262 -98t98 -303
v-93h-524q0 -169 71 -281t211 -112t248 101l9 -11q-150 -295 -406 -295z" />
    <glyph glyph-name="uni0206" unicode="&#x206;" horiz-adv-x="1052" 
d="M540 1614q-72 0 -140 -29q-67 -29 -95 -92h-14q14 111 80 187t170 75q104 1 170 -75t80 -187h-13q-30 63 -98 92t-140 29zM47 0v8q79 29 101 77t22 179v885q0 129 -23 177t-100 79v8h889v-340h-10q-109 170 -162 220t-152 50h-139v-583h127q86 0 132 34t108 130h10v-392
h-10q-60 92 -108 125t-132 33h-127v-620h119q120 0 184 50t199 226q14 18 20 27h13l-35 -373h-926z" />
    <glyph glyph-name="uni0207" unicode="&#x207;" horiz-adv-x="915" 
d="M510 1282q-72 0 -138 -29t-96 -92h-14q14 111 80 187t170 76t170 -76t80 -187h-12q-29 63 -98 92q-70 29 -142 29zM490 1016q-68 0 -104 -94t-42 -308l270 27q0 203 -27 289q-29 86 -97 86zM477 -23q-197 1 -311 141t-113 389q0 249 123 405t332 157q164 0 262 -98
t98 -303v-93h-524q0 -169 71 -281t211 -112t248 101l9 -11q-150 -295 -406 -295z" />
    <glyph glyph-name="uni0208" unicode="&#x208;" horiz-adv-x="643" 
d="M240 1495h-19q-170 121 -231 250h192q9 -119 58 -250zM498 1495h-19q-168 119 -231 250h190q9 -123 60 -250zM596 0h-549v8q79 29 101 76t22 176v891q0 129 -22 176t-101 78v8h549v-8q-80 -31 -102 -78t-21 -176v-891q0 -129 22 -176t101 -76v-8z" />
    <glyph glyph-name="uni0209" unicode="&#x209;" horiz-adv-x="542" 
d="M215 1163h-18q-170 121 -232 250h193q8 -119 57 -250zM473 1163h-18q-168 119 -232 250h191q8 -123 59 -250zM518 0h-485v8q66 29 83 72t17 172v463q0 145 -17 186t-93 74v10q180 12 387 84h10v-817q0 -131 16 -173t82 -71v-8z" />
    <glyph glyph-name="uni020A" unicode="&#x20a;" horiz-adv-x="643" 
d="M320 1614q-72 0 -139 -29t-95 -92h-14q14 111 80 187t170 75q104 1 170 -75t79 -187h-12q-29 63 -97 92q-70 29 -142 29zM596 0h-549v8q79 29 101 76t22 176v891q0 129 -22 176t-101 78v8h549v-8q-80 -31 -102 -78t-21 -176v-891q0 -129 22 -176t101 -76v-8z" />
    <glyph glyph-name="uni020B" unicode="&#x20b;" horiz-adv-x="542" 
d="M271 1282q-73 0 -139 -29t-95 -92h-14q14 111 79 187q66 76 170 76t170 -76t80 -187h-12q-30 63 -98 92t-141 29zM518 0h-485v8q66 29 83 72t17 172v463q0 145 -17 186t-93 74v10q180 12 387 84h10v-817q0 -131 16 -173t82 -71v-8z" />
    <glyph glyph-name="uni020C" unicode="&#x20c;" horiz-adv-x="1437" 
d="M639 1495h-18q-170 121 -232 250h193q8 -119 57 -250zM897 1495h-18q-168 119 -232 250h191q8 -123 59 -250zM400 706q0 -670 318 -671q318 0 318 671t-317 670q-319 0 -319 -670zM716 -31q-280 1 -464 191t-184 532t189 546t463 204t462 -190t188 -531q0 -342 -187 -547
t-467 -205z" />
    <glyph glyph-name="uni020D" unicode="&#x20d;" 
d="M465 1163h-19q-170 121 -231 250h193q8 -119 57 -250zM723 1163h-18q-168 119 -232 250h191q8 -123 59 -250zM369 527q0 -247 40 -373t139 -127q99 0 139 126q40 127 40 373t-43 368t-137 122t-136 -121t-42 -368zM547 -25q-219 1 -354 147t-135 400t138 400t353 147
q215 0 351 -141q136 -140 136 -396t-135 -406t-354 -151z" />
    <glyph glyph-name="uni020E" unicode="&#x20e;" horiz-adv-x="1437" 
d="M720 1614q-72 0 -140 -29q-66 -29 -95 -92h-14q14 111 80 187t170 75q104 1 170 -75t80 -187h-13q-30 63 -98 92t-140 29zM400 706q0 -670 318 -671q318 0 318 671t-317 670q-319 0 -319 -670zM716 -31q-280 1 -464 191t-184 532t189 546t463 204t462 -190t188 -531
q0 -342 -187 -547t-467 -205z" />
    <glyph glyph-name="uni020F" unicode="&#x20f;" 
d="M546 1282q-72 0 -140 -29q-66 -29 -95 -92h-14q14 111 80 187t170 76t170 -76t80 -187h-13q-30 63 -98 92t-140 29zM369 527q0 -247 40 -373t139 -127q99 0 139 126q40 127 40 373t-43 368t-137 122t-136 -121t-42 -368zM547 -25q-219 1 -354 147t-135 400t138 400
t353 147q215 0 351 -141q136 -140 136 -396t-135 -406t-354 -151z" />
    <glyph glyph-name="uni0210" unicode="&#x210;" horiz-adv-x="1249" 
d="M545 1495h-19q-170 121 -231 250h192q9 -119 58 -250zM803 1495h-19q-168 119 -231 250h190q9 -123 60 -250zM473 696h84q109 0 177 80t67 244q1 164 -57 244t-164 79h-107v-647zM1290 0h-239q-139 0 -182 30q-42 30 -107 171l-197 430h-92v-361q0 -129 22 -180t97 -82
v-8h-545v8q79 29 101 77t22 179v885q0 129 -25 178t-98 78v8h553q518 0 518 -371q0 -236 -284 -356l262 -477q61 -113 99 -151t95 -50v-8z" />
    <glyph glyph-name="uni0211" unicode="&#x211;" horiz-adv-x="790" 
d="M338 1163h-19q-170 121 -231 250h193q8 -119 57 -250zM596 1163h-18q-168 119 -232 250h191q8 -123 59 -250zM475 910q0 64 44 110q45 46 109 47q64 -1 109 -47t45 -110t-44 -108t-110 -44t-109 44q-44 44 -44 108zM543 0h-508v8q63 29 81 74q17 45 17 184v447
q0 104 -7 147q-8 43 -28 67t-75 46v10q168 12 387 86h10v-817q0 -125 22 -170t101 -74v-8z" />
    <glyph glyph-name="uni0212" unicode="&#x212;" horiz-adv-x="1249" 
d="M626 1614q-72 0 -140 -29q-67 -29 -95 -92h-14q14 111 80 187t170 75q104 1 170 -75t80 -187h-13q-30 63 -98 92t-140 29zM473 696h84q109 0 177 80t67 244q1 164 -57 244t-164 79h-107v-647zM1290 0h-239q-139 0 -182 30q-42 30 -107 171l-197 430h-92v-361
q0 -129 22 -180t97 -82v-8h-545v8q79 29 101 77t22 179v885q0 129 -25 178t-98 78v8h553q518 0 518 -371q0 -236 -284 -356l262 -477q61 -113 99 -151t95 -50v-8z" />
    <glyph glyph-name="uni0213" unicode="&#x213;" horiz-adv-x="790" 
d="M418 1282q-72 0 -138 -29t-96 -92h-14q14 111 80 187t170 76t170 -76t80 -187h-13q-29 63 -97 92q-70 29 -142 29zM475 910q0 64 44 110q45 46 109 47q64 -1 109 -47t45 -110t-44 -108t-110 -44t-109 44q-44 44 -44 108zM543 0h-508v8q63 29 81 74q17 45 17 184v447
q0 104 -7 147q-8 43 -28 67t-75 46v10q168 12 387 86h10v-817q0 -125 22 -170t101 -74v-8z" />
    <glyph glyph-name="uni0214" unicode="&#x214;" horiz-adv-x="1329" 
d="M666 1495h-19q-170 121 -231 250h192q9 -119 58 -250zM924 1495h-19q-168 119 -231 250h190q9 -123 60 -250zM1063 397v588q0 223 -29 304t-114 116v8h378v-8q-80 -35 -108 -115t-27 -305v-594q0 -209 -121 -315t-356 -107q-516 0 -516 422v760q0 127 -24 175t-101 79v8
h553v-8q-78 -31 -102 -79t-23 -175v-789q0 -287 279 -286q150 0 230 80t81 241z" />
    <glyph glyph-name="uni0215" unicode="&#x215;" 
d="M487 1163h-18q-170 121 -231 250h192q8 -119 57 -250zM745 1163h-18q-168 119 -231 250h190q8 -123 59 -250zM692 -25v146h-2q-141 -145 -303 -146q-115 0 -187 71t-73 222v426q0 115 -8 163q-7 48 -27 71t-76 47v10q174 12 387 84h11v-780q0 -172 147 -172q74 0 129 30
v541q0 200 -35 241q-18 22 -67 46v10q166 12 379 84h10v-719q0 -166 16 -208t94 -74v-9q-180 -16 -385 -84h-10z" />
    <glyph glyph-name="uni0216" unicode="&#x216;" horiz-adv-x="1329" 
d="M746 1614q-72 0 -139 -29t-95 -92h-14q14 111 80 187t170 75q104 1 170 -75t79 -187h-12q-29 63 -97 92q-70 29 -142 29zM1063 397v588q0 223 -29 304t-114 116v8h378v-8q-80 -35 -108 -115t-27 -305v-594q0 -209 -121 -315t-356 -107q-516 0 -516 422v760q0 127 -24 175
t-101 79v8h553v-8q-78 -31 -102 -79t-23 -175v-789q0 -287 279 -286q150 0 230 80t81 241z" />
    <glyph glyph-name="uni0217" unicode="&#x217;" 
d="M568 1282q-74 0 -140 -29t-94 -92h-15q14 111 80 187t170 76t170 -76t80 -187h-12q-29 63 -97 92t-142 29zM692 -25v146h-2q-141 -145 -303 -146q-115 0 -187 71t-73 222v426q0 115 -8 163q-7 48 -27 71t-76 47v10q174 12 387 84h11v-780q0 -172 147 -172q74 0 129 30
v541q0 200 -35 241q-18 22 -67 46v10q166 12 379 84h10v-719q0 -166 16 -208t94 -74v-9q-180 -16 -385 -84h-10z" />
    <glyph glyph-name="Scommaaccent" unicode="&#x218;" horiz-adv-x="960" 
d="M422 -348q0 39 -26 75q-26 37 -26 77t33 69t84 29t84 -33t33 -86q1 -135 -239 -266l-9 8q66 88 66 127zM76 416h10q102 -199 188 -288t178 -89t151 55q61 56 61 146t-60 167t-147 139q-86 62 -172 128t-147 161q-60 95 -60 209q0 176 126 287t320 111q150 0 305 -66v-321
h-8q-88 159 -165 237q-76 78 -158 78t-131 -50t-49 -128q-1 -140 152 -251q181 -128 264 -199q171 -146 171 -343q0 -196 -130 -313q-129 -117 -337 -117t-362 72v375z" />
    <glyph glyph-name="scommaaccent" unicode="&#x219;" horiz-adv-x="776" 
d="M336 -348q0 39 -26 75q-26 37 -26 77t33 69t84 29t84 -33t33 -86q1 -135 -239 -266l-9 8q66 88 66 127zM366 41q72 0 115 38q43 39 43 109t-48 118t-118 81t-140 72t-117 109q-48 70 -48 169q1 145 105 239t240 93q136 0 272 -51v-270h-8q-160 256 -275 256
q-57 0 -95 -35t-38 -91q0 -106 126 -167q146 -73 235 -134q55 -38 91 -106t35 -154q-1 -157 -111 -249t-275 -92t-298 57l-8 315h10q84 -154 159 -230q76 -76 148 -77z" />
    <glyph glyph-name="uni021A" unicode="&#x21a;" horiz-adv-x="1210" 
d="M547 -348q0 39 -26 75q-25 37 -25 77t32 69q33 29 84 29t84 -33t33 -86q0 -135 -240 -266l-8 8q66 88 66 127zM887 0h-565v8q82 29 106 78t25 176v1084h-50q-92 0 -151 -48t-199 -225h-8l25 340h1071l24 -340h-10q-139 178 -199 225t-151 48h-49v-1084q0 -127 24 -176
t107 -78v-8z" />
    <glyph glyph-name="uni021B" unicode="&#x21b;" horiz-adv-x="647" 
d="M285 -348q0 39 -26 75q-26 37 -26 77t33 69t84 29t84 -33t33 -86q0 -135 -240 -266l-8 8q66 88 66 127zM127 301v643h-102v10q233 129 374 346h17v-256h217v-100h-217v-676q0 -68 38 -106t94 -37q56 0 114 25l6 -11q-113 -156 -289 -155q-252 0 -252 317z" />
    <glyph glyph-name="uni021C" unicode="&#x21c;" horiz-adv-x="1060" 
d="M678 1075q0 133 -67 218t-179 85t-193 -70t-159 -231h-14v287q152 78 390 78t374 -97q134 -97 135 -274q0 -254 -289 -426q137 -59 222 -175t85 -291t-130 -315q-247 -266 -824 -327v66q662 100 661 563q0 272 -211 358q-203 -59 -332 -71v67q301 44 416 184t115 371z
" />
    <glyph glyph-name="uni021D" unicode="&#x21d;" horiz-adv-x="970" 
d="M606 102q0 104 -55 174q-55 72 -125 95q-51 -33 -144 -70t-157 -45v74q162 24 301 138t139 280q-1 114 -73 180t-175 65q-51 0 -98 -24q129 -45 129 -156q0 -65 -42 -105t-108 -40t-112 37q-45 37 -45 110q0 111 120 183t307 71q188 0 290 -71t102 -195q0 -174 -244 -316
q125 -41 208 -137t83 -223t-80 -235q-140 -189 -483 -293q-146 -46 -291 -60v64q284 42 434 189q119 117 119 310z" />
    <glyph glyph-name="uni021E" unicode="&#x21e;" horiz-adv-x="1429" 
d="M786 1495h-151l-180 250h18l238 -109l237 109h19zM1380 0h-546v8q78 29 100 77t20 179v420h-481v-420q0 -131 22 -179t101 -77v-8h-549v8q79 29 101 77t22 179v887q0 129 -22 176t-101 78v8h549v-8q-80 -31 -102 -78t-21 -176v-385h481v385q0 129 -21 176q-22 47 -99 78
v8h546v-8q-78 -31 -100 -78t-23 -176v-887q0 -131 23 -179t100 -77v-8z" />
    <glyph glyph-name="uni021F" unicode="&#x21f;" horiz-adv-x="1138" 
d="M346 1575h-151l-181 250h19l237 -109l238 109h18zM1094 0h-482v8q61 29 78 71q16 42 17 173v473q0 97 -41 151t-112 54t-132 -31v-647q0 -131 16 -173t80 -71v-8h-489v8q66 29 84 72t18 172v919q0 150 -18 194t-93 77v10q199 18 392 84h10v-608q145 141 307 141
q123 0 195 -77t71 -242v-471q1 -152 17 -197t82 -74v-8z" />
    <glyph glyph-name="uni0220" unicode="&#x220;" horiz-adv-x="1243" 
d="M1214 -471h-501v8q68 31 86 79t18 206v1276q0 102 -59 155t-170 54q-57 0 -150 -41v-1014q0 -127 22 -172t85 -72v-8h-504v8q68 29 88 73t21 171v856q0 137 -20 180t-97 74v10q201 12 393 62h12v-140q52 54 152 100t198 46q317 0 318 -326v-1331q0 -123 22 -169t86 -77
v-8z" />
    <glyph glyph-name="uni0221" unicode="&#x221;" horiz-adv-x="1103" 
d="M1137 -426q35 0 61 27t25 59q0 104 -144 104q-41 0 -86 -10q20 -180 144 -180zM554 1014q-91 0 -147 -125q-57 -125 -57 -337t62 -318t172 -105q59 0 112 29v784q-51 72 -142 72zM404 -23q-154 -1 -250 131t-96 378t134 414q136 169 361 169q39 0 143 -16v137
q0 131 -20 172t-107 76v8q199 20 410 90h8v-1663q31 8 82 8q96 0 162 -52t65 -142q0 -174 -202 -174q-252 0 -351 204q-68 -54 -131 -204h-41q39 195 140 286q-14 61 -15 174v156q-139 -152 -292 -152z" />
    <glyph glyph-name="uni0222" unicode="&#x222;" horiz-adv-x="1218" 
d="M609 35q237 0 237 334q0 160 -60 252t-175 92q-116 0 -177 -92t-61 -248q-1 -338 236 -338zM553 1356q-139 -24 -139 -308q0 -136 45 -210t151 -74q197 0 197 321q0 275 -131 338v45q184 -26 299 -136t115 -242t-92 -222t-228 -133q164 -35 272 -131t109 -239
q0 -187 -146 -291q-147 -104 -395 -104t-395 104t-147 288q0 143 109 241q110 97 278 132q-139 43 -232 127q-92 84 -92 207t118 218t304 114v-45z" />
    <glyph glyph-name="uni0223" unicode="&#x223;" horiz-adv-x="1075" 
d="M530 33q179 -1 179 385q-1 192 -49 284t-129 92t-125 -92t-46 -264q0 -405 170 -405zM530 -25q-204 0 -338 119t-135 334q1 144 99 250t247 137v14q-141 29 -224 110t-83 210q0 260 353 344l32 -31q-94 -80 -94 -313q0 -311 143 -311q152 0 152 311q0 231 -98 313l28 31
q184 -41 272 -133t89 -216t-85 -205t-229 -110v-14q158 -31 256 -133t99 -254q0 -213 -140 -333t-344 -120z" />
    <glyph glyph-name="uni0224" unicode="&#x224;" horiz-adv-x="1067" 
d="M825 -104q1 56 -25 80t-89 24h-680v8l643 1335h-148q-147 0 -222 -46t-238 -230h-9l37 346h926v-8l-637 -1335h426q133 0 187 -35t55 -113q-1 -120 -222 -231h-18q14 90 14 205z" />
    <glyph glyph-name="uni0225" unicode="&#x225;" horiz-adv-x="903" 
d="M514 0h-483v8l493 965h-131q-68 0 -125 -43t-198 -182h-11l39 296h762v-10l-485 -964h254q145 0 202 -34t58 -114q0 -122 -219 -231h-19q14 90 15 205q0 60 -32 82t-120 22z" />
    <glyph glyph-name="uni0226" unicode="&#x226;" horiz-adv-x="1292" 
d="M784 1624q0 -53 -38 -90t-91 -37t-91 37t-38 90t38 91t91 38t91 -38t38 -91zM735 590l-174 643l-180 -643h354zM1284 0h-541v8q51 14 74 41t23 93t-82 370h-400q-72 -248 -72 -333t28 -118q26 -33 89 -53v-8h-397v8q74 39 124 138t142 407l254 860h262l273 -930
q80 -276 120 -358t103 -117v-8z" />
    <glyph glyph-name="uni0227" unicode="&#x227;" horiz-adv-x="970" 
d="M627 1292q0 -53 -38 -90t-91 -37t-91 37t-38 90t38 91t91 38t91 -38t38 -91zM494 551q-164 0 -164 -234q0 -102 38 -152q68 -90 201 -22v398q-51 10 -75 10zM43 242q0 346 526 358v145q0 250 -207 250q-76 0 -153 -39q65 -10 105 -49t40 -93t-40 -96t-98 -42t-99 39
t-41 100q0 111 120 183t293 71q322 0 355 -254q8 -43 8 -106v-433q0 -112 28 -146t105 -44v-8q-45 -39 -117 -69t-137 -29q-141 0 -160 137q-145 -141 -265 -141t-192 72q-72 73 -71 194z" />
    <glyph glyph-name="uni0228" unicode="&#x228;" horiz-adv-x="1052" 
d="M458 -375q108 -1 106 85q0 42 -53 74q-52 32 -112 34l142 182h-494v8q79 29 101 77t22 179v885q0 129 -23 177t-100 79v8h889v-340h-10q-109 170 -162 220t-152 50h-139v-583h127q86 0 132 34t108 130h10v-392h-10q-60 92 -108 125t-132 33h-127v-620h119q120 0 184 50
t199 226q14 18 20 27h13l-35 -373h-375l-68 -104q72 -8 134 -52t61 -118q0 -76 -68 -115q-67 -39 -163 -39t-168 53l22 25q58 -25 110 -25z" />
    <glyph glyph-name="uni0229" unicode="&#x229;" horiz-adv-x="915" 
d="M490 1016q-68 0 -104 -94t-42 -308l270 27q0 203 -27 289q-29 86 -97 86zM388 -375q106 -1 106 85q0 42 -52 74t-112 34l123 159q-187 7 -293 147t-106 386t122 402q123 156 332 157q164 0 262 -98t98 -303v-93h-524q0 -169 71 -281t211 -112t248 101l9 -11
q-141 -272 -369 -292l-53 -84q72 -8 133 -52t61 -118q1 -76 -67 -115t-164 -39t-168 53l23 25q57 -25 109 -25z" />
    <glyph glyph-name="uni022A" unicode="&#x22a;" horiz-adv-x="1437" 
d="M987 1808h-526v119h526v-119zM690 1624q0 -53 -38 -90t-91 -37t-92 38t-39 90t39 90t92 38t91 -38t38 -91zM1012 1624q0 -53 -38 -90t-92 -37t-91 38t-37 90t37 90t91 38t92 -38t38 -91zM400 706q0 -670 318 -671q318 0 318 671t-317 670q-319 0 -319 -670zM716 -31
q-280 1 -464 191t-184 532t189 546t463 204t462 -190t188 -531q0 -342 -187 -547t-467 -205z" />
    <glyph glyph-name="uni022B" unicode="&#x22b;" 
d="M811 1481h-526v118h526v-118zM516 1292q0 -53 -38 -90t-91 -37t-92 38t-39 90t39 90t92 38t91 -38t38 -91zM838 1292q0 -53 -38 -90t-91 -37t-92 38q-37 38 -37 90t36 90q38 38 92 38t92 -38t38 -91zM369 527q0 -247 40 -373t139 -127q99 0 139 126q40 127 40 373
t-43 368t-137 122t-136 -121t-42 -368zM547 -25q-219 1 -354 147t-135 400t138 400t353 147q215 0 351 -141q136 -140 136 -396t-135 -406t-354 -151z" />
    <glyph glyph-name="uni022C" unicode="&#x22c;" horiz-adv-x="1437" 
d="M983 1794h-526v119h526v-119zM825 1522q-49 0 -136 28t-116 29q-61 0 -102 -63l-12 4q16 76 56 142t114 64q47 0 132 -26t118 -25q61 1 104 62l12 -4q-49 -211 -170 -211zM400 706q0 -670 318 -671q318 0 318 671t-317 670q-319 0 -319 -670zM716 -31q-280 1 -464 191
t-184 532t189 546t463 204t462 -190t188 -531q0 -342 -187 -547t-467 -205z" />
    <glyph glyph-name="uni022D" unicode="&#x22d;" 
d="M811 1466h-526v119h526v-119zM651 1190q-49 0 -136 29t-116 28q-61 0 -102 -63l-12 4q16 76 56 142t114 65q47 0 132 -26t118 -26q61 1 104 62l12 -4q-49 -211 -170 -211zM369 527q0 -247 40 -373t139 -127q99 0 139 126q40 127 40 373t-43 368t-137 122t-136 -121
t-42 -368zM547 -25q-219 1 -354 147t-135 400t138 400t353 147q215 0 351 -141q136 -140 136 -396t-135 -406t-354 -151z" />
    <glyph glyph-name="uni022E" unicode="&#x22e;" horiz-adv-x="1437" 
d="M850 1624q0 -53 -38 -90t-91 -37t-91 37t-38 90t38 91t91 38t91 -38t38 -91zM400 706q0 -670 318 -671q318 0 318 671t-317 670q-319 0 -319 -670zM716 -31q-280 1 -464 191t-184 532t189 546t463 204t462 -190t188 -531q0 -342 -187 -547t-467 -205z" />
    <glyph glyph-name="uni022F" unicode="&#x22f;" 
d="M676 1292q0 -53 -38 -90t-91 -37t-91 37t-38 90t38 91t91 38t91 -38t38 -91zM369 527q0 -247 40 -373t139 -127q99 0 139 126q40 127 40 373t-43 368t-137 122t-136 -121t-42 -368zM547 -25q-219 1 -354 147t-135 400t138 400t353 147q215 0 351 -141q136 -140 136 -396
t-135 -406t-354 -151z" />
    <glyph glyph-name="uni0230" unicode="&#x230;" horiz-adv-x="1437" 
d="M981 1808h-526v119h526v-119zM850 1624q0 -53 -38 -90t-91 -37t-91 37t-38 90t38 91t91 38t91 -38t38 -91zM400 706q0 -670 318 -671q318 0 318 671t-317 670q-319 0 -319 -670zM716 -31q-280 1 -464 191t-184 532t189 546t463 204t462 -190t188 -531q0 -342 -187 -547
t-467 -205z" />
    <glyph glyph-name="uni0231" unicode="&#x231;" 
d="M809 1481h-526v118h526v-118zM676 1292q0 -53 -38 -90t-91 -37t-91 37t-38 90t38 91t91 38t91 -38t38 -91zM369 527q0 -247 40 -373t139 -127q99 0 139 126q40 127 40 373t-43 368t-137 122t-136 -121t-42 -368zM547 -25q-219 1 -354 147t-135 400t138 400t353 147
q215 0 351 -141q136 -140 136 -396t-135 -406t-354 -151z" />
    <glyph glyph-name="uni0232" unicode="&#x232;" horiz-adv-x="1167" 
d="M913 1569h-526v119h526v-119zM858 0h-553v8q78 29 102 78t23 178v334l-184 428q-86 198 -131 268t-109 111v8h543v-8q-47 -23 -66 -46q-18 -23 -18 -81t80 -252l137 -344l131 336q66 162 66 256t-95 131v8h379v-8q-63 -27 -117 -108t-141 -285l-172 -410v-338
q0 -129 24 -178t101 -78v-8z" />
    <glyph glyph-name="uni0233" unicode="&#x233;" horiz-adv-x="1001" 
d="M811 1237h-526v119h526v-119zM2 1044h498v-10q-46 -12 -66 -38t-20 -85t39 -211l137 -528q154 547 153 676q0 90 -16 131t-70 55v10h342v-8q-53 -24 -98 -108t-104 -293l-217 -764q-102 -360 -306 -360q-70 1 -116 41t-47 96q0 56 37 99q38 42 96 42t99 -41
q40 -41 44 -104q68 63 119 229l39 127h-174l-176 614q-76 260 -107 329t-86 93v8z" />
    <glyph glyph-name="uni0234" unicode="&#x234;" horiz-adv-x="561" 
d="M137 1182q0 145 -19 186t-95 74v10q215 14 401 84h10v-1667q31 8 82 8q96 0 162 -52t65 -142q0 -174 -204 -175q-252 0 -351 205q-68 -55 -131 -205h-41q39 193 142 287q-20 96 -21 187v1200zM584 -428q34 0 60 26t26 60q0 102 -144 102q-41 0 -86 -10q20 -178 144 -178z
" />
    <glyph glyph-name="uni0235" unicode="&#x235;" horiz-adv-x="1136" 
d="M1159 -414q35 0 61 26t25 60q0 102 -143 103q-41 -1 -86 -11q20 -178 143 -178zM717 -16v727q0 219 -160 219q-66 0 -127 -31v-647q0 -129 18 -172t84 -72v-8h-495v8q47 20 67 44q39 47 39 231v432q0 143 -20 185t-96 75v10q182 12 393 84h10v-143q53 55 137 98t170 43
q268 0 269 -346v-838q30 8 106 8t142 -52t65 -142q0 -174 -203 -174q-250 0 -348 205q-68 -55 -131 -205h-41q39 195 139 287q-18 100 -18 174z" />
    <glyph glyph-name="uni0236" unicode="&#x236;" horiz-adv-x="718" 
d="M141 944h-121v10q260 141 396 346h14v-256h217v-102h-217v-602q30 8 106 8t142 -52t65 -142q0 -172 -202 -172q-250 0 -348 202q-66 -52 -132 -202h-41q39 195 140 284q-18 78 -19 164v514zM584 43q34 0 60 26t26 60q0 102 -144 102q-41 0 -86 -10q20 -178 144 -178z" />
    <glyph glyph-name="dotlessj" unicode="&#x237;" horiz-adv-x="528" 
d="M131 -51v766q0 147 -16 187t-92 73v10q182 12 389 84h10v-993q0 -100 -35 -190t-84 -148q-121 -146 -336 -230l-6 13q76 47 123 162t47 266z" />
    <glyph glyph-name="uni0238" unicode="&#x238;" horiz-adv-x="1736" 
d="M369 527q0 -247 40 -373t139 -127q99 0 139 126q40 127 40 373t-43 368t-137 122t-136 -121t-42 -368zM1012 526q0 -248 39 -374t138 -125q99 0 139 126q40 125 40 373t-42 369t-137 121t-136 -121t-41 -369zM723 1184q0 147 -17 187t-92 73v8q215 18 392 84h10v-514
q72 47 174 47q217 0 352 -141q135 -140 135 -396t-135 -406t-352 -151q-244 0 -324 207q-80 -207 -309 -207q-229 1 -364 147t-135 400t138 400t351 147q102 0 176 -43v158z" />
    <glyph glyph-name="uni0239" unicode="&#x239;" horiz-adv-x="1736" 
d="M369 527q0 -247 40 -373t139 -127q99 0 139 126q40 127 40 373t-43 368t-137 122t-136 -121t-42 -368zM1012 526q0 -248 39 -374t138 -125q99 0 139 126q40 125 40 373t-42 369t-137 121t-136 -121t-41 -369zM1114 -471h-489v8q63 29 81 72q17 43 17 172v242
q-72 -47 -176 -48q-219 1 -354 147t-135 400t138 400t351 147q248 0 321 -211q82 211 310 211t364 -141q135 -140 135 -396t-135 -406t-352 -151q-104 0 -174 45v-239q0 -129 17 -172t81 -72v-8z" />
    <glyph glyph-name="uni023A" unicode="&#x23a;" horiz-adv-x="1292" 
d="M735 590l-30 112l-60 -112h90zM287 164q0 -45 8 -70l215 418h-152q-71 -248 -71 -348zM561 1233l-180 -643h170l121 233zM6 0v8q74 39 124 138t142 407l254 860h262l68 -233l121 233h94l-180 -350l170 -580q80 -276 120 -358t103 -117v-8h-541v8q51 14 74 41t23 93
t-82 370h-152l-252 -485q23 -12 49 -19v-8h-61l-57 -111h-97l58 111h-240z" />
    <glyph glyph-name="uni023B" unicode="&#x23b;" horiz-adv-x="1210" 
d="M401 715q0 -141 19 -254l389 905q-25 6 -53 6q-166 0 -260 -170t-95 -487zM72 690q0 190 58 338t158 236q203 178 482 178q25 0 70 -4l45 102h86l-49 -113q117 -18 196 -55l6 -319h-8q-117 221 -233 284l-434 -1007q90 -297 323 -297q188 0 373 360h12l-27 -348
q-140 -76 -380 -76t-406 115l-94 -217h-86l115 268q-207 190 -207 555z" />
    <glyph glyph-name="uni023C" unicode="&#x23c;" horiz-adv-x="858" 
d="M334 606q0 -139 31 -229l192 641q-223 -17 -223 -412zM53 489q0 266 135 423t351 157q23 0 32 -2l105 346h78l-109 -356q84 -23 131 -73t47 -119t-42 -115q-41 -46 -111 -48q-70 0 -113 60l-143 -479q72 -103 200 -103t226 90l10 -8q-96 -203 -230 -258q-67 -27 -145 -27
t-145 23l-121 -403h-78l131 436q-209 127 -209 456z" />
    <glyph glyph-name="uni023D" unicode="&#x23d;" horiz-adv-x="1009" 
d="M47 0v8q79 29 101 77t22 175v424h-125v84h125v383q0 127 -25 176t-98 78v8h557v-8q-82 -33 -106 -85t-25 -175v-377h203v-84h-203v-614h133q60 0 114 32t103 85q49 54 150 186h14l-37 -373h-903z" />
    <glyph glyph-name="uni023E" unicode="&#x23e;" horiz-adv-x="1210" 
d="M358 23q55 27 74 71q18 45 21 148zM756 1346v-201l86 198q-12 2 -37 3h-49zM453 1346h-50q-92 0 -151 -48t-199 -225h-8l25 340h800l56 127h86l-56 -127h185l24 -340h-10q-98 123 -146 176t-91 74l-162 -377v-684q0 -127 24 -176t107 -78v-8h-539l-57 -133h-86l248 573
v906z" />
    <glyph glyph-name="uni023F" unicode="&#x23f;" horiz-adv-x="776" 
d="M366 41q72 0 115 38q43 39 43 109t-48 118t-118 81t-140 72t-117 109q-48 70 -48 169q1 145 105 239t242 93q138 0 270 -51v-270h-8q-158 254 -275 253q-57 -1 -95 -33t-38 -90q0 -107 126 -167q146 -73 235 -134q55 -38 91 -106t35 -154q1 -159 -111 -249t-286 -91
q-59 0 -135 15q145 -197 197 -255t92 -67q23 76 57 120q35 44 96 44t99 -35t36 -97q0 -62 -50 -104q-50 -40 -139 -40t-160 56q-70 56 -154 169l-78 104q-63 86 -148 146l-8 315h10q84 -154 159 -230q76 -76 148 -77z" />
    <glyph glyph-name="uni0240" unicode="&#x240;" horiz-adv-x="903" 
d="M375 973q-51 0 -119 -53t-186 -172h-11l39 296h762v-10l-500 -989q52 -31 90 -78q57 -71 115 -153t77 -97q19 -14 32 -16q41 105 97 129q28 12 73 12t82 -35t37 -97q-1 -62 -53 -108q-52 -44 -124 -44t-117 24q-46 24 -81 64q-35 39 -70 86q-85 114 -173 180
q-117 88 -314 88v8l493 965h-149z" />
    <glyph glyph-name="uni0241" unicode="&#x241;" 
d="M797 0h-566v8q76 31 106 85t30 171v434h116q168 0 273 88q104 88 104 244t-103 260q-103 106 -251 106t-238 -96q41 -24 72 -66t31 -94t-42 -94t-107 -42q-64 0 -108 42t-44 115q0 115 132 197t292 82q236 0 380 -128t146 -336q0 -208 -85 -324t-276 -187v-201
q0 -119 30 -173t108 -83v-8z" />
    <glyph glyph-name="uni0242" unicode="&#x242;" horiz-adv-x="978" 
d="M764 0h-543v8q73 31 99 85t26 171v176q125 0 202 74t77 212q1 138 -63 210t-152 72t-138 -37q45 -21 73 -67t28 -106t-47 -107q-47 -46 -119 -46t-116 44t-44 110q0 113 127 191q128 78 318 79q190 0 303 -90t112 -262q0 -137 -73 -231q-74 -93 -199 -128v-94
q0 -119 28 -173t101 -83v-8z" />
    <glyph glyph-name="uni0243" unicode="&#x243;" horiz-adv-x="1175" 
d="M477 760h68q111 0 170 80t59 223q0 283 -223 283h-74v-586zM477 68h84q119 0 185 78t65 233q0 157 -70 235t-186 78h-78v-282h168v-64h-168v-278zM559 0h-508v8q78 27 100 75t21 181v82h-129v64h129v739q0 131 -22 180q-23 49 -99 76v8h516q508 0 508 -328
q0 -256 -334 -329v-8q164 -16 278 -104t114 -245q0 -203 -161 -301t-413 -98z" />
    <glyph glyph-name="uni0244" unicode="&#x244;" horiz-adv-x="1329" 
d="M1063 397v297h-590v-332q0 -287 279 -286q150 0 230 80t81 241zM1272 694h-109v-303q0 -209 -121 -315t-356 -107q-516 0 -516 422v303h-113v70h113v387q0 127 -24 175t-101 79v8h553v-8q-78 -31 -102 -79t-23 -175v-387h590v221q0 223 -29 304t-114 116v8h378v-8
q-80 -35 -108 -115t-27 -305v-221h109v-70z" />
    <glyph glyph-name="uni0245" unicode="&#x245;" horiz-adv-x="1292" 
d="M1284 0h-541v8q51 14 74 41t23 95t-82 372l-197 721l-203 -721q-72 -248 -72 -335t28 -120q26 -33 89 -53v-8h-397v8q74 39 124 139t142 410l254 860h262l293 -1003q86 -288 137 -349q26 -32 66 -57v-8z" />
    <glyph glyph-name="uni0246" unicode="&#x246;" horiz-adv-x="1052" 
d="M473 690v-14l6 14h-6zM473 1343v-583h39l250 534q-57 49 -150 49h-139zM47 0v8q79 29 101 77t22 179v885q0 129 -23 177t-100 79v8h772l60 127h102l-59 -127h14v-340h-10q-72 109 -97 144l-217 -457q78 2 123 37t105 127h10v-392h-10q-60 92 -108 125t-132 33h-20
l-107 -227v-393h119q120 0 184 50t199 226q14 18 20 27h13l-35 -373h-719l-61 -133h-101l62 133h-107z" />
    <glyph glyph-name="uni0247" unicode="&#x247;" horiz-adv-x="915" 
d="M614 641q0 117 -10 205l-63 -213zM344 575q0 -115 29 -198l59 198h-88zM494 1016q-72 0 -108 -94t-42 -308l102 11l109 362q-25 29 -61 29zM508 1069q25 0 70 -4l106 348h90l-112 -371q207 -82 206 -374v-93h-346l-92 -305q72 -88 204 -88t240 101l9 -11
q-150 -295 -406 -295q-72 0 -129 19l-119 -399h-90l129 432q-102 59 -158 180t-57 285q0 262 123 418t332 157z" />
    <glyph glyph-name="uni0248" unicode="&#x248;" horiz-adv-x="643" 
d="M170 -12v696h-135v84h135v383q0 127 -24 175t-101 79v8h553v-8q-80 -31 -102 -79t-23 -175v-383h135v-84h-135v-524q0 -102 -34 -192t-83 -151q-93 -114 -241 -192q-56 -28 -117 -53v10q172 100 172 406z" />
    <glyph glyph-name="uni0249" unicode="&#x249;" horiz-adv-x="528" 
d="M274 1151q-63 0 -108 45q-45 44 -45 108t45 110t108 46q62 0 108 -46t46 -108t-45 -109q-46 -46 -109 -46zM131 -51v557h-80v65h80v144q0 147 -16 187t-92 73v10q182 12 389 84h10v-498h92v-65h-92v-389q0 -209 -124 -367t-331 -242l-6 13q76 47 123 162t47 266z" />
    <glyph glyph-name="uni024A" unicode="&#x24a;" horiz-adv-x="1384" 
d="M942 -86v74q-92 -16 -227 -17q-287 1 -465 189t-178 535t187 547t478 200q57 0 218 -20t205 -21q44 0 81 4v-1569q0 -287 160 -287q29 0 59 7q-104 53 -104 151q0 59 41 95t99 36t92 -37t34 -107t-59 -128q-59 -57 -170 -58q-191 0 -321 102t-130 304zM737 1374
q-166 0 -251 -174t-85 -496q-1 -322 91 -496q92 -175 266 -175q98 0 184 45v1257q-141 39 -205 39z" />
    <glyph glyph-name="uni024B" unicode="&#x24b;" horiz-adv-x="1114" 
d="M563 1067q92 0 266 -29q70 6 144 31h14v-1233q0 -287 160 -287q29 0 59 7q-102 55 -102 151q0 59 40 95t100 36t102 -43t43 -113q0 -70 -72 -121q-72 -52 -176 -53q-189 0 -317 102t-128 304v217q-135 -154 -290 -154q-156 0 -252 129t-96 376t133 416q134 169 372 169z
M565 1016q-98 0 -156 -127q-59 -127 -59 -339t64 -316t170 -105q65 0 112 31v784q-57 72 -131 72z" />
    <glyph glyph-name="uni024C" unicode="&#x24c;" horiz-adv-x="1255" 
d="M477 696h84q109 0 177 80t67 244q0 325 -221 323h-107v-647zM1294 0h-202q-168 0 -213 27t-113 174l-197 430h-92v-361q0 -125 24 -178t101 -84v-8h-557v8q82 29 107 78t24 178v350h-160v86h160v433q0 139 -24 190q-25 51 -107 82v8h559q518 0 518 -371q0 -236 -284 -356
q26 -49 118 -218q92 -168 148 -270t95 -140q38 -38 95 -50v-8z" />
    <glyph glyph-name="uni024D" unicode="&#x24d;" horiz-adv-x="800" 
d="M485 910q0 64 44 110q43 46 107 47q64 -1 110 -47t47 -110q0 -64 -45 -108t-110 -44t-109 44t-44 108zM561 0h-522v8q66 31 84 78t18 203v209h-104v80h104v116q0 158 -19 203t-95 76v10q176 12 393 86h10v-491h191v-80h-191v-224q0 -141 25 -188t106 -78v-8z" />
    <glyph glyph-name="uni024E" unicode="&#x24e;" horiz-adv-x="1167" 
d="M682 684h-2l2 -2v2zM858 0h-553v8q78 29 102 78t23 178v334l-37 86h-366v84h329l-110 258q-86 198 -131 268t-109 111v8h543v-8q-47 -23 -66 -46q-18 -23 -18 -81t80 -252l102 -258h68l98 250q66 162 66 256t-95 131v8h379v-8q-63 -27 -117 -108t-141 -285l-102 -244h338
v-84h-373l-35 -82v-338q0 -129 24 -178t101 -78v-8z" />
    <glyph glyph-name="uni024F" unicode="&#x24f;" horiz-adv-x="1001" 
d="M590 172q51 180 88 326h-174zM25 498v80h180l-10 36q-76 260 -107 329t-86 93v8h498v-10q-46 -12 -66 -38t-20 -85t39 -211l30 -122h215q45 186 45 273t-16 128t-70 55v10h342v-8q-53 -24 -98 -108t-104 -293l-17 -57h209v-80h-231l-178 -627q-102 -360 -306 -360
q-70 1 -116 41t-47 96q0 56 37 99q38 42 96 42t99 -41q40 -41 44 -104q68 63 119 229l39 127h-174l-144 498h-202z" />
    <glyph glyph-name="hsuperior" unicode="&#x2b0;" horiz-adv-x="993" 
d="M958 571h-421v9q57 26 71 68t15 179v144h-256v-160q0 -125 15 -165t73 -66v-9h-424v9q57 28 73 68t17 165v356q1 125 -15 166t-75 70v8h424v-8q-57 -29 -73 -69t-15 -169v-133h256v133q-1 127 -15 168t-71 70v8h421v-8q-59 -29 -73 -72t-15 -182v-338q0 -127 16 -166
t72 -67v-9z" />
    <glyph glyph-name="jsuperior" unicode="&#x2b2;" horiz-adv-x="487" 
d="M121 1190q-1 110 -17 148t-73 67v8h424v-8q-57 -27 -73 -66t-15 -149v-471q-1 -283 -347 -422v27q100 63 101 245v621z" />
    </font>
</defs>
</svg>
