<?xml version="1.0" standalone="no"?>
<!DOCTYPE svg PUBLIC "-//W3C//DTD SVG 1.1//EN" "http://www.w3.org/Graphics/SVG/1.1/DTD/svg11.dtd" >
<svg xmlns="http://www.w3.org/2000/svg" xmlns:xlink="http://www.w3.org/1999/xlink" version="1.1">
<metadata>
Created by FontForge 20170731 at Sun Nov  1 00:35:35 2015
 By Aleksey,,,
Copyright (c) 2013 by Jonas Hecksher, Playtype, e-Types AS. All rights reserved.
</metadata>
<defs>
<font id="BerlingskeSerifTx-BoldItalic" horiz-adv-x="0" >
  <font-face 
    font-family="BerlingskeSerifTx-BoldItalic"
    font-weight="700"
    font-style="italic"
    font-stretch="normal"
    units-per-em="2048"
    panose-1="2 0 8 3 6 0 0 9 0 4"
    ascent="1638"
    descent="-410"
    x-height="1044"
    cap-height="1413"
    bbox="-915 -729 3901 2193"
    underline-thickness="102"
    underline-position="-306"
    slope="-11"
    unicode-range="U+0020-FB06"
  />
<missing-glyph horiz-adv-x="1024" 
d="M758 684q-109 0 -109 125v231l-45 2v31q49 16 73 56q3 5 17 33t19 34h45v-100h110v-62h-110v-219q0 -66 57 -65q37 0 64 10l8 -12q-17 -20 -57 -42t-72 -22zM313 965h35q59 -1 85 35t26 85q0 109 -107 109h-39v-229zM385 690h-246v21q37 14 47 29t11 57v338q-1 43 -11 56
t-47 28v20h234q205 0 205 -154q0 -81 -56 -125t-153 -45h-56v-118q-1 -41 13 -57t59 -29v-21zM1024 0h-1024v1413h1024v-1413zM946 78v1255h-868v-1255h868z" />
    <glyph glyph-name="f_f" unicode="ff" horiz-adv-x="1257" 
d="M834 1229q-40 0 -78 32q-39 31 -39 91t71 110h-30q-80 0 -128 -68t-77 -229l-21 -121h324l16 93q10 57 27 98q-25 -6 -65 -6zM756 1544q111 0 174 -43t67 -110q145 154 377 153q115 0 178 -46q64 -46 64 -119t-43 -111t-101 -39q-58 0 -98 32q-39 31 -39 91t72 110h-31
q-80 0 -128 -68t-77 -229l-20 -121h176l-27 -145h-176l-155 -899q-46 -281 -353 -430q-67 -33 -135 -51v49q135 68 185 362l165 969h-325l-156 -899q-46 -279 -352 -430q-68 -33 -135 -51v49q135 68 184 362l166 969h-129l51 145h103l16 93q35 199 179 303t323 104z" />
    <glyph glyph-name="f_f_i" unicode="ffi" horiz-adv-x="1859" 
d="M840 1229q-44 0 -84 32q-39 31 -39 91t71 110h-30q-80 0 -128 -68t-77 -229l-21 -121h324l8 43q16 86 49 154q-29 -12 -73 -12zM1626 219q0 -55 42 -55t130 61l12 -53q-57 -72 -150 -135t-177 -64q-147 0 -148 183q0 53 17 135l98 489q6 35 6 62q0 57 -41 57h-291
l-155 -899q-19 -109 -75 -198t-133 -144q-143 -102 -280 -139v49q135 68 185 362l165 969h-325l-156 -899q-46 -279 -352 -430q-68 -33 -135 -51v49q135 68 184 362l166 969h-129l51 145h103l16 93q35 199 179 303t323 104q115 0 178 -46t63 -118q0 -14 -2 -20
q170 184 508 184q123 0 208 -60t85 -144t-50 -128q-50 -43 -108 -43t-94 32q-35 32 -35 89q0 100 129 135q-49 25 -135 25q-163 0 -235 -76t-109 -284l-8 -46h287l157 25q147 0 148 -184q0 -63 -14 -133l-95 -469q-8 -33 -8 -64z" />
    <glyph glyph-name="f_f_l" unicode="ffl" horiz-adv-x="1835" 
d="M834 1229q-40 0 -78 32q-39 31 -39 91t71 110h-30q-80 0 -128 -68t-77 -229l-21 -121h324l16 93q10 57 27 98q-25 -6 -65 -6zM1450 -27q-195 0 -131 318l182 930q-41 12 -67 43t-25 69q0 72 70 117q-29 12 -62 12q-109 0 -163 -66t-83 -231l-20 -121h176l-27 -145h-176
l-155 -899q-19 -109 -75 -198t-133 -144q-143 -102 -280 -139v49q135 68 185 362l165 969h-325l-156 -899q-46 -279 -352 -430q-68 -33 -135 -51v49q135 68 184 362l166 969h-129l51 145h103l16 93q35 199 179 303t323 104q111 0 174 -43t67 -112q154 156 418 155
q154 0 227 -80q68 23 181 80h37l-248 -1261q-25 -119 33 -119q43 0 131 61l12 -53q-54 -70 -154 -134t-184 -65z" />
    <glyph glyph-name="f_b" unicode="fb" horiz-adv-x="1787" 
d="M1417 625q0 121 -54 189q-55 68 -121 67q-66 0 -132 -37l-137 -705q43 -27 98 -26q135 0 241 153q105 154 105 359zM799 1462q-109 0 -163 -66t-83 -231l-21 -121h177l-27 -145h-176l-156 -899q-46 -279 -352 -430q-68 -33 -135 -51v49q135 68 184 362l166 969h-129
l51 145h103l16 93q35 201 185 304q151 103 358 103q154 0 227 -80q68 23 180 80h37l-115 -614q45 53 123 96t154 43q141 0 231 -96t90 -269q0 -172 -72 -320t-183 -233t-223 -131t-201 -45t-207 25t-176 49l225 1172q-43 10 -70 41t-26 71q0 72 69 117q-29 12 -61 12z" />
    <glyph glyph-name="f_h" unicode="fh" horiz-adv-x="1804" 
d="M1262 897q-63 0 -156 -66l-162 -831h-287l236 1219q-45 10 -74 41t-28 73q0 72 69 117q-29 12 -61 12q-109 0 -163 -66t-83 -231l-21 -121h177l-27 -145h-176l-156 -899q-46 -279 -352 -430q-68 -33 -135 -51v49q135 68 184 362l166 969h-129l51 145h103l16 93
q35 201 185 304q151 103 358 103q154 0 227 -80q68 23 180 80h37l-117 -616q166 141 302 141t190 -107q53 -108 18 -255l-98 -424q-27 -119 33 -119q43 0 131 61l12 -53q-57 -72 -150 -135q-92 -63 -184 -63t-126 82q-34 83 1 235l95 434q39 172 -86 172z" />
    <glyph glyph-name="f_i" unicode="fi" horiz-adv-x="1241" 
d="M1124 885q0 -63 -14 -133l-94 -469q-8 -33 -8 -64q0 -55 42 -55t130 61l12 -53q-56 -72 -150 -135t-178 -64q-147 0 -147 183q0 53 16 135l98 489q6 35 7 62q0 57 -41 57h-291l-156 -899q-46 -279 -352 -430q-68 -33 -135 -51v49q135 68 184 362l166 969h-129l51 145h103
l8 43q50 254 231 356q181 103 408 101q123 0 208 -60t85 -144t-50 -128q-50 -43 -109 -43q-58 0 -93 32t-35 89q0 100 129 135q-49 25 -135 25q-164 0 -236 -76t-108 -284l-9 -46h287l158 25q147 0 147 -184z" />
    <glyph glyph-name="f_j" unicode="fj" horiz-adv-x="1226" 
d="M1124 885q0 -47 -14 -133l-139 -752q-52 -284 -353 -430q-67 -33 -135 -51v49q127 63 185 362l163 850q6 35 7 62q0 57 -41 57h-291l-156 -899q-46 -279 -352 -430q-68 -33 -135 -51v49q135 68 184 362l166 969h-129l51 145h103l8 43q50 254 231 356q181 103 408 101
q123 0 208 -60t85 -144t-50 -128q-50 -43 -109 -43q-58 0 -93 32t-35 89q0 100 129 135q-49 25 -135 25q-164 0 -236 -76t-108 -284l-9 -46h287l158 25q147 0 147 -184z" />
    <glyph glyph-name="f_k" unicode="fk" horiz-adv-x="1703" 
d="M1372 924q0 60 45 103q45 42 108 42t105 -40q42 -39 41 -103q0 -64 -43 -109t-194 -155l-93 -68l91 -322q28 -110 100 -108q51 0 108 47l27 -39q-59 -74 -143 -136t-160 -63q-174 0 -215 209l-70 355q195 137 348 276q-55 51 -55 111zM799 1462q-109 0 -163 -66t-83 -231
l-21 -121h177l-27 -145h-176l-156 -899q-46 -279 -352 -430q-68 -33 -135 -51v49q135 68 184 362l166 969h-129l51 145h103l16 93q35 201 185 304q151 103 358 103q154 0 227 -80q68 23 180 80h37l-299 -1544h-291l238 1219q-43 10 -71 42t-27 72q0 72 69 117q-29 12 -61 12
z" />
    <glyph glyph-name="f_l" unicode="fl" horiz-adv-x="1216" 
d="M831 -27q-195 0 -131 318l183 930q-41 12 -67 43t-25 69q0 72 69 117q-29 12 -61 12q-109 0 -163 -66t-83 -231l-21 -121h177l-27 -145h-176l-156 -899q-46 -279 -352 -430q-68 -33 -135 -51v49q135 68 184 362l166 969h-129l51 145h103l16 93q35 201 185 304
q151 103 358 103q154 0 227 -80q68 23 180 80h37l-248 -1261q-25 -119 33 -119q43 0 131 61l12 -53q-55 -70 -154 -134t-184 -65z" />
    <glyph glyph-name="f_t" unicode="ft" horiz-adv-x="1325" 
d="M858 -27q-150 0 -149 193q0 55 12 125l106 608h-321l-156 -899q-46 -279 -352 -430q-68 -33 -135 -51v49q135 68 184 362l166 969h-129l51 145h103l16 93q35 199 179 303t323 104q115 0 178 -46t63 -119t-43 -111t-101 -39q-58 0 -97 32q-39 31 -39 91t71 110h-30
q-80 0 -128 -68t-77 -229l-21 -121h316q70 51 170 205l33 51h133l-43 -256h239l-28 -155h-240l-108 -606q-6 -37 -7 -64q0 -55 39 -55q62 0 195 94l26 -47q-63 -78 -178 -158t-221 -80z" />
    <glyph glyph-name="f_f_b" unicode="ffb" horiz-adv-x="2394" 
d="M834 1229q-40 0 -78 32q-39 31 -39 91t71 110h-30q-80 0 -128 -68t-77 -229l-21 -121h324l16 93q10 57 27 98q-25 -6 -65 -6zM1847 881q-52 0 -118 -37l-138 -705q43 -27 99 -26q135 -1 240 153t106 359q0 121 -54 189t-135 67zM1409 1333q0 72 70 117q-29 12 -62 12
q-109 0 -163 -66t-83 -231l-20 -121h176l-27 -145h-176l-155 -899q-19 -109 -75 -198t-133 -144q-143 -102 -280 -139v49q135 68 185 362l165 969h-325l-156 -899q-46 -279 -352 -430q-68 -33 -135 -51v49q135 68 184 362l166 969h-129l51 145h103l16 93q35 199 179 303
t323 104q111 0 174 -43t67 -112q154 156 418 155q154 0 227 -80q68 23 181 80h37l-115 -614q45 53 123 96t153 43q141 0 231 -96t91 -269q0 -172 -73 -320q-72 -148 -182 -233t-222 -131t-202 -45q-89 1 -207 25t-177 49l225 1172q-43 10 -69 41t-27 71z" />
    <glyph glyph-name="f_f_f" unicode="fff" horiz-adv-x="2226" 
d="M834 1229q-38 0 -78 32q-39 32 -39 91t71 110h-30q-80 0 -129 -68t-76 -229l-21 -121h177l-27 -145h-176l-156 -899q-46 -279 -352 -430q-68 -33 -135 -51v49q135 68 184 362l166 969h-129l51 145h103l16 93q35 197 178 302t322 105q109 0 171 -40t70 -109
q147 150 373 149q109 0 171 -40t71 -109q147 150 372 149q116 0 180 -46t64 -119t-43 -111t-101 -39q-58 0 -97 32t-39 91t71 110h-30q-80 0 -129 -68t-76 -229l-21 -121h176l-26 -145h-176l-156 -899q-46 -279 -352 -430q-68 -33 -135 -51v49q135 68 184 362l166 969h-129
l51 145h102l17 93q10 57 26 98q-23 -6 -61 -6t-78 32q-39 32 -39 91t72 110h-31q-80 0 -129 -68t-76 -229l-20 -121h176l-27 -145h-176l-155 -899q-46 -281 -353 -430q-67 -33 -135 -51v49q135 68 185 362l165 969h-129l52 145h102l16 93q10 57 27 98q-23 -6 -61 -6z" />
    <glyph glyph-name="f_f_h" unicode="ffh" horiz-adv-x="2390" 
d="M834 1229q-40 0 -78 32q-39 31 -39 91t71 110h-30q-80 0 -128 -68t-77 -229l-21 -121h324l16 93q10 57 27 98q-25 -6 -65 -6zM1880 897q-63 0 -156 -66l-161 -831h-287l235 1219q-45 10 -73 41t-29 73q0 72 70 117q-29 12 -62 12q-109 0 -163 -66t-83 -231l-20 -121h176
l-27 -145h-176l-155 -899q-19 -109 -75 -198t-133 -144q-143 -102 -280 -139v49q135 68 185 362l165 969h-325l-156 -899q-46 -279 -352 -430q-68 -33 -135 -51v49q135 68 184 362l166 969h-129l51 145h103l16 93q35 199 179 303t323 104q111 0 174 -43t67 -112
q154 156 418 155q154 0 227 -80q68 23 181 80h37l-117 -616q166 141 302 141q136 1 189 -107t19 -255l-99 -424q-27 -119 33 -119q43 0 131 61l13 -53q-57 -72 -151 -135t-184 -63q-91 0 -125 82q-34 83 1 235l94 434q39 172 -86 172z" />
    <glyph glyph-name="f_f_j" unicode="ffj" horiz-adv-x="1845" 
d="M840 1229q-44 0 -84 32q-39 31 -39 91t71 110h-30q-80 0 -128 -68t-77 -229l-21 -121h324l8 43q16 86 49 154q-29 -12 -73 -12zM1456 842q0 57 -41 57h-291l-155 -899q-19 -109 -75 -198t-133 -144q-143 -102 -280 -139v49q135 68 185 362l165 969h-325l-156 -899
q-46 -279 -352 -430q-68 -33 -135 -51v49q135 68 184 362l166 969h-129l51 145h103l16 93q35 199 179 303t323 104q115 0 178 -46t63 -118q0 -14 -2 -20q170 184 508 184q123 0 208 -60t85 -144t-50 -128q-50 -43 -108 -43t-94 32q-35 32 -35 89q0 100 129 135
q-49 25 -135 25q-163 0 -235 -76t-109 -284l-8 -46h287l157 25q147 0 148 -184q0 -47 -14 -133l-140 -752q-21 -109 -77 -198t-132 -144q-143 -103 -278 -139v49q127 63 184 362l164 850q6 35 6 62z" />
    <glyph glyph-name="f_f_k" unicode="ffk" horiz-adv-x="2322" 
d="M834 1229q-40 0 -78 32q-39 31 -39 91t71 110h-30q-80 0 -128 -68t-77 -229l-21 -121h324l16 93q10 57 27 98q-25 -6 -65 -6zM1991 924q0 60 45 103q46 42 108 42t104 -40q42 -39 42 -103t-43 -109t-195 -155l-92 -68l90 -322q28 -110 100 -108q52 0 109 47l27 -39
q-60 -74 -144 -136t-160 -63q-174 0 -215 209l-69 355q195 137 348 276q-55 51 -55 111zM1409 1333q0 72 70 117q-29 12 -62 12q-109 0 -163 -66t-83 -231l-20 -121h176l-27 -145h-176l-155 -899q-19 -109 -75 -198t-133 -144q-143 -102 -280 -139v49q135 68 185 362
l165 969h-325l-156 -899q-46 -279 -352 -430q-68 -33 -135 -51v49q135 68 184 362l166 969h-129l51 145h103l16 93q35 199 179 303t323 104q111 0 174 -43t67 -112q154 156 418 155q154 0 227 -80q68 23 181 80h37l-299 -1544h-291l237 1219q-43 10 -71 42t-27 72z" />
    <glyph glyph-name=".notdef" horiz-adv-x="1024" 
d="M758 684q-109 0 -109 125v231l-45 2v31q49 16 73 56q3 5 17 33t19 34h45v-100h110v-62h-110v-219q0 -66 57 -65q37 0 64 10l8 -12q-17 -20 -57 -42t-72 -22zM313 965h35q59 -1 85 35t26 85q0 109 -107 109h-39v-229zM385 690h-246v21q37 14 47 29t11 57v338q-1 43 -11 56
t-47 28v20h234q205 0 205 -154q0 -81 -56 -125t-153 -45h-56v-118q-1 -41 13 -57t59 -29v-21zM1024 0h-1024v1413h1024v-1413zM946 78v1255h-868v-1255h868z" />
    <glyph glyph-name=".null" 
 />
    <glyph glyph-name="nonmarkingreturn" horiz-adv-x="682" 
 />
    <glyph glyph-name="space" unicode=" " horiz-adv-x="368" 
 />
    <glyph glyph-name="exclam" unicode="!" horiz-adv-x="624" 
d="M420 143q0 -71 -49 -119t-121 -48t-121 48q-49 50 -49 120t49 118q49 49 121 49t121 -49t49 -119zM344 436h-80q14 125 24 448q9 323 50 529h313q-41 -209 -157 -533t-150 -444z" />
    <glyph glyph-name="quotedbl" unicode="&#x22;" horiz-adv-x="860" 
d="M268 988q0 60 -11 170t-11 156t36 88q36 40 91 40t92 -38t37 -80t-80 -199t-105 -257l-55 11q6 49 6 109zM643 1314q0 46 36 88q36 40 91 40t92 -38t37 -80q1 -42 -79 -199t-105 -257l-56 11q13 108 -1 249q-15 140 -15 186z" />
    <glyph glyph-name="numbersign" unicode="#" horiz-adv-x="1167" 
d="M692 567l105 279h-238l-104 -279h237zM573 0h-88l177 479h-238l-176 -479h-88l176 479h-213l16 88h228l104 279h-276l16 88h293l178 479h88l-178 -479h237l179 479h88l-178 -479h215l-17 -88h-231l-105 -279h281l-17 -88h-294z" />
    <glyph glyph-name="dollar" unicode="$" horiz-adv-x="1107" 
d="M498 1088q0 -82 82 -168l69 358q-71 -10 -111 -59t-40 -131zM684 299q0 80 -80 174l-74 -375q68 18 111 70t43 131zM213 983q0 184 133 294t326 122l28 145h113l-29 -147q150 -16 299 -80l-49 -258h-86q-80 180 -188 213l-86 -438q4 -4 44 -35t49 -38t43 -37t44 -43
t36 -42t48 -77q33 -74 33 -144q0 -190 -131 -308t-334 -137l-27 -145h-112l26 143q-244 16 -360 92l63 328h88q90 -270 234 -297l92 469q-8 6 -57 48q-49 41 -63 55t-52 51q-39 37 -52 61t-43 70q-30 47 -30 135z" />
    <glyph glyph-name="percent" unicode="%" horiz-adv-x="1722" 
d="M1171 88q119 0 219 148t99 274q0 59 -26 101t-77 42q-106 -1 -204 -155t-98 -282t87 -128zM1114 -25q-118 0 -186 69t-68 177q0 185 163 367t355 182q104 0 160 -60t55 -161q1 -176 -145 -375t-334 -199zM510 760q117 0 217 145t100 273q0 59 -25 103q-26 44 -79 44
q-105 0 -203 -155q-98 -154 -98 -282t88 -128zM1060 1225q-66 0 -136 32q2 -10 2 -60t-36 -147q-86 -233 -247 -342q-89 -62 -197 -62t-178 69q-70 70 -69 184q0 176 160 359q161 183 348 184q111 0 182 -71q25 -27 75 -49t119 -22q199 0 416 199h123l-1341 -1595h-140
l1192 1411l-4 4q-14 -6 -53 -27q-38 -21 -94 -44q-54 -23 -122 -23z" />
    <glyph glyph-name="ampersand" unicode="&#x26;" horiz-adv-x="1538" 
d="M830 1329q-64 0 -110 -71q-105 -161 19 -373q109 66 165 129t57 162q-1 153 -131 153zM346 403q0 -100 65 -179q65 -78 161 -78t219 94l-259 422q-186 -109 -186 -259zM401 -31q-178 -1 -261 95t-83 233q-1 137 97 241t319 222q-72 112 -72 270t131 285t342 127
q152 0 234 -68t82 -178q0 -143 -139 -252q-102 -78 -252 -156l213 -329q106 125 106 191t-106 79l12 64h557l-12 -60q-168 -43 -449 -336l-41 -43l17 -24q90 -135 162 -195q73 -59 169 -82l-10 -53h-450q-63 61 -115 141q-221 -172 -451 -172z" />
    <glyph glyph-name="quotesingle" unicode="'" horiz-adv-x="460" 
d="M268 988q0 60 -11 170t-11 156t36 88q36 40 91 40t92 -38t37 -80t-80 -199t-105 -257l-55 11q6 49 6 109z" />
    <glyph glyph-name="parenleft" unicode="(" horiz-adv-x="712" 
d="M160 418q0 289 173 588t490 542h78q-213 -252 -346 -630t-133 -724t108 -563h-77q-104 117 -199 331q-94 214 -94 456z" />
    <glyph glyph-name="parenright" unicode=")" horiz-adv-x="712" 
d="M332 974q0 345 -107 574h78q299 -326 299 -741q0 -184 -74 -378q-118 -310 -403 -614q-103 -110 -193 -184h-75q215 248 345 623t130 720z" />
    <glyph glyph-name="asterisk" unicode="*" horiz-adv-x="808" 
d="M743 811l-196 -92l-60 303l-165 -258l-150 156l281 139l-308 96l109 182l231 -233l-20 334l209 -41l-148 -299l303 127l29 -209l-321 26z" />
    <glyph glyph-name="plus" unicode="+" horiz-adv-x="1167" 
d="M1014 504h-352l-68 -352h-148l68 352h-352l28 147h353l69 353h148l-70 -353h352z" />
    <glyph glyph-name="comma" unicode="," horiz-adv-x="501" 
d="M59 181q0 48 43 89q44 41 104 41t106 -47t46 -114q0 -98 -117 -231q-118 -132 -237 -218l-55 39q156 168 155 276q0 25 -22 71q-23 46 -23 94z" />
    <glyph glyph-name="hyphen" unicode="-" horiz-adv-x="694" 
d="M647 514h-588l37 188h588z" />
    <glyph glyph-name="period" unicode="." horiz-adv-x="501" 
d="M375 143q0 -71 -49 -119t-121 -48t-121 48q-49 50 -49 120t49 118q49 49 121 49t121 -49t49 -119z" />
    <glyph glyph-name="slash" unicode="/" horiz-adv-x="827" 
d="M78 -31h-170l928 1473h170z" />
    <glyph glyph-name="zero" unicode="0" horiz-adv-x="1107" 
d="M715 1323q-98 0 -168 -162t-133 -483q-58 -266 -50 -428t117 -162t169 160q59 151 106 395q70 332 63 506q-6 174 -104 174zM740 1442q230 0 318 -199t20 -541q-67 -342 -229 -538t-401 -195q-239 -1 -325 187q-85 188 -19 529t236 549t400 208z" />
    <glyph glyph-name="one" unicode="1" horiz-adv-x="1107" 
d="M666 171q0 -39 26 -63t94 -55l-10 -53h-602l10 55q117 37 152 73t55 142l152 783q-113 -41 -254 -70v86q143 43 312 147t304 220l-227 -1166q-12 -59 -12 -99z" />
    <glyph glyph-name="two" unicode="2" horiz-adv-x="1107" 
d="M768 1073q0 96 -66 162q-66 65 -161 65t-172 -45q71 -6 111 -49q40 -44 40 -114t-51 -118t-120 -48t-118 45t-49 119q0 129 144 234q144 106 336 106t298 -92t107 -232q0 -102 -69 -208q-68 -106 -152 -176q-84 -71 -209 -171t-186 -164l-119 -121h586l-82 -266h-863
l15 76l499 512q281 287 281 485z" />
    <glyph glyph-name="three" unicode="3" horiz-adv-x="1107" 
d="M995 520q0 -156 -100 -286q-101 -130 -249 -198t-300 -67q-152 0 -245 65t-93 149q0 83 49 135t122 52t118 -43q45 -44 45 -110q0 -104 -113 -149q31 -10 111 -11q146 -1 242 103t96 246t-90 210q-90 70 -221 82l-13 35l369 418h-475l49 262h793l-7 -33l-391 -428
q129 -36 216 -156t87 -276z" />
    <glyph glyph-name="four" unicode="4" horiz-adv-x="1107" 
d="M770 0h-281l74 377h-567l27 131l794 905h227l-165 -858h137l-35 -178h-137zM598 555l109 559l-484 -559h375z" />
    <glyph glyph-name="five" unicode="5" horiz-adv-x="1107" 
d="M629 887q154 0 258 -110t104 -277q0 -225 -189 -378t-442 -153q-154 -1 -244 61t-91 150q0 88 52 136t121 48q68 0 114 -41q46 -42 46 -110q0 -98 -96 -145q61 -12 82 -13q131 0 239 119t107 291q0 129 -64 195t-169 67q-104 0 -228 -68l-26 17l235 737h645l-51 -262
h-551l-110 -344q152 80 258 80z" />
    <glyph glyph-name="six" unicode="6" horiz-adv-x="1107" 
d="M354 332q0 -112 39 -178t117 -66q106 0 179 134t73 278q0 270 -182 270q-66 0 -156 -39q-70 -184 -70 -399zM713 889q143 0 243 -86t101 -250q0 -223 -165 -403t-398 -181q-193 0 -311 126q-117 126 -117 334t89 387q169 341 562 521q182 85 370 105l-16 -90
q-188 -35 -353 -170t-261 -365q113 72 256 72z" />
    <glyph glyph-name="seven" unicode="7" horiz-adv-x="1107" 
d="M428 0h-287q66 145 167 308t177 267q77 105 221 295t203 271h-710l53 272h930l-15 -70q-241 -313 -437 -677t-302 -666z" />
    <glyph glyph-name="eight" unicode="8" horiz-adv-x="1107" 
d="M860 1120q0 88 -52 146t-138 57q-86 0 -146 -58q-60 -57 -61 -147q0 -90 58 -154t177 -130q162 141 162 286zM272 315q0 -95 60 -161t164 -66t180 66t76 180q-1 157 -224 274l-51 27q-205 -145 -205 -320zM1032 430q0 -222 -169 -342q-169 -119 -392 -119q-166 0 -308 91
t-143 237q0 27 7 53q25 127 126 202t259 130q-106 60 -166 154t-60 192q0 198 148 306t342 108q196 0 322 -97t126 -217t-104 -204t-246 -127q258 -145 258 -367z" />
    <glyph glyph-name="nine" unicode="9" horiz-adv-x="1107" 
d="M662 1442q196 0 316 -129t120 -369t-146 -460t-372 -353t-474 -162l9 97q182 30 345 164t253 352q-137 -59 -240 -60q-156 0 -262 91q-107 91 -107 288t162 369t396 172zM807 1057q0 266 -158 266q-86 0 -145 -74q-105 -132 -105 -336q1 -125 59 -199t167 -75
q65 0 116 23q66 195 66 395z" />
    <glyph glyph-name="colon" unicode=":" horiz-adv-x="501" 
d="M502 900q0 -71 -50 -120t-120 -49t-120 49t-50 120t50 120t120 49t120 -49t50 -120zM354 143q0 -71 -49 -119t-121 -48t-121 48q-49 50 -49 120t49 118q49 49 121 49t121 -49t49 -119z" />
    <glyph glyph-name="semicolon" unicode=";" horiz-adv-x="501" 
d="M59 181q0 48 43 89q44 41 104 41t106 -47t46 -114q0 -98 -117 -231q-118 -132 -237 -218l-55 39q156 168 155 276q0 25 -22 71q-23 46 -23 94zM502 900q0 -71 -50 -120t-120 -49t-120 49t-50 120t50 120t120 49t120 -49t50 -120z" />
    <glyph glyph-name="less" unicode="&#x3c;" horiz-adv-x="1107" 
d="M909 125l-776 379l29 147l923 379l-32 -168l-695 -297l582 -289z" />
    <glyph glyph-name="equal" unicode="=" horiz-adv-x="1167" 
d="M1042 651h-852l29 148h852zM985 356h-852l29 148h852z" />
    <glyph glyph-name="greater" unicode="&#x3e;" horiz-adv-x="1107" 
d="M983 504l-924 -379l31 147l696 310l-575 317l25 131l776 -379z" />
    <glyph glyph-name="question" unicode="?" horiz-adv-x="931" 
d="M561 143q0 -71 -49 -119t-121 -48t-121 48q-49 50 -49 120t49 118q49 49 121 49t121 -49t49 -119zM719 1136q1 100 -63 151q-64 50 -130 50t-127 -30q55 -15 87 -59t32 -102t-49 -107q-49 -48 -115 -48t-111 44q-46 44 -46 118q0 119 120 204q121 85 295 85t278 -84
t105 -249q0 -165 -152 -296q-67 -57 -135 -111q-179 -140 -221 -266h-79q14 104 66 202t106 163q139 165 139 335z" />
    <glyph glyph-name="at" unicode="@" horiz-adv-x="1638" 
d="M1034 856q-164 0 -282 -185t-119 -374q0 -96 55 -96q47 0 118 67q70 68 138 166l27 39l104 379q-25 4 -41 4zM721 -227q-149 1 -308 73t-263 215t-104 344t126 397q127 196 335 312t435 117q270 0 462 -158t191 -401q0 -122 -45 -226q-79 -183 -269 -290
q-165 -95 -316 -95q-98 0 -99 48q0 31 19 79l55 164q-190 -291 -342 -291q-88 -1 -142 57t-55 173q-1 253 189 447t442 194q68 0 156 -27l115 15l6 -5l-191 -682q-8 -31 -8 -53t16 -20q94 0 205 132t111 354t-138 355t-340 133t-362 -112q-160 -113 -248 -289t-88 -368
q0 -252 153 -384t388 -133q87 0 197 28t184 67l26 -47q-84 -51 -214 -87t-279 -36z" />
    <glyph glyph-name="A" unicode="A" horiz-adv-x="1425" 
d="M862 672l-61 569l-279 -569h340zM1350 0h-582l10 53q74 16 99 51t25 118t-21 284l-2 22h-426q-145 -303 -146 -385q0 -41 28 -57t89 -33l-10 -53h-520l10 53q98 25 171 117t226 397l426 846h334l133 -985q30 -206 62 -278t100 -97z" />
    <glyph glyph-name="B" unicode="B" horiz-adv-x="1253" 
d="M516 121q141 0 247 82q105 82 105 209q0 126 -76 192t-186 66h-78l-104 -549h92zM498 0h-564l11 51q100 27 140 73t62 165l164 856q13 59 13 103t-28 67t-103 45l10 53h557q205 0 339 -84t134 -248q0 -100 -59 -175q-60 -74 -140 -110t-176 -53v-4q140 -20 236 -106
q96 -85 96 -203t-62 -200q-112 -150 -384 -205q-119 -25 -246 -25zM608 782q131 0 225 88q93 88 93 202t-58 166q-58 54 -176 54h-45l-96 -510h57z" />
    <glyph glyph-name="C" unicode="C" horiz-adv-x="1425" 
d="M770 -31q-298 0 -490 169t-192 462q0 238 131 432t348 302t467 108q127 0 246 -27t186 -59l-55 -299h-86q-51 143 -126 205t-209 61q-134 0 -250 -72q-209 -130 -290 -436q-36 -133 -36 -266q0 -221 108 -340t293 -119q248 0 426 295h88l-90 -324q-82 -39 -215 -65
t-254 -27z" />
    <glyph glyph-name="D" unicode="D" horiz-adv-x="1583" 
d="M596 121q274 0 445 204t171 490q0 215 -116 346q-117 131 -318 131h-131l-223 -1171h172zM578 0h-631l10 53q94 33 132 77t56 142l166 873q13 59 13 100t-25 64t-92 51l10 53h588q329 0 533 -163t204 -445q0 -236 -138 -423q-138 -186 -356 -284t-470 -98z" />
    <glyph glyph-name="E" unicode="E" horiz-adv-x="1163" 
d="M717 782q67 0 109 28t112 116h53l-73 -396h-54q-33 84 -66 111q-34 27 -104 27h-166l-104 -547h145q141 0 199 30t225 185h64l-103 -336h-1007l10 53q98 35 132 71t52 128l174 913q13 73 13 103t-26 48t-95 44l10 53h952l-57 -303h-63q-61 129 -103 156t-155 26h-144
l-96 -510h166z" />
    <glyph glyph-name="F" unicode="F" horiz-adv-x="1120" 
d="M319 1232q0 46 -24 74q-25 28 -88 54l10 53h981l-57 -303h-66q-76 135 -114 159q-39 24 -179 23h-135l-100 -530h198q72 0 115 29t113 116h53l-76 -401h-51q-39 86 -72 114t-104 27h-199l-69 -354q-11 -51 -11 -98t33 -80t113 -62l-10 -53h-633l10 53q98 35 133 80
t57 160l160 831q12 62 12 108z" />
    <glyph glyph-name="G" unicode="G" horiz-adv-x="1513" 
d="M1047 1442q129 0 263 -27t193 -55l-65 -342h-68q-61 162 -146 232t-216 71q-178 0 -316 -118t-207 -288q-67 -169 -67 -371t104 -322t275 -120q96 0 202 31l58 305q10 55 10 91q0 73 -113 120l11 56h544l-10 -56q-81 -35 -107 -67t-46 -142l-72 -374q-283 -96 -518 -97
q-289 0 -477 166t-189 455q0 358 283 605t674 247z" />
    <glyph glyph-name="H" unicode="H" horiz-adv-x="1560" 
d="M1188 1254q0 32 -25 54t-94 50l12 55h600l-10 -53q-92 -35 -132 -79t-56 -136l-166 -873q-12 -59 -12 -100q-1 -41 25 -66t93 -53l-10 -53h-600l10 55q100 35 133 72t54 145l73 381h-557l-73 -381q-13 -59 -13 -101t25 -66t92 -52l-8 -53h-602l10 53q94 33 132 77t56 142
l166 873q13 59 13 100t-25 64t-92 51l10 53h600l-10 -53q-94 -33 -133 -77t-56 -138l-65 -352h557l66 352q12 77 12 109z" />
    <glyph glyph-name="I" unicode="I" horiz-adv-x="698" 
d="M555 0h-606l10 53q96 35 134 77t57 138l165 877q13 77 13 109t-25 55t-94 51l10 53h604l-10 -53q-96 -33 -135 -78t-55 -137l-166 -877q-13 -59 -13 -100t25 -64t94 -51z" />
    <glyph glyph-name="J" unicode="J" horiz-adv-x="698" 
d="M-145 -424v80q197 121 239 348l217 1141q13 59 13 100t-25 64t-94 51l10 53h604l-10 -53q-96 -33 -135 -78t-56 -137l-194 -1022q-52 -281 -418 -474q-73 -40 -151 -73z" />
    <glyph glyph-name="K" unicode="K" horiz-adv-x="1454" 
d="M858 147q0 49 -51 175l-129 319l-191 -176l-34 -197q-13 -70 -13 -106t25 -58q25 -23 94 -51l-8 -53h-606l10 53q96 35 134 77t56 138l166 877q13 71 13 107t-25 58t-94 50l10 53h604l-10 -53q-106 -37 -138 -72t-53 -143l-90 -481l416 403q137 131 137 209q0 31 -25 48
q-26 17 -81 36l10 53h598l-10 -53q-121 -43 -201 -96t-244 -205l-208 -195l233 -545q53 -123 99 -176t128 -90l-10 -53h-637l10 55q61 11 88 27t27 65z" />
    <glyph glyph-name="L" unicode="L" horiz-adv-x="1099" 
d="M319 1232q0 46 -24 74q-25 28 -88 54l10 53h600l-10 -53q-94 -35 -134 -86t-59 -150l-190 -1003h143q127 0 181 33t223 202h63l-108 -356h-979l10 53q98 35 133 79t57 157l160 835q12 62 12 108z" />
    <glyph glyph-name="M" unicode="M" horiz-adv-x="1916" 
d="M305 190q0 -100 119 -137l-10 -53h-494l10 53q109 37 148 102t86 242l172 658q40 155 26 203t-108 104l10 51h531l137 -1061l545 1061h534l-10 -53q-111 -39 -149 -107t-56 -213l-80 -647q-14 -121 -14 -179t24 -94t86 -69l-10 -51h-592l11 53q106 39 139 99t55 229
l107 807l-615 -1188h-217l-143 1184l-203 -791q-39 -153 -39 -203z" />
    <glyph glyph-name="N" unicode="N" horiz-adv-x="1636" 
d="M324 1194q0 115 -146 166l10 53h486l577 -989l99 528q30 160 30 235t-26 109t-86 64l10 53h489l-8 -53q-73 -29 -109 -61q-78 -70 -128 -347l-183 -962h-184l-672 1143l-127 -668q-55 -276 -3 -349q26 -36 87 -63l-10 -53h-489l8 53q98 39 148 120t91 292l134 694
q2 12 2 35z" />
    <glyph glyph-name="O" unicode="O" horiz-adv-x="1669" 
d="M1628 815q0 -225 -123 -422t-327 -311t-433 -113q-279 0 -463 166t-184 449q0 227 122 426q122 200 325 316t430 116q279 0 466 -172t187 -455zM764 90q129 0 235 77t172 198q136 249 136 516q0 203 -89 323t-252 119q-163 0 -294 -138q-130 -137 -192 -319t-62 -366
t92 -296q92 -114 254 -114z" />
    <glyph glyph-name="P" unicode="P" horiz-adv-x="1234" 
d="M616 702q154 0 251 100t97 230q1 263 -241 260h-76l-112 -590h81zM758 1413q258 0 384 -101t126 -280q0 -223 -178 -337t-465 -113h-113l-59 -310q-9 -42 -9 -88t31 -74t115 -57l-10 -53h-633l10 53q94 33 132 77t56 142l166 873q13 59 13 100t-25 64t-92 51l10 53h541z
" />
    <glyph glyph-name="Q" unicode="Q" horiz-adv-x="1669" 
d="M758 90q129 0 235 77t172 198q137 251 135 516q0 203 -89 323t-251 119q-162 0 -294 -138q-130 -137 -192 -319t-62 -366t92 -296q92 -114 254 -114zM92 582q0 227 122 427q122 201 325 317t430 116q279 0 466 -172t187 -454t-183 -507t-458 -305q547 -240 971 -240
q149 0 284 41l-6 -30q-41 -51 -102 -105t-177 -112t-233 -58t-340 93t-440 251l-172 127l-27 -2q-279 0 -463 166t-184 447z" />
    <glyph glyph-name="R" unicode="R" horiz-adv-x="1316" 
d="M1100 0q-178 0 -234 36q-55 36 -106 167l-166 411h-76l-65 -342q-13 -59 -13 -101t25 -66t94 -52l-8 -53h-602l10 53q102 35 134 72t52 147l168 873q13 59 13 99t-25 64t-92 52l10 53h533q262 0 393 -90t131 -256q0 -293 -406 -397q51 -100 150 -305t127 -236
q52 -56 123 -76l-10 -53h-160zM598 729q156 0 260 92t105 240q-1 111 -61 171t-173 60h-82l-106 -563h57z" />
    <glyph glyph-name="S" unicode="S" horiz-adv-x="1046" 
d="M432 90q98 0 162 56q63 56 63 138q0 139 -165 288q-70 62 -140 129t-118 154t-48 183q0 180 148 292t344 112q194 0 379 -84l-49 -258h-86q-54 123 -114 173t-145 50t-139 -50t-53 -128q0 -78 49 -148t119 -128q71 -58 139 -121q68 -64 117 -152t49 -190
q0 -193 -152 -315t-372 -122q-104 1 -228 27t-186 67l64 328h88q51 -153 114 -227q62 -74 160 -74z" />
    <glyph glyph-name="T" unicode="T" horiz-adv-x="1298" 
d="M537 1292q-97 0 -133 -19t-117 -110l-49 -53h-84l75 303h1166l-41 -303h-72l-33 57q-47 85 -82 105t-127 20h-98l-194 -1020q-12 -59 -12 -101t24 -66q25 -24 94 -52l-10 -53h-598l8 53q96 33 131 74t55 145l195 1020h-98z" />
    <glyph glyph-name="U" unicode="U" horiz-adv-x="1540" 
d="M1276 1176q0 84 -27 118t-92 66l10 53h508l-10 -53q-72 -29 -110 -61q-86 -72 -138 -347l-106 -555q-39 -203 -203 -315t-400 -113t-384 103q-150 104 -150 299q0 43 10 100l125 653q13 62 13 108t-25 74t-88 54l10 53h600l-10 -53q-100 -35 -135 -79t-58 -157l-141 -739
q-6 -29 -6 -55q0 -94 68 -148t217 -55q149 0 258 75q108 75 135 216l102 534q27 140 27 224z" />
    <glyph glyph-name="V" unicode="V" horiz-adv-x="1447" 
d="M621 1160q0 -72 22 -253l82 -690l326 649q158 313 157 400q0 41 -24 59q-25 18 -90 35l10 53h520l-10 -53q-98 -33 -171 -123t-229 -391l-436 -846h-313l-143 987q-36 259 -95 326q-25 27 -69 47l10 53h588l-11 -53q-59 -14 -85 -32t-32 -56q-6 -40 -7 -112z" />
    <glyph glyph-name="W" unicode="W" horiz-adv-x="2123" 
d="M604 1161q0 -88 8 -243l31 -687l301 635q121 256 121 371q0 55 -29 80t-86 43l11 53h575l-10 -53q-170 -47 -158 -256l51 -858l305 620q125 260 125 371q0 55 -27 81q-28 26 -83 42l10 53h545l-10 -53q-82 -29 -174 -138q-91 -110 -224 -374l-426 -848h-301l-63 838
l-406 -838h-319l-64 866q-18 266 -49 368t-88 128l10 51h559l-10 -51q-81 -20 -103 -66t-22 -135z" />
    <glyph glyph-name="X" unicode="X" horiz-adv-x="1409" 
d="M805 164q0 35 -21 82l-135 315l-196 -229q-113 -133 -113 -180t102 -99l-10 -53h-520l10 51q96 45 162 101t188 190l324 348l-195 455q-59 135 -200 217l10 51h635l-12 -55q-80 -28 -107 -52t-27 -64t17 -75l119 -276l165 196q109 129 109 185q0 27 -24 43t-80 43l12 55
h514l-10 -51q-106 -52 -168 -104t-180 -181l-285 -315l215 -494q59 -139 203 -217l-11 -51h-639l11 53q82 31 110 53t27 58z" />
    <glyph glyph-name="Y" unicode="Y" horiz-adv-x="1286" 
d="M639 1240q0 -44 37 -212l67 -289l181 308q108 186 108 226t-24 55q-25 15 -82 32l10 53h518l-10 -53q-186 -53 -371 -350l-268 -432l-57 -306q-12 -61 -12 -102t24 -65q25 -24 94 -52l-10 -53h-598l8 53q94 33 131 77t55 142l58 303l-117 437q-45 168 -95 240t-124 112
l10 49h596l-10 -53q-37 -8 -59 -19q-60 -27 -60 -101z" />
    <glyph glyph-name="Z" unicode="Z" horiz-adv-x="1138" 
d="M610 1280q-112 0 -156 -23t-216 -159h-70l102 315h975l-6 -33l-891 -1247h197q83 0 115 2t86 34t97 74q42 42 148 154h78l-115 -397h-1017l6 33l893 1247h-226z" />
    <glyph glyph-name="bracketleft" unicode="[" horiz-adv-x="776" 
d="M539 -287h-478l357 1835h477l-14 -75h-213l-328 -1684h213z" />
    <glyph glyph-name="backslash" unicode="\" horiz-adv-x="827" 
d="M731 -31h-129l-420 1473h129z" />
    <glyph glyph-name="bracketright" unicode="]" horiz-adv-x="776" 
d="M416 -287h-477l14 76h213l328 1684h-213l14 75h477z" />
    <glyph glyph-name="asciicircum" unicode="^" horiz-adv-x="874" 
d="M834 928h-74l-189 311l-305 -311h-90l342 485h158z" />
    <glyph glyph-name="underscore" unicode="_" horiz-adv-x="942" 
d="M713 -315h-791l29 147h790z" />
    <glyph glyph-name="grave" unicode="`" horiz-adv-x="514" 
d="M612 1153l-428 154l105 186l352 -291z" />
    <glyph glyph-name="a" unicode="a" horiz-adv-x="1146" 
d="M774 -25q-141 0 -141 189h-10q-139 -188 -293 -189q-119 -1 -199 101t-80 258q1 156 59 294q111 260 349 384q111 57 189 57t144 -14q66 -15 108 -15t134 29h43l-151 -784q-25 -119 32 -119q48 0 138 63l12 -53q-58 -72 -154 -136t-180 -65zM645 950q-105 0 -201 -176
t-96 -375q0 -231 144 -231q59 0 143 88l127 647q-61 47 -117 47z" />
    <glyph glyph-name="b" unicode="b" horiz-adv-x="1148" 
d="M616 881q-68 0 -133 -37l-137 -705q43 -27 98 -26q133 0 240 153q106 154 107 346q1 133 -53 201t-122 68zM270 1315q0 43 -24 60q-25 17 -101 40l9 45q242 18 417 84h43l-114 -614q119 139 288 139q134 0 222 -99t88 -286q0 -369 -339 -591q-183 -118 -353 -118
q-76 -1 -194 25t-177 49l223 1155q12 68 12 111z" />
    <glyph glyph-name="c" unicode="c" horiz-adv-x="921" 
d="M384 -25q-144 0 -239 114q-94 114 -94 288t75 331t211 259q135 102 279 102t220 -58q76 -57 76 -141t-52 -130t-114 -46t-104 39t-42 105t78 131q-25 6 -45 6q-80 0 -148 -82q-69 -82 -103 -198q-34 -115 -34 -241t58 -196t152 -70q95 0 228 99l33 -54q-57 -88 -174 -173
t-261 -85z" />
    <glyph glyph-name="d" unicode="d" horiz-adv-x="1155" 
d="M664 950q-119 0 -214 -166t-96 -370q0 -117 35 -182q35 -64 98 -64t144 68l26 20l127 649q-53 45 -120 45zM793 -25q-133 0 -134 191h-12q-88 -92 -161 -141t-154 -50q-117 1 -199 103t-82 274q0 283 210 500t437 217q57 0 115 -14l29 153q10 56 10 102t-24 64t-101 41
l8 45q240 18 416 84h39l-244 -1251q-8 -49 -8 -68q0 -59 44 -59t134 63l12 -53q-59 -72 -154 -136t-181 -65z" />
    <glyph glyph-name="e" unicode="e" horiz-adv-x="995" 
d="M696 811q0 63 -25 97q-26 34 -69 34q-84 0 -159 -116t-95 -285q186 4 267 83t81 187zM53 401q0 266 171 467t409 201q139 0 225 -74t86 -200q0 -164 -142 -253t-374 -89q-27 0 -84 4q0 -125 54 -197t165 -72q150 1 273 99l36 -39q-59 -70 -106 -117q-48 -47 -150 -101
t-208 -55q-170 0 -263 120q-92 120 -92 306z" />
    <glyph glyph-name="f" unicode="f" horiz-adv-x="638" 
d="M754 1544q117 0 180 -46t63 -119t-43 -111t-101 -39q-58 0 -97 32t-39 91t71 110h-30q-80 0 -129 -68t-76 -229l-21 -121h177l-27 -145h-176l-156 -899q-18 -109 -74 -198t-134 -144q-145 -104 -279 -139v49q135 68 184 362l166 969h-129l51 145h103l16 93
q35 197 178 302t322 105z" />
    <glyph glyph-name="g" unicode="g" horiz-adv-x="948" 
d="M438 459q80 0 127 133q47 132 47 246t-80 114t-126 -133t-48 -247q0 -114 80 -113zM59 -172q1 -70 91 -121t197 -51t184 36t77 93q0 76 -131 115l-274 84q-66 -23 -105 -67t-39 -89zM1044 1008q0 -46 -32 -74q-32 -29 -73 -29q-40 0 -101 23q53 -76 53 -166
q0 -132 -79 -232t-184 -143t-210 -43q-39 0 -58 4q-59 -39 -59 -86q0 -39 59 -53l218 -57q140 -38 210 -98t70 -168t-92 -195q-92 -88 -225 -130t-303 -42q-170 1 -294 75t-124 176t84 167q84 66 202 96q-66 51 -66 115t62 128q61 63 158 103q-182 92 -182 265t145 299
t326 126q94 0 182 -47l29 -2q82 0 108 20q27 20 35 26t30 37q22 30 28 36q33 -7 64 -54q19 -31 19 -77z" />
    <glyph glyph-name="h" unicode="h" horiz-adv-x="1165" 
d="M631 156q0 53 16 135l94 434q8 35 9 70q0 102 -86 102q-70 0 -164 -66l-162 -831h-287l234 1204q12 68 12 111t-25 60t-100 40l8 45q242 18 418 84h37l-117 -616q168 141 290 141t177 -72t55 -182q0 -53 -12 -108l-98 -424q-8 -33 -8 -66q0 -53 42 -53t130 61l12 -53
q-60 -72 -152 -135t-180 -64q-143 0 -143 183z" />
    <glyph glyph-name="i" unicode="i" horiz-adv-x="622" 
d="M465 1208q-63 0 -109 45q-45 45 -45 109t45 108q44 46 108 46t109 -46t45 -108t-45 -108t-108 -46zM223 819q0 121 -174 -2l-12 53q59 72 151 136t181 63q145 0 145 -184q0 -68 -16 -133l-107 -469q-8 -35 -8 -64q0 -55 42 -55t130 61l12 -53q-59 -72 -151 -135t-180 -64
q-145 0 -146 183q0 57 19 135l106 469q8 31 8 59z" />
    <glyph glyph-name="j" unicode="j" horiz-adv-x="606" 
d="M465 1208q-63 0 -109 45q-45 45 -45 109t45 108q44 46 108 46t109 -46t45 -108t-45 -108t-108 -46zM217 821q0 119 -174 -4l-12 53q59 72 151 136t180 63q143 0 144 -186q0 -61 -14 -131l-142 -752q-20 -109 -76 -198t-133 -144q-143 -103 -278 -139v49q125 61 184 362
l162 830q8 49 8 61z" />
    <glyph glyph-name="k" unicode="k" horiz-adv-x="1095" 
d="M745 -27q-72 -1 -128 49t-76 160l-70 355q195 137 348 276q-55 51 -55 111t45 103q45 42 105 42t104 -39t45 -102q0 -64 -43 -110q-42 -46 -104 -91t-72 -52t-19 -13l-92 -68l90 -322q29 -109 99 -108q53 0 110 47l27 -39q-168 -199 -314 -199zM293 1324q0 40 -22 60
t-81 46l7 30q217 16 397 84h39l-299 -1544h-291l236 1208q14 76 14 116z" />
    <glyph glyph-name="l" unicode="l" horiz-adv-x="598" 
d="M211 -27q-143 0 -143 187q0 61 14 131l178 913q12 68 12 111t-24 60q-25 17 -101 40l9 45q256 20 430 84h37l-248 -1261q-8 -35 -8 -64q0 -55 42 -55t130 61l12 -53q-57 -70 -155 -134t-185 -65z" />
    <glyph glyph-name="m" unicode="m" horiz-adv-x="1720" 
d="M221 823q0 55 -43 56q-45 0 -135 -64l-12 53q57 72 153 137t183 64q125 0 137 -156h10q180 156 315 156q156 0 203 -158h12q188 158 334 158q109 0 165 -71t56 -181q0 -55 -12 -110l-98 -424q-8 -33 -8 -66q0 -53 42 -53t130 61l12 -53q-59 -72 -151 -135t-181 -64
q-143 0 -143 183q0 53 16 135l94 434q8 33 9 68q0 104 -92 104q-76 0 -166 -72q0 -68 -11 -118l-139 -707h-287l140 725q6 35 6 63q0 109 -90 109q-74 0 -168 -70l-10 -71l-142 -756h-287l150 760q8 35 8 63z" />
    <glyph glyph-name="n" unicode="n" horiz-adv-x="1177" 
d="M762 793q0 104 -88 104q-76 0 -168 -70q-2 -16 -6 -45l-150 -782h-287l150 760q8 49 8 63q0 55 -43 56q-47 0 -139 -66l-12 53q57 72 155 138t185 65q125 0 137 -158h10q51 47 90 76q38 29 102 55t125 27q111 0 166 -72t56 -182q0 -53 -13 -108l-94 -424q-8 -35 -8 -64
q0 -55 42 -55t130 61l12 -53q-59 -72 -151 -135t-180 -64q-143 0 -144 185q0 55 17 133l90 434q8 33 8 68z" />
    <glyph glyph-name="o" unicode="o" horiz-adv-x="1112" 
d="M477 94q94 0 165 115t95 273t25 261q0 207 -131 207q-94 0 -164 -114t-95 -281q-25 -166 -26 -254q0 -207 131 -207zM472 -25q-190 0 -306 117q-115 117 -115 309q0 314 227 512q177 156 362 156t303 -115t118 -299q0 -315 -225 -521q-174 -159 -364 -159z" />
    <glyph glyph-name="p" unicode="p" horiz-adv-x="1132" 
d="M799 638q0 110 -51 176t-122 67q-71 0 -132 -45l-134 -691q47 -33 101 -32q102 0 183 91t118 207q37 117 37 227zM156 879q-43 0 -140 -68l-12 53q60 74 156 140t182 65q133 0 143 -158h13q143 158 309 158q135 0 217 -97t82 -274q0 -128 -45 -244t-117 -201
q-154 -182 -343 -246q-91 -32 -151 -32t-122 9l-37 -191q-17 -81 -17 -109t23 -48t88 -48l-8 -49h-524l10 49q71 35 97 72t44 133l189 967q25 119 -37 119z" />
    <glyph glyph-name="q" unicode="q" horiz-adv-x="1130" 
d="M334 -25q-119 -1 -201 101t-82 258q1 156 61 294q115 259 359 384q113 57 191 57t144 -14q66 -15 108 -15t135 29h43l-242 -1259q-12 -62 -12 -106t17 -66t67 -50l-9 -49h-530l10 49q92 37 120 72t48 145l31 158q23 127 53 203h-12q-63 -68 -96 -98t-91 -61
q-58 -32 -112 -32zM666 950q-121 0 -216 -165t-96 -365q0 -252 138 -252q20 0 47 11t39 21t40 33l31 23l125 647q-61 47 -108 47z" />
    <glyph glyph-name="r" unicode="r" horiz-adv-x="843" 
d="M178 879q-45 0 -135 -64l-12 53q57 72 153 137t183 64q133 0 143 -166q94 166 233 166q68 0 105 -42q37 -43 37 -109t-44 -110q-43 -44 -95 -44q-88 0 -113 52q-24 52 -47 52q-35 0 -71 -72q-22 -44 -34 -114l-131 -682h-287l150 760q25 119 -35 119z" />
    <glyph glyph-name="s" unicode="s" horiz-adv-x="884" 
d="M496 213q0 55 -37 100t-89 85t-106 84q-53 44 -90 110t-37 143q0 147 114 241t258 93q144 0 234 -58t91 -149q0 -59 -39 -95t-97 -36t-93 34q-36 34 -36 88t35 85q-37 12 -85 12t-87 -28t-39 -79q0 -50 38 -94t92 -83q55 -39 109 -83t92 -112t38 -149q0 -162 -130 -254
t-282 -92t-252 62q-98 64 -98 161q0 63 42 100t100 37t96 -34t38 -89t-47 -98q49 -21 114 -21t109 32t44 87z" />
    <glyph glyph-name="t" unicode="t" horiz-adv-x="686" 
d="M219 -27q-150 0 -149 193q0 55 12 125l106 606l-108 8l14 78q98 37 155 94q56 57 130 172l33 51h133l-43 -256h239l-28 -155h-240l-108 -606q-6 -37 -7 -64q0 -55 39 -55q62 0 195 94l26 -47q-63 -78 -178 -158t-221 -80z" />
    <glyph glyph-name="u" unicode="u" horiz-adv-x="1169" 
d="M780 -25q-129 0 -139 156h-10q-92 -82 -164 -119t-148 -37q-111 0 -167 71t-56 181q0 55 13 111l98 424q8 33 8 65q0 113 -172 -8l-12 53q59 72 151 136t180 63q143 0 144 -182q0 -53 -17 -135l-94 -435q-8 -35 -8 -69q0 -102 84 -102t172 67q4 49 10 78l146 751h286
l-149 -759q-6 -37 -6 -64q0 -55 43 -55t133 63l12 -53q-57 -72 -153 -136t-185 -65z" />
    <glyph glyph-name="v" unicode="v" horiz-adv-x="1091" 
d="M215 823q0 115 -172 -6l-12 53q59 72 151 136t180 63q143 0 144 -186q0 -61 -14 -131l-84 -433q-20 -105 23 -146q30 -28 71 -28q84 1 174 107t144 242t54 210t-10 101q-28 -14 -74 -14q-46 -1 -85 35t-39 96t41 104q41 43 125 43t142 -75q58 -74 58 -234t-90 -345
t-251 -313t-339 -129q-104 -1 -176 49t-72 162q1 50 11 95l94 485q6 33 6 59z" />
    <glyph glyph-name="w" unicode="w" horiz-adv-x="1665" 
d="M702 180h-12q-59 -82 -149 -144q-91 -62 -193 -62t-173 50t-71 156q0 37 11 99l94 485q8 45 8 61q0 53 -43 53t-131 -61l-12 53q59 72 151 136t180 63q143 0 144 -186q0 -61 -14 -131l-84 -433q-16 -84 4 -129t69 -45q88 -1 163 135t114 355l63 356h285l-125 -672
q-6 -31 -6 -75t31 -71q31 -28 75 -28q82 0 172 108t146 244q55 137 55 209t-10 99q-27 -14 -74 -14q-47 -1 -86 35t-39 98t42 103q42 42 125 42t141 -75q59 -76 59 -234t-91 -344t-250 -314t-331 -129q-118 1 -178 59t-60 148z" />
    <glyph glyph-name="x" unicode="x" horiz-adv-x="1093" 
d="M698 -27q-76 -1 -114 49t-90 201l-68 193q-31 -25 -93 -72q-139 -105 -153 -127q66 -51 66 -109t-44 -98q-44 -41 -102 -41t-99 40q-40 40 -40 81q0 75 64 146t201 170q138 99 165 116l-72 213q-20 61 -38 93q-40 71 -122 59q-42 -6 -108 -35l-14 43q66 68 162 121
t190 53t138 -52t91 -198l50 -153q50 40 109 81t85 70q-61 55 -61 111t43 98q43 43 102 43q58 0 100 -42t42 -84q-1 -74 -58 -139q-56 -65 -170 -140q-27 -18 -80 -54t-78 -53l76 -225q20 -61 38 -94q42 -74 120 -65q40 5 106 34l19 -41q-199 -193 -363 -193z" />
    <glyph glyph-name="y" unicode="y" horiz-adv-x="1044" 
d="M365 1069q49 1 81 -23t58 -85q66 -164 125 -682q217 369 229 507q-63 0 -117 36q-53 36 -53 104t46 106t118 37q72 0 118 -54t46 -128q0 -115 -110 -332t-281 -468t-347 -410t-298 -158q-68 0 -121 44q-53 45 -53 113t42 112t102 44t103 -35t49 -108q70 27 131 90
t164 205q-94 897 -260 897q-31 -1 -119 -52l-20 48q60 68 164 130t203 62z" />
    <glyph glyph-name="z" unicode="z" horiz-adv-x="962" 
d="M-49 0v8l686 807h-266q-98 0 -127 -9t-80 -56h-51l63 294h813v-8l-678 -813h76q330 3 395 46q33 22 80 83h68q-14 -28 -51 -136t-75 -172t-85 -64t-333 10t-435 10z" />
    <glyph glyph-name="braceleft" unicode="{" horiz-adv-x="636" 
d="M94 -41q0 61 12 119l33 178q29 160 29 199q0 117 -107 133l15 76q104 16 143 105q31 68 62 224l41 215q20 104 56 170q60 111 229 145q65 13 179 21l-14 -69q-92 -21 -126 -79t-66 -227l-33 -159q-39 -186 -128 -266t-259 -123q150 -41 206 -131t31 -250l-24 -160
q-27 -182 -27 -213q0 -67 103 -92l-13 -70q-176 13 -259 67t-83 187z" />
    <glyph glyph-name="bar" unicode="|" horiz-adv-x="458" 
d="M150 -236h-119l346 1780h119z" />
    <glyph glyph-name="braceright" unicode="}" horiz-adv-x="634" 
d="M326 1368q0 45 -23 69t-82 38l15 69q176 -14 260 -69t84 -189q0 -41 -13 -115l-35 -178q-29 -139 -28 -198q0 -115 104 -131l-14 -76q-94 -14 -133 -90t-70 -242l-33 -178q-28 -139 -92 -220t-151 -112t-228 -41l13 70q98 20 129 73t63 232l29 160q31 170 127 255
t262 130q-147 43 -207 134q-59 91 -33 251l27 159q29 154 29 199z" />
    <glyph glyph-name="asciitilde" unicode="~" horiz-adv-x="1167" 
d="M442 725q78 0 222 -57q144 -58 183 -58q40 0 98 31t81 64l41 -41q-135 -190 -295 -191q-70 0 -211 57q-141 58 -189 58t-102 -29t-77 -61l-48 43q131 184 297 184z" />
    <glyph glyph-name="exclamdown" unicode="&#xa1;" horiz-adv-x="624" 
d="M203 903q0 70 49 119t121 49t121 -49t49 -119t-49 -119t-121 -49t-121 49t-49 119zM279 610h79q-14 -126 -23 -448t-50 -529h-314q41 209 158 533t150 444z" />
    <glyph glyph-name="cent" unicode="&#xa2;" horiz-adv-x="1167" 
d="M532 231l170 873q-112 -29 -190 -131q-144 -187 -141 -467q-1 -226 161 -275zM80 557q0 357 290 532q152 93 353 115l41 209h129l-41 -205q184 -10 307 -69l-43 -219h-67q-63 166 -215 190l-175 -891q88 6 165 51t157 164h76l-70 -239q-154 -70 -346 -74l-57 -293h-129
l57 299q-196 27 -314 137t-118 293z" />
    <glyph glyph-name="sterling" unicode="&#xa3;" horiz-adv-x="1110" 
d="M659 0h-659l10 53q152 102 232 215t80 279q0 55 -7 110h-170l25 129h133q-6 57 -6 117q0 259 162 399t397 140q129 0 212 -56t83 -139q0 -82 -48 -127q-47 -45 -113 -45t-105 34t-39 89q0 84 80 152q-16 2 -37 2q-151 0 -223 -85t-72 -280q0 -70 12 -201h312l-25 -129
h-283q-8 -117 -25 -156t-40 -67t-37 -46q-32 -39 -209 -157h428q106 1 145 21t66 84h49q0 -29 -10 -66q-29 -146 -103 -208t-215 -62z" />
    <glyph glyph-name="currency" unicode="&#xa4;" horiz-adv-x="1167" 
d="M586 346q148 0 250 110t102 260t-102 258q-102 110 -250 110t-253 -108q-103 -108 -103 -262t103 -260q105 -108 253 -108zM584 207q-186 0 -303 104l-113 -116l-105 104l115 117q-102 120 -102 306t102 296l-115 110l105 107l113 -113q123 100 302 100t308 -100l110 113
l103 -107l-111 -110q99 -111 99 -298t-99 -304l111 -117l-103 -104l-110 116q-121 -104 -307 -104z" />
    <glyph glyph-name="yen" unicode="&#xa5;" horiz-adv-x="1167" 
d="M680 174q0 -42 27 -66t102 -55l-10 -53h-615l11 53q111 37 145 76t57 154l11 49h-228l19 96h227l31 160h-228l19 96h198l-88 342q-62 237 -122 287q-25 20 -82 47l10 53h602l-10 -53q-59 -18 -82 -28q-56 -23 -57 -90q-1 -68 28 -212l57 -287l164 287q106 186 106 232
t-27 63q-28 16 -93 35l10 53h506l-10 -53q-100 -27 -166 -85t-184 -251l-213 -340h200l-18 -96h-225l-31 -160h225l-18 -96h-226l-10 -49q-12 -66 -12 -109z" />
    <glyph glyph-name="brokenbar" unicode="&#xa6;" horiz-adv-x="458" 
d="M348 788h-119l148 756h119zM150 -236h-119l147 756h119z" />
    <glyph glyph-name="section" unicode="&#xa7;" horiz-adv-x="1052" 
d="M682 449l27 -19q178 156 -25 281l-246 151q-25 14 -37 27q-43 -35 -69 -73t-18 -88q7 -50 69 -89zM662 1442q150 0 233 -58q84 -58 84 -145q0 -61 -40 -103t-102 -42t-101 38q-38 38 -38 100t78 114q-46 12 -108 12t-123 -40t-61 -115t108 -138l237 -135
q109 -60 151 -146t20 -164t-84 -144q-62 -67 -152 -99q68 -82 67 -191q-1 -143 -117 -255t-315 -111q-152 0 -253 66t-101 159q0 63 45 107t114 43q68 0 110 -41t42 -107t-86 -121q66 -25 121 -24q92 0 162 54t70 137t-82 134l-283 181q-100 63 -136 146q-68 156 79 291
q66 60 155 89q-66 82 -65 186q0 139 110 231q111 91 261 91z" />
    <glyph glyph-name="dieresis" unicode="&#xa8;" horiz-adv-x="743" 
d="M844 1309q0 -57 -41 -97t-98 -41q-57 0 -98 40q-40 39 -40 97t40 98q39 40 97 40t99 -40t41 -97zM500 1309q0 -57 -41 -97t-99 -41q-58 0 -97 40q-40 39 -40 97t40 98t97 40q56 0 98 -40t42 -97z" />
    <glyph glyph-name="copyright" unicode="&#xa9;" horiz-adv-x="1630" 
d="M870 279q-217 -1 -350 107t-133 325t141 329t342 113q127 0 263 -61v-189h-89q-47 84 -90 119t-100 35q-209 0 -209 -340t229 -340q63 0 105 33q41 33 90 137h94l-20 -205q-127 -63 -273 -63zM815 90q250 0 410 178q159 178 159 436t-159 437q-160 178 -410 178
q-249 0 -409 -178t-160 -436q0 -259 160 -437t409 -178zM815 -25q-301 0 -514 214q-213 213 -213 515t213 516t514 214t514 -214t213 -515t-213 -515t-514 -215z" />
    <glyph glyph-name="ordfeminine" unicode="&#xaa;" horiz-adv-x="790" 
d="M330 973q0 -133 73 -133q29 0 78 49l82 414q-31 27 -61 26q-59 0 -116 -111q-56 -112 -56 -245zM725 489h-664l23 113h664zM526 1413l138 -18q24 0 84 18h49l-99 -504q-6 -29 -6 -51t14 -20q14 0 97 57l12 -53q-37 -47 -103 -91t-118 -44q-51 -1 -80 29t-39 75
q-88 -104 -171 -104q-83 1 -139 67t-56 180q0 180 134 320t283 139z" />
    <glyph glyph-name="guillemotleft" unicode="&#xab;" horiz-adv-x="907" 
d="M780 190h-49l-272 353l407 354h52l-226 -375zM498 123h-58l-366 420l530 422h58l-312 -443z" />
    <glyph glyph-name="logicalnot" unicode="&#xac;" horiz-adv-x="1167" 
d="M946 152h-147l67 352h-704l28 147h852z" />
    <glyph glyph-name="registered" unicode="&#xae;" horiz-adv-x="1630" 
d="M778 729h35q51 0 86 38t35 116q0 141 -115 141h-41v-295zM1161 283q-137 0 -171 17t-75 103l-114 244h-23v-196q0 -57 18 -77t81 -44v-47h-443v47q63 23 80 42q16 19 16 79v503q0 58 -16 78t-80 41v49h383q354 0 354 -233q0 -78 -50 -131t-111 -72l153 -248
q35 -55 55 -73t58 -29q109 160 108 369q0 258 -159 436q-160 178 -410 178q-249 0 -409 -178t-160 -436q0 -259 160 -437t414 -178t417 193h-76zM815 -25q-301 0 -514 214q-213 213 -213 515t213 516t514 214t514 -214t213 -515t-213 -515t-514 -215z" />
    <glyph glyph-name="macron" unicode="&#xaf;" horiz-adv-x="581" 
d="M694 1243h-512l23 109h512z" />
    <glyph glyph-name="degree" unicode="&#xb0;" horiz-adv-x="835" 
d="M494 881q90 -1 148 65t58 160t-58 160t-148 66t-148 -66q-57 -66 -57 -160t57 -160q58 -65 148 -65zM829 1106q0 -138 -98 -234t-235 -96t-236 96q-98 96 -98 234t98 233q98 97 236 97t235 -96q98 -96 98 -234z" />
    <glyph glyph-name="plusminus" unicode="&#xb1;" horiz-adv-x="1167" 
d="M1026 565h-352l-68 -352h-147l67 352h-352l29 148h352l70 352h147l-70 -352h353zM918 0h-852l26 147h852z" />
    <glyph glyph-name="twosuperior" unicode="&#xb2;" horiz-adv-x="806" 
d="M467 1194q0 -51 -35 -84t-90 -33t-92 35t-37 86q0 84 100 157q101 73 237 73t225 -59q89 -57 89 -155t-68 -172t-189 -148q-120 -74 -158 -108l-76 -69h391l-55 -185h-635l6 33l342 320q193 180 192 319q0 60 -42 98t-106 38t-116 -35q117 -23 117 -111z" />
    <glyph glyph-name="threesuperior" unicode="&#xb3;" horiz-adv-x="806" 
d="M350 518q-142 0 -206 47t-64 107t37 93q37 34 91 34t91 -31t37 -85t-41 -89q8 -2 24 -2q86 0 156 54t70 148q1 94 -63 137q-64 42 -138 42h-20l-29 41l254 229h-305l35 170h587l-2 -8l-321 -283q109 -18 175 -90t66 -184q0 -156 -146 -243t-288 -87z" />
    <glyph glyph-name="acute" unicode="&#xb4;" horiz-adv-x="514" 
d="M635 1307l-428 -154l-29 49l352 291z" />
    <glyph glyph-name="mu" unicode="&#xb5;" horiz-adv-x="1169" 
d="M784 -25q-133 0 -143 156h-10q-53 -45 -87 -71t-98 -56t-122 -29q-98 0 -160 58v-13q0 -61 26 -192t25 -180q0 -49 -42 -90t-95 -41q-102 0 -103 90q0 10 5 35l227 1120q8 49 8 63q0 55 -41 56q-43 0 -131 -62l-12 53q57 72 150 136t177 63q147 0 148 -182
q0 -53 -17 -135l-94 -435q-10 -45 -10 -71q0 -100 96 -101q74 0 162 68q4 49 10 78l146 751h286l-149 -759q-8 -49 -8 -64q0 -55 41 -55q47 0 137 63l12 -53q-57 -72 -153 -136t-181 -65z" />
    <glyph glyph-name="paragraph" unicode="&#xb6;" horiz-adv-x="1075" 
d="M152 1040q0 143 97 258t253 115h653l-6 -29q-90 -39 -107 -122l-333 -1723h-127l342 1766h-297l-342 -1766h-127l243 1256q-123 5 -186 73t-63 172z" />
    <glyph glyph-name="periodcentered" unicode="&#xb7;" horiz-adv-x="501" 
d="M440 731q0 -70 -49 -119t-121 -49t-120 49t-50 119q0 70 50 119t120 49q72 0 121 -49t49 -119z" />
    <glyph glyph-name="cedilla" unicode="&#xb8;" horiz-adv-x="489" 
d="M37 -371q41 0 74 23q33 22 33 64t-45 70q-44 28 -97 30l180 184h90l-88 -104q56 -6 94 -44t37 -100q-1 -96 -79 -138t-178 -42t-160 27l24 53q74 -23 115 -23z" />
    <glyph glyph-name="onesuperior" unicode="&#xb9;" horiz-adv-x="806" 
d="M641 532h-442l6 33q69 18 97 52t40 108l88 451q-28 -6 -94 -20t-84 -17l8 63q182 45 451 244h10l-141 -721q-12 -69 1 -103t66 -57z" />
    <glyph glyph-name="ordmasculine" unicode="&#xba;" horiz-adv-x="790" 
d="M426 791q98 0 152 270q12 74 12 129q0 139 -68 139q-104 0 -149 -268q-14 -86 -15 -135q0 -135 68 -135zM419 707q-128 -1 -204 75t-76 201q0 209 150 333q117 97 241 97t204 -74t79 -200q0 -29 -8 -78q-29 -154 -143 -254t-243 -100zM725 489h-664l23 113h664z" />
    <glyph glyph-name="guillemotright" unicode="&#xbb;" horiz-adv-x="907" 
d="M473 543l-407 -353h-50l224 373l-86 334h51zM858 543l-530 -420h-58l312 440l-148 402h58z" />
    <glyph glyph-name="onequarter" unicode="&#xbc;" horiz-adv-x="1986" 
d="M1796 0h-223l43 219h-402l25 129l551 537h178l-104 -539h96l-25 -127h-96zM1640 346l62 313l-313 -313h251zM487 -96h-147l1249 1595h146zM641 532h-442l6 33q69 18 97 52t40 108l88 451q-28 -6 -94 -20t-84 -17l8 63q182 45 451 244h10l-141 -721q-12 -69 1 -103t66 -57
z" />
    <glyph glyph-name="onehalf" unicode="&#xbd;" horiz-adv-x="1986" 
d="M1749 672q0 61 -42 98q-43 37 -107 37t-115 -35q117 -23 117 -110q0 -51 -35 -84t-90 -33t-93 35q-37 35 -36 86q0 84 100 156t236 73q136 0 226 -58q89 -57 89 -155t-69 -172q-68 -74 -188 -148t-159 -108l-76 -70h391l-55 -184h-635l6 33l342 319q193 180 193 320z
M487 -96h-147l1249 1595h146zM641 532h-442l6 33q69 18 97 52t40 108l88 451q-28 -6 -94 -20t-84 -17l8 63q182 45 451 244h10l-141 -721q-12 -69 1 -103t66 -57z" />
    <glyph glyph-name="threequarters" unicode="&#xbe;" horiz-adv-x="1986" 
d="M487 -96h-147l1249 1595h146zM1796 0h-223l43 219h-402l25 129l551 537h178l-104 -539h96l-25 -127h-96zM1640 346l62 313l-313 -313h251zM350 518q-142 0 -206 47t-64 107t37 93q37 34 91 34t91 -31t37 -85t-41 -89q8 -2 24 -2q86 0 156 54t70 148q1 94 -63 137
q-64 42 -138 42h-20l-29 41l254 229h-305l35 170h587l-2 -8l-321 -283q109 -18 175 -90t66 -184q0 -156 -146 -243t-288 -87z" />
    <glyph glyph-name="questiondown" unicode="&#xbf;" horiz-adv-x="931" 
d="M469 901q0 70 49 119t121 49t121 -49t49 -119t-49 -119t-121 -49t-121 49t-49 119zM311 -92q-1 -100 63 -151q64 -50 130 -50t127 31q-55 16 -87 59t-32 101t49 107q49 48 115 48t111 -44q46 -44 47 -118q0 -119 -121 -203t-295 -85q-174 0 -279 84q-104 84 -104 248
t152 296q67 57 136 111q178 138 220 266h80q-15 -104 -67 -202t-105 -162q-140 -166 -140 -336z" />
    <glyph glyph-name="Agrave" unicode="&#xc0;" horiz-adv-x="1425" 
d="M1112 1522l-428 153l104 187l353 -291zM862 672l-61 569l-279 -569h340zM1350 0h-582l10 53q74 16 99 51t25 118t-21 284l-2 22h-426q-145 -303 -146 -385q0 -41 28 -57t89 -33l-10 -53h-520l10 53q98 25 171 117t226 397l426 846h334l133 -985q30 -206 62 -278t100 -97z
" />
    <glyph glyph-name="Aacute" unicode="&#xc1;" horiz-adv-x="1425" 
d="M1135 1675l-428 -153l-29 49l352 291zM862 672l-61 569l-279 -569h340zM1350 0h-582l10 53q74 16 99 51t25 118t-21 284l-2 22h-426q-145 -303 -146 -385q0 -41 28 -57t89 -33l-10 -53h-520l10 53q98 25 171 117t226 397l426 846h334l133 -985q30 -206 62 -278t100 -97z
" />
    <glyph glyph-name="Acircumflex" unicode="&#xc2;" horiz-adv-x="1425" 
d="M1143 1532h-78l-162 108l-237 -108h-78l260 278h153zM862 672l-61 569l-279 -569h340zM1350 0h-582l10 53q74 16 99 51t25 118t-21 284l-2 22h-426q-145 -303 -146 -385q0 -41 28 -57t89 -33l-10 -53h-520l10 53q98 25 171 117t226 397l426 846h334l133 -985
q30 -206 62 -278t100 -97z" />
    <glyph glyph-name="Atilde" unicode="&#xc3;" horiz-adv-x="1425" 
d="M1004 1546q-64 0 -162 36t-133 36q-63 0 -88 -76l-58 8q7 70 65 140t120 70t163 -34q100 -32 136 -32t55 16t33 53l59 -4q-6 -69 -66 -141t-124 -72zM862 672l-61 569l-279 -569h340zM1350 0h-582l10 53q74 16 99 51t25 118t-21 284l-2 22h-426q-145 -303 -146 -385
q0 -41 28 -57t89 -33l-10 -53h-520l10 53q98 25 171 117t226 397l426 846h334l133 -985q30 -206 62 -278t100 -97z" />
    <glyph glyph-name="Adieresis" unicode="&#xc4;" horiz-adv-x="1425" 
d="M1229 1677q0 -57 -41 -97t-98 -40t-98 40q-40 40 -40 97t40 97t98 41q58 -1 98 -41q41 -40 41 -97zM885 1677q0 -57 -41 -97q-40 -40 -98 -40t-98 40t-40 97t40 97t97 41q57 0 99 -40q41 -41 41 -98zM862 672l-61 569l-279 -569h340zM1350 0h-582l10 53q74 16 99 51
t25 118t-21 284l-2 22h-426q-145 -303 -146 -385q0 -41 28 -57t89 -33l-10 -53h-520l10 53q98 25 171 117t226 397l426 846h334l133 -985q30 -206 62 -278t100 -97z" />
    <glyph glyph-name="Aring" unicode="&#xc5;" horiz-adv-x="1425" 
d="M897 1384q51 0 88 38t37 91t-37 91t-88 38t-88 -38t-37 -90q0 -54 37 -92t88 -38zM862 672l-61 569l-279 -569h340zM897 1782q113 0 193 -78t80 -197t-95 -198l119 -881q30 -206 62 -278t100 -97l-6 -53h-582l10 53q74 16 99 51t25 118t-21 284l-2 22h-426
q-145 -303 -146 -385q0 -41 28 -57t89 -33l-10 -53h-520l10 53q98 25 171 117t226 397l387 770q-66 75 -66 181t81 185t194 79z" />
    <glyph glyph-name="AE" unicode="&#xc6;" horiz-adv-x="1966" 
d="M1016 631l133 676l-510 -676h377zM313 137q0 -35 31 -52t96 -32l-10 -53h-547l13 53q96 33 214 146t316 370l432 564q45 59 45 106t-38 73t-113 48l10 53h1216l-65 -303h-62q-80 135 -115 159q-36 24 -151 23h-141l-98 -510h172q72 0 114 28t115 116h49l-76 -396h-47
q-35 84 -69 111q-35 27 -109 27h-172l-106 -547h151q150 0 206 29t228 186h62l-107 -336h-1012l11 53q108 37 136 65t50 134l49 246h-450q-129 -172 -179 -249t-49 -112z" />
    <glyph glyph-name="Ccedilla" unicode="&#xc7;" horiz-adv-x="1425" 
d="M844 -248q0 -96 -79 -138t-179 -42t-160 27l25 53q75 -23 115 -23t73 23q33 22 33 64t-44 70t-98 30l154 159q-260 27 -424 192t-164 416t130 447t349 304t484 108q109 0 231 -27t185 -59l-56 -299h-86q-51 143 -126 205t-209 61q-134 0 -249 -72q-211 -131 -291 -438
q-36 -135 -36 -272q0 -215 104 -333t281 -118q133 0 228 57t214 238h88l-90 -324q-82 -39 -215 -65t-254 -27l-65 -73q55 -6 93 -44t38 -100z" />
    <glyph glyph-name="Egrave" unicode="&#xc8;" horiz-adv-x="1163" 
d="M973 1522l-428 153l104 187l352 -291zM717 782q67 0 109 28t112 116h53l-73 -396h-54q-33 84 -66 111q-34 27 -104 27h-166l-104 -547h145q141 0 199 30t225 185h64l-103 -336h-1007l10 53q98 35 132 71t52 128l174 913q13 73 13 103t-26 48t-95 44l10 53h952l-57 -303
h-63q-61 129 -103 156t-155 26h-144l-96 -510h166z" />
    <glyph glyph-name="Eacute" unicode="&#xc9;" horiz-adv-x="1163" 
d="M995 1675l-428 -153l-28 49l352 291zM717 782q67 0 109 28t112 116h53l-73 -396h-54q-33 84 -66 111q-34 27 -104 27h-166l-104 -547h145q141 0 199 30t225 185h64l-103 -336h-1007l10 53q98 35 132 71t52 128l174 913q13 73 13 103t-26 48t-95 44l10 53h952l-57 -303
h-63q-61 129 -103 156t-155 26h-144l-96 -510h166z" />
    <glyph glyph-name="Ecircumflex" unicode="&#xca;" horiz-adv-x="1163" 
d="M1004 1532h-78l-162 108l-238 -108h-77l260 278h153zM717 782q67 0 109 28t112 116h53l-73 -396h-54q-33 84 -66 111q-34 27 -104 27h-166l-104 -547h145q141 0 199 30t225 185h64l-103 -336h-1007l10 53q98 35 132 71t52 128l174 913q13 73 13 103t-26 48t-95 44l10 53
h952l-57 -303h-63q-61 129 -103 156t-155 26h-144l-96 -510h166z" />
    <glyph glyph-name="Edieresis" unicode="&#xcb;" horiz-adv-x="1163" 
d="M1090 1677q0 -57 -41 -97t-99 -40t-97 40q-40 40 -40 97t40 97t97 41q57 0 99 -40q41 -41 41 -98zM745 1677q-1 -57 -41 -97t-98 -40t-97 40q-40 40 -40 97t40 97t97 41q57 0 99 -40q40 -41 40 -98zM717 782q67 0 109 28t112 116h53l-73 -396h-54q-33 84 -66 111
q-34 27 -104 27h-166l-104 -547h145q141 0 199 30t225 185h64l-103 -336h-1007l10 53q98 35 132 71t52 128l174 913q13 73 13 103t-26 48t-95 44l10 53h952l-57 -303h-63q-61 129 -103 156t-155 26h-144l-96 -510h166z" />
    <glyph glyph-name="Igrave" unicode="&#xcc;" horiz-adv-x="741" 
d="M725 1522l-428 153l104 187l353 -291zM551 0h-606l10 53q96 35 134 77t56 138l166 877q13 77 13 109t-25 55t-94 51l10 53h604l-10 -53q-96 -33 -135 -78t-56 -137l-165 -877q-13 -59 -13 -100t25 -64t94 -51z" />
    <glyph glyph-name="Iacute" unicode="&#xcd;" horiz-adv-x="741" 
d="M748 1675l-429 -153l-28 49l352 291zM551 0h-606l10 53q96 35 134 77t56 138l166 877q13 77 13 109t-25 55t-94 51l10 53h604l-10 -53q-96 -33 -135 -78t-56 -137l-165 -877q-13 -59 -13 -100t25 -64t94 -51z" />
    <glyph glyph-name="Icircumflex" unicode="&#xce;" horiz-adv-x="741" 
d="M756 1532h-78l-162 108l-237 -108h-78l260 278h153zM551 0h-606l10 53q96 35 134 77t56 138l166 877q13 77 13 109t-25 55t-94 51l10 53h604l-10 -53q-96 -33 -135 -78t-56 -137l-165 -877q-13 -59 -13 -100t25 -64t94 -51z" />
    <glyph glyph-name="Idieresis" unicode="&#xcf;" horiz-adv-x="741" 
d="M844 1677q0 -57 -41 -97t-98 -40t-98 40q-40 40 -40 97t40 97q39 40 97 41q58 -1 99 -41t41 -97zM500 1677q0 -57 -41 -97t-99 -40t-97 40q-40 40 -40 97t40 97t97 41q57 0 99 -40q41 -41 41 -98zM551 0h-606l10 53q96 35 134 77t56 138l166 877q13 77 13 109t-25 55
t-94 51l10 53h604l-10 -53q-96 -33 -135 -78t-56 -137l-165 -877q-13 -59 -13 -100t25 -64t94 -51z" />
    <glyph glyph-name="Eth" unicode="&#xd0;" horiz-adv-x="1583" 
d="M604 121q182 0 326 102q143 102 217 262q74 159 74 353t-118 324t-317 130h-131l-96 -501h219l-24 -117h-217l-105 -553h172zM586 0h-631l10 53q94 33 132 77t57 142l75 402h-131l25 117h129l67 354q13 59 13 100t-25 64t-92 51l10 53h588q326 0 532 -163t205 -431
q0 -240 -138 -430q-138 -189 -357 -289t-469 -100z" />
    <glyph glyph-name="Ntilde" unicode="&#xd1;" horiz-adv-x="1636" 
d="M1128 1546q-64 0 -163 36q-98 36 -133 36q-62 0 -89 -76l-57 8q6 70 64 140t122 70q62 0 162 -34q100 -32 136 -32t55 16q18 16 32 53l60 -4q-5 -69 -65 -141t-124 -72zM324 1194q0 115 -146 166l10 53h486l577 -989l99 528q30 160 30 235t-26 109t-86 64l10 53h489
l-8 -53q-73 -29 -109 -61q-78 -70 -128 -347l-183 -962h-184l-672 1143l-127 -668q-55 -276 -3 -349q26 -36 87 -63l-10 -53h-489l8 53q98 39 148 120t91 292l134 694q2 12 2 35z" />
    <glyph glyph-name="Ograve" unicode="&#xd2;" horiz-adv-x="1775" 
d="M1243 1522l-428 153l105 187l352 -291zM1622 815q0 -225 -123 -422t-327 -311t-433 -113q-279 0 -463 166t-184 449q0 227 122 426q122 200 325 316t430 116q279 0 466 -172t187 -455zM758 90q129 0 235 77t172 198q137 251 135 516q0 203 -89 323t-251 119
q-162 0 -294 -138q-130 -137 -192 -319t-62 -366t92 -296q92 -114 254 -114z" />
    <glyph glyph-name="Oacute" unicode="&#xd3;" horiz-adv-x="1775" 
d="M1266 1675l-428 -153l-29 49l352 291zM1622 815q0 -225 -123 -422t-327 -311t-433 -113q-279 0 -463 166t-184 449q0 227 122 426q122 200 325 316t430 116q279 0 466 -172t187 -455zM758 90q129 0 235 77t172 198q137 251 135 516q0 203 -89 323t-251 119
q-162 0 -294 -138q-130 -137 -192 -319t-62 -366t92 -296q92 -114 254 -114z" />
    <glyph glyph-name="Ocircumflex" unicode="&#xd4;" horiz-adv-x="1775" 
d="M1274 1532h-78l-162 108l-237 -108h-78l260 278h154zM1622 815q0 -225 -123 -422t-327 -311t-433 -113q-279 0 -463 166t-184 449q0 227 122 426q122 200 325 316t430 116q279 0 466 -172t187 -455zM758 90q129 0 235 77t172 198q137 251 135 516q0 203 -89 323t-251 119
q-162 0 -294 -138q-130 -137 -192 -319t-62 -366t92 -296q92 -114 254 -114z" />
    <glyph glyph-name="Otilde" unicode="&#xd5;" horiz-adv-x="1775" 
d="M1136 1546q-65 0 -163 36t-133 36q-63 0 -88 -76l-58 8q6 70 64 140t122 70q62 0 162 -34q100 -32 136 -32t56 16q18 16 32 53l59 -4q-6 -69 -65 -141t-124 -72zM1622 815q0 -225 -123 -422t-327 -311t-433 -113q-279 0 -463 166t-184 449q0 227 122 426q122 200 325 316
t430 116q279 0 466 -172t187 -455zM758 90q129 0 235 77t172 198q137 251 135 516q0 203 -89 323t-251 119q-162 0 -294 -138q-130 -137 -192 -319t-62 -366t92 -296q92 -114 254 -114z" />
    <glyph glyph-name="Odieresis" unicode="&#xd6;" horiz-adv-x="1775" 
d="M1360 1677q0 -57 -41 -97t-98 -40t-98 40q-40 40 -40 97t40 97q39 40 97 41q58 -1 99 -41t41 -97zM1016 1677q0 -57 -41 -97t-98 -40t-98 40q-40 40 -40 97t40 97q39 40 97 41q58 -1 99 -41t41 -97zM1622 815q0 -225 -123 -422t-327 -311t-433 -113q-279 0 -463 166
t-184 449q0 227 122 426q122 200 325 316t430 116q279 0 466 -172t187 -455zM758 90q129 0 235 77t172 198q137 251 135 516q0 203 -89 323t-251 119q-162 0 -294 -138q-130 -137 -192 -319t-62 -366t92 -296q92 -114 254 -114z" />
    <glyph glyph-name="multiply" unicode="&#xd7;" horiz-adv-x="1167" 
d="M872 195l-278 278l-279 -278l-104 104l278 279l-278 278l104 105l279 -279l278 279l105 -105l-279 -278l279 -279z" />
    <glyph glyph-name="Oslash" unicode="&#xd8;" horiz-adv-x="1669" 
d="M762 90q133 0 239 77q194 141 273 453q35 134 35 261t-39 227l-729 -936q88 -82 221 -82zM964 1323q-158 0 -290 -138q-130 -137 -192 -319t-62 -338t51 -262l741 944q-90 113 -248 113zM100 582q0 227 122 427q122 201 325 317t413 116t365 -86l109 137l90 -59
l-109 -142q215 -178 215 -477q0 -225 -123 -422t-327 -311t-432 -113q-166 0 -314 66l-96 -125l-92 70l90 114q-236 170 -236 488z" />
    <glyph glyph-name="Ugrave" unicode="&#xd9;" horiz-adv-x="1570" 
d="M1157 1522l-428 153l105 187l352 -291zM1276 1176q0 84 -27 118t-92 66l10 53h508l-10 -53q-72 -29 -110 -61q-86 -72 -138 -347l-106 -555q-39 -203 -203 -315t-400 -113t-384 103q-150 104 -150 299q0 43 10 100l125 653q13 62 13 108t-25 74t-88 54l10 53h600l-10 -53
q-100 -35 -135 -79t-58 -157l-141 -739q-6 -29 -6 -55q0 -94 68 -148t217 -55q149 0 258 75q108 75 135 216l102 534q27 140 27 224z" />
    <glyph glyph-name="Uacute" unicode="&#xda;" horiz-adv-x="1570" 
d="M1180 1675l-428 -153l-29 49l352 291zM1276 1176q0 84 -27 118t-92 66l10 53h508l-10 -53q-72 -29 -110 -61q-86 -72 -138 -347l-106 -555q-39 -203 -203 -315t-400 -113t-384 103q-150 104 -150 299q0 43 10 100l125 653q13 62 13 108t-25 74t-88 54l10 53h600l-10 -53
q-100 -35 -135 -79t-58 -157l-141 -739q-6 -29 -6 -55q0 -94 68 -148t217 -55q149 0 258 75q108 75 135 216l102 534q27 140 27 224z" />
    <glyph glyph-name="Ucircumflex" unicode="&#xdb;" horiz-adv-x="1570" 
d="M1188 1532h-78l-162 108l-237 -108h-78l260 278h154zM1276 1176q0 84 -27 118t-92 66l10 53h508l-10 -53q-72 -29 -110 -61q-86 -72 -138 -347l-106 -555q-39 -203 -203 -315t-400 -113t-384 103q-150 104 -150 299q0 43 10 100l125 653q13 62 13 108t-25 74t-88 54
l10 53h600l-10 -53q-100 -35 -135 -79t-58 -157l-141 -739q-6 -29 -6 -55q0 -94 68 -148t217 -55q149 0 258 75q108 75 135 216l102 534q27 140 27 224z" />
    <glyph glyph-name="Udieresis" unicode="&#xdc;" horiz-adv-x="1570" 
d="M1274 1677q0 -57 -41 -97t-98 -40t-98 40q-40 40 -40 97t40 97q39 40 97 41q58 -1 99 -41t41 -97zM930 1677q0 -57 -41 -97t-98 -40t-98 40q-40 40 -40 97t40 97q39 40 97 41q58 -1 99 -41t41 -97zM1276 1176q0 84 -27 118t-92 66l10 53h508l-10 -53q-72 -29 -110 -61
q-86 -72 -138 -347l-106 -555q-39 -203 -203 -315t-400 -113t-384 103q-150 104 -150 299q0 43 10 100l125 653q13 62 13 108t-25 74t-88 54l10 53h600l-10 -53q-100 -35 -135 -79t-58 -157l-141 -739q-6 -29 -6 -55q0 -94 68 -148t217 -55q149 0 258 75q108 75 135 216
l102 534q27 140 27 224z" />
    <glyph glyph-name="Yacute" unicode="&#xdd;" horiz-adv-x="1286" 
d="M1069 1675l-428 -153l-29 49l353 291zM639 1240q0 -44 37 -212l67 -289l181 308q108 186 108 226t-24 55q-25 15 -82 32l10 53h518l-10 -53q-186 -53 -371 -350l-268 -432l-57 -306q-12 -61 -12 -102t24 -65q25 -24 94 -52l-10 -53h-598l8 53q94 33 131 77t55 142l58 303
l-117 437q-45 168 -95 240t-124 112l10 49h596l-10 -53q-37 -8 -59 -19q-60 -27 -60 -101z" />
    <glyph glyph-name="Thorn" unicode="&#xde;" horiz-adv-x="1259" 
d="M588 436q154 0 256 95t102 266q0 98 -60 164t-190 65h-82l-114 -590h88zM344 1243q0 41 -26 65t-95 52l10 53h609l-11 -53q-106 -37 -140 -72t-54 -141h135q238 0 356 -92t119 -252q0 -252 -171 -370t-462 -118h-139l-8 -43q-8 -42 -8 -88q-1 -46 31 -74t118 -57l-10 -53
h-637l10 53q102 37 137 74q34 37 54 145l170 875q12 55 12 96z" />
    <glyph glyph-name="germandbls" unicode="&#xdf;" horiz-adv-x="1288" 
d="M870 1544q164 0 260 -81t97 -201q0 -209 -307 -377v-8q116 -49 210 -151t94 -259t-98 -273q-187 -219 -548 -219l12 66q150 12 240 125q90 114 90 226t-83 211t-202 145l-2 16q365 223 364 528q0 145 -155 146q-121 0 -192 -90t-111 -316l-183 -1032q-52 -282 -352 -430
q-68 -33 -135 -51v49q129 63 184 362l197 1080q49 264 209 399t411 135z" />
    <glyph glyph-name="agrave" unicode="&#xe0;" horiz-adv-x="1146" 
d="M911 1153l-428 154l105 186l352 -291zM774 -25q-141 0 -141 189h-10q-139 -188 -293 -189q-119 -1 -199 101t-80 258q1 156 59 294q111 260 349 384q111 57 189 57t144 -14q66 -15 108 -15t134 29h43l-151 -784q-25 -119 32 -119q48 0 138 63l12 -53q-58 -72 -154 -136
t-180 -65zM645 950q-105 0 -201 -176t-96 -375q0 -231 144 -231q59 0 143 88l127 647q-61 47 -117 47z" />
    <glyph glyph-name="aacute" unicode="&#xe1;" horiz-adv-x="1146" 
d="M934 1307l-428 -154l-29 49l352 291zM774 -25q-141 0 -141 189h-10q-139 -188 -293 -189q-119 -1 -199 101t-80 258q1 156 59 294q111 260 349 384q111 57 189 57t144 -14q66 -15 108 -15t134 29h43l-151 -784q-25 -119 32 -119q48 0 138 63l12 -53q-58 -72 -154 -136
t-180 -65zM645 950q-105 0 -201 -176t-96 -375q0 -231 144 -231q59 0 143 88l127 647q-61 47 -117 47z" />
    <glyph glyph-name="acircumflex" unicode="&#xe2;" horiz-adv-x="1146" 
d="M942 1163h-78l-162 109l-237 -109h-78l260 279h154zM774 -25q-141 0 -141 189h-10q-139 -188 -293 -189q-119 -1 -199 101t-80 258q1 156 59 294q111 260 349 384q111 57 189 57t144 -14q66 -15 108 -15t134 29h43l-151 -784q-25 -119 32 -119q48 0 138 63l12 -53
q-58 -72 -154 -136t-180 -65zM645 950q-105 0 -201 -176t-96 -375q0 -231 144 -231q59 0 143 88l127 647q-61 47 -117 47z" />
    <glyph glyph-name="atilde" unicode="&#xe3;" horiz-adv-x="1146" 
d="M508 1249q-62 0 -88 -75l-58 8q6 70 64 140t122 69q62 0 162 -33t137 -33q37 1 55 17t32 53l59 -4q-6 -70 -65 -142q-60 -71 -124 -71t-162 36t-134 35zM774 -25q-141 0 -141 189h-10q-139 -188 -293 -189q-119 -1 -199 101t-80 258q1 156 59 294q111 260 349 384
q111 57 189 57t144 -14q66 -15 108 -15t134 29h43l-151 -784q-25 -119 32 -119q48 0 138 63l12 -53q-58 -72 -154 -136t-180 -65zM645 950q-105 0 -201 -176t-96 -375q0 -231 144 -231q59 0 143 88l127 647q-61 47 -117 47z" />
    <glyph glyph-name="adieresis" unicode="&#xe4;" horiz-adv-x="1146" 
d="M1028 1309q0 -57 -41 -97t-98 -41q-57 0 -97 40q-40 39 -40 97t40 98t97 40t98 -40t41 -97zM684 1309q0 -57 -41 -97t-98 -41q-57 0 -98 40q-39 39 -39 97t39 98t97 40t99 -40t41 -97zM774 -25q-141 0 -141 189h-10q-139 -188 -293 -189q-119 -1 -199 101t-80 258
q1 156 59 294q111 260 349 384q111 57 189 57t144 -14q66 -15 108 -15t134 29h43l-151 -784q-25 -119 32 -119q48 0 138 63l12 -53q-58 -72 -154 -136t-180 -65zM645 950q-105 0 -201 -176t-96 -375q0 -231 144 -231q59 0 143 88l127 647q-61 47 -117 47z" />
    <glyph glyph-name="aring" unicode="&#xe5;" horiz-adv-x="1146" 
d="M694 1243q49 0 84 37t35 86t-35 86t-84 37t-84 -37t-35 -86t35 -86t84 -37zM907 1366q0 -86 -63 -147q-64 -61 -150 -61t-149 60q-63 62 -64 148t63 147t150 61t150 -60q64 -62 63 -148zM774 -25q-141 0 -141 189h-10q-139 -188 -293 -189q-119 -1 -199 101t-80 258
q1 156 59 294q111 260 349 384q111 57 189 57t144 -14q66 -15 108 -15t134 29h43l-151 -784q-25 -119 32 -119q48 0 138 63l12 -53q-58 -72 -154 -136t-180 -65zM645 950q-105 0 -201 -176t-96 -375q0 -231 144 -231q59 0 143 88l127 647q-61 47 -117 47z" />
    <glyph glyph-name="ae" unicode="&#xe6;" horiz-adv-x="1599" 
d="M1300 825q0 53 -26 85q-27 32 -74 32q-78 0 -154 -118t-94 -283q348 10 348 284zM645 950q-105 0 -201 -176t-96 -375q0 -231 144 -231q74 0 190 158q-2 25 -2 84t25 186l59 317q-47 37 -119 37zM51 334q1 156 59 294q111 260 349 384q111 57 189 57t138 -14
q58 -15 96 -15t91 29h43l-12 -63q110 63 240 63t217 -76t87 -180q0 -201 -165 -286t-435 -70q0 -125 54 -197t165 -72q150 1 273 99l37 -39q-221 -272 -453 -273q-256 0 -322 240q-164 -237 -384 -239q-108 0 -187 100q-80 102 -80 258z" />
    <glyph glyph-name="ccedilla" unicode="&#xe7;" horiz-adv-x="921" 
d="M365 -282q-1 42 -51 69t-105 29l156 161q-141 8 -228 121q-86 113 -86 283t73 326t213 259t312 103q107 0 185 -58q78 -57 78 -141t-51 -130q-49 -46 -113 -46t-106 39t-42 105t78 131q-25 6 -45 6q-121 0 -203 -164q-82 -163 -82 -325t58 -230t154 -68q95 0 226 99
l33 -54q-51 -79 -150 -157t-220 -96l-72 -84q57 -6 101 -46t44 -98q0 -96 -79 -138t-179 -42t-160 27l25 49q133 -39 200 5q36 23 36 65z" />
    <glyph glyph-name="egrave" unicode="&#xe8;" horiz-adv-x="995" 
d="M877 1153l-428 154l104 186l352 -291zM696 811q0 63 -25 97q-26 34 -69 34q-84 0 -159 -116t-95 -285q186 4 267 83t81 187zM53 401q0 266 171 467t409 201q139 0 225 -74t86 -200q0 -164 -142 -253t-374 -89q-27 0 -84 4q0 -125 54 -197t165 -72q150 1 273 99l36 -39
q-59 -70 -106 -117q-48 -47 -150 -101t-208 -55q-170 0 -263 120q-92 120 -92 306z" />
    <glyph glyph-name="eacute" unicode="&#xe9;" horiz-adv-x="995" 
d="M1006 1307l-428 -154l-29 49l352 291zM696 811q0 63 -25 97q-26 34 -69 34q-84 0 -159 -116t-95 -285q186 4 267 83t81 187zM53 401q0 266 171 467t409 201q139 0 225 -74t86 -200q0 -164 -142 -253t-374 -89q-27 0 -84 4q0 -125 54 -197t165 -72q150 1 273 99l36 -39
q-59 -70 -106 -117q-48 -47 -150 -101t-208 -55q-170 0 -263 120q-92 120 -92 306z" />
    <glyph glyph-name="ecircumflex" unicode="&#xea;" horiz-adv-x="995" 
d="M907 1163h-78l-161 109l-238 -109h-78l260 279h154zM696 811q0 63 -25 97q-26 34 -69 34q-84 0 -159 -116t-95 -285q186 4 267 83t81 187zM53 401q0 266 171 467t409 201q139 0 225 -74t86 -200q0 -164 -142 -253t-374 -89q-27 0 -84 4q0 -125 54 -197t165 -72
q150 1 273 99l36 -39q-59 -70 -106 -117q-48 -47 -150 -101t-208 -55q-170 0 -263 120q-92 120 -92 306z" />
    <glyph glyph-name="edieresis" unicode="&#xeb;" horiz-adv-x="995" 
d="M993 1309q0 -57 -41 -97t-98 -41q-57 0 -97 40q-40 39 -40 97t40 98t97 40t98 -40t41 -97zM649 1309q0 -57 -41 -97t-98 -41q-57 0 -97 40q-40 39 -40 97t40 98t97 40t98 -40t41 -97zM696 811q0 63 -25 97q-26 34 -69 34q-84 0 -159 -116t-95 -285q186 4 267 83t81 187z
M53 401q0 266 171 467t409 201q139 0 225 -74t86 -200q0 -164 -142 -253t-374 -89q-27 0 -84 4q0 -125 54 -197t165 -72q150 1 273 99l36 -39q-59 -70 -106 -117q-48 -47 -150 -101t-208 -55q-170 0 -263 120q-92 120 -92 306z" />
    <glyph glyph-name="igrave" unicode="&#xec;" horiz-adv-x="653" 
d="M682 1153l-428 154l104 186l353 -291zM174 879q-43 0 -131 -62l-12 53q57 72 150 136t177 63q197 0 134 -317l-95 -469q-25 -119 33 -119q43 0 131 61l12 -53q-57 -72 -150 -135t-177 -64q-190 0 -131 318l94 469q25 119 -35 119z" />
    <glyph glyph-name="iacute" unicode="&#xed;" horiz-adv-x="653" 
d="M705 1307l-429 -154l-28 49l352 291zM174 879q-43 0 -131 -62l-12 53q57 72 150 136t177 63q197 0 134 -317l-95 -469q-25 -119 33 -119q43 0 131 61l12 -53q-57 -72 -150 -135t-177 -64q-190 0 -131 318l94 469q25 119 -35 119z" />
    <glyph glyph-name="icircumflex" unicode="&#xee;" horiz-adv-x="653" 
d="M651 1163h-78l-161 109l-238 -109h-78l260 279h154zM174 879q-43 0 -131 -62l-12 53q57 72 150 136t177 63q197 0 134 -317l-95 -469q-25 -119 33 -119q43 0 131 61l12 -53q-57 -72 -150 -135t-177 -64q-190 0 -131 318l94 469q25 119 -35 119z" />
    <glyph glyph-name="idieresis" unicode="&#xef;" horiz-adv-x="653" 
d="M748 1309q0 -57 -41 -97t-99 -41q-58 0 -97 40q-40 39 -40 97t40 98t97 40q56 0 98 -40t42 -97zM403 1309q0 -57 -41 -97t-98 -41q-57 0 -97 40q-40 39 -40 97t40 98t97 40t98 -40t41 -97zM174 879q-43 0 -131 -62l-12 53q57 72 150 136t177 63q197 0 134 -317l-95 -469
q-25 -119 33 -119q43 0 131 61l12 -53q-57 -72 -150 -135t-177 -64q-190 0 -131 318l94 469q25 119 -35 119z" />
    <glyph glyph-name="eth" unicode="&#xf0;" horiz-adv-x="1112" 
d="M479 94q186 0 262 428q20 115 21 205q0 223 -131 223q-188 0 -262 -428q-23 -125 -23 -209q0 -219 133 -219zM470 -25q-189 0 -304 117t-115 311q0 57 10 119q47 244 221 396t369 151q45 0 90 -16q-27 109 -137 252l-166 -66l-39 86l144 57l-146 162h90q94 -59 168 -117
l187 76l39 -86l-144 -57q328 -305 328 -663t-234 -567q-172 -155 -361 -155z" />
    <glyph glyph-name="ntilde" unicode="&#xf1;" horiz-adv-x="1177" 
d="M451 1249q-63 0 -89 -75l-57 8q7 70 65 140t120 69q62 0 163 -33q100 -33 136 -33q36 1 55 17t33 53l59 -4q-6 -70 -66 -142q-60 -71 -124 -71t-162 36t-133 35zM762 793q0 104 -88 104q-76 0 -168 -70q-2 -16 -6 -45l-150 -782h-287l150 760q8 49 8 63q0 55 -43 56
q-47 0 -139 -66l-12 53q57 72 155 138t185 65q125 0 137 -158h10q51 47 90 76q38 29 102 55t125 27q111 0 166 -72t56 -182q0 -53 -13 -108l-94 -424q-8 -35 -8 -64q0 -55 42 -55t130 61l12 -53q-59 -72 -151 -135t-180 -64q-143 0 -144 185q0 55 17 133l90 434q8 33 8 68z
" />
    <glyph glyph-name="ograve" unicode="&#xf2;" horiz-adv-x="1112" 
d="M868 1153l-428 154l105 186l352 -291zM477 94q94 0 165 115t95 273t25 261q0 207 -131 207q-94 0 -164 -114t-95 -281q-25 -166 -26 -254q0 -207 131 -207zM472 -25q-190 0 -306 117q-115 117 -115 309q0 314 227 512q177 156 362 156t303 -115t118 -299
q0 -315 -225 -521q-174 -159 -364 -159z" />
    <glyph glyph-name="oacute" unicode="&#xf3;" horiz-adv-x="1112" 
d="M897 1307l-428 -154l-29 49l353 291zM477 94q94 0 165 115t95 273t25 261q0 207 -131 207q-94 0 -164 -114t-95 -281q-25 -166 -26 -254q0 -207 131 -207zM472 -25q-190 0 -306 117q-115 117 -115 309q0 314 227 512q177 156 362 156t303 -115t118 -299q0 -315 -225 -521
q-174 -159 -364 -159z" />
    <glyph glyph-name="ocircumflex" unicode="&#xf4;" horiz-adv-x="1112" 
d="M928 1163h-78l-162 109l-237 -109h-78l260 279h153zM477 94q94 0 165 115t95 273t25 261q0 207 -131 207q-94 0 -164 -114t-95 -281q-25 -166 -26 -254q0 -207 131 -207zM472 -25q-190 0 -306 117q-115 117 -115 309q0 314 227 512q177 156 362 156t303 -115t118 -299
q0 -315 -225 -521q-174 -159 -364 -159z" />
    <glyph glyph-name="otilde" unicode="&#xf5;" horiz-adv-x="1112" 
d="M483 1249q-62 0 -88 -75l-57 8q6 70 64 140t121 69q63 0 163 -33t136 -33t55 16q18 17 32 54l60 -4q-5 -70 -65 -142q-60 -71 -124 -71t-164 36q-98 36 -133 35zM477 94q94 0 165 115t95 273t25 261q0 207 -131 207q-94 0 -164 -114t-95 -281q-25 -166 -26 -254
q0 -207 131 -207zM472 -25q-190 0 -306 117q-115 117 -115 309q0 314 227 512q177 156 362 156t303 -115t118 -299q0 -315 -225 -521q-174 -159 -364 -159z" />
    <glyph glyph-name="odieresis" unicode="&#xf6;" horiz-adv-x="1112" 
d="M983 1309q0 -57 -41 -97t-98 -41q-57 0 -98 40q-40 39 -40 97t40 98t98 40t98 -40q41 -40 41 -97zM639 1309q0 -57 -41 -97t-98 -41q-57 0 -98 40q-40 39 -40 97t40 98t98 40t98 -40q41 -40 41 -97zM477 94q94 0 165 115t95 273t25 261q0 207 -131 207q-94 0 -164 -114
t-95 -281q-25 -166 -26 -254q0 -207 131 -207zM472 -25q-190 0 -306 117q-115 117 -115 309q0 314 227 512q177 156 362 156t303 -115t118 -299q0 -315 -225 -521q-174 -159 -364 -159z" />
    <glyph glyph-name="divide" unicode="&#xf7;" horiz-adv-x="1167" 
d="M683 852q-54 0 -93 39t-39 93t39 93t93 39t93 -39t39 -93t-39 -93t-93 -39zM653 155q0 -54 -39 -93t-93 -39q-54 1 -93 39t-39 92t39 94q39 39 93 39t93 -39t39 -93zM1014 504h-852l28 147h852z" />
    <glyph glyph-name="oslash" unicode="&#xf8;" horiz-adv-x="1112" 
d="M760 676l-400 -483q29 -98 119 -99q186 0 262 428q17 86 19 154zM631 950q-188 0 -262 -428q-23 -123 -23 -205l410 494q-20 139 -125 139zM51 403q0 57 10 119q47 244 221 396t369 151q145 0 252 -82l107 129l77 -47l-118 -143q92 -113 92 -281q0 -45 -12 -123
q-45 -238 -217 -392t-373 -155q-129 0 -228 64l-92 -111l-78 47l101 121q-111 117 -111 307z" />
    <glyph glyph-name="ugrave" unicode="&#xf9;" horiz-adv-x="1169" 
d="M846 1153l-428 154l104 186l352 -291zM780 -25q-129 0 -139 156h-10q-92 -82 -164 -119t-148 -37q-111 0 -167 71t-56 181q0 55 13 111l98 424q8 33 8 65q0 113 -172 -8l-12 53q59 72 151 136t180 63q143 0 144 -182q0 -53 -17 -135l-94 -435q-8 -35 -8 -69
q0 -102 84 -102t172 67q4 49 10 78l146 751h286l-149 -759q-6 -37 -6 -64q0 -55 43 -55t133 63l12 -53q-57 -72 -153 -136t-185 -65z" />
    <glyph glyph-name="uacute" unicode="&#xfa;" horiz-adv-x="1169" 
d="M918 1307l-429 -154l-28 49l352 291zM780 -25q-129 0 -139 156h-10q-92 -82 -164 -119t-148 -37q-111 0 -167 71t-56 181q0 55 13 111l98 424q8 33 8 65q0 113 -172 -8l-12 53q59 72 151 136t180 63q143 0 144 -182q0 -53 -17 -135l-94 -435q-8 -35 -8 -69
q0 -102 84 -102t172 67q4 49 10 78l146 751h286l-149 -759q-6 -37 -6 -64q0 -55 43 -55t133 63l12 -53q-57 -72 -153 -136t-185 -65z" />
    <glyph glyph-name="ucircumflex" unicode="&#xfb;" horiz-adv-x="1169" 
d="M905 1163h-78l-161 109l-238 -109h-78l260 279h154zM780 -25q-129 0 -139 156h-10q-92 -82 -164 -119t-148 -37q-111 0 -167 71t-56 181q0 55 13 111l98 424q8 33 8 65q0 113 -172 -8l-12 53q59 72 151 136t180 63q143 0 144 -182q0 -53 -17 -135l-94 -435q-8 -35 -8 -69
q0 -102 84 -102t172 67q4 49 10 78l146 751h286l-149 -759q-6 -37 -6 -64q0 -55 43 -55t133 63l12 -53q-57 -72 -153 -136t-185 -65z" />
    <glyph glyph-name="udieresis" unicode="&#xfc;" horiz-adv-x="1169" 
d="M1001 1309q0 -57 -40 -98q-41 -40 -99 -40t-97 40q-40 39 -40 97t40 98t97 40t98 -40t41 -97zM657 1309q0 -57 -41 -97t-98 -41q-57 0 -97 40q-40 39 -40 97t40 98t97 40t98 -40t41 -97zM780 -25q-129 0 -139 156h-10q-92 -82 -164 -119t-148 -37q-111 0 -167 71t-56 181
q0 55 13 111l98 424q8 33 8 65q0 113 -172 -8l-12 53q59 72 151 136t180 63q143 0 144 -182q0 -53 -17 -135l-94 -435q-8 -35 -8 -69q0 -102 84 -102t172 67q4 49 10 78l146 751h286l-149 -759q-6 -37 -6 -64q0 -55 43 -55t133 63l12 -53q-57 -72 -153 -136t-185 -65z" />
    <glyph glyph-name="yacute" unicode="&#xfd;" horiz-adv-x="1044" 
d="M963 1307l-428 -154l-29 49l352 291zM365 1069q49 1 81 -23t58 -85q66 -164 125 -682q217 369 229 507q-63 0 -117 36q-53 36 -53 104t46 106t118 37q72 0 118 -54t46 -128q0 -115 -110 -332t-281 -468t-347 -410t-298 -158q-68 0 -121 44q-53 45 -53 113t42 112t102 44
t103 -35t49 -108q70 27 131 90t164 205q-94 897 -260 897q-31 -1 -119 -52l-20 48q60 68 164 130t203 62z" />
    <glyph glyph-name="thorn" unicode="&#xfe;" horiz-adv-x="1132" 
d="M799 636q0 112 -51 178t-122 67q-71 0 -132 -45l-134 -691q47 -33 97 -32q104 0 186 90t119 205q37 116 37 228zM293 1315q0 43 -25 60t-100 40l8 45q256 20 430 84h37l-131 -616q136 141 282 141t229 -95t83 -261q0 -165 -68 -309t-172 -235t-221 -142t-219 -52
q-37 0 -98 9l-37 -191q-17 -83 -17 -109t22 -45t89 -51l-8 -49h-524l10 49q71 35 97 72t44 133l277 1411q12 68 12 111z" />
    <glyph glyph-name="ydieresis" unicode="&#xff;" horiz-adv-x="1044" 
d="M967 1309q0 -57 -41 -97q-40 -40 -98 -41q-58 0 -98 40q-40 39 -40 97t40 98t97 40t99 -40t41 -97zM623 1309q0 -57 -41 -97q-40 -40 -98 -41q-58 0 -98 40q-40 39 -40 97t40 98t97 40t99 -40t41 -97zM365 1069q49 1 81 -23t58 -85q66 -164 125 -682q217 369 229 507
q-63 0 -117 36q-53 36 -53 104t46 106t118 37q72 0 118 -54t46 -128q0 -115 -110 -332t-281 -468t-347 -410t-298 -158q-68 0 -121 44q-53 45 -53 113t42 112t102 44t103 -35t49 -108q70 27 131 90t164 205q-94 897 -260 897q-31 -1 -119 -52l-20 48q60 68 164 130t203 62z
" />
    <glyph glyph-name="Amacron" unicode="&#x100;" horiz-adv-x="1425" 
d="M1159 1612h-512l23 108h512zM862 672l-61 569l-279 -569h340zM1350 0h-582l10 53q74 16 99 51t25 118t-21 284l-2 22h-426q-145 -303 -146 -385q0 -41 28 -57t89 -33l-10 -53h-520l10 53q98 25 171 117t226 397l426 846h334l133 -985q30 -206 62 -278t100 -97z" />
    <glyph glyph-name="amacron" unicode="&#x101;" horiz-adv-x="1146" 
d="M958 1243h-512l23 109h512zM774 -25q-141 0 -141 189h-10q-139 -188 -293 -189q-119 -1 -199 101t-80 258q1 156 59 294q111 260 349 384q111 57 189 57t144 -14q66 -15 108 -15t134 29h43l-151 -784q-25 -119 32 -119q48 0 138 63l12 -53q-58 -72 -154 -136t-180 -65z
M645 950q-105 0 -201 -176t-96 -375q0 -231 144 -231q59 0 143 88l127 647q-61 47 -117 47z" />
    <glyph glyph-name="Abreve" unicode="&#x102;" horiz-adv-x="1425" 
d="M871 1528q-111 0 -177 77t-55 205h70q25 -123 183 -123t230 123h78q-41 -130 -130 -206t-199 -76zM862 672l-61 569l-279 -569h340zM1350 0h-582l10 53q74 16 99 51t25 118t-21 284l-2 22h-426q-145 -303 -146 -385q0 -41 28 -57t89 -33l-10 -53h-520l10 53
q98 25 171 117t226 397l426 846h334l133 -985q30 -206 62 -278t100 -97z" />
    <glyph glyph-name="abreve" unicode="&#x103;" horiz-adv-x="1146" 
d="M670 1159q-110 0 -176 77t-56 206h70q26 -123 184 -123t230 123h77q-41 -131 -130 -207t-199 -76zM774 -25q-141 0 -141 189h-10q-139 -188 -293 -189q-119 -1 -199 101t-80 258q1 156 59 294q111 260 349 384q111 57 189 57t144 -14q66 -15 108 -15t134 29h43l-151 -784
q-25 -119 32 -119q48 0 138 63l12 -53q-58 -72 -154 -136t-180 -65zM645 950q-105 0 -201 -176t-96 -375q0 -231 144 -231q59 0 143 88l127 647q-61 47 -117 47z" />
    <glyph glyph-name="Aogonek" unicode="&#x104;" horiz-adv-x="1425" 
d="M862 672l-61 569l-279 -569h340zM1101 -428q-83 0 -119 36t-36 87q0 131 318 305h-496l10 53q74 16 99 51t25 118t-21 284l-2 22h-426q-145 -303 -146 -385q0 -41 28 -57t89 -33l-10 -53h-520l10 53q98 25 171 117t226 397l426 846h334l133 -985q30 -206 62 -278t100 -97
l-6 -53q-219 -178 -220 -285q0 -53 66 -53q33 0 66 16l10 -45q-88 -61 -171 -61z" />
    <glyph glyph-name="aogonek" unicode="&#x105;" horiz-adv-x="1146" 
d="M645 950q-105 0 -201 -176t-96 -375q0 -231 144 -231q59 0 143 88l127 647q-61 47 -117 47zM882 -428q-83 0 -119 36t-36 87q0 94 184 319q-78 -39 -137 -39q-141 0 -141 189h-10q-139 -188 -293 -189q-119 -1 -199 101t-80 258q1 156 59 294q111 260 349 384
q111 57 189 57t144 -14q66 -15 108 -15t134 29h43l-151 -784q-25 -119 32 -119q47 0 138 63l12 -53q-70 -88 -133 -238t-64 -219q0 -53 66 -53q32 1 65 17l11 -50q-88 -61 -171 -61z" />
    <glyph glyph-name="Cacute" unicode="&#x106;" horiz-adv-x="1425" 
d="M1264 1675l-428 -153l-29 49l352 291zM770 -31q-298 0 -490 169t-192 462q0 238 131 432t348 302t467 108q127 0 246 -27t186 -59l-55 -299h-86q-51 143 -126 205t-209 61q-134 0 -250 -72q-209 -130 -290 -436q-36 -133 -36 -266q0 -221 108 -340t293 -119
q248 0 426 295h88l-90 -324q-82 -39 -215 -65t-254 -27z" />
    <glyph glyph-name="cacute" unicode="&#x107;" horiz-adv-x="921" 
d="M1006 1307l-428 -154l-29 49l352 291zM384 -25q-144 0 -239 114q-94 114 -94 288t75 331t211 259q135 102 279 102t220 -58q76 -57 76 -141t-52 -130t-114 -46t-104 39t-42 105t78 131q-25 6 -45 6q-80 0 -148 -82q-69 -82 -103 -198q-34 -115 -34 -241t58 -196t152 -70
q95 0 228 99l33 -54q-57 -88 -174 -173t-261 -85z" />
    <glyph glyph-name="Ccircumflex" unicode="&#x108;" horiz-adv-x="1425" 
d="M1292 1532h-78l-161 108l-238 -108h-78l260 278h154zM770 -31q-298 0 -490 169t-192 462q0 238 131 432t348 302t467 108q127 0 246 -27t186 -59l-55 -299h-86q-51 143 -126 205t-209 61q-134 0 -250 -72q-209 -130 -290 -436q-36 -133 -36 -266q0 -221 108 -340
t293 -119q248 0 426 295h88l-90 -324q-82 -39 -215 -65t-254 -27z" />
    <glyph glyph-name="ccircumflex" unicode="&#x109;" horiz-adv-x="921" 
d="M956 1163h-77l-162 109l-238 -109h-78l261 279h153zM384 -25q-144 0 -239 114q-94 114 -94 288t75 331t211 259q135 102 279 102t220 -58q76 -57 76 -141t-52 -130t-114 -46t-104 39t-42 105t78 131q-25 6 -45 6q-80 0 -148 -82q-69 -82 -103 -198q-34 -115 -34 -241
t58 -196t152 -70q95 0 228 99l33 -54q-57 -88 -174 -173t-261 -85z" />
    <glyph glyph-name="Cdotaccent" unicode="&#x10a;" horiz-adv-x="1425" 
d="M1202 1677q0 -63 -46 -108t-109 -45t-109 45q-45 45 -45 108t45 109q44 46 108 45q64 1 110 -45t46 -109zM770 -31q-298 0 -490 169t-192 462q0 238 131 432t348 302t467 108q127 0 246 -27t186 -59l-55 -299h-86q-51 143 -126 205t-209 61q-134 0 -250 -72
q-209 -130 -290 -436q-36 -133 -36 -266q0 -221 108 -340t293 -119q248 0 426 295h88l-90 -324q-82 -39 -215 -65t-254 -27z" />
    <glyph glyph-name="cdotaccent" unicode="&#x10b;" horiz-adv-x="921" 
d="M860 1309q0 -63 -46 -109t-109 -45q-63 0 -109 45q-45 44 -45 108t45 109q44 45 108 45t110 -45t46 -108zM384 -25q-144 0 -239 114q-94 114 -94 288t75 331t211 259q135 102 279 102t220 -58q76 -57 76 -141t-52 -130t-114 -46t-104 39t-42 105t78 131q-25 6 -45 6
q-80 0 -148 -82q-69 -82 -103 -198q-34 -115 -34 -241t58 -196t152 -70q95 0 228 99l33 -54q-57 -88 -174 -173t-261 -85z" />
    <glyph glyph-name="Ccaron" unicode="&#x10c;" horiz-adv-x="1425" 
d="M1083 1532h-153l-142 278h78l162 -108l238 108h77zM770 -31q-298 0 -490 169t-192 462q0 238 131 432t348 302t467 108q127 0 246 -27t186 -59l-55 -299h-86q-51 143 -126 205t-209 61q-134 0 -250 -72q-209 -130 -290 -436q-36 -133 -36 -266q0 -221 108 -340t293 -119
q248 0 426 295h88l-90 -324q-82 -39 -215 -65t-254 -27z" />
    <glyph glyph-name="ccaron" unicode="&#x10d;" horiz-adv-x="921" 
d="M733 1163h-153l-142 279h78l162 -109l237 109h78zM384 -25q-144 0 -239 114q-94 114 -94 288t75 331t211 259q135 102 279 102t220 -58q76 -57 76 -141t-52 -130t-114 -46t-104 39t-42 105t78 131q-25 6 -45 6q-80 0 -148 -82q-69 -82 -103 -198q-34 -115 -34 -241
t58 -196t152 -70q95 0 228 99l33 -54q-57 -88 -174 -173t-261 -85z" />
    <glyph glyph-name="Dcaron" unicode="&#x10e;" horiz-adv-x="1583" 
d="M1008 1532h-154l-141 278h78l161 -108l238 108h78zM596 121q274 0 445 204t171 490q0 215 -116 346q-117 131 -318 131h-131l-223 -1171h172zM578 0h-631l10 53q94 33 132 77t56 142l166 873q13 59 13 100t-25 64t-92 51l10 53h588q329 0 533 -163t204 -445
q0 -236 -138 -423q-138 -186 -356 -284t-470 -98z" />
    <glyph glyph-name="dcaron" unicode="&#x10f;" horiz-adv-x="1155" 
d="M1298 1163l-20 263q0 42 32 80t81 38t81 -35t31 -78q0 -43 -65 -159t-88 -207l-58 2q6 47 6 96zM664 950q-119 0 -214 -166t-96 -370q0 -117 35 -182q35 -64 98 -64t144 68l26 20l127 649q-53 45 -120 45zM793 -25q-133 0 -134 191h-12q-88 -92 -161 -141t-154 -50
q-117 1 -199 103t-82 274q0 283 210 500t437 217q57 0 115 -14l29 153q10 56 10 102t-24 64t-101 41l8 45q240 18 416 84h39l-244 -1251q-8 -49 -8 -68q0 -59 44 -59t134 63l12 -53q-59 -72 -154 -136t-181 -65z" />
    <glyph glyph-name="Dcroat" unicode="&#x110;" horiz-adv-x="1583" 
d="M604 121q182 0 326 102q143 102 217 262q74 159 74 353t-118 324t-317 130h-131l-96 -501h219l-24 -117h-217l-105 -553h172zM586 0h-631l10 53q94 33 132 77t57 142l75 402h-131l25 117h129l67 354q13 59 13 100t-25 64t-92 51l10 53h588q326 0 532 -163t205 -431
q0 -240 -138 -430q-138 -189 -357 -289t-469 -100z" />
    <glyph glyph-name="dcroat" unicode="&#x111;" horiz-adv-x="1155" 
d="M666 950q-121 0 -216 -165t-96 -365q0 -252 138 -252q52 0 165 88l127 649q-53 45 -118 45zM795 -25q-135 0 -136 191h-12q-86 -90 -160 -140t-153 -51q-119 -1 -201 101t-82 258q1 156 61 294q115 259 359 384q113 57 199 57t143 -14l23 127h-277l16 88h275q2 14 2 51
t-25 54t-100 40l8 45q240 18 416 84h39l-53 -274h135l-17 -88h-137l-172 -889q-25 -127 33 -127q47 0 137 63l12 -53q-57 -72 -153 -136t-180 -65z" />
    <glyph glyph-name="Emacron" unicode="&#x112;" horiz-adv-x="1163" 
d="M1022 1612h-512l22 108h512zM717 782q67 0 109 28t112 116h53l-73 -396h-54q-33 84 -66 111q-34 27 -104 27h-166l-104 -547h145q141 0 199 30t225 185h64l-103 -336h-1007l10 53q98 35 132 71t52 128l174 913q13 73 13 103t-26 48t-95 44l10 53h952l-57 -303h-63
q-61 129 -103 156t-155 26h-144l-96 -510h166z" />
    <glyph glyph-name="emacron" unicode="&#x113;" horiz-adv-x="995" 
d="M956 1243h-512l23 109h512zM696 811q0 63 -25 97q-26 34 -69 34q-84 0 -159 -116t-95 -285q186 4 267 83t81 187zM53 401q0 266 171 467t409 201q139 0 225 -74t86 -200q0 -164 -142 -253t-374 -89q-27 0 -84 4q0 -125 54 -197t165 -72q150 1 273 99l36 -39
q-59 -70 -106 -117q-48 -47 -150 -101t-208 -55q-170 0 -263 120q-92 120 -92 306z" />
    <glyph glyph-name="Ebreve" unicode="&#x114;" horiz-adv-x="1163" 
d="M734 1528q-110 0 -176 77t-56 205h69q25 -123 183 -123t231 123h78q-41 -130 -130 -206t-199 -76zM717 782q67 0 109 28t112 116h53l-73 -396h-54q-33 84 -66 111q-34 27 -104 27h-166l-104 -547h145q141 0 199 30t225 185h64l-103 -336h-1007l10 53q98 35 132 71t52 128
l174 913q13 73 13 103t-26 48t-95 44l10 53h952l-57 -303h-63q-61 129 -103 156t-155 26h-144l-96 -510h166z" />
    <glyph glyph-name="ebreve" unicode="&#x115;" horiz-adv-x="995" 
d="M677 1159q-111 0 -177 77t-56 206h70q26 -123 184 -123t230 123h78q-41 -131 -130 -207t-199 -76zM696 811q0 63 -25 97q-26 34 -69 34q-84 0 -159 -116t-95 -285q186 4 267 83t81 187zM53 401q0 266 171 467t409 201q139 0 225 -74t86 -200q0 -164 -142 -253t-374 -89
q-27 0 -84 4q0 -125 54 -197t165 -72q150 1 273 99l36 -39q-59 -70 -106 -117q-48 -47 -150 -101t-208 -55q-170 0 -263 120q-92 120 -92 306z" />
    <glyph glyph-name="Edotaccent" unicode="&#x116;" horiz-adv-x="1163" 
d="M891 1677q0 -63 -46 -108q-45 -45 -109 -45t-109 45t-45 108t45 109t108 45q63 0 110 -45q46 -46 46 -109zM717 782q67 0 109 28t112 116h53l-73 -396h-54q-33 84 -66 111q-34 27 -104 27h-166l-104 -547h145q141 0 199 30t225 185h64l-103 -336h-1007l10 53
q98 35 132 71t52 128l174 913q13 73 13 103t-26 48t-95 44l10 53h952l-57 -303h-63q-61 129 -103 156t-155 26h-144l-96 -510h166z" />
    <glyph glyph-name="edotaccent" unicode="&#x117;" horiz-adv-x="995" 
d="M795 1309q0 -63 -46 -109q-45 -46 -109 -45q-64 0 -110 45q-45 44 -45 108t45 109q44 45 108 45t110 -45t47 -108zM696 811q0 63 -25 97q-26 34 -69 34q-84 0 -159 -116t-95 -285q186 4 267 83t81 187zM53 401q0 266 171 467t409 201q139 0 225 -74t86 -200
q0 -164 -142 -253t-374 -89q-27 0 -84 4q0 -125 54 -197t165 -72q150 1 273 99l36 -39q-59 -70 -106 -117q-48 -47 -150 -101t-208 -55q-170 0 -263 120q-92 120 -92 306z" />
    <glyph glyph-name="Eogonek" unicode="&#x118;" horiz-adv-x="1163" 
d="M710 -428q-83 0 -119 36t-36 87q0 131 317 305h-925l10 53q98 35 132 71t52 128l174 913q13 73 13 103t-26 48t-95 44l10 53h952l-57 -303h-63q-61 129 -103 156t-155 26h-144l-96 -510h166q67 0 109 28t112 116h53l-73 -396h-54q-33 84 -66 111q-34 27 -104 27h-166
l-104 -547h145q141 0 199 30t225 185h64l-103 -336q-215 -182 -215 -285q0 -53 66 -53q32 0 65 16l11 -45q-88 -61 -171 -61z" />
    <glyph glyph-name="eogonek" unicode="&#x119;" horiz-adv-x="995" 
d="M696 811q0 63 -25 97q-26 34 -69 34q-84 0 -159 -116t-95 -285q186 4 267 83t81 187zM616 -428q-82 0 -119 36q-36 36 -36 87q0 92 190 352q-113 -72 -243 -72q-170 0 -263 120q-92 120 -92 306q0 266 171 467t409 201q139 0 225 -74t86 -200q0 -164 -142 -253t-374 -89
q-27 0 -84 4q0 -125 54 -197t165 -72q150 0 273 99l36 -39q-74 -96 -150 -280t-77 -253q0 -53 66 -53q32 0 65 16l10 -45q-88 -61 -170 -61z" />
    <glyph glyph-name="Ecaron" unicode="&#x11a;" horiz-adv-x="1163" 
d="M784 1532h-153l-142 278h78l162 -108l238 108h77zM717 782q67 0 109 28t112 116h53l-73 -396h-54q-33 84 -66 111q-34 27 -104 27h-166l-104 -547h145q141 0 199 30t225 185h64l-103 -336h-1007l10 53q98 35 132 71t52 128l174 913q13 73 13 103t-26 48t-95 44l10 53h952
l-57 -303h-63q-61 129 -103 156t-155 26h-144l-96 -510h166z" />
    <glyph glyph-name="ecaron" unicode="&#x11b;" horiz-adv-x="995" 
d="M715 1163h-154l-141 279h78l161 -109l238 109h78zM696 811q0 63 -25 97q-26 34 -69 34q-84 0 -159 -116t-95 -285q186 4 267 83t81 187zM53 401q0 266 171 467t409 201q139 0 225 -74t86 -200q0 -164 -142 -253t-374 -89q-27 0 -84 4q0 -125 54 -197t165 -72
q150 1 273 99l36 -39q-59 -70 -106 -117q-48 -47 -150 -101t-208 -55q-170 0 -263 120q-92 120 -92 306z" />
    <glyph glyph-name="Gcircumflex" unicode="&#x11c;" horiz-adv-x="1607" 
d="M1190 1532h-78l-162 108l-237 -108h-78l260 278h154zM1047 1442q129 0 263 -27t193 -55l-65 -342h-68q-61 162 -146 232t-216 71q-178 0 -316 -118t-207 -288q-67 -169 -67 -371t104 -322t275 -120q96 0 202 31l58 305q10 55 10 91q0 73 -113 120l11 56h544l-10 -56
q-81 -35 -107 -67t-46 -142l-72 -374q-283 -96 -518 -97q-289 0 -477 166t-189 455q0 358 283 605t674 247z" />
    <glyph glyph-name="gcircumflex" unicode="&#x11d;" horiz-adv-x="985" 
d="M918 1163h-78l-162 109l-238 -109h-78l261 279h153zM471 459q80 0 127 133q47 132 47 246t-80 114t-127 -133t-47 -247t80 -113zM92 -172q0 -70 90 -121t198 -51t184 36q77 36 77 93q0 76 -131 115l-274 84q-66 -23 -105 -67t-39 -89zM1077 1008q0 -46 -33 -74
q-32 -29 -72 -29t-102 23q53 -76 54 -166q0 -132 -79 -232t-185 -143t-209 -43q-39 0 -58 4q-59 -39 -59 -86q0 -39 59 -53l217 -57q141 -38 211 -98t70 -168t-92 -195q-91 -88 -225 -130t-303 -42q-169 1 -294 75t-125 176t85 167q84 66 202 96q-65 51 -65 115t61 128
q61 63 158 103q-182 92 -182 265t145 299t326 126q94 0 182 -47l29 -2q82 0 108 20q27 20 35 26t30 37q22 30 27 36q35 -7 65 -54q19 -31 19 -77z" />
    <glyph glyph-name="Gbreve" unicode="&#x11e;" horiz-adv-x="1607" 
d="M918 1528q-110 0 -176 77q-67 77 -56 205h70q25 -123 183 -123t230 123h78q-41 -130 -130 -206t-199 -76zM1047 1442q129 0 263 -27t193 -55l-65 -342h-68q-61 162 -146 232t-216 71q-178 0 -316 -118t-207 -288q-67 -169 -67 -371t104 -322t275 -120q96 0 202 31l58 305
q10 55 10 91q0 73 -113 120l11 56h544l-10 -56q-81 -35 -107 -67t-46 -142l-72 -374q-283 -96 -518 -97q-289 0 -477 166t-189 455q0 358 283 605t674 247z" />
    <glyph glyph-name="gbreve" unicode="&#x11f;" horiz-adv-x="985" 
d="M648 1159q-110 0 -176 77t-56 206h69q25 -123 183 -123t231 123h78q-41 -131 -130 -207t-199 -76zM471 459q80 0 127 133q47 132 47 246t-80 114t-127 -133t-47 -247t80 -113zM92 -172q0 -70 90 -121t198 -51t184 36q77 36 77 93q0 76 -131 115l-274 84q-66 -23 -105 -67
t-39 -89zM1077 1008q0 -46 -33 -74q-32 -29 -72 -29t-102 23q53 -76 54 -166q0 -132 -79 -232t-185 -143t-209 -43q-39 0 -58 4q-59 -39 -59 -86q0 -39 59 -53l217 -57q141 -38 211 -98t70 -168t-92 -195q-91 -88 -225 -130t-303 -42q-169 1 -294 75t-125 176t85 167
q84 66 202 96q-65 51 -65 115t61 128q61 63 158 103q-182 92 -182 265t145 299t326 126q94 0 182 -47l29 -2q82 0 108 20q27 20 35 26t30 37q22 30 27 36q35 -7 65 -54q19 -31 19 -77z" />
    <glyph glyph-name="Gdotaccent" unicode="&#x120;" horiz-adv-x="1607" 
d="M1077 1677q0 -63 -46 -108t-109 -45t-109 45q-45 45 -45 108t45 109t109 45q64 1 109 -45q46 -46 46 -109zM1047 1442q129 0 263 -27t193 -55l-65 -342h-68q-61 162 -146 232t-216 71q-178 0 -316 -118t-207 -288q-67 -169 -67 -371t104 -322t275 -120q96 0 202 31
l58 305q10 55 10 91q0 73 -113 120l11 56h544l-10 -56q-81 -35 -107 -67t-46 -142l-72 -374q-283 -96 -518 -97q-289 0 -477 166t-189 455q0 358 283 605t674 247z" />
    <glyph glyph-name="gdotaccent" unicode="&#x121;" horiz-adv-x="985" 
d="M805 1309q0 -63 -46 -109q-45 -46 -109 -45q-64 0 -109 45q-45 44 -45 108t45 109t108 45t109 -45t47 -108zM471 459q80 0 127 133q47 132 47 246t-80 114t-127 -133t-47 -247t80 -113zM92 -172q0 -70 90 -121t198 -51t184 36q77 36 77 93q0 76 -131 115l-274 84
q-66 -23 -105 -67t-39 -89zM1077 1008q0 -46 -33 -74q-32 -29 -72 -29t-102 23q53 -76 54 -166q0 -132 -79 -232t-185 -143t-209 -43q-39 0 -58 4q-59 -39 -59 -86q0 -39 59 -53l217 -57q141 -38 211 -98t70 -168t-92 -195q-91 -88 -225 -130t-303 -42q-169 1 -294 75
t-125 176t85 167q84 66 202 96q-65 51 -65 115t61 128q61 63 158 103q-182 92 -182 265t145 299t326 126q94 0 182 -47l29 -2q82 0 108 20q27 20 35 26t30 37q22 30 27 36q35 -7 65 -54q19 -31 19 -77z" />
    <glyph glyph-name="Gcommaaccent" unicode="&#x122;" horiz-adv-x="1607" 
d="M600 -188q0 42 36 77t91 35t92 -39t37 -92q0 -174 -315 -317l-25 35q45 37 65 55q52 49 54 106q0 23 -18 61q-17 37 -17 79zM1047 1442q129 0 263 -27t193 -55l-65 -342h-68q-61 162 -146 232t-216 71q-178 0 -316 -118t-207 -288q-67 -169 -67 -371t104 -322t275 -120
q96 0 202 31l58 305q10 55 10 91q0 73 -113 120l11 56h544l-10 -56q-81 -35 -107 -67t-46 -142l-72 -374q-283 -96 -518 -97q-289 0 -477 166t-189 455q0 358 283 605t674 247z" />
    <glyph glyph-name="gcommaaccent" unicode="&#x123;" horiz-adv-x="985" 
d="M750 1408q0 -26 17 -64t17 -79q0 -42 -36 -77t-90 -35q-55 0 -93 39q-37 39 -37 92q1 175 316 318l24 -35q-45 -37 -64 -56q-54 -52 -54 -103zM471 459q80 0 127 133q47 132 47 246t-80 114t-127 -133t-47 -247t80 -113zM92 -172q0 -70 90 -121t198 -51t184 36
q77 36 77 93q0 76 -131 115l-274 84q-66 -23 -105 -67t-39 -89zM1077 1008q0 -46 -33 -74q-32 -29 -72 -29t-102 23q53 -76 54 -166q0 -132 -79 -232t-185 -143t-209 -43q-39 0 -58 4q-59 -39 -59 -86q0 -39 59 -53l217 -57q141 -38 211 -98t70 -168t-92 -195
q-91 -88 -225 -130t-303 -42q-169 1 -294 75t-125 176t85 167q84 66 202 96q-65 51 -65 115t61 128q61 63 158 103q-182 92 -182 265t145 299t326 126q94 0 182 -47l29 -2q82 0 108 20q27 20 35 26t30 37q22 30 27 36q35 -7 65 -54q19 -31 19 -77z" />
    <glyph glyph-name="Hcircumflex" unicode="&#x124;" horiz-adv-x="1679" 
d="M1225 1532h-78l-162 108l-237 -108h-78l260 278h153zM1188 1254q0 32 -25 54t-94 50l12 55h600l-10 -53q-92 -35 -132 -79t-56 -136l-166 -873q-12 -59 -12 -100q-1 -41 25 -66t93 -53l-10 -53h-600l10 55q100 35 133 72t54 145l73 381h-557l-73 -381q-13 -59 -13 -101
t25 -66t92 -52l-8 -53h-602l10 53q94 33 132 77t56 142l166 873q13 59 13 100t-25 64t-92 51l10 53h600l-10 -53q-94 -33 -133 -77t-56 -138l-65 -352h557l66 352q12 77 12 109z" />
    <glyph glyph-name="hcircumflex" unicode="&#x125;" horiz-adv-x="1165" 
d="M709 1546h-78l-162 109l-238 -109h-77l260 279h153zM631 156q0 53 16 135l94 434q8 35 9 70q0 102 -86 102q-70 0 -164 -66l-162 -831h-287l234 1204q12 68 12 111t-25 60t-100 40l8 45q242 18 418 84h37l-117 -616q168 141 290 141t177 -72t55 -182q0 -53 -12 -108
l-98 -424q-8 -33 -8 -66q0 -53 42 -53t130 61l12 -53q-60 -72 -152 -135t-180 -64q-143 0 -143 183z" />
    <glyph glyph-name="Hbar" unicode="&#x126;" horiz-adv-x="1560" 
d="M1118 793l35 188h-557l-35 -188h557zM449 171q1 -42 25 -66t91 -52l-8 -53h-602l10 53q94 33 132 77t57 142l135 709h-150l25 133h149l6 31q13 59 13 100t-25 64t-92 51l10 53h600l-10 -53q-94 -33 -133 -77t-55 -138l-6 -31h557l6 31q12 77 12 109t-25 54t-94 50l13 55
h600l-11 -53q-92 -35 -132 -79t-56 -136l-6 -31h164l-25 -133h-164l-135 -709q-12 -59 -12 -100q-1 -41 25 -66t94 -53l-11 -53h-600l10 55q100 35 134 72q33 37 53 145l74 381h-557l-74 -381q-12 -59 -12 -101z" />
    <glyph glyph-name="hbar" unicode="&#x127;" horiz-adv-x="1165" 
d="M655 897q-63 0 -155 -66l-162 -831h-287l230 1182h-119l16 88h117q2 14 2 51t-25 54t-100 40l8 45q242 18 418 84h37l-53 -274h292l-16 -88h-293l-47 -254q166 141 302 141t190 -107q53 -108 18 -255l-98 -424q-27 -119 33 -119q43 0 131 61l12 -53q-56 -72 -150 -135
t-185 -63t-125 82q-34 83 1 235l94 434q39 172 -86 172z" />
    <glyph glyph-name="Itilde" unicode="&#x128;" horiz-adv-x="741" 
d="M700 1546q-64 0 -163 36q-98 36 -133 36q-62 0 -89 -76l-57 8q6 70 64 140t122 70q62 0 162 -34q100 -32 136 -32t55 16q18 16 32 53l60 -4q-5 -69 -65 -141t-124 -72zM551 0h-606l10 53q96 35 134 77t56 138l166 877q13 77 13 109t-25 55t-94 51l10 53h604l-10 -53
q-96 -33 -135 -78t-56 -137l-165 -877q-13 -59 -13 -100t25 -64t94 -51z" />
    <glyph glyph-name="itilde" unicode="&#x129;" horiz-adv-x="653" 
d="M232 1249q-63 0 -89 -75l-57 8q6 70 64 140t122 69q62 0 162 -33t136 -33t55 16q18 17 32 54l60 -4q-5 -70 -65 -142q-60 -71 -124 -71t-163 36q-98 36 -133 35zM223 819q0 121 -174 -2l-12 53q59 72 151 136t181 63q145 0 145 -184q0 -68 -16 -133l-107 -469
q-8 -35 -8 -64q0 -55 42 -55t130 61l12 -53q-59 -72 -151 -135t-180 -64q-145 0 -146 183q0 57 19 135l106 469q8 31 8 59z" />
    <glyph glyph-name="Imacron" unicode="&#x12a;" horiz-adv-x="741" 
d="M815 1612h-512l23 108h512zM551 0h-606l10 53q96 35 134 77t56 138l166 877q13 77 13 109t-25 55t-94 51l10 53h604l-10 -53q-96 -33 -135 -78t-56 -137l-165 -877q-13 -59 -13 -100t25 -64t94 -51z" />
    <glyph glyph-name="imacron" unicode="&#x12b;" horiz-adv-x="653" 
d="M680 1243h-512l22 109h512zM223 819q0 121 -174 -2l-12 53q59 72 151 136t181 63q145 0 145 -184q0 -68 -16 -133l-107 -469q-8 -35 -8 -64q0 -55 42 -55t130 61l12 -53q-59 -72 -151 -135t-180 -64q-145 0 -146 183q0 57 19 135l106 469q8 31 8 59z" />
    <glyph glyph-name="Ibreve" unicode="&#x12c;" horiz-adv-x="741" 
d="M486 1528q-110 0 -176 77t-56 205h70q25 -123 183 -123t230 123h78q-41 -130 -130 -206t-199 -76zM551 0h-606l10 53q96 35 134 77t56 138l166 877q13 77 13 109t-25 55t-94 51l10 53h604l-10 -53q-96 -33 -135 -78t-56 -137l-165 -877q-13 -59 -13 -100t25 -64t94 -51z
" />
    <glyph glyph-name="ibreve" unicode="&#x12d;" horiz-adv-x="653" 
d="M441 1159q-111 0 -177 77t-55 206h70q25 -123 183 -123t230 123h78q-41 -131 -130 -207t-199 -76zM223 819q0 121 -174 -2l-12 53q59 72 151 136t181 63q145 0 145 -184q0 -68 -16 -133l-107 -469q-8 -35 -8 -64q0 -55 42 -55t130 61l12 -53q-59 -72 -151 -135t-180 -64
q-145 0 -146 183q0 57 19 135l106 469q8 31 8 59z" />
    <glyph glyph-name="Iogonek" unicode="&#x12e;" horiz-adv-x="741" 
d="M308 -428q-82 0 -119 36q-36 36 -35 87q0 131 317 305h-526l10 53q96 35 134 77t56 138l166 877q13 77 13 109t-25 55t-94 51l10 53h604l-10 -53q-96 -33 -135 -78t-56 -137l-165 -877q-13 -59 -13 -100t25 -64t94 -51l-8 -53q-213 -184 -213 -285q0 -53 65 -53
q33 0 66 16l10 -45q-89 -61 -171 -61z" />
    <glyph glyph-name="iogonek" unicode="&#x12f;" horiz-adv-x="653" 
d="M346 -428q-82 0 -120 36q-36 36 -36 87q0 94 185 319q-82 -41 -139 -41q-145 0 -146 183q0 57 19 135l106 469q8 31 8 59q0 121 -174 -2l-12 53q59 72 151 136t181 63q145 0 145 -184q0 -68 -16 -133l-107 -469q-8 -35 -8 -64q0 -55 42 -55t130 61l12 -53
q-70 -88 -131 -236t-61 -217q0 -53 65 -53q33 1 66 17l10 -50q-88 -61 -170 -61zM465 1208q-63 0 -109 45q-45 45 -45 109t45 108q44 46 108 46t109 -46t45 -108t-45 -108t-108 -46z" />
    <glyph glyph-name="Idotaccent" unicode="&#x130;" horiz-adv-x="741" 
d="M700 1677q0 -63 -46 -108t-109 -45t-109 45q-45 45 -45 108t45 109q44 46 108 45q64 1 110 -45t46 -109zM551 0h-606l10 53q96 35 134 77t56 138l166 877q13 77 13 109t-25 55t-94 51l10 53h604l-10 -53q-96 -33 -135 -78t-56 -137l-165 -877q-13 -59 -13 -100t25 -64
t94 -51z" />
    <glyph glyph-name="dotlessi" unicode="&#x131;" horiz-adv-x="622" 
d="M223 819q0 121 -174 -2l-12 53q59 72 151 136t181 63q145 0 145 -184q0 -68 -16 -133l-107 -469q-8 -35 -8 -64q0 -55 42 -55t130 61l12 -53q-59 -72 -151 -135t-180 -64q-145 0 -146 183q0 57 19 135l106 469q8 31 8 59z" />
    <glyph glyph-name="IJ" unicode="&#x132;" horiz-adv-x="1396" 
d="M1022 1245q0 41 -25 64t-94 51l10 53h605l-11 -53q-96 -33 -135 -78t-55 -137l-195 -1022q-61 -332 -569 -547v80q197 121 240 348l217 1141q12 59 12 100zM551 0h-606l10 53q96 35 134 77t56 138l166 877q13 77 13 109t-25 55t-94 51l10 53h604l-10 -53
q-96 -33 -135 -78t-56 -137l-165 -877q-13 -59 -13 -100t25 -64t94 -51z" />
    <glyph glyph-name="ij" unicode="&#x133;" horiz-adv-x="1228" 
d="M1087 1208q-63 0 -108 45t-45 109t45 108q45 46 108 46t109 -46t45 -108q0 -63 -45 -109q-46 -45 -109 -45zM985 1069q143 0 143 -186q0 -61 -14 -131l-141 -752q-52 -282 -352 -430q-68 -33 -136 -51v49q125 61 185 362l161 830q8 49 9 61q0 119 -174 -4l-13 53
q59 72 151 136t181 63zM465 1208q-63 0 -109 45q-45 45 -45 109t45 108q44 46 108 46t109 -46t45 -108t-45 -108t-108 -46zM223 819q0 121 -174 -2l-12 53q59 72 151 136t181 63q145 0 145 -184q0 -68 -16 -133l-107 -469q-8 -35 -8 -64q0 -55 42 -55t130 61l12 -53
q-59 -72 -151 -135t-180 -64q-145 0 -146 183q0 57 19 135l106 469q8 31 8 59z" />
    <glyph glyph-name="Jcircumflex" unicode="&#x134;" horiz-adv-x="741" 
d="M756 1532h-78l-162 108l-237 -108h-78l260 278h153zM-145 -424v80q197 121 239 348l217 1141q13 59 13 100t-25 64t-94 51l10 53h604l-10 -53q-96 -33 -135 -78t-56 -137l-194 -1022q-52 -281 -418 -474q-73 -40 -151 -73z" />
    <glyph glyph-name="jcircumflex" unicode="&#x135;" horiz-adv-x="641" 
d="M707 1163h-78l-162 109l-238 -109h-77l260 279h153zM174 879q-43 0 -131 -62l-12 53q57 72 150 136t177 63q193 0 134 -317l-142 -752q-20 -109 -76 -198t-133 -144q-143 -103 -278 -139v49q125 61 184 362l162 830q25 119 -35 119z" />
    <glyph glyph-name="Kcommaaccent" unicode="&#x136;" horiz-adv-x="1544" 
d="M602 -332q0 26 -17 65q-17 37 -17 79t35 77q36 35 91 35t92 -39t37 -92q0 -174 -315 -317l-25 35q45 37 65 55q54 51 54 102zM858 147q0 49 -51 175l-129 319l-191 -176l-34 -197q-13 -70 -13 -106t25 -58q25 -23 94 -51l-8 -53h-606l10 53q96 35 134 77t56 138l166 877
q13 71 13 107t-25 58t-94 50l10 53h604l-10 -53q-106 -37 -138 -72t-53 -143l-90 -481l416 403q137 131 137 209q0 31 -25 48q-26 17 -81 36l10 53h598l-10 -53q-121 -43 -201 -96t-244 -205l-208 -195l233 -545q53 -123 99 -176t128 -90l-10 -53h-637l10 55q61 11 88 27
t27 65z" />
    <glyph glyph-name="kcommaaccent" unicode="&#x137;" horiz-adv-x="1095" 
d="M430 -188q0 42 36 77t91 35t92 -39t37 -92q0 -174 -315 -317l-25 35q45 37 65 55q52 49 54 106q0 23 -18 61q-17 37 -17 79zM745 -27q-72 -1 -128 49t-76 160l-70 355q195 137 348 276q-55 51 -55 111t45 103q45 42 105 42t104 -39t45 -102q0 -64 -43 -110
q-42 -46 -104 -91t-72 -52t-19 -13l-92 -68l90 -322q29 -109 99 -108q53 0 110 47l27 -39q-168 -199 -314 -199zM293 1324q0 40 -22 60t-81 46l7 30q217 16 397 84h39l-299 -1544h-291l236 1208q14 76 14 116z" />
    <glyph glyph-name="kgreenlandic" unicode="&#x138;" horiz-adv-x="1095" 
d="M745 -27q-72 -1 -128 49t-76 160l-70 355q195 137 348 276q-55 51 -55 111t45 103q45 42 105 42t104 -39t45 -102q0 -64 -43 -110q-42 -46 -104 -91t-72 -52t-19 -13l-92 -68l90 -322q29 -109 99 -108q53 0 110 47l27 -39q-168 -199 -314 -199zM203 821q0 119 -174 -4
l-13 53q60 72 152 136t180 63q143 0 144 -186q0 -61 -15 -131l-143 -752h-291l152 760q8 49 8 61z" />
    <glyph glyph-name="Lacute" unicode="&#x139;" horiz-adv-x="1169" 
d="M791 1675l-429 -153l-28 49l352 291zM319 1232q0 46 -24 74q-25 28 -88 54l10 53h600l-10 -53q-94 -35 -134 -86t-59 -150l-190 -1003h143q127 0 181 33t223 202h63l-108 -356h-979l10 53q98 35 133 79t57 157l160 835q12 62 12 108z" />
    <glyph glyph-name="lacute" unicode="&#x13a;" horiz-adv-x="598" 
d="M690 1669l-428 -153l-29 49l353 290zM211 -27q-143 0 -143 187q0 61 14 131l178 913q12 68 12 111t-24 60q-25 17 -101 40l9 45q256 20 430 84h37l-248 -1261q-8 -35 -8 -64q0 -55 42 -55t130 61l12 -53q-57 -70 -155 -134t-185 -65z" />
    <glyph glyph-name="Lcommaaccent" unicode="&#x13b;" horiz-adv-x="1169" 
d="M381 -188q0 42 36 77t91 35t92 -39t37 -92q0 -174 -315 -317l-25 35q45 37 64 55q53 50 55 106q0 23 -18 61q-17 37 -17 79zM319 1232q0 46 -24 74q-25 28 -88 54l10 53h600l-10 -53q-94 -35 -134 -86t-59 -150l-190 -1003h143q127 0 181 33t223 202h63l-108 -356h-979
l10 53q98 35 133 79t57 157l160 835q12 62 12 108z" />
    <glyph glyph-name="lcommaaccent" unicode="&#x13c;" horiz-adv-x="598" 
d="M143 -332q0 26 -17 65q-17 37 -17 79t35 77q36 35 91 35t93 -39t37 -92q-1 -174 -316 -317l-24 35q45 37 64 55q54 51 54 102zM211 -27q-143 0 -143 187q0 61 14 131l178 913q12 68 12 111t-24 60q-25 17 -101 40l9 45q256 20 430 84h37l-248 -1261q-8 -35 -8 -64
q0 -55 42 -55t130 61l12 -53q-57 -70 -155 -134t-185 -65z" />
    <glyph glyph-name="Lcaron" unicode="&#x13d;" horiz-adv-x="1169" 
d="M907 1064l-20 263q0 41 32 79q33 38 81 38t80 -35t32 -78t-66 -159t-88 -207l-57 2q6 47 6 97zM319 1232q0 46 -24 74q-25 28 -88 54l10 53h600l-10 -53q-94 -35 -134 -86t-59 -150l-190 -1003h143q127 0 181 33t223 202h63l-108 -356h-979l10 53q98 35 133 79t57 157
l160 835q12 62 12 108z" />
    <glyph glyph-name="lcaron" unicode="&#x13e;" horiz-adv-x="598" 
d="M739 1163l-20 263q0 42 32 80t81 38q48 0 80 -35t32 -78t-65 -159t-88 -207l-58 2q6 47 6 96zM211 -27q-143 0 -143 187q0 61 14 131l178 913q12 68 12 111t-24 60q-25 17 -101 40l9 45q256 20 430 84h37l-248 -1261q-8 -35 -8 -64q0 -55 42 -55t130 61l12 -53
q-57 -70 -155 -134t-185 -65z" />
    <glyph glyph-name="Ldot" unicode="&#x13f;" horiz-adv-x="1169" 
d="M981 727q0 -70 -49 -119t-121 -49t-121 49t-49 119t49 119t121 49t121 -49t49 -119zM319 1232q0 46 -24 74q-25 28 -88 54l10 53h600l-10 -53q-94 -35 -134 -86t-59 -150l-190 -1003h143q127 0 181 33t223 202h63l-108 -356h-979l10 53q98 35 133 79t57 157l160 835
q12 62 12 108z" />
    <glyph glyph-name="ldot" unicode="&#x140;" horiz-adv-x="598" 
d="M926 731q0 -70 -49 -119t-121 -49t-121 49t-49 119t49 119t121 49t121 -49t49 -119zM211 -27q-143 0 -143 187q0 61 14 131l178 913q12 68 12 111t-24 60q-25 17 -101 40l9 45q256 20 430 84h37l-248 -1261q-8 -35 -8 -64q0 -55 42 -55t130 61l12 -53q-57 -70 -155 -134
t-185 -65z" />
    <glyph glyph-name="Lslash" unicode="&#x141;" horiz-adv-x="1099" 
d="M575 121q127 0 181 33t223 202h63l-108 -356h-979l10 53q98 35 134 80t57 156l45 239l-142 -39l23 119l141 39l92 477q13 62 13 108t-25 74t-88 54l10 53h600l-10 -53q-94 -35 -134 -86t-58 -150l-74 -387l270 76l-24 -119l-269 -76l-94 -497h143z" />
    <glyph glyph-name="lslash" unicode="&#x142;" horiz-adv-x="598" 
d="M213 -27q-188 0 -131 318l96 500l-133 -46l23 113l133 45l59 301q12 68 12 111t-24 60q-25 17 -101 40l9 45q256 20 430 84h37l-105 -530l141 49l-20 -113l-143 -49l-121 -618q-25 -119 33 -119q43 0 131 61l12 -53q-55 -70 -155 -134t-183 -65z" />
    <glyph glyph-name="Nacute" unicode="&#x143;" horiz-adv-x="1636" 
d="M1257 1675l-428 -153l-28 49l352 291zM324 1194q0 115 -146 166l10 53h486l577 -989l99 528q30 160 30 235t-26 109t-86 64l10 53h489l-8 -53q-73 -29 -109 -61q-78 -70 -128 -347l-183 -962h-184l-672 1143l-127 -668q-55 -276 -3 -349q26 -36 87 -63l-10 -53h-489l8 53
q98 39 148 120t91 292l134 694q2 12 2 35z" />
    <glyph glyph-name="nacute" unicode="&#x144;" horiz-adv-x="1177" 
d="M1034 1307l-428 -154l-28 49l352 291zM762 793q0 104 -88 104q-76 0 -168 -70q-2 -16 -6 -45l-150 -782h-287l150 760q8 49 8 63q0 55 -43 56q-47 0 -139 -66l-12 53q57 72 155 138t185 65q125 0 137 -158h10q51 47 90 76q38 29 102 55t125 27q111 0 166 -72t56 -182
q0 -53 -13 -108l-94 -424q-8 -35 -8 -64q0 -55 42 -55t130 61l12 -53q-59 -72 -151 -135t-180 -64q-143 0 -144 185q0 55 17 133l90 434q8 33 8 68z" />
    <glyph glyph-name="Ncommaaccent" unicode="&#x145;" horiz-adv-x="1636" 
d="M676 -188q0 42 36 77t91 35t92 -39t37 -92q-1 -174 -316 -317l-24 35q45 37 64 55q53 50 55 106q0 23 -18 61q-17 37 -17 79zM324 1194q0 115 -146 166l10 53h486l577 -989l99 528q30 160 30 235t-26 109t-86 64l10 53h489l-8 -53q-73 -29 -109 -61q-78 -70 -128 -347
l-183 -962h-184l-672 1143l-127 -668q-55 -276 -3 -349q26 -36 87 -63l-10 -53h-489l8 53q98 39 148 120t91 292l134 694q2 12 2 35z" />
    <glyph glyph-name="ncommaaccent" unicode="&#x146;" horiz-adv-x="1177" 
d="M487 -332q0 26 -17 65q-17 37 -17 79t35 77q36 35 91 35t93 -39t37 -92q-1 -174 -316 -317l-24 35q45 37 64 55q54 51 54 102zM762 793q0 104 -88 104q-76 0 -168 -70q-2 -16 -6 -45l-150 -782h-287l150 760q8 49 8 63q0 55 -43 56q-47 0 -139 -66l-12 53q57 72 155 138
t185 65q125 0 137 -158h10q51 47 90 76q38 29 102 55t125 27q111 0 166 -72t56 -182q0 -53 -13 -108l-94 -424q-8 -35 -8 -64q0 -55 42 -55t130 61l12 -53q-59 -72 -151 -135t-180 -64q-143 0 -144 185q0 55 17 133l90 434q8 33 8 68z" />
    <glyph glyph-name="Ncaron" unicode="&#x147;" horiz-adv-x="1636" 
d="M1047 1532h-154l-141 278h77l162 -108l238 108h78zM324 1194q0 115 -146 166l10 53h486l577 -989l99 528q30 160 30 235t-26 109t-86 64l10 53h489l-8 -53q-73 -29 -109 -61q-78 -70 -128 -347l-183 -962h-184l-672 1143l-127 -668q-55 -276 -3 -349q26 -36 87 -63
l-10 -53h-489l8 53q98 39 148 120t91 292l134 694q2 12 2 35z" />
    <glyph glyph-name="ncaron" unicode="&#x148;" horiz-adv-x="1177" 
d="M823 1163h-153l-142 279h78l162 -109l238 109h77zM762 793q0 104 -88 104q-76 0 -168 -70q-2 -16 -6 -45l-150 -782h-287l150 760q8 49 8 63q0 55 -43 56q-47 0 -139 -66l-12 53q57 72 155 138t185 65q125 0 137 -158h10q51 47 90 76q38 29 102 55t125 27q111 0 166 -72
t56 -182q0 -53 -13 -108l-94 -424q-8 -35 -8 -64q0 -55 42 -55t130 61l12 -53q-59 -72 -151 -135t-180 -64q-143 0 -144 185q0 55 17 133l90 434q8 33 8 68z" />
    <glyph glyph-name="napostrophe" unicode="&#x149;" horiz-adv-x="1177" 
d="M342 1311q0 20 -16 57t-16 77t34 71q35 30 90 30t93 -35t38 -97q1 -62 -69 -138t-162 -127l-62 25q70 94 70 137zM762 793q0 104 -88 104q-76 0 -168 -70q-2 -16 -6 -45l-150 -782h-287l150 760q8 49 8 63q0 55 -43 56q-47 0 -139 -66l-12 53q57 72 155 138t185 65
q125 0 137 -158h10q51 47 90 76q38 29 102 55t125 27q111 0 166 -72t56 -182q0 -53 -13 -108l-94 -424q-8 -35 -8 -64q0 -55 42 -55t130 61l12 -53q-59 -72 -151 -135t-180 -64q-143 0 -144 185q0 55 17 133l90 434q8 33 8 68z" />
    <glyph glyph-name="Eng" unicode="&#x14a;" horiz-adv-x="1656" 
d="M336 236q0 -84 26 -120t87 -63l-11 -53h-489l8 53q98 39 148 120t92 292l133 694q2 12 2 35q0 115 -146 166l11 53h485l578 -989l98 528q31 160 31 235t-26 109t-87 64l10 53h490l-9 -53q-73 -29 -109 -61q-78 -70 -128 -347l-176 -925q-53 -281 -175 -395t-307 -113
q-66 -1 -108 27t-43 71q0 43 37 88q78 -41 176 -41t152 78q55 78 88 213l2 14l-684 1164l-127 -668q-29 -145 -29 -229z" />
    <glyph glyph-name="eng" unicode="&#x14b;" horiz-adv-x="1177" 
d="M668 897q-70 0 -162 -70q-2 -29 -10 -75l-146 -752h-287l150 760q25 119 -33 119q-49 0 -141 -66l-12 53q57 70 155 136t183 67q127 0 139 -158h10q172 158 312 158t192 -105t22 -257l-135 -707q-19 -109 -77 -198t-134 -144q-144 -104 -276 -139v49q127 63 184 362
l152 795q33 172 -86 172z" />
    <glyph glyph-name="Omacron" unicode="&#x14c;" horiz-adv-x="1775" 
d="M1290 1612h-512l23 108h512zM1622 815q0 -225 -123 -422t-327 -311t-433 -113q-279 0 -463 166t-184 449q0 227 122 426q122 200 325 316t430 116q279 0 466 -172t187 -455zM758 90q129 0 235 77t172 198q137 251 135 516q0 203 -89 323t-251 119q-162 0 -294 -138
q-130 -137 -192 -319t-62 -366t92 -296q92 -114 254 -114z" />
    <glyph glyph-name="omacron" unicode="&#x14d;" horiz-adv-x="1112" 
d="M938 1243h-512l23 109h512zM477 94q94 0 165 115t95 273t25 261q0 207 -131 207q-94 0 -164 -114t-95 -281q-25 -166 -26 -254q0 -207 131 -207zM472 -25q-190 0 -306 117q-115 117 -115 309q0 314 227 512q177 156 362 156t303 -115t118 -299q0 -315 -225 -521
q-174 -159 -364 -159z" />
    <glyph glyph-name="Obreve" unicode="&#x14e;" horiz-adv-x="1775" 
d="M1002 1528q-110 0 -176 77q-67 77 -56 205h70q25 -123 183 -123t230 123h78q-41 -130 -130 -206t-199 -76zM1622 815q0 -225 -123 -422t-327 -311t-433 -113q-279 0 -463 166t-184 449q0 227 122 426q122 200 325 316t430 116q279 0 466 -172t187 -455zM758 90
q129 0 235 77t172 198q137 251 135 516q0 203 -89 323t-251 119q-162 0 -294 -138q-130 -137 -192 -319t-62 -366t92 -296q92 -114 254 -114z" />
    <glyph glyph-name="obreve" unicode="&#x14f;" horiz-adv-x="1112" 
d="M638 1159q-110 0 -176 77t-56 206h69q25 -123 183 -123t231 123h78q-41 -131 -130 -207t-199 -76zM477 94q94 0 165 115t95 273t25 261q0 207 -131 207q-94 0 -164 -114t-95 -281q-25 -166 -26 -254q0 -207 131 -207zM472 -25q-190 0 -306 117q-115 117 -115 309
q0 314 227 512q177 156 362 156t303 -115t118 -299q0 -315 -225 -521q-174 -159 -364 -159z" />
    <glyph glyph-name="Ohungarumlaut" unicode="&#x150;" horiz-adv-x="1775" 
d="M1108 1532h-100l84 250h206zM844 1532h-101l84 250h207zM1622 815q0 -225 -123 -422t-327 -311t-433 -113q-279 0 -463 166t-184 449q0 227 122 426q122 200 325 316t430 116q279 0 466 -172t187 -455zM758 90q129 0 235 77t172 198q137 251 135 516q0 203 -89 323
t-251 119q-162 0 -294 -138q-130 -137 -192 -319t-62 -366t92 -296q92 -114 254 -114z" />
    <glyph glyph-name="ohungarumlaut" unicode="&#x151;" horiz-adv-x="1112" 
d="M797 1163h-101l84 250h207zM532 1163h-100l84 250h207zM477 94q94 0 165 115t95 273t25 261q0 207 -131 207q-94 0 -164 -114t-95 -281q-25 -166 -26 -254q0 -207 131 -207zM472 -25q-190 0 -306 117q-115 117 -115 309q0 314 227 512q177 156 362 156t303 -115t118 -299
q0 -315 -225 -521q-174 -159 -364 -159z" />
    <glyph glyph-name="OE" unicode="&#x152;" horiz-adv-x="2215" 
d="M766 90q129 0 235 77q194 141 273 453q35 134 35 261q0 203 -89 323t-252 119q-163 0 -294 -138q-130 -137 -192 -319t-62 -366t92 -296q92 -114 254 -114zM748 -31q-279 0 -463 166t-185 447q0 227 122 427q122 201 325 317t445 116t397 -205l34 176h807l-57 -303h-64
q-78 135 -112 159q-35 24 -146 23h-143l-96 -510h166q68 0 110 28t111 116h53l-74 -396h-53q-33 84 -66 111q-34 27 -104 27h-166l-104 -547h145q144 0 200 29t224 186h64l-103 -336h-860l25 133q-201 -164 -432 -164z" />
    <glyph glyph-name="oe" unicode="&#x153;" horiz-adv-x="1662" 
d="M1364 825q0 53 -27 85t-73 32q-78 0 -154 -118t-94 -283q348 10 348 284zM479 94q186 0 262 428q20 115 21 205q0 223 -131 223q-188 0 -262 -428q-23 -125 -23 -209q0 -219 133 -219zM466 -25q-186 0 -300 117q-115 117 -115 311q0 57 10 119q47 244 221 396t372 152
t286 -159q162 158 375 158q123 0 210 -76t87 -180q0 -201 -165 -286t-435 -70q0 -125 54 -197t165 -72q149 1 272 99l37 -39q-221 -272 -453 -273q-203 0 -288 154q-147 -154 -333 -154z" />
    <glyph glyph-name="Racute" unicode="&#x154;" horiz-adv-x="1398" 
d="M1077 1675l-428 -153l-28 49l352 291zM1100 0q-178 0 -234 36q-55 36 -106 167l-166 411h-76l-65 -342q-13 -59 -13 -101t25 -66t94 -52l-8 -53h-602l10 53q102 35 134 72t52 147l168 873q13 59 13 99t-25 64t-92 52l10 53h533q262 0 393 -90t131 -256q0 -293 -406 -397
q51 -100 150 -305t127 -236q52 -56 123 -76l-10 -53h-160zM598 729q156 0 260 92t105 240q-1 111 -61 171t-173 60h-82l-106 -563h57z" />
    <glyph glyph-name="racute" unicode="&#x155;" horiz-adv-x="843" 
d="M801 1307l-428 -154l-29 49l352 291zM178 879q-45 0 -135 -64l-12 53q57 72 153 137t183 64q133 0 143 -166q94 166 233 166q68 0 105 -42q37 -43 37 -109t-44 -110q-43 -44 -95 -44q-88 0 -113 52q-24 52 -47 52q-35 0 -71 -72q-22 -44 -34 -114l-131 -682h-287l150 760
q25 119 -35 119z" />
    <glyph glyph-name="Rcommaaccent" unicode="&#x156;" horiz-adv-x="1398" 
d="M530 -332q0 26 -17 65q-17 37 -17 79t35 77q36 35 91 35q54 0 92 -39t38 -92q-1 -174 -316 -317l-24 35q45 37 64 55q54 51 54 102zM1100 0q-178 0 -234 36q-55 36 -106 167l-166 411h-76l-65 -342q-13 -59 -13 -101t25 -66t94 -52l-8 -53h-602l10 53q102 35 134 72
t52 147l168 873q13 59 13 99t-25 64t-92 52l10 53h533q262 0 393 -90t131 -256q0 -293 -406 -397q51 -100 150 -305t127 -236q52 -56 123 -76l-10 -53h-160zM598 729q156 0 260 92t105 240q-1 111 -61 171t-173 60h-82l-106 -563h57z" />
    <glyph glyph-name="rcommaaccent" unicode="&#x157;" horiz-adv-x="843" 
d="M123 -188q0 42 36 77t91 35t92 -39t37 -92q-1 -174 -316 -317l-24 35q45 37 64 55q53 50 55 106q0 23 -18 61q-17 37 -17 79zM178 879q-45 0 -135 -64l-12 53q57 72 153 137t183 64q133 0 143 -166q94 166 233 166q68 0 105 -42q37 -43 37 -109t-44 -110q-43 -44 -95 -44
q-88 0 -113 52q-24 52 -47 52q-35 0 -71 -72q-22 -44 -34 -114l-131 -682h-287l150 760q25 119 -35 119z" />
    <glyph glyph-name="Rcaron" unicode="&#x158;" horiz-adv-x="1398" 
d="M866 1532h-153l-142 278h78l162 -108l238 108h77zM1100 0q-178 0 -234 36q-55 36 -106 167l-166 411h-76l-65 -342q-13 -59 -13 -101t25 -66t94 -52l-8 -53h-602l10 53q102 35 134 72t52 147l168 873q13 59 13 99t-25 64t-92 52l10 53h533q262 0 393 -90t131 -256
q0 -293 -406 -397q51 -100 150 -305t127 -236q52 -56 123 -76l-10 -53h-160zM598 729q156 0 260 92t105 240q-1 111 -61 171t-173 60h-82l-106 -563h57z" />
    <glyph glyph-name="rcaron" unicode="&#x159;" horiz-adv-x="843" 
d="M590 1163h-154l-141 279h78l162 -109l237 109h78zM178 879q-45 0 -135 -64l-12 53q57 72 153 137t183 64q133 0 143 -166q94 166 233 166q68 0 105 -42q37 -43 37 -109t-44 -110q-43 -44 -95 -44q-88 0 -113 52q-24 52 -47 52q-35 0 -71 -72q-22 -44 -34 -114l-131 -682
h-287l150 760q25 119 -35 119z" />
    <glyph glyph-name="Sacute" unicode="&#x15a;" horiz-adv-x="1112" 
d="M934 1675l-428 -153l-29 49l352 291zM432 90q98 0 162 56q63 56 63 138q0 139 -165 288q-70 62 -140 129t-118 154t-48 183q0 180 148 292t344 112q194 0 379 -84l-49 -258h-86q-54 123 -114 173t-145 50t-139 -50t-53 -128q0 -78 49 -148t119 -128q71 -58 139 -121
q68 -64 117 -152t49 -190q0 -193 -152 -315t-372 -122q-104 1 -228 27t-186 67l64 328h88q51 -153 114 -227q62 -74 160 -74z" />
    <glyph glyph-name="sacute" unicode="&#x15b;" horiz-adv-x="884" 
d="M823 1307l-428 -154l-28 49l352 291zM496 213q0 55 -37 100t-89 85t-106 84q-53 44 -90 110t-37 143q0 147 114 241t258 93q144 0 234 -58t91 -149q0 -59 -39 -95t-97 -36t-93 34q-36 34 -36 88t35 85q-37 12 -85 12t-87 -28t-39 -79q0 -50 38 -94t92 -83q55 -39 109 -83
t92 -112t38 -149q0 -162 -130 -254t-282 -92t-252 62q-98 64 -98 161q0 63 42 100t100 37t96 -34t38 -89t-47 -98q49 -21 114 -21t109 32t44 87z" />
    <glyph glyph-name="Scircumflex" unicode="&#x15c;" horiz-adv-x="1112" 
d="M942 1532h-78l-162 108l-237 -108h-78l260 278h154zM432 90q98 0 162 56q63 56 63 138q0 139 -165 288q-70 62 -140 129t-118 154t-48 183q0 180 148 292t344 112q194 0 379 -84l-49 -258h-86q-54 123 -114 173t-145 50t-139 -50t-53 -128q0 -78 49 -148t119 -128
q71 -58 139 -121q68 -64 117 -152t49 -190q0 -193 -152 -315t-372 -122q-104 1 -228 27t-186 67l64 328h88q51 -153 114 -227q62 -74 160 -74z" />
    <glyph glyph-name="scircumflex" unicode="&#x15d;" horiz-adv-x="884" 
d="M831 1163h-77l-162 109l-238 -109h-78l261 279h153zM496 213q0 55 -37 100t-89 85t-106 84q-53 44 -90 110t-37 143q0 147 114 241t258 93q144 0 234 -58t91 -149q0 -59 -39 -95t-97 -36t-93 34q-36 34 -36 88t35 85q-37 12 -85 12t-87 -28t-39 -79q0 -50 38 -94t92 -83
q55 -39 109 -83t92 -112t38 -149q0 -162 -130 -254t-282 -92t-252 62q-98 64 -98 161q0 63 42 100t100 37t96 -34t38 -89t-47 -98q49 -21 114 -21t109 32t44 87z" />
    <glyph glyph-name="Scedilla" unicode="&#x15e;" horiz-adv-x="1046" 
d="M424 -31q-100 0 -224 27t-186 67l64 328h88q51 -153 116 -227q64 -74 160 -74t160 55t64 131q1 133 -122 251q-165 159 -223 219q-128 133 -126 278q0 198 148 308t355 110q90 0 196 -28t171 -56l-49 -258h-86q-54 125 -114 174t-146 49t-138 -51t-53 -128q0 -77 49 -147
t119 -129q71 -58 139 -122t117 -149t49 -179q0 -182 -120 -299t-308 -142l-67 -81q57 -6 101 -46t44 -98q0 -96 -79 -138t-179 -42t-160 27l25 49q133 -39 200 5q35 23 35 65t-50 69t-105 29l149 153h-14z" />
    <glyph glyph-name="scedilla" unicode="&#x15f;" horiz-adv-x="884" 
d="M0 197q0 67 41 103t100 36t97 -34t38 -89t-47 -98q49 -21 113 -21t110 31q44 31 44 87t-38 100t-92 85t-108 85q-53 44 -91 106t-38 135q0 158 114 252t259 94t234 -59q89 -60 89 -134t-39 -110t-97 -35q-58 0 -93 34t-35 88t35 85q-37 12 -86 12t-87 -28t-38 -83
q0 -53 59 -111t129 -103t129 -123t60 -170q0 -156 -108 -247t-259 -105l-69 -84q57 -6 101 -46t44 -98q0 -96 -79 -138q-80 -42 -180 -42t-159 27l25 49q133 -39 200 5q36 23 36 65t-51 69q-50 27 -105 29l155 159q-133 5 -223 67t-90 155z" />
    <glyph glyph-name="Scaron" unicode="&#x160;" horiz-adv-x="1112" 
d="M723 1532h-154l-141 278h78l162 -108l237 108h78zM432 90q98 0 162 56q63 56 63 138q0 139 -165 288q-70 62 -140 129t-118 154t-48 183q0 180 148 292t344 112q194 0 379 -84l-49 -258h-86q-54 123 -114 173t-145 50t-139 -50t-53 -128q0 -78 49 -148t119 -128
q71 -58 139 -121q68 -64 117 -152t49 -190q0 -193 -152 -315t-372 -122q-104 1 -228 27t-186 67l64 328h88q51 -153 114 -227q62 -74 160 -74z" />
    <glyph glyph-name="scaron" unicode="&#x161;" horiz-adv-x="884" 
d="M612 1163h-153l-142 279h78l162 -109l238 109h77zM496 213q0 55 -37 100t-89 85t-106 84q-53 44 -90 110t-37 143q0 147 114 241t258 93q144 0 234 -58t91 -149q0 -59 -39 -95t-97 -36t-93 34q-36 34 -36 88t35 85q-37 12 -85 12t-87 -28t-39 -79q0 -50 38 -94t92 -83
q55 -39 109 -83t92 -112t38 -149q0 -162 -130 -254t-282 -92t-252 62q-98 64 -98 161q0 63 42 100t100 37t96 -34t38 -89t-47 -98q49 -21 114 -21t109 32t44 87z" />
    <glyph glyph-name="Tcommaaccent" unicode="&#x162;" horiz-adv-x="1380" 
d="M520 -332q0 26 -17 65q-17 37 -17 79t35 77q36 35 91 35q54 0 92 -39t37 -92q0 -174 -315 -317l-25 35q45 37 65 55q54 51 54 102zM537 1292q-97 0 -133 -19t-117 -110l-49 -53h-84l75 303h1166l-41 -303h-72l-33 57q-47 85 -82 105t-127 20h-98l-194 -1020
q-12 -59 -12 -101t24 -66q25 -24 94 -52l-10 -53h-598l8 53q96 33 131 74t55 145l195 1020h-98z" />
    <glyph glyph-name="tcommaaccent" unicode="&#x163;" horiz-adv-x="686" 
d="M168 -188q0 42 36 77t91 35t92 -39t37 -92q0 -174 -315 -317l-25 35q45 37 64 55q53 50 55 106q0 23 -18 61q-17 37 -17 79zM219 -27q-150 0 -149 193q0 55 12 125l106 606l-108 8l14 78q98 37 155 94q56 57 130 172l33 51h133l-43 -256h239l-28 -155h-240l-108 -606
q-6 -37 -7 -64q0 -55 39 -55q62 0 195 94l26 -47q-63 -78 -178 -158t-221 -80z" />
    <glyph glyph-name="Tcaron" unicode="&#x164;" horiz-adv-x="1380" 
d="M856 1532h-154l-141 278h78l162 -108l237 108h78zM537 1292q-97 0 -133 -19t-117 -110l-49 -53h-84l75 303h1166l-41 -303h-72l-33 57q-47 85 -82 105t-127 20h-98l-194 -1020q-12 -59 -12 -101t24 -66q25 -24 94 -52l-10 -53h-598l8 53q96 33 131 74t55 145l195 1020
h-98z" />
    <glyph glyph-name="tcaron" unicode="&#x165;" horiz-adv-x="686" 
d="M662 1309q0 20 -17 57q-16 37 -16 77q0 41 35 71t90 30t93 -35t38 -97t-70 -138t-162 -127l-61 24q70 94 70 138zM219 -27q-150 0 -149 193q0 55 12 125l106 606l-108 8l14 78q98 37 155 94q56 57 130 172l33 51h133l-43 -256h239l-28 -155h-240l-108 -606q-6 -37 -7 -64
q0 -55 39 -55q62 0 195 94l26 -47q-63 -78 -178 -158t-221 -80z" />
    <glyph glyph-name="Tbar" unicode="&#x166;" horiz-adv-x="1298" 
d="M545 1292q-96 0 -132 -19t-118 -110l-49 -53h-84l76 303h1165l-41 -303h-72l-33 57q-47 84 -81 105q-35 20 -127 20h-99l-96 -501h201l-23 -109h-198l-78 -410q-12 -59 -12 -101t24 -66q25 -24 94 -52l-10 -53h-598l8 53q96 33 131 74t56 145l77 410h-170l23 109h168
l96 501h-98z" />
    <glyph glyph-name="tbar" unicode="&#x167;" horiz-adv-x="686" 
d="M219 -27q-150 0 -149 193q0 55 12 125l39 219h-119l25 127h116l45 260l-108 8l14 78q98 37 155 94q56 57 130 172l33 51h133l-43 -256h239l-28 -155h-240l-45 -252h254l-25 -127h-251l-41 -227q-8 -49 -9 -64q0 -55 41 -55q62 0 195 94l26 -47q-63 -78 -178 -158
t-221 -80z" />
    <glyph glyph-name="Utilde" unicode="&#x168;" horiz-adv-x="1570" 
d="M1050 1546q-65 0 -163 36t-133 36q-63 0 -88 -76l-58 8q6 70 64 140t122 70q62 0 162 -34q100 -32 136 -32t55 16t33 53l59 -4q-6 -69 -65 -141t-124 -72zM1276 1176q0 84 -27 118t-92 66l10 53h508l-10 -53q-72 -29 -110 -61q-86 -72 -138 -347l-106 -555
q-39 -203 -203 -315t-400 -113t-384 103q-150 104 -150 299q0 43 10 100l125 653q13 62 13 108t-25 74t-88 54l10 53h600l-10 -53q-100 -35 -135 -79t-58 -157l-141 -739q-6 -29 -6 -55q0 -94 68 -148t217 -55q149 0 258 75q108 75 135 216l102 534q27 140 27 224z" />
    <glyph glyph-name="utilde" unicode="&#x169;" horiz-adv-x="1169" 
d="M580 1249q-64 0 -88 -75l-58 8q6 70 64 140t122 69q62 0 162 -33t136 -33q36 1 55 17t33 53l59 -4q-5 -70 -65 -142q-60 -71 -124 -71t-163 36q-98 36 -133 35zM780 -25q-129 0 -139 156h-10q-92 -82 -164 -119t-148 -37q-111 0 -167 71t-56 181q0 55 13 111l98 424
q8 33 8 65q0 113 -172 -8l-12 53q59 72 151 136t180 63q143 0 144 -182q0 -53 -17 -135l-94 -435q-8 -35 -8 -69q0 -102 84 -102t172 67q4 49 10 78l146 751h286l-149 -759q-6 -37 -6 -64q0 -55 43 -55t133 63l12 -53q-57 -72 -153 -136t-185 -65z" />
    <glyph glyph-name="Umacron" unicode="&#x16a;" horiz-adv-x="1570" 
d="M1206 1612h-512l23 108h512zM1276 1176q0 84 -27 118t-92 66l10 53h508l-10 -53q-72 -29 -110 -61q-86 -72 -138 -347l-106 -555q-39 -203 -203 -315t-400 -113t-384 103q-150 104 -150 299q0 43 10 100l125 653q13 62 13 108t-25 74t-88 54l10 53h600l-10 -53
q-100 -35 -135 -79t-58 -157l-141 -739q-6 -29 -6 -55q0 -94 68 -148t217 -55q149 0 258 75q108 75 135 216l102 534q27 140 27 224z" />
    <glyph glyph-name="umacron" unicode="&#x16b;" horiz-adv-x="1169" 
d="M1032 1243h-512l23 109h512zM780 -25q-129 0 -139 156h-10q-92 -82 -164 -119t-148 -37q-111 0 -167 71t-56 181q0 55 13 111l98 424q8 33 8 65q0 113 -172 -8l-12 53q59 72 151 136t180 63q143 0 144 -182q0 -53 -17 -135l-94 -435q-8 -35 -8 -69q0 -102 84 -102t172 67
q4 49 10 78l146 751h286l-149 -759q-6 -37 -6 -64q0 -55 43 -55t133 63l12 -53q-57 -72 -153 -136t-185 -65z" />
    <glyph glyph-name="Ubreve" unicode="&#x16c;" horiz-adv-x="1570" 
d="M918 1528q-110 0 -176 77q-67 77 -56 205h70q25 -123 183 -123t230 123h78q-41 -130 -130 -206t-199 -76zM1276 1176q0 84 -27 118t-92 66l10 53h508l-10 -53q-72 -29 -110 -61q-86 -72 -138 -347l-106 -555q-39 -203 -203 -315t-400 -113t-384 103q-150 104 -150 299
q0 43 10 100l125 653q13 62 13 108t-25 74t-88 54l10 53h600l-10 -53q-100 -35 -135 -79t-58 -157l-141 -739q-6 -29 -6 -55q0 -94 68 -148t217 -55q149 0 258 75q108 75 135 216l102 534q27 140 27 224z" />
    <glyph glyph-name="ubreve" unicode="&#x16d;" horiz-adv-x="1169" 
d="M744 1159q-110 0 -176 77t-56 206h70q25 -123 183 -123t230 123h78q-41 -131 -130 -207t-199 -76zM780 -25q-129 0 -139 156h-10q-92 -82 -164 -119t-148 -37q-111 0 -167 71t-56 181q0 55 13 111l98 424q8 33 8 65q0 113 -172 -8l-12 53q59 72 151 136t180 63
q143 0 144 -182q0 -53 -17 -135l-94 -435q-8 -35 -8 -69q0 -102 84 -102t172 67q4 49 10 78l146 751h286l-149 -759q-6 -37 -6 -64q0 -55 43 -55t133 63l12 -53q-57 -72 -153 -136t-185 -65z" />
    <glyph glyph-name="Uring" unicode="&#x16e;" horiz-adv-x="1570" 
d="M973 1612q49 0 84 37t35 86t-35 86t-84 37t-84 -37t-35 -86t35 -86t84 -37zM1186 1735q0 -85 -64 -147t-149 -62q-86 0 -150 61q-63 61 -63 147t63 148t149 62t150 -62t64 -147zM1276 1176q0 84 -27 118t-92 66l10 53h508l-10 -53q-72 -29 -110 -61q-86 -72 -138 -347
l-106 -555q-39 -203 -203 -315t-400 -113t-384 103q-150 104 -150 299q0 43 10 100l125 653q13 62 13 108t-25 74t-88 54l10 53h600l-10 -53q-100 -35 -135 -79t-58 -157l-141 -739q-6 -29 -6 -55q0 -94 68 -148t217 -55q149 0 258 75q108 75 135 216l102 534q27 140 27 224
z" />
    <glyph glyph-name="uring" unicode="&#x16f;" horiz-adv-x="1169" 
d="M799 1243q49 0 84 37t35 86t-35 86t-84 37t-84 -37t-35 -86t35 -86t84 -37zM1012 1366q0 -86 -64 -147t-149 -61t-149 60q-64 62 -64 148t63 147t149 61t150 -60q64 -62 64 -148zM780 -25q-129 0 -139 156h-10q-92 -82 -164 -119t-148 -37q-111 0 -167 71t-56 181
q0 55 13 111l98 424q8 33 8 65q0 113 -172 -8l-12 53q59 72 151 136t180 63q143 0 144 -182q0 -53 -17 -135l-94 -435q-8 -35 -8 -69q0 -102 84 -102t172 67q4 49 10 78l146 751h286l-149 -759q-6 -37 -6 -64q0 -55 43 -55t133 63l12 -53q-57 -72 -153 -136t-185 -65z" />
    <glyph glyph-name="Uhungarumlaut" unicode="&#x170;" horiz-adv-x="1570" 
d="M1022 1532h-100l84 250h206zM758 1532h-101l84 250h207zM1276 1176q0 84 -27 118t-92 66l10 53h508l-10 -53q-72 -29 -110 -61q-86 -72 -138 -347l-106 -555q-39 -203 -203 -315t-400 -113t-384 103q-150 104 -150 299q0 43 10 100l125 653q13 62 13 108t-25 74t-88 54
l10 53h600l-10 -53q-100 -35 -135 -79t-58 -157l-141 -739q-6 -29 -6 -55q0 -94 68 -148t217 -55q149 0 258 75q108 75 135 216l102 534q27 140 27 224z" />
    <glyph glyph-name="uhungarumlaut" unicode="&#x171;" horiz-adv-x="1169" 
d="M848 1163h-100l83 250h207zM584 1163h-101l84 250h207zM780 -25q-129 0 -139 156h-10q-92 -82 -164 -119t-148 -37q-111 0 -167 71t-56 181q0 55 13 111l98 424q8 33 8 65q0 113 -172 -8l-12 53q59 72 151 136t180 63q143 0 144 -182q0 -53 -17 -135l-94 -435
q-8 -35 -8 -69q0 -102 84 -102t172 67q4 49 10 78l146 751h286l-149 -759q-6 -37 -6 -64q0 -55 43 -55t133 63l12 -53q-57 -72 -153 -136t-185 -65z" />
    <glyph glyph-name="Uogonek" unicode="&#x172;" horiz-adv-x="1540" 
d="M600 -428q-82 0 -120 36q-36 36 -36 87q0 125 263 274h-15q-218 -1 -368 103t-150 299q0 43 10 100l125 653q13 62 13 108t-25 74t-88 54l10 53h600l-10 -53q-100 -35 -135 -79t-58 -157l-141 -739q-6 -29 -6 -55q0 -94 68 -148t217 -55q149 0 258 75t135 216l102 534
q27 140 27 224t-27 118t-92 66l10 53h508l-10 -53q-72 -29 -110 -61q-86 -72 -138 -347l-106 -555q-35 -179 -168 -289t-342 -133q-55 -57 -82 -87t-59 -82t-31 -91q0 -53 65 -53q33 0 66 16l10 -45q-88 -61 -170 -61z" />
    <glyph glyph-name="uogonek" unicode="&#x173;" horiz-adv-x="1169" 
d="M892 -428q-83 0 -119 36t-36 87q0 94 185 319q-78 -39 -138 -39q-133 0 -143 156h-10q-92 -82 -164 -119t-148 -37q-111 0 -167 71t-56 181q0 55 13 111l98 424q8 33 8 65q0 113 -172 -8l-12 53q59 72 151 136t180 63q143 0 144 -182q0 -53 -17 -135l-94 -435
q-8 -35 -8 -69q0 -102 84 -102t172 67q4 49 10 78l146 751h286l-149 -759q-6 -37 -6 -64q0 -55 43 -55t133 63l12 -53q-70 -88 -133 -238t-63 -219q0 -53 65 -53q33 1 66 17l10 -50q-88 -61 -171 -61z" />
    <glyph glyph-name="Wcircumflex" unicode="&#x174;" horiz-adv-x="2123" 
d="M1513 1532h-77l-162 108l-238 -108h-78l261 278h153zM604 1161q0 -88 8 -243l31 -687l301 635q121 256 121 371q0 55 -29 80t-86 43l11 53h575l-10 -53q-170 -47 -158 -256l51 -858l305 620q125 260 125 371q0 55 -27 81q-28 26 -83 42l10 53h545l-10 -53
q-82 -29 -174 -138q-91 -110 -224 -374l-426 -848h-301l-63 838l-406 -838h-319l-64 866q-18 266 -49 368t-88 128l10 51h559l-10 -51q-81 -20 -103 -66t-22 -135z" />
    <glyph glyph-name="wcircumflex" unicode="&#x175;" horiz-adv-x="1665" 
d="M1255 1163h-77l-162 109l-238 -109h-78l261 279h153zM702 180h-12q-59 -82 -149 -144q-91 -62 -193 -62t-173 50t-71 156q0 37 11 99l94 485q8 45 8 61q0 53 -43 53t-131 -61l-12 53q59 72 151 136t180 63q143 0 144 -186q0 -61 -14 -131l-84 -433q-16 -84 4 -129t69 -45
q88 -1 163 135t114 355l63 356h285l-125 -672q-6 -31 -6 -75t31 -71q31 -28 75 -28q82 0 172 108t146 244q55 137 55 209t-10 99q-27 -14 -74 -14q-47 -1 -86 35t-39 98t42 103q42 42 125 42t141 -75q59 -76 59 -234t-91 -344t-250 -314t-331 -129q-118 1 -178 59t-60 148z
" />
    <glyph glyph-name="Ycircumflex" unicode="&#x176;" horiz-adv-x="1286" 
d="M1077 1532h-78l-161 108l-238 -108h-78l260 278h154zM639 1240q0 -44 37 -212l67 -289l181 308q108 186 108 226t-24 55q-25 15 -82 32l10 53h518l-10 -53q-186 -53 -371 -350l-268 -432l-57 -306q-12 -61 -12 -102t24 -65q25 -24 94 -52l-10 -53h-598l8 53q94 33 131 77
t55 142l58 303l-117 437q-45 168 -95 240t-124 112l10 49h596l-10 -53q-37 -8 -59 -19q-60 -27 -60 -101z" />
    <glyph glyph-name="ycircumflex" unicode="&#x177;" horiz-adv-x="1044" 
d="M971 1163h-78l-162 109l-237 -109h-78l260 279h153zM365 1069q49 1 81 -23t58 -85q66 -164 125 -682q217 369 229 507q-63 0 -117 36q-53 36 -53 104t46 106t118 37q72 0 118 -54t46 -128q0 -115 -110 -332t-281 -468t-347 -410t-298 -158q-68 0 -121 44q-53 45 -53 113
t42 112t102 44t103 -35t49 -108q70 27 131 90t164 205q-94 897 -260 897q-31 -1 -119 -52l-20 48q60 68 164 130t203 62z" />
    <glyph glyph-name="Ydieresis" unicode="&#x178;" horiz-adv-x="1286" 
d="M1163 1677q0 -57 -41 -97t-98 -40t-97 40t-40 97t40 97t97 41q57 -1 98 -41t41 -97zM819 1677q0 -57 -41 -97t-98 -40t-97 40t-40 97t40 97t97 41q57 -1 98 -41t41 -97zM639 1240q0 -44 37 -212l67 -289l181 308q108 186 108 226t-24 55q-25 15 -82 32l10 53h518l-10 -53
q-186 -53 -371 -350l-268 -432l-57 -306q-12 -61 -12 -102t24 -65q25 -24 94 -52l-10 -53h-598l8 53q94 33 131 77t55 142l58 303l-117 437q-45 168 -95 240t-124 112l10 49h596l-10 -53q-37 -8 -59 -19q-60 -27 -60 -101z" />
    <glyph glyph-name="Zacute" unicode="&#x179;" horiz-adv-x="1210" 
d="M983 1675l-428 -153l-29 49l353 291zM610 1280q-112 0 -156 -23t-216 -159h-70l102 315h975l-6 -33l-891 -1247h197q83 0 115 2t86 34t97 74q42 42 148 154h78l-115 -397h-1017l6 33l893 1247h-226z" />
    <glyph glyph-name="zacute" unicode="&#x17a;" horiz-adv-x="983" 
d="M909 1307l-428 -154l-28 49l352 291zM-49 0v8l686 807h-266q-98 0 -127 -9t-80 -56h-51l63 294h813v-8l-678 -813h76q330 3 395 46q33 22 80 83h68q-14 -28 -51 -136t-75 -172t-85 -64t-333 10t-435 10z" />
    <glyph glyph-name="Zdotaccent" unicode="&#x17b;" horiz-adv-x="1210" 
d="M879 1677q0 -63 -46 -108q-45 -45 -109 -45t-110 45q-45 45 -45 108t45 109q44 46 108 45q64 0 111 -45q46 -46 46 -109zM610 1280q-112 0 -156 -23t-216 -159h-70l102 315h975l-6 -33l-891 -1247h197q83 0 115 2t86 34t97 74q42 42 148 154h78l-115 -397h-1017l6 33
l893 1247h-226z" />
    <glyph glyph-name="zdotaccent" unicode="&#x17c;" horiz-adv-x="983" 
d="M805 1309q0 -63 -46 -109q-45 -46 -109 -45q-64 0 -109 45q-45 44 -45 108t45 109t108 45t109 -45t47 -108zM-49 0v8l686 807h-266q-98 0 -127 -9t-80 -56h-51l63 294h813v-8l-678 -813h76q330 3 395 46q33 22 80 83h68q-14 -28 -51 -136t-75 -172t-85 -64t-333 10
t-435 10z" />
    <glyph glyph-name="Zcaron" unicode="&#x17d;" horiz-adv-x="1210" 
d="M772 1532h-154l-141 278h78l162 -108l237 108h78zM610 1280q-112 0 -156 -23t-216 -159h-70l102 315h975l-6 -33l-891 -1247h197q83 0 115 2t86 34t97 74q42 42 148 154h78l-115 -397h-1017l6 33l893 1247h-226z" />
    <glyph glyph-name="zcaron" unicode="&#x17e;" horiz-adv-x="983" 
d="M698 1163h-153l-142 279h78l162 -109l238 109h77zM-49 0v8l686 807h-266q-98 0 -127 -9t-80 -56h-51l63 294h813v-8l-678 -813h76q330 3 395 46q33 22 80 83h68q-14 -28 -51 -136t-75 -172t-85 -64t-333 10t-435 10z" />
    <glyph glyph-name="longs" unicode="&#x17f;" horiz-adv-x="638" 
d="M756 1544q115 0 178 -46t63 -119t-43 -111t-101 -39q-58 0 -97 32q-39 31 -39 91t71 110h-30q-80 0 -128 -68t-77 -229l-203 -1165q-18 -109 -74 -198t-134 -144q-145 -104 -279 -139v49q137 70 184 362l166 969h-129l51 145h103l16 93q35 199 179 303t323 104z" />
    <glyph glyph-name="uni0180" unicode="&#x180;" horiz-adv-x="1148" 
d="M616 881q-68 0 -133 -37l-137 -705q43 -27 98 -26q133 0 240 153q106 154 107 346q1 133 -53 201t-122 68zM270 1321q0 37 -24 54q-25 17 -101 40l9 45q242 18 417 84h43l-51 -274h293l-16 -88h-293l-47 -252q119 139 288 139q134 0 222 -99t88 -286q0 -369 -339 -591
q-183 -118 -353 -118q-76 -1 -194 25t-177 49l219 1133h-152l17 88h149q2 14 2 51z" />
    <glyph glyph-name="uni0181" unicode="&#x181;" horiz-adv-x="1253" 
d="M20 1108q-44 0 -74 33t-30 86q0 84 75 135t216 51h553q203 0 338 -84t135 -246q0 -211 -246 -306q-61 -24 -129 -34v-4q140 -20 236 -106q96 -85 96 -203t-62 -200q-112 -150 -384 -205q-119 -25 -246 -25h-564l11 51q100 27 140 73t62 165l170 885q31 164 -108 163
q-86 0 -86 -47l14 -88q0 -42 -36 -68q-37 -26 -81 -26zM516 121q141 0 247 82q105 82 105 209q0 126 -76 192t-186 66h-78l-104 -549h92zM608 782q131 0 225 88q93 88 93 202t-58 166q-58 54 -176 54h-45l-96 -510h57z" />
    <glyph glyph-name="uni0182" unicode="&#x182;" horiz-adv-x="1259" 
d="M553 121q147 0 243 102q95 102 95 266q0 97 -58 159t-190 63h-88l-104 -590h102zM565 0h-588l9 53q102 37 134 72t52 143l154 873q10 61 10 101t-26 65t-95 53l8 53h983l-57 -303h-66q-80 137 -116 160q-37 23 -176 22h-132l-84 -458h130q233 0 358 -85t125 -253
q0 -244 -176 -370t-447 -126z" />
    <glyph glyph-name="uni0183" unicode="&#x183;" horiz-adv-x="1148" 
d="M616 881q-68 0 -133 -37l-137 -705q43 -27 98 -26q133 0 240 153q106 154 107 346q1 133 -53 201t-122 68zM256 1242q0 40 -26 65t-95 53l8 53h971l-57 -303h-66q-80 137 -117 160t-176 22h-131l-69 -362q119 139 290 139q134 0 222 -99t88 -286q0 -369 -339 -591
q-183 -118 -353 -118q-76 -1 -194 25t-177 49l211 1092q10 61 10 101z" />
    <glyph glyph-name="uni0184" unicode="&#x184;" horiz-adv-x="1259" 
d="M553 121q147 0 243 102q95 102 95 266q0 97 -58 159t-190 63h-88l-104 -590h102zM565 0h-588l9 53q102 37 134 72t52 143l121 682l-166 137l8 56l490 270h55l-105 -579h130q233 0 358 -85t125 -253q0 -244 -176 -370t-447 -126z" />
    <glyph glyph-name="uni0185" unicode="&#x185;" horiz-adv-x="1148" 
d="M788 1069q134 0 222 -99t88 -286q0 -369 -339 -591q-183 -118 -353 -118q-76 -1 -194 25t-177 49l174 901l-166 137l8 56l486 270h55l-94 -483q119 139 290 139zM616 881q-68 0 -133 -37l-137 -705q43 -27 98 -26q133 0 240 153q106 154 107 346q1 133 -53 201t-122 68z
" />
    <glyph glyph-name="uni0186" unicode="&#x186;" horiz-adv-x="1419" 
d="M492 88q143 0 258 75q207 135 287 449q36 137 36 275q0 434 -356 434q-115 0 -213 -59t-217 -215h-88l86 303q78 40 212 66t259 26q293 0 467 -156t174 -452q0 -207 -89 -377q-90 -169 -230 -273t-301 -159t-299 -55t-290 26q-152 28 -213 59l62 320h86
q100 -287 369 -287z" />
    <glyph glyph-name="uni0187" unicode="&#x187;" horiz-adv-x="1425" 
d="M770 -31q-298 0 -490 169t-192 462q0 238 131 432t348 302t467 108q70 0 170 -18t111 -19q43 0 55 57l10 47q63 289 308 289q96 0 147 -47t51 -117t-38 -108t-89 -37q-51 -1 -75 25q-45 48 -5 121q18 34 19 46q0 29 -45 29q-117 0 -160 -225l-84 -428h-80
q-49 143 -125 205t-212 61q-136 0 -252 -72q-209 -130 -290 -436q-36 -133 -36 -266q0 -221 108 -340t293 -119q248 0 426 295h88l-90 -324q-82 -39 -215 -65t-254 -27z" />
    <glyph glyph-name="uni0188" unicode="&#x188;" horiz-adv-x="921" 
d="M384 -25q-144 0 -239 114q-94 114 -94 288t75 331t211 259t298 102q61 0 106 -14l21 98q32 153 102 221t176 68t164 -48q60 -48 60 -117t-38 -107t-89 -38t-75 26t-24 57t18 65t19 45q0 29 -45 29q-113 0 -156 -226l-26 -129q63 -57 63 -135t-51 -124q-52 -46 -114 -46
t-104 39t-42 105t78 131q-25 6 -45 6q-80 0 -148 -82q-69 -82 -103 -198q-34 -115 -34 -241t58 -196t152 -70q95 0 228 99l33 -54q-57 -88 -174 -173t-261 -85z" />
    <glyph glyph-name="uni0189" unicode="&#x189;" horiz-adv-x="1583" 
d="M604 121q182 0 326 102q143 102 217 262q74 159 74 353t-118 324t-317 130h-131l-96 -501h219l-24 -117h-217l-105 -553h172zM586 0h-631l10 53q94 33 132 77t57 142l75 402h-131l25 117h129l67 354q13 59 13 100t-25 64t-92 51l10 53h588q326 0 532 -163t205 -431
q0 -240 -138 -430q-138 -189 -357 -289t-469 -100z" />
    <glyph glyph-name="uni018A" unicode="&#x18a;" horiz-adv-x="1583" 
d="M596 121q274 0 445 204t171 490q0 215 -116 346q-117 131 -318 131h-131l-223 -1171h172zM20 1108q-44 0 -74 33t-30 86q0 84 75 135t216 51h598q329 0 533 -163t204 -445q0 -236 -138 -423q-138 -186 -356 -284t-470 -98h-631l10 53q94 33 132 77t56 142l172 902
q31 164 -108 163q-86 0 -86 -47l14 -88q0 -42 -36 -68q-37 -26 -81 -26z" />
    <glyph glyph-name="uni018B" unicode="&#x18b;" horiz-adv-x="1234" 
d="M686 711q-172 1 -259 -105t-87 -258q0 -94 52 -161t167 -66h96l113 590h-82zM506 0q-231 0 -351 97t-120 253q0 246 170 365t454 119h134l86 458h-177q-141 0 -186 -22t-176 -160h-64l60 303h1022l-10 -53q-102 -35 -136 -72t-53 -147l-168 -873q-12 -59 -12 -100t25 -64
t94 -51l-11 -53h-581z" />
    <glyph glyph-name="uni018C" unicode="&#x18c;" horiz-adv-x="1155" 
d="M664 950q-119 0 -214 -166t-96 -370q0 -117 35 -182q35 -64 98 -64t144 68l26 20l127 649q-53 45 -120 45zM793 -25q-133 0 -134 191h-12q-88 -92 -161 -141t-154 -50q-117 1 -199 103t-82 274q0 283 210 500t437 217q57 0 115 -14l45 237h-178q-139 0 -185 -22
t-178 -160h-63l59 303h996l-11 -53q-102 -35 -135 -72t-53 -147l-164 -848q-8 -49 -8 -68q0 -59 44 -59t134 63l12 -53q-59 -72 -154 -136t-181 -65z" />
    <glyph glyph-name="uni018D" unicode="&#x18d;" horiz-adv-x="1169" 
d="M752 -193q0 -121 -102 -195t-244 -73q-142 0 -227 49t-85 125q0 51 34 81t78 30q73 0 141 -95q69 -96 152 -96q46 0 87 36t41 99t-68 103q-27 16 -101 54q-238 123 -327 237q-37 47 -62 116q-26 69 -26 144q0 174 97 327q96 153 244 237t318 83q170 0 294 -119t124 -288
q0 -243 -258 -433q-136 -99 -303 -157q23 -25 67 -66q44 -42 66 -64q60 -64 60 -135zM819 721q0 113 -44 171q-45 58 -115 58t-130 -56t-93 -139q-68 -166 -68 -317t129 -303q131 76 226 221t95 365z" />
    <glyph glyph-name="uni018E" unicode="&#x18e;" horiz-adv-x="1163" 
d="M438 121h146l104 547h-166q-70 0 -112 -27t-111 -111h-53l76 396h53q35 -86 69 -115t101 -29h166q54 263 96 510h-145q-111 0 -154 -24t-172 -158h-64l60 303h952l-10 -53q-96 -31 -130 -66t-54 -129l-175 -913q-10 -47 -10 -96t47 -72q18 -8 74 -31l-10 -53h-1006
l21 336h65q82 -117 115 -152t78 -49t149 -14z" />
    <glyph glyph-name="uni018F" unicode="&#x18f;" horiz-adv-x="1488" 
d="M649 82q266 0 392 275q54 116 89 286l-724 -29q-18 -94 -19 -180q0 -162 67 -257t195 -95zM1151 850q0 395 -426 395q-307 0 -483 -131l-35 37q346 291 647 291q238 0 414 -156t176 -418q0 -208 -106 -414t-298 -345t-404 -139t-362 138q-150 140 -149 392q0 113 33 231
h985q8 57 8 119z" />
    <glyph glyph-name="uni0190" unicode="&#x190;" horiz-adv-x="1310" 
d="M863 1323q-124 0 -207 -83q-83 -84 -83 -198q-1 -114 59 -176t177 -63h98l-24 -119h-133q-184 0 -270 -95t-85 -227q0 -132 77 -202t201 -70t222 70q-25 88 -25 123q0 203 199 202q74 0 120 -48t46 -115q-1 -152 -191 -252t-444 -100t-397 104q-143 106 -144 272
q0 125 78 222q78 98 182 142t207 46l2 12q-145 35 -212 118t-66 177q0 166 180 272t469 107q111 0 242 -27t194 -59l-57 -299h-86q-49 143 -127 205t-202 61z" />
    <glyph glyph-name="uni0191" unicode="&#x191;" horiz-adv-x="1120" 
d="M-43 -416q55 0 70 80l280 1460q12 62 12 108t-24 74q-25 28 -88 54l10 53h981l-57 -303h-66q-76 135 -114 159q-39 24 -179 23h-135l-100 -530h198q72 0 115 29t113 116h53l-76 -401h-51q-39 86 -72 114t-104 27h-201l-139 -717q-80 -412 -416 -411q-115 0 -173 46
q-58 45 -58 107t31 96t77 34t67 -24q22 -24 21 -57l-20 -94q0 -43 45 -43z" />
    <glyph glyph-name="florin" unicode="&#x192;" horiz-adv-x="1167" 
d="M1276 1249q0 -80 -41 -127t-97 -47t-95 34q-38 34 -37 91q0 102 96 152q-27 8 -58 8q-92 -2 -145 -84t-86 -248l-51 -258h211l-27 -133h-209l-139 -715q-39 -199 -174 -301t-315 -102q-96 0 -167 58q-71 57 -71 139t41 126t97 43q56 0 94 -35t38 -94q0 -100 -96 -147
q27 -8 57 -8q88 1 128 77t75 254l137 705h-192l51 133h166l53 268q37 197 180 300t318 104q106 0 182 -56t76 -137z" />
    <glyph glyph-name="uni0193" unicode="&#x193;" horiz-adv-x="1513" 
d="M1047 1442q69 0 181 -18t122 -19q43 0 55 57l10 47q63 289 307 289q96 0 148 -47t51 -117q0 -70 -38 -108t-88 -37q-50 -1 -75 25q-46 47 -6 121q18 34 19 46q0 29 -45 29q-117 0 -160 -225l-84 -428h-80q-90 264 -356 264q-178 0 -316 -118t-207 -288q-67 -169 -67 -371
t104 -322t275 -120q96 0 202 31l58 305q10 55 10 91q0 73 -113 120l11 56h544l-10 -56q-81 -35 -107 -67t-46 -142l-72 -374q-283 -96 -518 -97q-289 0 -477 166t-189 455q0 358 283 605t674 247z" />
    <glyph glyph-name="uni0194" unicode="&#x194;" horiz-adv-x="1454" 
d="M465 -481q-125 0 -184 47t-60 125q0 111 203 368l63 80q-29 135 -86 419t-93 452t-75 244q-39 77 -98 106l12 53h586l-10 -53q-70 -16 -105 -52q-34 -36 -34 -120t43 -281l98 -467l291 420q215 311 215 410q0 39 -27 56t-86 34l10 53h521l-11 -53q-84 -29 -162 -119
t-298 -395l-416 -574l57 -266q14 -76 15 -123q0 -164 -94 -264t-275 -100zM360 -276q0 -47 26 -76t71 -29t75 35t31 82q0 47 -4 65l-43 199q-156 -199 -156 -276z" />
    <glyph glyph-name="uni0195" unicode="&#x195;" horiz-adv-x="1730" 
d="M664 897q-70 0 -164 -66l-162 -831h-287l234 1204q12 68 12 111t-25 60t-100 40l8 45q242 18 418 84h37l-117 -616q168 141 290 141t177 -72t55 -182q0 -53 -12 -108l-92 -396q-27 -106 -1 -157q26 -52 123 -52t125 50t44 135l98 508q13 76 11 110t-49 61q-13 7 -52 25
l10 53h541l-10 -53q-96 -39 -122 -65t-46 -131l-97 -498q-61 -319 -495 -320q-219 0 -308 82t-57 238l90 428q8 35 9 70q0 102 -86 102z" />
    <glyph glyph-name="uni0196" unicode="&#x196;" horiz-adv-x="598" 
d="M285 -29q-260 0 -205 299l178 934q14 76 14 113t-21 53q-22 16 -95 41l10 51q223 16 426 82h22l-235 -1233q-16 -82 -17 -118q0 -66 48 -66q57 0 104 147h84q-27 -133 -114 -218t-199 -85z" />
    <glyph glyph-name="uni0197" unicode="&#x197;" horiz-adv-x="698" 
d="M555 0h-606l10 53q96 35 134 77t57 138l73 396h-170l23 118h170l69 363q13 77 13 109t-25 55t-94 51l10 53h604l-10 -53q-96 -33 -135 -78t-55 -137l-70 -363h195l-23 -118h-195l-73 -396q-13 -59 -13 -100t25 -64t94 -51z" />
    <glyph glyph-name="uni0198" unicode="&#x198;" horiz-adv-x="1454" 
d="M822 1126q-126 0 -126 116q0 60 72 118h-8q-57 0 -91 -45t-57 -170l-84 -481l410 403q143 137 143 209q0 35 -13 51t-60 33l10 53h565l-10 -53q-121 -43 -201 -96t-244 -205l-208 -195l233 -545q53 -123 99 -176t128 -90l-10 -53h-637l10 55q61 11 88 27t27 65t-51 175
l-129 319l-191 -176l-34 -197q-13 -70 -13 -106t25 -58q25 -23 94 -51l-8 -53h-606l10 53q96 35 134 77t56 138l162 848q61 326 445 326q219 0 219 -158q0 -80 -45 -119q-44 -39 -104 -39z" />
    <glyph glyph-name="uni0199" unicode="&#x199;" horiz-adv-x="1095" 
d="M745 -27q-72 -1 -128 49t-76 160l-70 355q195 137 348 276q-55 51 -55 111t45 103q45 42 105 42t104 -39t45 -102q0 -64 -43 -110q-42 -46 -104 -91t-72 -52t-19 -13l-92 -68l90 -322q29 -110 99 -108q53 0 110 47l27 -39q-168 -199 -314 -199zM971 1376q0 -74 -46 -112
q-45 -38 -103 -39t-93 31t-35 81q0 80 74 125h-45q-55 0 -89 -43t-59 -172l-241 -1247h-291l236 1219q61 326 415 325q137 0 207 -47t70 -121z" />
    <glyph glyph-name="uni019A" unicode="&#x19a;" horiz-adv-x="598" 
d="M211 -27q-143 0 -143 187q0 61 14 131l72 375h-146l21 118h149l82 420q12 68 12 111t-24 60q-25 17 -101 40l9 45q256 20 430 84h37l-150 -760h156l-23 -118h-157l-74 -383q-8 -35 -8 -64q0 -55 42 -55t130 61l12 -53q-57 -70 -155 -134t-185 -65z" />
    <glyph glyph-name="uni019B" unicode="&#x19b;" horiz-adv-x="1019" 
d="M425 1544q98 0 154 -60t83 -196l165 160v-133l-143 -139q10 -54 32 -188t34 -197l65 -326q33 -163 51 -233t50 -97t100 -26h39v-52q-39 -31 -97 -55t-104 -25q-90 1 -128 49t-46 150t0 309t2 275l-330 -594q-45 -70 -82 -166h-344l699 1075l-9 35l-383 -373v135l351 340
l-23 39l-205 -24q-72 0 -118 56q-46 57 -34 119q11 62 67 102t154 40z" />
    <glyph glyph-name="uni019C" unicode="&#x19c;" horiz-adv-x="1896" 
d="M461 279q0 -129 134 -129q68 0 157 43q-4 61 12 145q170 858 170 908t-20 68t-74 46l10 53h545l-11 -53q-82 -33 -110 -68t-47 -129l-162 -839q-4 -18 -4 -50q0 -125 115 -124q84 0 161 40h-2l185 973q12 61 12 103t-37 64q-14 9 -55 30l10 53h543l-11 -53
q-80 -35 -108 -70t-47 -127l-162 -837q-12 -64 -12 -106t22 -62t90 -49l-8 -52q-238 -16 -436 -82h-25l31 148q-188 -145 -330 -146q-207 0 -241 162q-68 -59 -172 -111t-202 -52t-164 62q-67 62 -66 191q0 59 8 101q171 885 171 927q1 42 -17 58t-74 45l10 53h543l-11 -53
q-80 -35 -108 -70t-47 -127l-162 -839q-4 -33 -4 -45z" />
    <glyph glyph-name="uni019D" unicode="&#x19d;" horiz-adv-x="1636" 
d="M-166 -481q-109 0 -157 44t-48 93t31 90t83 41q88 0 120 -58q31 -58 80 -59q90 0 129 199l250 1290q2 12 2 29q0 119 -146 172l10 53h486l577 -989l99 528q30 160 30 234t-24 110t-88 64l10 53h489l-8 -53q-73 -29 -109 -61q-78 -70 -128 -347l-183 -962h-184l-672 1143
l-245 -1264q-33 -162 -144 -256t-260 -94z" />
    <glyph glyph-name="uni019E" unicode="&#x19e;" horiz-adv-x="1132" 
d="M668 897q-70 0 -162 -70q-2 -29 -10 -75l-146 -752h-287l150 760q25 119 -33 119q-49 0 -141 -66l-12 53q57 70 155 136t183 67q127 0 139 -158h10q172 158 311 158q97 0 155 -54q100 -92 60 -308l-235 -1170h-283l232 1188q35 172 -86 172z" />
    <glyph glyph-name="uni019F" unicode="&#x19f;" horiz-adv-x="1669" 
d="M1309 881q0 203 -89 323t-260 119q-172 0 -306 -156t-195 -381h844q6 49 6 95zM420 514q0 -196 92 -310t254 -114q197 0 331 166t185 401h-852q-10 -86 -10 -143zM1630 815q0 -225 -123 -422t-327 -311t-432 -113q-279 0 -463 166t-185 447q0 227 122 427
q122 201 325 317t430 116q279 0 466 -172t187 -455z" />
    <glyph glyph-name="Ohorn" unicode="&#x1a0;" horiz-adv-x="1669" 
d="M764 90q129 0 235 77t172 198q136 249 136 516q0 203 -89 323t-252 119q-163 0 -294 -138q-130 -137 -192 -319t-62 -366t92 -296q92 -114 254 -114zM1393 1329h-29q123 -82 194 -214t70 -300q0 -225 -123 -422t-327 -311t-433 -113q-279 0 -463 166t-184 449
q0 227 122 426q122 200 325 316t430 116q100 0 235 -14t179 -15q174 0 174 88q0 23 -23 59q-22 36 -22 76t38 70q40 29 94 29t99 -38t45 -114q0 -127 -116 -191t-285 -63z" />
    <glyph glyph-name="ohorn" unicode="&#x1a1;" horiz-adv-x="1112" 
d="M477 94q94 0 165 115t95 273t25 261q0 207 -131 207q-94 0 -164 -114t-95 -281q-25 -166 -26 -254q0 -207 131 -207zM1061 655q0 -315 -225 -521q-174 -159 -364 -159t-306 117q-115 117 -115 309q0 314 227 512q177 156 377 156q55 0 132 -12q282 -44 282 60
q0 32 -22 71q-23 39 -23 79q0 39 37 69t90 30t101 -38t48 -116q0 -114 -103 -182t-259 -72q123 -119 123 -303z" />
    <glyph glyph-name="uni01A2" unicode="&#x1a2;" horiz-adv-x="1968" 
d="M1040 1323q-174 0 -316 -120t-218 -306t-76 -390t94 -309t273 -106q88 0 166 27l223 1173q-63 31 -146 31zM1673 1218q0 47 -24 66q-25 18 -90 19h-80l-224 -1180q-303 -154 -559 -154t-425 166q-167 166 -167 420q0 207 126 414t335 341t430 134q39 0 231 -25t267 -24
q348 0 475 47h45l-315 -1653q-10 -47 -10 -81t3 -47t19 -27t26 -18q10 -5 46 -24l-8 -53h-533l10 53q86 35 111 64t45 133l254 1319q12 63 12 110z" />
    <glyph glyph-name="uni01A3" unicode="&#x1a3;" horiz-adv-x="1570" 
d="M1196 830q0 36 -19 50t-65 15h-61l-74 -387q-47 -252 -202 -394t-335 -142t-283 130q-103 131 -104 314q1 240 183 446t397 207q57 0 220 -35t216 -35q219 0 416 68h57l-246 -1278q-12 -61 -12 -88t3 -40q5 -22 93 -69l-10 -53h-530l10 53q86 35 111 64t45 133l180 948
q10 57 10 93zM612 944q-92 0 -149 -124t-109 -394q-18 -92 -18 -164q0 -168 110 -168q66 0 104 34q75 67 150 458l58 297q-54 61 -146 61z" />
    <glyph glyph-name="uni01A4" unicode="&#x1a4;" horiz-adv-x="1234" 
d="M616 702q154 0 251 100t97 230q1 263 -241 260h-76l-112 -590h81zM20 1108q-44 0 -74 33t-30 86q0 84 75 135t216 51h551q258 0 384 -101t126 -280q0 -223 -178 -337t-465 -113h-113l-59 -310q-9 -42 -9 -88t31 -74t115 -57l-10 -53h-633l10 53q94 33 132 77t56 142
l172 902q31 164 -108 163q-86 0 -86 -47l14 -88q0 -42 -36 -68q-37 -26 -81 -26z" />
    <glyph glyph-name="uni01A5" unicode="&#x1a5;" horiz-adv-x="1132" 
d="M799 638q0 110 -51 176t-122 67q-71 0 -132 -45l-134 -691q47 -33 101 -32q102 0 183 91t118 207q37 117 37 227zM969 1376q0 -74 -46 -112q-45 -38 -103 -39t-93 31t-35 81q0 80 74 125h-45q-55 0 -89 -43t-59 -172l-63 -321q140 143 286 143t228 -97t82 -274
q0 -128 -45 -244t-117 -201q-154 -182 -343 -246q-91 -32 -151 -32t-122 9l-37 -191q-17 -81 -17 -109t23 -48t88 -48l-8 -49h-524l10 49q71 35 97 72t44 133l275 1426q61 326 413 325q137 0 207 -47t70 -121z" />
    <glyph glyph-name="uni01A6" unicode="&#x1a6;" horiz-adv-x="1316" 
d="M553 504q360 0 360 293q0 92 -56 144t-142 52h-125l-94 -489h57zM1042 -225q-188 0 -240 28q-15 8 -37 37t-32 55t-33 82l-163 412h-64l-20 -117q-13 -78 -13 -110t25 -57q25 -24 94 -52l-8 -53h-602l10 53q100 35 133 73t53 146l166 873q13 59 13 100t-25 64t-94 51
l10 53h604l-10 -53q-104 -37 -137 -72t-54 -143l-6 -31h123q238 0 364 -80t126 -227q0 -213 -195 -299q-57 -27 -201 -64l213 -438q43 -92 80 -127t105 -51l-10 -53h-175z" />
    <glyph glyph-name="uni01A7" unicode="&#x1a7;" horiz-adv-x="1046" 
d="M449 -31q-190 0 -302 94q-111 93 -111 237t80 256t192 186t224 139q270 159 271 303q0 61 -38 100t-114 39q-75 0 -145 -48t-170 -175h-88l49 258q213 84 371 84t270 -91q113 -91 113 -229t-79 -245q-79 -105 -192 -179q-112 -74 -224 -140q-268 -158 -269 -312
q0 -68 46 -112t131 -44t167 71t198 230h89l-64 -328q-80 -41 -195 -67t-210 -27z" />
    <glyph glyph-name="uni01A8" unicode="&#x1a8;" horiz-adv-x="856" 
d="M500 1069q154 0 248 -78q92 -77 92 -193t-62 -198t-151 -127q-88 -45 -177 -84q-214 -95 -214 -191q0 -104 129 -104q152 0 321 221h76l-66 -280q-143 -59 -346 -60q-143 0 -240 76q-98 76 -98 198t64 207t154 132t182 85t155 83t63 94t-33 75q-34 26 -83 25
q-113 0 -272 -166h-66l47 240q123 45 277 45z" />
    <glyph glyph-name="uni01A9" unicode="&#x1a9;" horiz-adv-x="1167" 
d="M-70 0v8l664 672l-389 723l2 10h1032l-57 -289h-56q-55 123 -84 146t-135 22h-323l266 -518l-2 -14l-541 -541h383q88 0 130 23t192 151h63l-131 -393h-1014z" />
    <glyph glyph-name="uni01AA" unicode="&#x1aa;" horiz-adv-x="1030" 
d="M464 1466q-52 0 -96 -38t-54 -93t19 -94q30 -39 81 -39t94 37t54 94t-17 95q-29 38 -81 38zM629 -399h39q-31 41 -31 105t45 98t99 34t92 -38t38 -93q0 -82 -85 -135t-234 -53q-319 0 -320 241q0 41 9 84l251 1323q-59 -41 -135 -41t-125 48t-49 132t78 161t218 77
t222 -83t82 -240q0 -68 -14 -146l-242 -1259q-14 -72 -14 -122t18 -72q19 -21 58 -21z" />
    <glyph glyph-name="uni01AB" unicode="&#x1ab;" horiz-adv-x="686" 
d="M219 -27q-150 0 -149 193q0 55 12 125l106 606l-108 8l14 78q98 37 155 94q56 57 130 172l33 51h133l-43 -256h239l-28 -155h-240l-108 -606q-6 -37 -7 -64q0 -55 39 -55q150 0 246 29l-65 -328q-32 -168 -130 -257t-243 -89q-92 0 -149 41q-56 41 -56 100t41 89t94 30
t87 -24t34 -70q0 -16 -11 -46t-12 -40q0 -23 41 -23q64 0 84 100l64 324q-100 -27 -203 -27z" />
    <glyph glyph-name="uni01AC" unicode="&#x1ac;" horiz-adv-x="1298" 
d="M247 1065q-46 0 -76 36t-30 91q0 90 79 156t257 65h918l-41 -303h-72l-33 57q-47 85 -82 105t-127 20h-98l-194 -1020q-12 -59 -12 -101t24 -66q25 -24 94 -52l-10 -53h-598l8 53q96 33 131 74t55 145l195 1020h-227q-70 0 -70 -55l16 -74q0 -43 -30 -71t-77 -27z" />
    <glyph glyph-name="uni01AD" unicode="&#x1ad;" horiz-adv-x="686" 
d="M219 -27q-150 0 -149 193q0 55 12 125l106 606l-108 8l14 78q68 25 123 68l33 168q61 326 412 325q136 0 206 -47t70 -121t-46 -112t-104 -39t-92 31q-35 32 -34 81q0 80 73 125h-45q-55 0 -88 -43t-59 -172l-41 -203h239l-28 -155h-240l-108 -606q-6 -37 -7 -64
q0 -55 39 -55q62 0 195 94l26 -47q-63 -78 -178 -158t-221 -80z" />
    <glyph glyph-name="uni01AE" unicode="&#x1ae;" horiz-adv-x="1298" 
d="M537 1292q-97 0 -133 -19t-117 -110l-49 -53h-84l75 303h1166l-41 -303h-72l-33 57q-47 85 -82 105t-127 20h-98l-317 -1628q-4 -25 -4 -31q0 -49 47 -49q59 0 67 70q8 61 16 86q17 61 93 61q36 1 60 -25t24 -63q0 -88 -73 -141t-183 -53q-317 0 -318 268q1 57 17 143
l266 1362h-100z" />
    <glyph glyph-name="Uhorn" unicode="&#x1af;" horiz-adv-x="1540" 
d="M1507 1413q127 0 125 70q0 33 -34 69t-34 79q0 42 33 73t91 31t107 -38q50 -38 50 -122q0 -160 -194 -221q-97 -31 -145 -109t-89 -293l-106 -555q-39 -203 -203 -315t-400 -113t-384 103q-150 104 -150 299q0 43 10 100l125 653q13 62 13 108t-25 74t-88 54l10 53h600
l-10 -53q-100 -35 -135 -79t-58 -157l-141 -739q-6 -29 -6 -55q0 -94 68 -148t217 -55q149 0 258 75q108 75 135 216l102 534q27 140 27 224t-27 118t-92 66l10 53h340z" />
    <glyph glyph-name="uhorn" unicode="&#x1b0;" horiz-adv-x="1169" 
d="M780 -25q-129 0 -139 156h-10q-92 -82 -164 -119t-148 -37q-111 0 -167 71t-56 181q0 55 13 111l98 424q8 33 8 65q0 113 -172 -8l-12 53q59 72 151 136t180 63q143 0 144 -182q0 -53 -17 -135l-94 -435q-8 -35 -8 -69q0 -102 84 -102t172 67q4 49 10 78l146 751h180
q139 0 139 76q0 27 -34 64q-34 36 -34 78t33 73t90 31t107 -38t51 -128t-71 -152t-191 -81l-133 -682q-6 -37 -6 -64q0 -55 43 -55t133 63l12 -53q-57 -72 -153 -136t-185 -65z" />
    <glyph glyph-name="uni01B1" unicode="&#x1b1;" horiz-adv-x="1656" 
d="M899 1413v-6q-197 -219 -341 -472t-144 -472q0 -164 97 -268t253 -105q248 0 383 171t135 466q0 170 -49 352t-121 326v8h574l-25 -354h-57q-37 102 -63 127t-99 24h-131q41 -81 180 -274q41 -57 74 -138t32 -159q1 -150 -81 -280q-147 -234 -487 -341q-148 -47 -288 -47
q-247 0 -447 152t-200 383q0 106 58 210t131 171q73 68 181 165t161 158h-131q-74 0 -107 -24t-111 -127h-57l107 354h573z" />
    <glyph glyph-name="uni01B2" unicode="&#x1b2;" horiz-adv-x="1306" 
d="M342 1245q0 41 -25 64t-94 51l10 53h605l-11 -53q-94 -33 -132 -77t-58 -138l-145 -758q-47 -252 124 -252q137 0 264 134q126 135 194 309t69 313q0 74 -25 127t-55 78q-80 65 -80 154q0 88 54 140q55 52 137 52t126 -58t46 -142q0 -86 -15 -187q-69 -492 -307 -788
t-520 -296q-139 0 -238 73q-98 73 -98 214q0 49 8 84l154 803q12 59 12 100z" />
    <glyph glyph-name="uni01B3" unicode="&#x1b3;" horiz-adv-x="1445" 
d="M399 1442q163 0 269 -92t141 -242l86 -367l170 287q119 201 119 254q0 31 -25 46t-82 32l10 53h510l-10 -53q-186 -53 -370 -350l-269 -432l-57 -306q-12 -61 -12 -102q1 -41 25 -65t93 -52l-10 -53h-598l8 53q94 33 131 77t56 142l57 303l-188 699q-23 84 -72 84
t-49 -55l4 -70q0 -43 -34 -65t-80 -22t-74 30q-28 29 -27 77q0 85 78 137t200 52z" />
    <glyph glyph-name="uni01B4" unicode="&#x1b4;" horiz-adv-x="1273" 
d="M1438 1544q70 0 110 -41t41 -105q0 -64 -44 -107q-44 -42 -109 -42q-102 0 -125 127q-88 -76 -176 -262l-478 -999q-211 -444 -534 -568q-169 -63 -264 16q-53 45 -53 113t42 112t102 44t103 -35t49 -108q56 25 96 47t103 77q63 56 119 136q-48 472 -155 761
q-62 171 -128 171q-31 0 -119 -52l-20 48q60 68 164 130t203 62q49 1 81 -23q105 -76 181 -700l383 805q109 225 207 309t221 84z" />
    <glyph glyph-name="uni01B5" unicode="&#x1b5;" horiz-adv-x="1138" 
d="M610 1280q-112 0 -156 -23t-216 -159h-70l102 315h975l-6 -33l-428 -598h272l-22 -118h-334l-379 -531h197q83 0 115 2t86 34t97 74q42 42 148 154h78l-115 -397h-1017l6 33l450 631h-317l22 118h381l357 498h-226z" />
    <glyph glyph-name="uni01B6" unicode="&#x1b6;" horiz-adv-x="962" 
d="M-49 0v8l387 457h-287l23 119h366l197 231h-266q-98 0 -127 -9t-80 -56h-51l63 294h813v-8l-379 -452h305l-22 -119h-381l-201 -242h76q330 3 395 46q33 22 80 83h68q-14 -28 -51 -136t-75 -172t-85 -64t-333 10t-435 10z" />
    <glyph glyph-name="uni01B7" unicode="&#x1b7;" horiz-adv-x="1071" 
d="M1016 513q0 -155 -106 -284t-258 -195q-154 -66 -306 -65q-152 0 -245 65t-93 149q0 83 49 135t122 52t118 -43q45 -44 45 -110q0 -104 -113 -149q31 -10 111 -11q150 1 254 103t104 241t-99 212t-232 85l-13 35l369 418h-514l49 262h832l-7 -33l-391 -428
q131 -37 228 -160q96 -124 96 -279z" />
    <glyph glyph-name="uni01B8" unicode="&#x1b8;" horiz-adv-x="1050" 
d="M307 310q0 -112 72 -180q72 -67 156 -67t159 21q-86 68 -86 136t44 114q44 45 122 45t124 -41t46 -115q0 -117 -120 -183t-281 -65q-205 0 -359 120t-153 315q0 403 497 548l-221 424l6 33h826l-49 -260h-506l200 -416l-24 -34q-163 -8 -299 -93q-154 -94 -154 -302z" />
    <glyph glyph-name="uni01B9" unicode="&#x1b9;" horiz-adv-x="923" 
d="M213 -80q0 -112 70 -170t170 -57q51 0 127 20q-86 69 -86 137t44 113t122 45t124 -41t45 -114q-1 -117 -111 -183t-269 -65q-207 -1 -360 111t-153 318t142 350q141 142 356 204l-221 424l6 32h785l-50 -260h-465l201 -415l-24 -35q-78 -4 -154 -30q-299 -103 -299 -384z
" />
    <glyph glyph-name="uni01BA" unicode="&#x1ba;" horiz-adv-x="909" 
d="M-92 -186q0 287 465 352q201 27 200 156q0 61 -73 87q-74 26 -254 25l6 33l287 317h-389l49 260h725l-6 -30l-439 -486q283 -27 283 -196q0 -94 -70 -150t-256 -96q-104 -22 -175 -94t-71 -162t48 -143t127 -54q124 1 245 105l41 -25q-145 -195 -403 -194q-147 0 -244 88
q-96 88 -96 207z" />
    <glyph glyph-name="uni01BB" unicode="&#x1bb;" horiz-adv-x="1107" 
d="M768 1058q0 110 -66 177q-66 65 -161 65t-172 -45q71 -6 111 -49q40 -44 40 -114t-51 -118t-120 -48t-118 45t-49 119q0 129 144 234q144 106 336 106t298 -92t107 -244q0 -152 -172 -324h223l-22 -119h-334q-35 -31 -140 -113t-171 -151l-119 -121h586l-82 -266h-863
l15 76l499 512q41 41 60 63h-477l22 119h551q125 178 125 288z" />
    <glyph glyph-name="uni01BC" unicode="&#x1bc;" horiz-adv-x="1107" 
d="M629 887q154 0 258 -110t104 -277q0 -225 -189 -378t-442 -153q-154 -1 -244 61t-91 150q0 88 52 136t121 48q68 0 114 -41q46 -42 46 -110q0 -98 -96 -145q61 -12 82 -13q131 0 239 119t107 291q0 129 -64 195t-169 67q-104 0 -228 -68l-26 17l149 469q26 80 18 120
q-8 41 -65 68q-20 10 -61 27l10 53h829l-51 -262h-551l-110 -344q152 80 258 80z" />
    <glyph glyph-name="uni01BD" unicode="&#x1bd;" horiz-adv-x="1011" 
d="M552 645q148 0 236 -81q90 -82 90 -196t-54 -192q-94 -133 -317 -185q-89 -22 -173 -22q-152 -1 -242 53t-90 137t48 125t114 42t107 -36q42 -36 42 -86q-1 -50 -27 -88t-61 -50q37 -12 121 -12t163 71q79 72 79 199q0 84 -56 131t-143 47q-86 0 -174 -47l-86 26l100 295
q36 101 1 143q-19 23 -47 37t-81 35v53h838l-43 -221h-522l-88 -241q117 63 265 63z" />
    <glyph glyph-name="uni01BE" unicode="&#x1be;" horiz-adv-x="841" 
d="M791 322q-1 -162 -131 -254t-282 -92t-251 62q-98 64 -98 161q0 63 42 100t100 37t96 -34t38 -89t-47 -98q48 -21 112 -21t109 32t45 86t-43 100t-101 83t-115 79q-56 42 -89 106t-18 141l30 176l-108 8l14 78q98 37 155 94q56 57 130 172l33 51h133l-43 -256h239
l-28 -155h-240l-20 -107q-14 -83 104 -153q51 -31 105 -67t91 -97q38 -61 38 -143z" />
    <glyph glyph-name="uni01BF" unicode="&#x1bf;" horiz-adv-x="1204" 
d="M870 700q0 98 -65 144q-67 45 -141 45t-156 -47h2l-152 -797q228 172 370 331t142 324zM207 823q0 43 -22 63t-91 48l10 51q225 16 426 82h25l-29 -139q174 141 346 141q134 0 220 -91t86 -235q0 -100 -41 -190t-101 -155q-60 -64 -153 -132q-94 -68 -268 -164t-275 -163
l-47 -244l-477 -156l12 68l31 14q81 39 115 77t46 103l175 916q12 63 12 106z" />
    <glyph glyph-name="clickdental" unicode="&#x1c0;" horiz-adv-x="561" 
d="M260 0h-145l282 1491h148z" />
    <glyph glyph-name="clicklateral" unicode="&#x1c1;" horiz-adv-x="999" 
d="M698 0h-145l283 1491h145zM260 0h-145l282 1491h148z" />
    <glyph glyph-name="uni01C2" unicode="&#x1c2;" horiz-adv-x="559" 
d="M354 0h-147l84 446h-197l25 132h196l37 196h-196l24 129h197l112 588h150l-113 -588h199l-25 -129h-198l-39 -196h199l-23 -132h-199z" />
    <glyph glyph-name="uni01C3" unicode="&#x1c3;" horiz-adv-x="624" 
d="M420 143q0 -71 -49 -119t-121 -48t-121 48q-49 50 -49 120t49 118q49 49 121 49t121 -49t49 -119zM344 436h-80q14 125 24 448q9 323 50 529h313q-41 -209 -157 -533t-150 -444z" />
    <glyph glyph-name="uni01C4" unicode="&#x1c4;" horiz-adv-x="2600" 
d="M2292 1532h-154l-141 278h78l161 -108l238 108h78zM2073 1280q-111 0 -156 -23t-217 -159h-70l103 315h974l-6 -33l-891 -1247h197q84 0 116 2t86 34t96 74t149 154h77l-114 -397h-1018l6 33l893 1247h-225zM596 121q274 0 445 204t171 490q0 215 -116 346
q-117 131 -318 131h-131l-223 -1171h172zM578 0h-631l10 53q94 33 132 77t56 142l166 873q13 59 13 100t-25 64t-92 51l10 53h588q329 0 533 -163t204 -445q0 -236 -138 -423q-138 -186 -356 -284t-470 -98z" />
    <glyph glyph-name="uni01C5" unicode="&#x1c5;" horiz-adv-x="2545" 
d="M2220 1163h-154l-141 279h78l162 -109l237 109h78zM1534 0v8l686 807h-266q-98 0 -127 -9t-80 -56h-51l63 294h813v-8l-678 -813h76q330 3 395 46q33 22 80 83h68q-14 -28 -51 -136t-75 -172t-85 -64t-333 10t-435 10zM596 121q274 0 445 204t171 490q0 215 -116 346
q-117 131 -318 131h-131l-223 -1171h172zM578 0h-631l10 53q94 33 132 77t56 142l166 873q13 59 13 100t-25 64t-92 51l10 53h588q329 0 533 -163t204 -445q0 -236 -138 -423q-138 -186 -356 -284t-470 -98z" />
    <glyph glyph-name="uni01C6" unicode="&#x1c6;" horiz-adv-x="2097" 
d="M1761 1163h-153l-142 279h78l162 -109l238 109h77zM1085 0v8l687 807h-267q-98 0 -127 -9t-80 -56h-51l64 294h813v-8l-678 -813h76q328 3 395 46q33 22 80 83h67q-14 -28 -51 -136t-75 -172t-85 -64t-333 10t-435 10zM664 950q-119 0 -214 -166t-96 -370q0 -117 35 -182
q35 -64 98 -64t144 68l26 20l127 649q-53 45 -120 45zM793 -25q-133 0 -134 191h-12q-88 -92 -161 -141t-154 -50q-117 1 -199 103t-82 274q0 283 210 500t437 217q57 0 115 -14l29 153q10 56 10 102t-24 64t-101 41l8 45q240 18 416 84h39l-244 -1251q-8 -49 -8 -68
q0 -59 44 -59t134 63l12 -53q-59 -72 -154 -136t-181 -65z" />
    <glyph glyph-name="uni01C7" unicode="&#x1c7;" horiz-adv-x="1720" 
d="M877 -424v80q197 121 239 348l217 1141q13 59 13 100t-25 64t-94 51l10 53h604l-10 -53q-96 -33 -135 -78t-56 -137l-194 -1022q-52 -281 -418 -474q-73 -40 -151 -73zM319 1232q0 46 -24 74q-25 28 -88 54l10 53h600l-10 -53q-94 -35 -134 -86t-59 -150l-190 -1003h143
q127 0 181 33t223 202h63l-108 -356h-979l10 53q98 35 133 79t57 157l160 835q12 62 12 108z" />
    <glyph glyph-name="uni01C8" unicode="&#x1c8;" horiz-adv-x="1646" 
d="M1505 1208q-63 0 -108 45t-45 109t45 108q45 46 108 46t109 -46t45 -108q0 -63 -45 -109q-46 -45 -109 -45zM1257 821q0 119 -174 -4l-12 53q59 72 151 136t181 63q143 0 143 -186q0 -61 -14 -131l-141 -752q-52 -284 -353 -430q-67 -33 -135 -51v49q125 61 184 362
l162 830q8 49 8 61zM319 1232q0 46 -24 74q-25 28 -88 54l10 53h600l-10 -53q-94 -35 -134 -86t-59 -150l-190 -1003h143q127 0 181 33t223 202h63l-108 -356h-979l10 53q98 35 133 79t57 157l160 835q12 62 12 108z" />
    <glyph glyph-name="uni01C9" unicode="&#x1c9;" horiz-adv-x="1183" 
d="M1042 1208q-63 0 -108 45t-45 109t45 108q45 46 108 46q62 0 108 -46t46 -108q0 -63 -45 -109q-46 -45 -109 -45zM940 1069q143 0 143 -186q0 -61 -14 -131l-141 -752q-52 -284 -353 -430q-67 -33 -135 -51v49q125 61 185 362l161 830q8 49 9 61q0 119 -174 -4l-13 53
q60 72 152 136t180 63zM211 -27q-143 0 -143 187q0 61 14 131l178 913q12 68 12 111t-24 60q-25 17 -101 40l9 45q256 20 430 84h37l-248 -1261q-8 -35 -8 -64q0 -55 42 -55t130 61l12 -53q-57 -70 -155 -134t-185 -65z" />
    <glyph glyph-name="uni01CA" unicode="&#x1ca;" horiz-adv-x="2334" 
d="M1960 1245q0 41 -25 64t-94 51l10 53h605l-11 -53q-96 -33 -135 -78t-55 -137l-195 -1022q-52 -281 -418 -474q-73 -40 -151 -73v80q197 121 240 348l217 1141q12 59 12 100zM324 1194q0 115 -146 166l10 53h486l577 -989l99 528q30 160 30 235t-26 109t-86 64l10 53h489
l-8 -53q-73 -29 -109 -61q-78 -70 -128 -347l-183 -962h-184l-672 1143l-127 -668q-55 -276 -3 -349q26 -36 87 -63l-10 -53h-489l8 53q98 39 148 120t91 292l134 694q2 12 2 35z" />
    <glyph glyph-name="uni01CB" unicode="&#x1cb;" horiz-adv-x="2242" 
d="M2101 1208q-63 0 -108 45t-45 109t45 108q45 46 108 46t109 -46t45 -108q0 -63 -45 -109q-46 -45 -109 -45zM1853 821q0 119 -174 -4l-12 53q59 72 151 136t181 63q143 0 143 -186q0 -61 -14 -131l-141 -752q-52 -284 -353 -430q-67 -33 -135 -51v49q125 61 184 362
l162 830q8 49 8 61zM324 1194q0 115 -146 166l10 53h486l577 -989l99 528q30 160 30 235t-26 109t-86 64l10 53h489l-8 -53q-73 -29 -109 -61q-78 -70 -128 -347l-183 -962h-184l-672 1143l-127 -668q-55 -276 -3 -349q26 -36 87 -63l-10 -53h-489l8 53q98 39 148 120
t91 292l134 694q2 12 2 35z" />
    <glyph glyph-name="uni01CC" unicode="&#x1cc;" horiz-adv-x="1783" 
d="M1642 1208q-63 0 -108 45t-45 109t45 108q45 46 108 46q62 0 108 -46t46 -108q0 -63 -45 -109q-46 -45 -109 -45zM1540 1069q143 0 143 -186q0 -61 -14 -131l-141 -752q-52 -282 -352 -430q-68 -33 -136 -51v49q125 61 185 362l161 830q8 49 9 61q0 119 -174 -4l-13 53
q60 72 152 136t180 63zM762 793q0 104 -88 104q-76 0 -168 -70q-2 -16 -6 -45l-150 -782h-287l150 760q8 49 8 63q0 55 -43 56q-47 0 -139 -66l-12 53q57 72 155 138t185 65q125 0 137 -158h10q51 47 90 76q38 29 102 55t125 27q111 0 166 -72t56 -182q0 -53 -13 -108
l-94 -424q-8 -35 -8 -64q0 -55 42 -55t130 61l12 -53q-59 -72 -151 -135t-180 -64q-143 0 -144 185q0 55 17 133l90 434q8 33 8 68z" />
    <glyph glyph-name="uni01CD" unicode="&#x1cd;" horiz-adv-x="1425" 
d="M971 1532h-154l-141 278h78l161 -108l238 108h78zM862 672l-61 569l-279 -569h340zM1350 0h-582l10 53q74 16 99 51t25 118t-21 284l-2 22h-426q-145 -303 -146 -385q0 -41 28 -57t89 -33l-10 -53h-520l10 53q98 25 171 117t226 397l426 846h334l133 -985
q30 -206 62 -278t100 -97z" />
    <glyph glyph-name="uni01CE" unicode="&#x1ce;" horiz-adv-x="1146" 
d="M786 1163h-153l-141 279h77l162 -109l238 109h78zM774 -25q-141 0 -141 189h-10q-139 -188 -293 -189q-119 -1 -199 101t-80 258q1 156 59 294q111 260 349 384q111 57 189 57t144 -14q66 -15 108 -15t134 29h43l-151 -784q-25 -119 32 -119q48 0 138 63l12 -53
q-58 -72 -154 -136t-180 -65zM645 950q-105 0 -201 -176t-96 -375q0 -231 144 -231q59 0 143 88l127 647q-61 47 -117 47z" />
    <glyph glyph-name="uni01CF" unicode="&#x1cf;" horiz-adv-x="698" 
d="M612 1532h-153l-142 278h78l162 -108l238 108h77zM555 0h-606l10 53q96 35 134 77t57 138l165 877q13 77 13 109t-25 55t-94 51l10 53h604l-10 -53q-96 -33 -135 -78t-55 -137l-166 -877q-13 -59 -13 -100t25 -64t94 -51z" />
    <glyph glyph-name="uni01D0" unicode="&#x1d0;" horiz-adv-x="622" 
d="M471 1163h-154l-141 279h78l162 -109l237 109h78zM223 819q0 121 -174 -2l-12 53q59 72 151 136t181 63q145 0 145 -184q0 -68 -16 -133l-107 -469q-8 -35 -8 -64q0 -55 42 -55t130 61l12 -53q-59 -72 -151 -135t-180 -64q-145 0 -146 183q0 57 19 135l106 469q8 31 8 59
z" />
    <glyph glyph-name="uni01D1" unicode="&#x1d1;" horiz-adv-x="1669" 
d="M1075 1532h-153l-142 278h78l162 -108l237 108h78zM1628 815q0 -225 -123 -422t-327 -311t-433 -113q-279 0 -463 166t-184 449q0 227 122 426q122 200 325 316t430 116q279 0 466 -172t187 -455zM764 90q129 0 235 77t172 198q136 249 136 516q0 203 -89 323t-252 119
q-163 0 -294 -138q-130 -137 -192 -319t-62 -366t92 -296q92 -114 254 -114z" />
    <glyph glyph-name="uni01D2" unicode="&#x1d2;" horiz-adv-x="1112" 
d="M741 1163h-153l-142 279h78l162 -109l238 109h77zM477 94q94 0 165 115t95 273t25 261q0 207 -131 207q-94 0 -164 -114t-95 -281q-25 -166 -26 -254q0 -207 131 -207zM472 -25q-190 0 -306 117q-115 117 -115 309q0 314 227 512q177 156 362 156t303 -115t118 -299
q0 -315 -225 -521q-174 -159 -364 -159z" />
    <glyph glyph-name="uni01D3" unicode="&#x1d3;" horiz-adv-x="1540" 
d="M1034 1532h-153l-142 278h78l162 -108l238 108h77zM1276 1176q0 84 -27 118t-92 66l10 53h508l-10 -53q-72 -29 -110 -61q-86 -72 -138 -347l-106 -555q-39 -203 -203 -315t-400 -113t-384 103q-150 104 -150 299q0 43 10 100l125 653q13 62 13 108t-25 74t-88 54l10 53
h600l-10 -53q-100 -35 -135 -79t-58 -157l-141 -739q-6 -29 -6 -55q0 -94 68 -148t217 -55q149 0 258 75q108 75 135 216l102 534q27 140 27 224z" />
    <glyph glyph-name="uni01D4" unicode="&#x1d4;" horiz-adv-x="1169" 
d="M721 1163h-154l-141 279h78l162 -109l237 109h78zM780 -25q-129 0 -139 156h-10q-92 -82 -164 -119t-148 -37q-111 0 -167 71t-56 181q0 55 13 111l98 424q8 33 8 65q0 113 -172 -8l-12 53q59 72 151 136t180 63q143 0 144 -182q0 -53 -17 -135l-94 -435q-8 -35 -8 -69
q0 -102 84 -102t172 67q4 49 10 78l146 751h286l-149 -759q-6 -37 -6 -64q0 -55 43 -55t133 63l12 -53q-57 -72 -153 -136t-185 -65z" />
    <glyph glyph-name="uni01D5" unicode="&#x1d5;" horiz-adv-x="1570" 
d="M1313 1892h-645v119h645v-119zM1274 1677q0 -57 -41 -97t-98 -40t-98 40q-40 40 -40 97t40 97q39 40 97 41q58 -1 99 -41t41 -97zM930 1677q0 -57 -41 -97t-98 -40t-98 40q-40 40 -40 97t40 97q39 40 97 41q58 -1 99 -41t41 -97zM1276 1176q0 84 -27 118t-92 66l10 53
h508l-10 -53q-72 -29 -110 -61q-86 -72 -138 -347l-106 -555q-39 -203 -203 -315t-400 -113t-384 103q-150 104 -150 299q0 43 10 100l125 653q13 62 13 108t-25 74t-88 54l10 53h600l-10 -53q-100 -35 -135 -79t-58 -157l-141 -739q-6 -29 -6 -55q0 -94 68 -148t217 -55
q149 0 258 75q108 75 135 216l102 534q27 140 27 224z" />
    <glyph glyph-name="uni01D6" unicode="&#x1d6;" horiz-adv-x="1169" 
d="M1051 1524h-645v118h645v-118zM997 1309q0 -57 -41 -97t-98 -41q-57 0 -97 40q-40 39 -40 97t40 98t97 40t98 -40t41 -97zM653 1309q0 -57 -41 -97t-98 -41q-57 0 -97 40q-40 39 -40 97t40 98t97 40t98 -40t41 -97zM780 -25q-129 0 -139 156h-10q-92 -82 -164 -119
t-148 -37q-111 0 -167 71t-56 181q0 55 13 111l98 424q8 33 8 65q0 113 -172 -8l-12 53q59 72 151 136t180 63q143 0 144 -182q0 -53 -17 -135l-94 -435q-8 -35 -8 -69q0 -102 84 -102t172 67q4 49 10 78l146 751h286l-149 -759q-6 -37 -6 -64q0 -55 43 -55t133 63l12 -53
q-57 -72 -153 -136t-185 -65z" />
    <glyph glyph-name="uni01D7" unicode="&#x1d7;" horiz-adv-x="1570" 
d="M1341 1987l-428 -154l-28 49l352 291zM1274 1677q0 -57 -41 -97t-98 -40t-98 40q-40 40 -40 97t40 97q39 40 97 41q58 -1 99 -41t41 -97zM930 1677q0 -57 -41 -97t-98 -40t-98 40q-40 40 -40 97t40 97q39 40 97 41q58 -1 99 -41t41 -97zM1276 1176q0 84 -27 118t-92 66
l10 53h508l-10 -53q-72 -29 -110 -61q-86 -72 -138 -347l-106 -555q-39 -203 -203 -315t-400 -113t-384 103q-150 104 -150 299q0 43 10 100l125 653q13 62 13 108t-25 74t-88 54l10 53h600l-10 -53q-100 -35 -135 -79t-58 -157l-141 -739q-6 -29 -6 -55q0 -94 68 -148
t217 -55q149 0 258 75q108 75 135 216l102 534q27 140 27 224z" />
    <glyph glyph-name="uni01D8" unicode="&#x1d8;" horiz-adv-x="1169" 
d="M1020 1638l-428 -153l-29 49l352 291zM979 1309q0 -57 -41 -97t-98 -41q-57 0 -98 40q-40 39 -40 97t40 98t98 40t98 -40q41 -40 41 -97zM635 1309q0 -57 -41 -97t-98 -41q-57 0 -98 40q-40 39 -40 97t40 98t98 40t98 -40q41 -40 41 -97zM780 -25q-129 0 -139 156h-10
q-92 -82 -164 -119t-148 -37q-111 0 -167 71t-56 181q0 55 13 111l98 424q8 33 8 65q0 113 -172 -8l-12 53q59 72 151 136t180 63q143 0 144 -182q0 -53 -17 -135l-94 -435q-8 -35 -8 -69q0 -102 84 -102t172 67q4 49 10 78l146 751h286l-149 -759q-6 -37 -6 -64
q0 -55 43 -55t133 63l12 -53q-57 -72 -153 -136t-185 -65z" />
    <glyph glyph-name="uni01D9" unicode="&#x1d9;" horiz-adv-x="1570" 
d="M1049 1860h-154l-141 278h77l162 -108l238 108h78zM1274 1677q0 -57 -41 -97t-98 -40t-98 40q-40 40 -40 97t40 97q39 40 97 41q58 -1 99 -41t41 -97zM930 1677q0 -57 -41 -97t-98 -40t-98 40q-40 40 -40 97t40 97q39 40 97 41q58 -1 99 -41t41 -97zM1276 1176
q0 84 -27 118t-92 66l10 53h508l-10 -53q-72 -29 -110 -61q-86 -72 -138 -347l-106 -555q-39 -203 -203 -315t-400 -113t-384 103q-150 104 -150 299q0 43 10 100l125 653q13 62 13 108t-25 74t-88 54l10 53h600l-10 -53q-100 -35 -135 -79t-58 -157l-141 -739
q-6 -29 -6 -55q0 -94 68 -148t217 -55q149 0 258 75q108 75 135 216l102 534q27 140 27 224z" />
    <glyph glyph-name="uni01DA" unicode="&#x1da;" horiz-adv-x="1169" 
d="M786 1491h-153l-141 278h77l162 -108l238 108h78zM1001 1309q0 -57 -40 -98q-41 -40 -99 -40t-97 40q-40 39 -40 97t40 98t97 40t98 -40t41 -97zM657 1309q0 -57 -41 -97t-98 -41q-57 0 -97 40q-40 39 -40 97t40 98t97 40t98 -40t41 -97zM780 -25q-129 0 -139 156h-10
q-92 -82 -164 -119t-148 -37q-111 0 -167 71t-56 181q0 55 13 111l98 424q8 33 8 65q0 113 -172 -8l-12 53q59 72 151 136t180 63q143 0 144 -182q0 -53 -17 -135l-94 -435q-8 -35 -8 -69q0 -102 84 -102t172 67q4 49 10 78l146 751h286l-149 -759q-6 -37 -6 -64
q0 -55 43 -55t133 63l12 -53q-57 -72 -153 -136t-185 -65z" />
    <glyph glyph-name="uni01DB" unicode="&#x1db;" horiz-adv-x="1570" 
d="M1067 1853l-428 154l104 186l353 -290zM1274 1677q0 -57 -41 -97t-98 -40t-98 40q-40 40 -40 97t40 97q39 40 97 41q58 -1 99 -41t41 -97zM930 1677q0 -57 -41 -97t-98 -40t-98 40q-40 40 -40 97t40 97q39 40 97 41q58 -1 99 -41t41 -97zM1276 1176q0 84 -27 118t-92 66
l10 53h508l-10 -53q-72 -29 -110 -61q-86 -72 -138 -347l-106 -555q-39 -203 -203 -315t-400 -113t-384 103q-150 104 -150 299q0 43 10 100l125 653q13 62 13 108t-25 74t-88 54l10 53h600l-10 -53q-100 -35 -135 -79t-58 -157l-141 -739q-6 -29 -6 -55q0 -94 68 -148
t217 -55q149 0 258 75q108 75 135 216l102 534q27 140 27 224z" />
    <glyph glyph-name="uni01DC" unicode="&#x1dc;" horiz-adv-x="1169" 
d="M846 1505l-428 154l104 186l352 -291zM1001 1309q0 -57 -40 -98q-41 -40 -99 -40t-97 40q-40 39 -40 97t40 98t97 40t98 -40t41 -97zM657 1309q0 -57 -41 -97t-98 -41q-57 0 -97 40q-40 39 -40 97t40 98t97 40t98 -40t41 -97zM780 -25q-129 0 -139 156h-10
q-92 -82 -164 -119t-148 -37q-111 0 -167 71t-56 181q0 55 13 111l98 424q8 33 8 65q0 113 -172 -8l-12 53q59 72 151 136t180 63q143 0 144 -182q0 -53 -17 -135l-94 -435q-8 -35 -8 -69q0 -102 84 -102t172 67q4 49 10 78l146 751h286l-149 -759q-6 -37 -6 -64
q0 -55 43 -55t133 63l12 -53q-57 -72 -153 -136t-185 -65z" />
    <glyph glyph-name="uni01DD" unicode="&#x1dd;" horiz-adv-x="995" 
d="M301 233q0 -63 26 -97t68 -34q84 0 159 116t95 286q-186 -4 -267 -83t-81 -188zM590 1069q170 0 262 -120t92 -306q0 -266 -171 -467t-408 -201q-139 0 -226 74q-86 74 -86 201q1 164 143 253t373 89q27 0 84 -4q0 124 -54 196t-165 72q-149 0 -272 -98l-37 39
q59 71 106 117t149 100t210 55z" />
    <glyph glyph-name="uni01DE" unicode="&#x1de;" horiz-adv-x="1425" 
d="M1280 1892h-645v119h645v-119zM1229 1677q0 -57 -41 -97t-98 -40t-98 40q-40 40 -40 97t40 97t98 41q58 -1 98 -41q41 -40 41 -97zM885 1677q0 -57 -41 -97q-40 -40 -98 -40t-98 40t-40 97t40 97t97 41q57 0 99 -40q41 -41 41 -98zM862 672l-61 569l-279 -569h340z
M1350 0h-582l10 53q74 16 99 51t25 118t-21 284l-2 22h-426q-145 -303 -146 -385q0 -41 28 -57t89 -33l-10 -53h-520l10 53q98 25 171 117t226 397l426 846h334l133 -985q30 -206 62 -278t100 -97z" />
    <glyph glyph-name="uni01DF" unicode="&#x1df;" horiz-adv-x="1146" 
d="M1079 1524h-645v118h645v-118zM1028 1309q0 -57 -41 -97t-98 -41q-57 0 -97 40q-40 39 -40 97t40 98t97 40t98 -40t41 -97zM684 1309q0 -57 -41 -97t-98 -41q-57 0 -98 40q-39 39 -39 97t39 98t97 40t99 -40t41 -97zM774 -25q-141 0 -141 189h-10q-139 -188 -293 -189
q-119 -1 -199 101t-80 258q1 156 59 294q111 260 349 384q111 57 189 57t144 -14q66 -15 108 -15t134 29h43l-151 -784q-25 -119 32 -119q48 0 138 63l12 -53q-58 -72 -154 -136t-180 -65zM645 950q-105 0 -201 -176t-96 -375q0 -231 144 -231q59 0 143 88l127 647
q-61 47 -117 47z" />
    <glyph glyph-name="uni01E0" unicode="&#x1e0;" horiz-adv-x="1425" 
d="M1182 1898h-512l22 109h512zM1071 1677q0 -63 -46 -108q-45 -45 -109 -45t-109 45t-45 108t45 109t108 45q63 0 110 -45q46 -46 46 -109zM862 672l-61 569l-279 -569h340zM1350 0h-582l10 53q74 16 99 51t25 118t-21 284l-2 22h-426q-145 -303 -146 -385q0 -41 28 -57
t89 -33l-10 -53h-520l10 53q98 25 171 117t226 397l426 846h334l133 -985q30 -206 62 -278t100 -97z" />
    <glyph glyph-name="uni01E1" unicode="&#x1e1;" horiz-adv-x="1146" 
d="M940 1530h-512l23 108h512zM834 1309q0 -63 -46 -109t-110 -45q-63 0 -109 45q-45 44 -45 108t45 109t109 45t110 -45t46 -108zM774 -25q-141 0 -141 189h-10q-139 -188 -293 -189q-119 -1 -199 101t-80 258q1 156 59 294q111 260 349 384q111 57 189 57t144 -14
q66 -15 108 -15t134 29h43l-151 -784q-25 -119 32 -119q48 0 138 63l12 -53q-58 -72 -154 -136t-180 -65zM645 950q-105 0 -201 -176t-96 -375q0 -231 144 -231q59 0 143 88l127 647q-61 47 -117 47z" />
    <glyph glyph-name="uni01E2" unicode="&#x1e2;" horiz-adv-x="1966" 
d="M1669 1626h-645v119h645v-119zM1016 631l133 676l-510 -676h377zM313 137q0 -35 31 -52t96 -32l-10 -53h-547l13 53q96 33 214 146t316 370l432 564q45 59 45 106t-38 73t-113 48l10 53h1216l-65 -303h-62q-80 135 -115 159q-36 24 -151 23h-141l-98 -510h172
q72 0 114 28t115 116h49l-76 -396h-47q-35 84 -69 111q-35 27 -109 27h-172l-106 -547h151q150 0 206 29t228 186h62l-107 -336h-1012l11 53q108 37 136 65t50 134l49 246h-450q-129 -172 -179 -249t-49 -112z" />
    <glyph glyph-name="uni01E3" unicode="&#x1e3;" horiz-adv-x="1599" 
d="M1290 1257h-645v119h645v-119zM1300 825q0 53 -26 85q-27 32 -74 32q-78 0 -154 -118t-94 -283q348 10 348 284zM645 950q-105 0 -201 -176t-96 -375q0 -231 144 -231q74 0 190 158q-2 25 -2 84t25 186l59 317q-47 37 -119 37zM51 334q1 156 59 294q111 260 349 384
q111 57 189 57t138 -14q58 -15 96 -15t91 29h43l-12 -63q110 63 240 63t217 -76t87 -180q0 -201 -165 -286t-435 -70q0 -125 54 -197t165 -72q150 1 273 99l37 -39q-221 -272 -453 -273q-256 0 -322 240q-164 -237 -384 -239q-108 0 -187 100q-80 102 -80 258z" />
    <glyph glyph-name="uni01E4" unicode="&#x1e4;" horiz-adv-x="1513" 
d="M1067 522q0 44 -25 72q-25 29 -88 55l11 56h544l-10 -56q-81 -35 -107 -67t-46 -142l-5 -18h181l-23 -119h-180l-45 -237q-283 -96 -518 -97q-289 0 -477 166t-189 455q0 358 283 605t674 247q129 0 263 -27t193 -55l-65 -342h-68q-61 162 -146 232t-216 71
q-178 0 -316 -118t-207 -288q-67 -169 -67 -371t104 -322t275 -120q96 0 202 31l31 170h-176l23 119h176q14 56 14 100z" />
    <glyph glyph-name="uni01E5" unicode="&#x1e5;" horiz-adv-x="948" 
d="M438 459q80 0 127 133q47 132 47 246t-80 114t-126 -133t-48 -247q0 -114 80 -113zM375 -268v118h198q-31 31 -96 50l-274 84q-66 -23 -105 -67t-39 -89q1 -70 91 -121t184 -51q185 0 252 76h-211zM1044 1008q0 -46 -32 -74q-32 -29 -73 -29q-40 0 -101 23
q53 -76 53 -166q0 -132 -79 -232t-184 -143t-210 -43q-39 0 -58 4q-59 -39 -59 -86q0 -39 59 -53l218 -57q140 -38 210 -98t70 -158q0 -16 -4 -46h166v-118h-217q-73 -100 -225 -156t-330 -57q-178 1 -304 75q-124 74 -124 176t84 167q84 66 202 96q-66 51 -66 115t62 128
q61 63 158 103q-182 92 -182 265t145 299t326 126q94 0 182 -47l29 -2q82 0 108 20q27 20 35 26t30 37q22 30 28 36q33 -7 64 -54q19 -31 19 -77z" />
    <glyph glyph-name="Gcaron" unicode="&#x1e6;" horiz-adv-x="1513" 
d="M1122 1532h-153l-142 278h78l162 -108l238 108h77zM1047 1442q129 0 263 -27t193 -55l-65 -342h-68q-61 162 -146 232t-216 71q-178 0 -316 -118t-207 -288q-67 -169 -67 -371t104 -322t275 -120q96 0 202 31l58 305q10 55 10 91q0 73 -113 120l11 56h544l-10 -56
q-81 -35 -107 -67t-46 -142l-72 -374q-283 -96 -518 -97q-289 0 -477 166t-189 455q0 358 283 605t674 247z" />
    <glyph glyph-name="gcaron" unicode="&#x1e7;" horiz-adv-x="948" 
d="M647 1163h-153l-142 279h78l162 -109l237 109h78zM438 459q80 0 127 133q47 132 47 246t-80 114t-126 -133t-48 -247q0 -114 80 -113zM59 -172q1 -70 91 -121t197 -51t184 36t77 93q0 76 -131 115l-274 84q-66 -23 -105 -67t-39 -89zM1044 1008q0 -46 -32 -74
q-32 -29 -73 -29q-40 0 -101 23q53 -76 53 -166q0 -132 -79 -232t-184 -143t-210 -43q-39 0 -58 4q-59 -39 -59 -86q0 -39 59 -53l218 -57q140 -38 210 -98t70 -168t-92 -195q-92 -88 -225 -130t-303 -42q-170 1 -294 75t-124 176t84 167q84 66 202 96q-66 51 -66 115
t62 128q61 63 158 103q-182 92 -182 265t145 299t326 126q94 0 182 -47l29 -2q82 0 108 20q27 20 35 26t30 37q22 30 28 36q33 -7 64 -54q19 -31 19 -77z" />
    <glyph glyph-name="uni01E8" unicode="&#x1e8;" horiz-adv-x="1454" 
d="M946 1532h-153l-142 278h78l162 -108l237 108h78zM858 147q0 49 -51 175l-129 319l-191 -176l-34 -197q-13 -70 -13 -106t25 -58q25 -23 94 -51l-8 -53h-606l10 53q96 35 134 77t56 138l166 877q13 71 13 107t-25 58t-94 50l10 53h604l-10 -53q-106 -37 -138 -72
t-53 -143l-90 -481l416 403q137 131 137 209q0 31 -25 48q-26 17 -81 36l10 53h598l-10 -53q-121 -43 -201 -96t-244 -205l-208 -195l233 -545q53 -123 99 -176t128 -90l-10 -53h-637l10 55q61 11 88 27t27 65z" />
    <glyph glyph-name="uni01E9" unicode="&#x1e9;" horiz-adv-x="1095" 
d="M811 1573h-154l-141 278h78l162 -108l237 108h78zM745 -27q-72 -1 -128 49t-76 160l-70 355q195 137 348 276q-55 51 -55 111t45 103q45 42 105 42t104 -39t45 -102q0 -64 -43 -110q-42 -46 -104 -91t-72 -52t-19 -13l-92 -68l90 -322q29 -109 99 -108q53 0 110 47
l27 -39q-168 -199 -314 -199zM293 1324q0 40 -22 60t-81 46l7 30q217 16 397 84h39l-299 -1544h-291l236 1208q14 76 14 116z" />
    <glyph glyph-name="uni01EA" unicode="&#x1ea;" horiz-adv-x="1669" 
d="M764 90q129 0 235 77t172 198q136 249 136 516q0 203 -89 323t-252 119q-163 0 -294 -138q-130 -137 -192 -319t-62 -366t92 -296q92 -114 254 -114zM477 -295q0 117 199 268q-252 19 -415 183t-163 410t122 444q122 200 325 316t430 116q279 0 466 -172t187 -455
q0 -225 -123 -422t-327 -311t-433 -113q-106 -127 -106 -231q0 -72 80 -72q27 0 43 6v-41q-18 -27 -60 -49t-96 -22q-53 0 -91 42t-38 103z" />
    <glyph glyph-name="uni01EB" unicode="&#x1eb;" horiz-adv-x="1112" 
d="M477 94q94 0 165 115t95 273t25 261q0 207 -131 207q-94 0 -164 -114t-95 -281q-25 -166 -26 -254q0 -207 131 -207zM215 -295q0 119 205 272q-162 12 -265 127t-104 297q0 314 227 512q177 156 362 156t303 -115t118 -299q0 -305 -214 -510q-163 -156 -362 -168
q-109 -137 -108 -239q0 -72 80 -72q27 0 43 6v-41q-18 -27 -60 -49t-96 -22t-92 42t-37 103z" />
    <glyph glyph-name="uni01EC" unicode="&#x1ec;" horiz-adv-x="1669" 
d="M1364 1626h-645v119h645v-119zM764 90q129 0 235 77t172 198q136 249 136 516q0 203 -89 323t-252 119q-163 0 -294 -138q-130 -137 -192 -319t-62 -366t92 -296q92 -114 254 -114zM477 -295q0 117 199 268q-252 19 -415 183t-163 410t122 444q122 200 325 316t430 116
q279 0 466 -172t187 -455q0 -225 -123 -422t-327 -311t-433 -113q-106 -127 -106 -231q0 -72 80 -72q27 0 43 6v-41q-18 -27 -60 -49t-96 -22q-53 0 -91 42t-38 103z" />
    <glyph glyph-name="uni01ED" unicode="&#x1ed;" horiz-adv-x="1112" 
d="M1036 1257h-645v119h645v-119zM477 94q94 0 165 115t95 273t25 261q0 207 -131 207q-94 0 -164 -114t-95 -281q-25 -166 -26 -254q0 -207 131 -207zM215 -295q0 119 205 272q-162 12 -265 127t-104 297q0 314 227 512q177 156 362 156t303 -115t118 -299
q0 -305 -214 -510q-163 -156 -362 -168q-109 -137 -108 -239q0 -72 80 -72q27 0 43 6v-41q-18 -27 -60 -49t-96 -22t-92 42t-37 103z" />
    <glyph glyph-name="uni01EE" unicode="&#x1ee;" horiz-adv-x="1071" 
d="M756 1532h-154l-141 278h78l161 -108l238 108h78zM1010 522q0 -156 -104 -286t-259 -199q-154 -68 -306 -68t-246 65q-93 65 -93 163q0 69 50 121t121 52t117 -43q46 -44 46 -108q0 -106 -113 -151q31 -10 105 -11q156 -1 260 103t104 260q0 124 -100 196t-232 82l9 35
l368 418h-495l49 262h813l-6 -33l-391 -428q127 -34 215 -154t88 -276z" />
    <glyph glyph-name="uni01EF" unicode="&#x1ef;" horiz-adv-x="942" 
d="M621 1163h-154l-141 279h77l162 -109l238 109h78zM825 154q0 -156 -104 -287t-258 -199t-306 -68t-246 65q-93 65 -93 163q0 70 50 122t121 52t117 -44t46 -108q0 -106 -113 -151q31 -10 104 -10q156 0 260 103t105 259q0 125 -100 197t-232 82l8 35l369 417h-496l49 262
h814l-7 -32l-391 -428q127 -35 215 -155q88 -119 88 -275z" />
    <glyph glyph-name="jcaron" unicode="&#x1f0;" horiz-adv-x="606" 
d="M455 1163h-154l-141 279h78l161 -109l238 109h78zM174 879q-43 0 -131 -62l-12 53q57 72 150 136t177 63q193 0 134 -317l-142 -752q-20 -109 -76 -198t-133 -144q-143 -103 -278 -139v49q125 61 184 362l162 830q25 119 -35 119z" />
    <glyph glyph-name="uni01F1" unicode="&#x1f1;" horiz-adv-x="2600" 
d="M2073 1280q-111 0 -156 -23t-217 -159h-70l103 315h974l-6 -33l-891 -1247h197q84 0 116 2t86 34t96 74t149 154h77l-114 -397h-1018l6 33l893 1247h-225zM596 121q274 0 445 204t171 490q0 215 -116 346q-117 131 -318 131h-131l-223 -1171h172zM578 0h-631l10 53
q94 33 132 77t56 142l166 873q13 59 13 100t-25 64t-92 51l10 53h588q329 0 533 -163t204 -445q0 -236 -138 -423q-138 -186 -356 -284t-470 -98z" />
    <glyph glyph-name="uni01F2" unicode="&#x1f2;" horiz-adv-x="2545" 
d="M1534 0v8l686 807h-266q-98 0 -127 -9t-80 -56h-51l63 294h813v-8l-678 -813h76q330 3 395 46q33 22 80 83h68q-14 -28 -51 -136t-75 -172t-85 -64t-333 10t-435 10zM596 121q274 0 445 204t171 490q0 215 -116 346q-117 131 -318 131h-131l-223 -1171h172zM578 0h-631
l10 53q94 33 132 77t56 142l166 873q13 59 13 100t-25 64t-92 51l10 53h588q329 0 533 -163t204 -445q0 -236 -138 -423q-138 -186 -356 -284t-470 -98z" />
    <glyph glyph-name="uni01F3" unicode="&#x1f3;" horiz-adv-x="2097" 
d="M1085 0v8l687 807h-267q-98 0 -127 -9t-80 -56h-51l64 294h813v-8l-678 -813h76q328 3 395 46q33 22 80 83h67q-14 -28 -51 -136t-75 -172t-85 -64t-333 10t-435 10zM664 950q-119 0 -214 -166t-96 -370q0 -117 35 -182q35 -64 98 -64t144 68l26 20l127 649
q-53 45 -120 45zM793 -25q-133 0 -134 191h-12q-88 -92 -161 -141t-154 -50q-117 1 -199 103t-82 274q0 283 210 500t437 217q57 0 115 -14l29 153q10 56 10 102t-24 64t-101 41l8 45q240 18 416 84h39l-244 -1251q-8 -49 -8 -68q0 -59 44 -59t134 63l12 -53
q-59 -72 -154 -136t-181 -65z" />
    <glyph glyph-name="uni01F4" unicode="&#x1f4;" horiz-adv-x="1513" 
d="M1370 1675l-428 -153l-22 41l346 299zM1047 1442q129 0 263 -27t193 -55l-65 -342h-68q-61 162 -146 232t-216 71q-178 0 -316 -118t-207 -288q-67 -169 -67 -371t104 -322t275 -120q96 0 202 31l58 305q10 55 10 91q0 73 -113 120l11 56h544l-10 -56q-81 -35 -107 -67
t-46 -142l-72 -374q-283 -96 -518 -97q-289 0 -477 166t-189 455q0 358 283 605t674 247z" />
    <glyph glyph-name="uni01F5" unicode="&#x1f5;" horiz-adv-x="948" 
d="M915 1307l-428 -154l-28 49l352 291zM438 459q80 0 127 133q47 132 47 246t-80 114t-126 -133t-48 -247q0 -114 80 -113zM59 -172q1 -70 91 -121t197 -51t184 36t77 93q0 76 -131 115l-274 84q-66 -23 -105 -67t-39 -89zM1044 1008q0 -46 -32 -74q-32 -29 -73 -29
q-40 0 -101 23q53 -76 53 -166q0 -132 -79 -232t-184 -143t-210 -43q-39 0 -58 4q-59 -39 -59 -86q0 -39 59 -53l218 -57q140 -38 210 -98t70 -168t-92 -195q-92 -88 -225 -130t-303 -42q-170 1 -294 75t-124 176t84 167q84 66 202 96q-66 51 -66 115t62 128q61 63 158 103
q-182 92 -182 265t145 299t326 126q94 0 182 -47l29 -2q82 0 108 20q27 20 35 26t30 37q22 30 28 36q33 -7 64 -54q19 -31 19 -77z" />
    <glyph glyph-name="uni01F6" unicode="&#x1f6;" horiz-adv-x="2172" 
d="M1792 883q0 27 -4 40q-8 28 -96 68l10 53h539l-11 -53q-86 -35 -116 -69t-50 -127l-94 -498q-29 -152 -170 -236t-351 -84t-325 72t-114 199q0 31 4 49l67 356h-555l-73 -381q-13 -59 -13 -101t25 -66t92 -52l-8 -53h-602l10 53q94 33 132 77t56 142l166 873
q13 59 13 100t-25 64t-92 51l10 53h600l-10 -53q-94 -33 -133 -77t-56 -138l-65 -352h557l66 352q12 77 12 109t-25 54t-94 50l12 55h600l-10 -53q-92 -35 -131 -79t-57 -136l-158 -834q-8 -39 -8 -91t37 -85t119 -33q165 1 210 185l97 508q12 61 12 88z" />
    <glyph glyph-name="uni01F7" unicode="&#x1f7;" horiz-adv-x="1296" 
d="M1022 1157q0 164 -129 164q-45 0 -120 -42t-132 -103h2l-205 -1070q221 170 371 421t201 513q12 66 12 117zM1016 1442q164 0 248 -79t84 -231t-117 -358q-74 -129 -161 -231q-214 -251 -652 -543h2l-58 -305l-493 -156l12 68l33 14q76 37 112 78t48 102l245 1291
q20 115 11 142t-57 51q-13 7 -52 24l10 51q248 18 437 82h24l-26 -144q74 56 175 100t175 44z" />
    <glyph glyph-name="uni01F8" unicode="&#x1f8;" horiz-adv-x="1636" 
d="M1139 1522l-428 153l104 187l346 -299zM324 1194q0 115 -146 166l10 53h486l577 -989l99 528q30 160 30 235t-26 109t-86 64l10 53h489l-8 -53q-73 -29 -109 -61q-78 -70 -128 -347l-183 -962h-184l-672 1143l-127 -668q-55 -276 -3 -349q26 -36 87 -63l-10 -53h-489
l8 53q98 39 148 120t91 292l134 694q2 12 2 35z" />
    <glyph glyph-name="uni01F9" unicode="&#x1f9;" horiz-adv-x="1177" 
d="M862 1153l-428 154l105 186l352 -291zM762 793q0 104 -88 104q-76 0 -168 -70q-2 -16 -6 -45l-150 -782h-287l150 760q8 49 8 63q0 55 -43 56q-47 0 -139 -66l-12 53q57 72 155 138t185 65q125 0 137 -158h10q51 47 90 76q38 29 102 55t125 27q111 0 166 -72t56 -182
q0 -53 -13 -108l-94 -424q-8 -35 -8 -64q0 -55 42 -55t130 61l12 -53q-59 -72 -151 -135t-180 -64q-143 0 -144 185q0 55 17 133l90 434q8 33 8 68z" />
    <glyph glyph-name="Aringacute" unicode="&#x1fa;" horiz-adv-x="1425" 
d="M1286 1966l-428 -154l-29 50l353 290zM897 1384q51 0 88 38t37 91t-37 91t-88 38t-88 -38t-37 -90q0 -54 37 -92t88 -38zM862 672l-61 569l-279 -569h340zM897 1782q113 0 193 -78t80 -197t-95 -198l119 -881q30 -206 62 -278t100 -97l-6 -53h-582l10 53q74 16 99 51
t25 118t-21 284l-2 22h-426q-145 -303 -146 -385q0 -41 28 -57t89 -33l-10 -53h-520l10 53q98 25 171 117t226 397l387 770q-66 75 -66 181t81 185t194 79z" />
    <glyph glyph-name="aringacute" unicode="&#x1fb;" horiz-adv-x="1146" 
d="M1094 1761l-428 -153l-29 49l352 291zM694 1243q49 0 84 37t35 86t-35 86t-84 37t-84 -37t-35 -86t35 -86t84 -37zM907 1366q0 -86 -63 -147q-64 -61 -150 -61t-149 60q-63 62 -64 148t63 147t150 61t150 -60q64 -62 63 -148zM774 -25q-141 0 -141 189h-10
q-139 -188 -293 -189q-119 -1 -199 101t-80 258q1 156 59 294q111 260 349 384q111 57 189 57t144 -14q66 -15 108 -15t134 29h43l-151 -784q-25 -119 32 -119q48 0 138 63l12 -53q-58 -72 -154 -136t-180 -65zM645 950q-105 0 -201 -176t-96 -375q0 -231 144 -231
q59 0 143 88l127 647q-61 47 -117 47z" />
    <glyph glyph-name="AEacute" unicode="&#x1fc;" horiz-adv-x="1966" 
d="M1659 1675l-428 -153l-23 41l346 299zM1016 631l133 676l-510 -676h377zM313 137q0 -35 31 -52t96 -32l-10 -53h-547l13 53q96 33 214 146t316 370l432 564q45 59 45 106t-38 73t-113 48l10 53h1216l-65 -303h-62q-80 135 -115 159q-36 24 -151 23h-141l-98 -510h172
q72 0 114 28t115 116h49l-76 -396h-47q-35 84 -69 111q-35 27 -109 27h-172l-106 -547h151q150 0 206 29t228 186h62l-107 -336h-1012l11 53q108 37 136 65t50 134l49 246h-450q-129 -172 -179 -249t-49 -112z" />
    <glyph glyph-name="aeacute" unicode="&#x1fd;" horiz-adv-x="1599" 
d="M1262 1307l-428 -154l-29 49l352 291zM1300 825q0 53 -26 85q-27 32 -74 32q-78 0 -154 -118t-94 -283q348 10 348 284zM645 950q-105 0 -201 -176t-96 -375q0 -231 144 -231q74 0 190 158q-2 25 -2 84t25 186l59 317q-47 37 -119 37zM51 334q1 156 59 294
q111 260 349 384q111 57 189 57t138 -14q58 -15 96 -15t91 29h43l-12 -63q110 63 240 63t217 -76t87 -180q0 -201 -165 -286t-435 -70q0 -125 54 -197t165 -72q150 1 273 99l37 -39q-221 -272 -453 -273q-256 0 -322 240q-164 -237 -384 -239q-108 0 -187 100
q-80 102 -80 258z" />
    <glyph glyph-name="Oslashacute" unicode="&#x1fe;" horiz-adv-x="1669" 
d="M1309 1675l-428 -153l-23 41l346 299zM762 90q133 0 239 77q194 141 273 453q35 134 35 261t-39 227l-729 -936q88 -82 221 -82zM964 1323q-158 0 -290 -138q-130 -137 -192 -319t-62 -338t51 -262l741 944q-90 113 -248 113zM100 582q0 227 122 427q122 201 325 317
t413 116t365 -86l109 137l90 -59l-109 -142q215 -178 215 -477q0 -225 -123 -422t-327 -311t-432 -113q-166 0 -314 66l-96 -125l-92 70l90 114q-236 170 -236 488z" />
    <glyph glyph-name="oslashacute" unicode="&#x1ff;" horiz-adv-x="1112" 
d="M956 1307l-428 -154l-28 49l352 291zM760 676l-400 -483q29 -98 119 -99q186 0 262 428q17 86 19 154zM631 950q-188 0 -262 -428q-23 -123 -23 -205l410 494q-20 139 -125 139zM51 403q0 57 10 119q47 244 221 396t369 151q145 0 252 -82l107 129l77 -47l-118 -143
q92 -113 92 -281q0 -45 -12 -123q-45 -238 -217 -392t-373 -155q-129 0 -228 64l-92 -111l-78 47l101 121q-111 117 -111 307z" />
    <glyph glyph-name="uni0200" unicode="&#x200;" horiz-adv-x="1425" 
d="M1057 1565h-62q-109 145 -164 274h183zM788 1565h-61q-106 143 -166 274h184zM862 672l-61 569l-279 -569h340zM1350 0h-582l10 53q74 16 99 51t25 118t-21 284l-2 22h-426q-145 -303 -146 -385q0 -41 28 -57t89 -33l-10 -53h-520l10 53q98 25 171 117t226 397l426 846
h334l133 -985q30 -206 62 -278t100 -97z" />
    <glyph glyph-name="uni0201" unicode="&#x201;" horiz-adv-x="1146" 
d="M940 1196h-61q-109 145 -164 274h182zM672 1196h-62q-106 143 -166 274h185zM774 -25q-141 0 -141 189h-10q-139 -188 -293 -189q-119 -1 -199 101t-80 258q1 156 59 294q111 260 349 384q111 57 189 57t144 -14q66 -15 108 -15t134 29h43l-151 -784q-25 -119 32 -119
q48 0 138 63l12 -53q-58 -72 -154 -136t-180 -65zM645 950q-105 0 -201 -176t-96 -375q0 -231 144 -231q59 0 143 88l127 647q-61 47 -117 47z" />
    <glyph glyph-name="uni0202" unicode="&#x202;" horiz-adv-x="1425" 
d="M900 1651q-158 0 -230 -123h-78q41 131 130 207q89 75 199 75t176 -76t56 -206h-70q-25 123 -183 123zM862 672l-61 569l-279 -569h340zM1350 0h-582l10 53q74 16 99 51t25 118t-21 284l-2 22h-426q-145 -303 -146 -385q0 -41 28 -57t89 -33l-10 -53h-520l10 53
q98 25 171 117t226 397l426 846h334l133 -985q30 -206 62 -278t100 -97z" />
    <glyph glyph-name="uni0203" unicode="&#x203;" horiz-adv-x="1146" 
d="M758 1282q-158 0 -230 -123h-77q41 131 130 207t199 76t176 -77t56 -206h-70q-26 123 -184 123zM774 -25q-141 0 -141 189h-10q-139 -188 -293 -189q-119 -1 -199 101t-80 258q1 156 59 294q111 260 349 384q111 57 189 57t144 -14q66 -15 108 -15t134 29h43l-151 -784
q-25 -119 32 -119q48 0 138 63l12 -53q-58 -72 -154 -136t-180 -65zM645 950q-105 0 -201 -176t-96 -375q0 -231 144 -231q59 0 143 88l127 647q-61 47 -117 47z" />
    <glyph glyph-name="uni0204" unicode="&#x204;" horiz-adv-x="1163" 
d="M934 1565h-62q-109 145 -163 274h182zM666 1565h-62q-106 143 -166 274h185zM717 782q67 0 109 28t112 116h53l-73 -396h-54q-33 84 -66 111q-34 27 -104 27h-166l-104 -547h145q141 0 199 30t225 185h64l-103 -336h-1007l10 53q98 35 132 71t52 128l174 913
q13 73 13 103t-26 48t-95 44l10 53h952l-57 -303h-63q-61 129 -103 156t-155 26h-144l-96 -510h166z" />
    <glyph glyph-name="uni0205" unicode="&#x205;" horiz-adv-x="995" 
d="M831 1196h-61q-109 145 -164 274h182zM563 1196h-61q-106 143 -166 274h184zM696 811q0 63 -25 97q-26 34 -69 34q-84 0 -159 -116t-95 -285q186 4 267 83t81 187zM53 401q0 266 171 467t409 201q139 0 225 -74t86 -200q0 -164 -142 -253t-374 -89q-27 0 -84 4
q0 -125 54 -197t165 -72q150 1 273 99l36 -39q-59 -70 -106 -117q-48 -47 -150 -101t-208 -55q-170 0 -263 120q-92 120 -92 306z" />
    <glyph glyph-name="uni0206" unicode="&#x206;" horiz-adv-x="1163" 
d="M764 1651q-158 0 -229 -123h-78q41 131 130 207q89 75 199 75t176 -76q66 -77 56 -206h-70q-26 123 -184 123zM717 782q67 0 109 28t112 116h53l-73 -396h-54q-33 84 -66 111q-34 27 -104 27h-166l-104 -547h145q141 0 199 30t225 185h64l-103 -336h-1007l10 53
q98 35 132 71t52 128l174 913q13 73 13 103t-26 48t-95 44l10 53h952l-57 -303h-63q-61 129 -103 156t-155 26h-144l-96 -510h166z" />
    <glyph glyph-name="uni0207" unicode="&#x207;" horiz-adv-x="995" 
d="M660 1282q-159 0 -230 -123h-78q41 131 130 207t199 76t176 -77t56 -206h-69q-25 123 -184 123zM696 811q0 63 -25 97q-26 34 -69 34q-84 0 -159 -116t-95 -285q186 4 267 83t81 187zM53 401q0 266 171 467t409 201q139 0 225 -74t86 -200q0 -164 -142 -253t-374 -89
q-27 0 -84 4q0 -125 54 -197t165 -72q150 1 273 99l36 -39q-59 -70 -106 -117q-48 -47 -150 -101t-208 -55q-170 0 -263 120q-92 120 -92 306z" />
    <glyph glyph-name="uni0208" unicode="&#x208;" horiz-adv-x="698" 
d="M723 1565h-61q-109 145 -164 274h182zM455 1565h-62q-106 143 -166 274h185zM555 0h-606l10 53q96 35 134 77t57 138l165 877q13 77 13 109t-25 55t-94 51l10 53h604l-10 -53q-96 -33 -135 -78t-55 -137l-166 -877q-13 -59 -13 -100t25 -64t94 -51z" />
    <glyph glyph-name="uni0209" unicode="&#x209;" horiz-adv-x="622" 
d="M612 1196h-61q-109 145 -164 274h182zM344 1196h-61q-106 143 -166 274h184zM223 819q0 121 -174 -2l-12 53q59 72 151 136t181 63q145 0 145 -184q0 -68 -16 -133l-107 -469q-8 -35 -8 -64q0 -55 42 -55t130 61l12 -53q-59 -72 -151 -135t-180 -64q-145 0 -146 183
q0 57 19 135l106 469q8 31 8 59z" />
    <glyph glyph-name="uni020A" unicode="&#x20a;" horiz-adv-x="698" 
d="M582 1651q-158 0 -230 -123h-78q41 131 130 207q89 75 199 75q111 0 177 -76t56 -206h-70q-26 123 -184 123zM555 0h-606l10 53q96 35 134 77t57 138l165 877q13 77 13 109t-25 55t-94 51l10 53h604l-10 -53q-96 -33 -135 -78t-55 -137l-166 -877q-13 -59 -13 -100
t25 -64t94 -51z" />
    <glyph glyph-name="uni020B" unicode="&#x20b;" horiz-adv-x="622" 
d="M432 1282q-158 0 -229 -123h-78q41 131 130 207t199 76t176 -77t56 -206h-70q-26 123 -184 123zM223 819q0 121 -174 -2l-12 53q59 72 151 136t181 63q145 0 145 -184q0 -68 -16 -133l-107 -469q-8 -35 -8 -64q0 -55 42 -55t130 61l12 -53q-59 -72 -151 -135t-180 -64
q-145 0 -146 183q0 57 19 135l106 469q8 31 8 59z" />
    <glyph glyph-name="uni020C" unicode="&#x20c;" horiz-adv-x="1669" 
d="M1210 1565h-61q-109 145 -164 274h182zM942 1565h-61q-106 143 -166 274h184zM1628 815q0 -225 -123 -422t-327 -311t-433 -113q-279 0 -463 166t-184 449q0 227 122 426q122 200 325 316t430 116q279 0 466 -172t187 -455zM764 90q129 0 235 77t172 198q136 249 136 516
q0 203 -89 323t-252 119q-163 0 -294 -138q-130 -137 -192 -319t-62 -366t92 -296q92 -114 254 -114z" />
    <glyph glyph-name="uni020D" unicode="&#x20d;" horiz-adv-x="1112" 
d="M889 1196h-62q-109 145 -163 274h182zM621 1196h-62q-106 143 -166 274h185zM477 94q94 0 165 115t95 273t25 261q0 207 -131 207q-94 0 -164 -114t-95 -281q-25 -166 -26 -254q0 -207 131 -207zM472 -25q-190 0 -306 117q-115 117 -115 309q0 314 227 512
q177 156 362 156t303 -115t118 -299q0 -315 -225 -521q-174 -159 -364 -159z" />
    <glyph glyph-name="uni020E" unicode="&#x20e;" horiz-adv-x="1669" 
d="M1035 1651q-159 0 -230 -123h-78q41 131 130 207q89 75 199 75t176 -76t56 -206h-69q-25 123 -184 123zM1628 815q0 -225 -123 -422t-327 -311t-433 -113q-279 0 -463 166t-184 449q0 227 122 426q122 200 325 316t430 116q279 0 466 -172t187 -455zM764 90q129 0 235 77
t172 198q136 249 136 516q0 203 -89 323t-252 119q-163 0 -294 -138q-130 -137 -192 -319t-62 -366t92 -296q92 -114 254 -114z" />
    <glyph glyph-name="uni020F" unicode="&#x20f;" horiz-adv-x="1112" 
d="M705 1282q-159 0 -230 -123h-78q41 131 130 207t199 76t176 -77t56 -206h-69q-25 123 -184 123zM477 94q94 0 165 115t95 273t25 261q0 207 -131 207q-94 0 -164 -114t-95 -281q-25 -166 -26 -254q0 -207 131 -207zM472 -25q-190 0 -306 117q-115 117 -115 309
q0 314 227 512q177 156 362 156t303 -115t118 -299q0 -315 -225 -521q-174 -159 -364 -159z" />
    <glyph glyph-name="uni0210" unicode="&#x210;" horiz-adv-x="1316" 
d="M961 1565h-62q-109 145 -164 274h183zM692 1565h-61q-106 143 -166 274h184zM1100 0q-178 0 -234 36q-55 36 -106 167l-166 411h-76l-65 -342q-13 -59 -13 -101t25 -66t94 -52l-8 -53h-602l10 53q102 35 134 72t52 147l168 873q13 59 13 99t-25 64t-92 52l10 53h533
q262 0 393 -90t131 -256q0 -293 -406 -397q51 -100 150 -305t127 -236q52 -56 123 -76l-10 -53h-160zM598 729q156 0 260 92t105 240q-1 111 -61 171t-173 60h-82l-106 -563h57z" />
    <glyph glyph-name="uni0211" unicode="&#x211;" horiz-adv-x="843" 
d="M721 1196h-62q-109 145 -163 274h182zM453 1196h-62q-106 143 -166 274h185zM178 879q-45 0 -135 -64l-12 53q57 72 153 137t183 64q133 0 143 -166q94 166 233 166q68 0 105 -42q37 -43 37 -109t-44 -110q-43 -44 -95 -44q-88 0 -113 52q-24 52 -47 52q-35 0 -71 -72
q-22 -44 -34 -114l-131 -682h-287l150 760q25 119 -35 119z" />
    <glyph glyph-name="uni0212" unicode="&#x212;" horiz-adv-x="1316" 
d="M818 1651q-158 0 -230 -123h-78q41 131 130 207q89 75 199 75t176 -76t56 -206h-70q-25 123 -183 123zM1100 0q-178 0 -234 36q-55 36 -106 167l-166 411h-76l-65 -342q-13 -59 -13 -101t25 -66t94 -52l-8 -53h-602l10 53q102 35 134 72t52 147l168 873q13 59 13 99
t-25 64t-92 52l10 53h533q262 0 393 -90t131 -256q0 -293 -406 -397q51 -100 150 -305t127 -236q52 -56 123 -76l-10 -53h-160zM598 729q156 0 260 92t105 240q-1 111 -61 171t-173 60h-82l-106 -563h57z" />
    <glyph glyph-name="uni0213" unicode="&#x213;" horiz-adv-x="843" 
d="M552 1282q-158 0 -230 -123h-78q41 131 130 207q88 76 198 76t176 -77t57 -206h-70q-25 123 -183 123zM178 879q-45 0 -135 -64l-12 53q57 72 153 137t183 64q133 0 143 -166q94 166 233 166q68 0 105 -42q37 -43 37 -109t-44 -110q-43 -44 -95 -44q-88 0 -113 52
q-24 52 -47 52q-35 0 -71 -72q-22 -44 -34 -114l-131 -682h-287l150 760q25 119 -35 119z" />
    <glyph glyph-name="uni0214" unicode="&#x214;" horiz-adv-x="1540" 
d="M1130 1565h-61q-109 145 -164 274h182zM862 1565h-61q-106 143 -166 274h184zM1276 1176q0 84 -27 118t-92 66l10 53h508l-10 -53q-72 -29 -110 -61q-86 -72 -138 -347l-106 -555q-39 -203 -203 -315t-400 -113t-384 103q-150 104 -150 299q0 43 10 100l125 653
q13 62 13 108t-25 74t-88 54l10 53h600l-10 -53q-100 -35 -135 -79t-58 -157l-141 -739q-6 -29 -6 -55q0 -94 68 -148t217 -55q149 0 258 75q108 75 135 216l102 534q27 140 27 224z" />
    <glyph glyph-name="uni0215" unicode="&#x215;" horiz-adv-x="1169" 
d="M899 1196h-61q-109 145 -164 274h182zM631 1196h-62q-106 143 -166 274h185zM780 -25q-129 0 -139 156h-10q-92 -82 -164 -119t-148 -37q-111 0 -167 71t-56 181q0 55 13 111l98 424q8 33 8 65q0 113 -172 -8l-12 53q59 72 151 136t180 63q143 0 144 -182q0 -53 -17 -135
l-94 -435q-8 -35 -8 -69q0 -102 84 -102t172 67q4 49 10 78l146 751h286l-149 -759q-6 -37 -6 -64q0 -55 43 -55t133 63l12 -53q-57 -72 -153 -136t-185 -65z" />
    <glyph glyph-name="uni0216" unicode="&#x216;" horiz-adv-x="1540" 
d="M996 1651q-159 0 -230 -123h-78q41 131 130 207q89 75 199 75t176 -76t56 -206h-69q-25 123 -184 123zM1276 1176q0 84 -27 118t-92 66l10 53h508l-10 -53q-72 -29 -110 -61q-86 -72 -138 -347l-106 -555q-39 -203 -203 -315t-400 -113t-384 103q-150 104 -150 299
q0 43 10 100l125 653q13 62 13 108t-25 74t-88 54l10 53h600l-10 -53q-100 -35 -135 -79t-58 -157l-141 -739q-6 -29 -6 -55q0 -94 68 -148t217 -55q149 0 258 75q108 75 135 216l102 534q27 140 27 224z" />
    <glyph glyph-name="uni0217" unicode="&#x217;" horiz-adv-x="1169" 
d="M682 1282q-158 0 -229 -123h-78q41 131 130 207t199 76t176 -77t56 -206h-70q-26 123 -184 123zM780 -25q-129 0 -139 156h-10q-92 -82 -164 -119t-148 -37q-111 0 -167 71t-56 181q0 55 13 111l98 424q8 33 8 65q0 113 -172 -8l-12 53q59 72 151 136t180 63
q143 0 144 -182q0 -53 -17 -135l-94 -435q-8 -35 -8 -69q0 -102 84 -102t172 67q4 49 10 78l146 751h286l-149 -759q-6 -37 -6 -64q0 -55 43 -55t133 63l12 -53q-57 -72 -153 -136t-185 -65z" />
    <glyph glyph-name="Scommaaccent" unicode="&#x218;" horiz-adv-x="1046" 
d="M291 -188q0 42 36 77t91 35t92 -39t37 -92q-1 -174 -316 -317l-24 35q45 37 64 55q53 50 55 106q0 23 -18 61q-17 37 -17 79zM432 90q98 0 162 56q63 56 63 138q0 139 -165 288q-70 62 -140 129t-118 154t-48 183q0 180 148 292t344 112q194 0 379 -84l-49 -258h-86
q-54 123 -114 173t-145 50t-139 -50t-53 -128q0 -78 49 -148t119 -128q71 -58 139 -121q68 -64 117 -152t49 -190q0 -193 -152 -315t-372 -122q-104 1 -228 27t-186 67l64 328h88q51 -153 114 -227q62 -74 160 -74z" />
    </font>
</defs>
</svg>
